<?xml version="1.0" encoding="UTF-8"?>
<svg xmlns="http://www.w3.org/2000/svg" xmlns:xlink="http://www.w3.org/1999/xlink" width="142pt" height="142pt" viewBox="0 0 142 142" version="1.2">
<defs>
<clipPath id="clip1">
  <path d="M 0 0.269531 L 141.730469 0.269531 L 141.730469 142 L 0 142 Z M 0 0.269531 "/>
</clipPath>
</defs>
<g id="surface1">
<path style=" stroke:none;fill-rule:evenodd;fill:rgb(45.489502%,0%,1.176453%);fill-opacity:1;" d="M 109.246094 31.59375 C 109.375 31.71875 109.539062 31.757812 109.742188 31.71875 C 110.449219 31.636719 110.859375 30.1875 111.683594 30.683594 C 112.140625 31.054688 112.140625 31.839844 112.179688 32.296875 C 112.179688 32.875 111.808594 33.164062 110.363281 33.410156 C 110.28125 33.453125 110.238281 33.410156 109.992188 33.660156 C 109.785156 33.988281 110.363281 34.320312 109.785156 34.816406 C 109.496094 35.066406 110.691406 36.015625 110.777344 36.179688 C 110.859375 36.386719 111.148438 36.222656 111.105469 35.894531 C 111.066406 35.808594 111.023438 35.476562 110.898438 35.191406 C 110.734375 34.691406 110.484375 34.15625 110.609375 33.949219 C 110.734375 33.660156 111.230469 33.949219 111.769531 34.320312 C 112.179688 34.609375 112.96875 34.609375 113.214844 34.980469 C 113.503906 35.355469 113.75 35.519531 113.378906 37.007812 C 113.296875 37.253906 112.84375 37.417969 112.429688 37.542969 C 111.769531 37.792969 111.394531 38.164062 110.734375 38.414062 C 110.363281 38.578125 109.453125 38.910156 109.246094 39.15625 L 109.246094 36.59375 C 109.375 36.675781 109.496094 36.71875 109.621094 36.71875 C 109.742188 36.675781 109.910156 36.46875 109.867188 36.347656 C 109.699219 36.097656 109.453125 35.847656 109.246094 35.683594 Z M 109.246094 39.320312 L 109.289062 39.320312 C 110.609375 39.941406 110.898438 40.273438 111.105469 41.304688 C 111.269531 42.171875 111.558594 42.789062 110.859375 43.289062 C 110.238281 43.535156 109.742188 43.371094 109.246094 43.082031 Z M 107.304688 29.855469 C 107.347656 29.898438 107.386719 29.941406 107.386719 29.980469 C 107.511719 30.269531 107.800781 29.898438 108.007812 29.980469 C 108.421875 30.105469 108.792969 30.433594 108.832031 30.726562 C 108.917969 31.054688 109.042969 31.425781 109.246094 31.59375 L 109.246094 35.683594 C 109.164062 35.644531 109.125 35.601562 109.082031 35.558594 C 108.832031 35.4375 108.753906 35.726562 108.667969 35.894531 C 108.628906 36.015625 108.753906 36.222656 108.957031 36.304688 C 109.082031 36.429688 109.164062 36.511719 109.246094 36.59375 L 109.246094 39.15625 C 109.207031 39.199219 109.207031 39.28125 109.246094 39.320312 L 109.246094 43.082031 C 108.667969 42.671875 108.089844 42.050781 107.304688 41.679688 L 107.304688 40.3125 C 107.429688 40.351562 107.511719 40.4375 107.59375 40.476562 C 107.84375 40.644531 108.171875 40.476562 108.089844 40.230469 C 108.089844 40.148438 107.761719 39.941406 107.304688 39.613281 L 107.304688 37.628906 C 107.386719 37.667969 107.429688 37.710938 107.511719 37.710938 C 107.636719 37.667969 107.84375 37.710938 107.84375 37.503906 C 107.800781 37.378906 107.800781 37.296875 107.59375 37.214844 C 107.472656 37.132812 107.386719 37.132812 107.304688 37.214844 L 107.304688 34.773438 C 107.429688 34.773438 107.472656 34.734375 107.511719 34.691406 C 107.761719 34.484375 107.84375 34.40625 107.59375 34.277344 C 107.554688 34.320312 107.511719 34.238281 107.304688 34.320312 L 107.304688 32.378906 C 107.59375 31.964844 107.636719 31.59375 107.304688 31.347656 Z M 105.777344 29.648438 C 105.941406 29.320312 106.105469 29.074219 106.3125 29.074219 C 106.683594 29.074219 107.097656 29.527344 107.304688 29.855469 L 107.304688 31.347656 C 107.261719 31.304688 107.179688 31.261719 107.097656 31.261719 C 106.972656 31.261719 106.933594 31.386719 106.890625 31.425781 C 106.480469 31.839844 106.105469 32.171875 105.777344 32.585938 Z M 107.304688 41.679688 C 107.179688 41.59375 107.015625 41.554688 106.808594 41.511719 C 106.480469 41.554688 106.230469 41.96875 105.777344 41.882812 L 105.777344 39.320312 C 106.351562 39.695312 106.933594 40.0625 107.304688 40.3125 Z M 105.777344 43.867188 C 106.023438 43.949219 106.230469 43.992188 106.273438 44.160156 C 106.519531 44.984375 106.5625 45.105469 106.230469 46.101562 C 106.148438 46.390625 105.984375 46.511719 105.777344 46.554688 Z M 107.304688 39.613281 L 107.304688 37.628906 C 107.222656 37.542969 107.140625 37.378906 107.140625 37.339844 C 107.222656 37.253906 107.261719 37.214844 107.304688 37.214844 L 107.304688 34.773438 C 107.140625 34.773438 106.933594 34.734375 106.890625 34.691406 C 107.015625 34.445312 107.058594 34.445312 107.304688 34.320312 L 107.304688 32.378906 C 107.261719 32.460938 107.179688 32.585938 107.058594 32.667969 C 106.769531 32.957031 106.105469 33.039062 105.777344 32.957031 L 105.777344 36.71875 L 105.816406 36.675781 C 106.023438 36.632812 105.984375 36.84375 106.023438 36.84375 C 106.148438 37.046875 106.105469 37.089844 105.816406 37.171875 L 105.777344 37.171875 L 105.777344 38.578125 C 106.351562 38.949219 106.890625 39.320312 107.304688 39.613281 M 104.371094 31.511719 C 104.660156 31.09375 104.949219 30.726562 105.195312 30.476562 C 105.402344 30.230469 105.609375 29.898438 105.777344 29.648438 L 105.777344 32.585938 C 105.695312 32.667969 105.652344 32.75 105.566406 32.832031 C 105.609375 32.875 105.652344 32.914062 105.777344 32.957031 L 105.777344 36.71875 C 105.566406 36.757812 105.609375 36.71875 105.445312 36.84375 C 105.402344 36.925781 105.609375 37.132812 105.777344 37.171875 L 105.777344 38.578125 L 105.695312 38.535156 C 105.238281 38.246094 104.785156 37.957031 104.371094 37.710938 L 104.371094 35.519531 C 104.578125 35.519531 104.785156 35.476562 104.867188 35.355469 C 105.402344 34.816406 105.652344 34.484375 105.035156 34.238281 C 104.992188 34.277344 104.703125 33.988281 104.371094 34.277344 Z M 105.777344 41.882812 L 105.777344 39.320312 C 105.363281 39.074219 104.992188 38.867188 104.621094 38.65625 L 104.371094 38.535156 L 104.371094 41.636719 C 104.742188 41.636719 105.195312 41.679688 105.527344 41.84375 C 105.609375 41.84375 105.695312 41.882812 105.777344 41.882812 M 104.371094 43.125 C 104.621094 43.289062 104.90625 43.453125 105.195312 43.621094 C 105.402344 43.742188 105.566406 43.785156 105.777344 43.867188 L 105.777344 46.554688 C 105.28125 46.636719 104.660156 46.304688 104.371094 45.933594 Z M 99.453125 34.070312 C 99.785156 34.070312 101.765625 31.425781 102.261719 30.519531 C 102.386719 29.980469 102.796875 29.402344 103.046875 29.152344 C 103.460938 28.824219 103.75 28.90625 103.914062 29.195312 C 104.121094 29.570312 104.082031 30.269531 103.875 31.261719 C 103.75 31.925781 103.542969 31.636719 103.417969 31.839844 C 102.71875 32.710938 101.933594 33.535156 101.476562 34.15625 C 101.1875 34.484375 101.644531 34.898438 101.890625 34.773438 C 102.71875 33.78125 103.625 32.460938 104.371094 31.511719 L 104.371094 34.277344 L 104.332031 34.320312 C 103.832031 34.859375 103.542969 34.609375 103.296875 35.230469 C 103.335938 35.394531 103.914062 35.519531 104.371094 35.519531 L 104.371094 37.710938 C 104.121094 37.542969 103.832031 37.417969 103.625 37.296875 C 103.460938 37.214844 103.171875 37.046875 102.839844 37.007812 C 102.59375 36.964844 102.261719 37.132812 102.011719 37.007812 C 101.644531 36.800781 101.351562 36.59375 101.148438 36.46875 C 100.898438 36.304688 100.730469 36.265625 100.402344 36.097656 C 100.070312 35.933594 99.410156 35.558594 98.75 35.601562 C 98.128906 35.644531 97.386719 36.554688 96.890625 36.757812 C 96.433594 36.964844 96.019531 37.171875 95.648438 37.339844 C 95.195312 37.542969 94.824219 37.710938 94.367188 37.503906 C 93.707031 37.214844 93.875 36.015625 94.246094 35.683594 C 94.824219 35.230469 95.316406 34.859375 95.773438 34.363281 C 96.0625 34.03125 96.226562 33.578125 96.476562 33.328125 C 96.722656 33.082031 97.011719 33.082031 97.261719 33.039062 C 97.550781 32.957031 97.882812 32.875 98.089844 33.121094 C 98.296875 33.328125 98.296875 33.617188 98.503906 33.824219 C 98.789062 34.113281 99.039062 34.113281 99.453125 34.070312 M 104.371094 41.636719 L 104.371094 38.535156 C 102.921875 37.792969 101.808594 37.253906 101.105469 37.089844 C 100.773438 37.007812 99.824219 36.882812 99.492188 36.882812 C 98.710938 36.757812 98.625 37.089844 98.710938 37.503906 C 98.914062 38.414062 99.90625 38.78125 100.195312 38.742188 C 101.105469 38.578125 101.394531 38.949219 102.054688 39.199219 C 102.46875 39.320312 103.503906 39.566406 103.214844 39.859375 C 102.882812 40.191406 102.839844 39.902344 102.511719 40.105469 C 102.222656 40.3125 101.148438 39.695312 100.773438 40.023438 C 100.570312 40.230469 100.816406 40.851562 100.402344 40.933594 C 100.15625 40.972656 99.785156 40.605469 99.453125 40.394531 C 98.503906 39.859375 97.507812 38.910156 96.558594 38.496094 C 95.523438 38.082031 95.441406 38.578125 95.566406 39.238281 C 95.605469 39.613281 95.566406 39.777344 95.898438 40.476562 C 96.269531 41.222656 98.335938 41.59375 99.078125 42.339844 C 99.535156 42.753906 99.949219 42.878906 99.742188 43.082031 C 99.371094 43.703125 99.039062 44.199219 98.378906 44.445312 C 97.757812 44.734375 95.277344 42.132812 95.238281 42.878906 C 95.316406 43.453125 95.773438 44.160156 95.855469 44.777344 C 96.019531 45.6875 96.019531 46.429688 96.0625 46.679688 C 96.226562 47.257812 97.34375 47.503906 98.625 47.089844 C 99.164062 46.886719 99.824219 46.554688 100.402344 46.226562 C 101.1875 45.769531 102.011719 43.949219 102.46875 44.199219 C 103.542969 44.777344 103.585938 44.984375 104.371094 45.933594 L 104.371094 43.125 C 103.542969 42.671875 102.839844 42.257812 103.089844 41.96875 C 103.253906 41.761719 103.75 41.636719 104.371094 41.636719 "/>
<path style=" stroke:none;fill-rule:evenodd;fill:rgb(45.489502%,0%,1.176453%);fill-opacity:1;" d="M 79.902344 19.648438 C 80.8125 19.9375 81.433594 19.980469 81.472656 19.8125 C 81.71875 19.070312 82.054688 17.75 82.09375 16.671875 C 82.136719 16.136719 82.589844 15.929688 82.921875 15.847656 C 83.707031 15.597656 83.953125 15.472656 84.324219 15.597656 C 84.988281 15.886719 85.359375 16.464844 85.6875 17.210938 C 85.8125 17.582031 86.144531 17.167969 85.398438 18.78125 C 85.070312 19.566406 85.152344 19.6875 85.277344 19.855469 C 85.605469 20.101562 86.019531 20.0625 86.679688 20.0625 C 87.46875 20.019531 87.960938 18.984375 88.957031 21.054688 C 89.117188 21.300781 89.160156 21.632812 88.828125 21.921875 C 88.417969 22.253906 87.632812 22.292969 86.679688 22.542969 C 85.441406 22.832031 83.664062 22.5 83.707031 23.328125 C 83.953125 25.394531 85.277344 28.535156 87.425781 31.054688 C 87.960938 31.714844 88.707031 32.335938 89.574219 32.832031 C 90.816406 33.535156 91.847656 34.113281 91.105469 34.277344 C 89.945312 34.527344 86.019531 34.15625 85.109375 33.328125 C 84.160156 32.417969 82.21875 26.386719 81.929688 25.1875 C 81.886719 25.144531 81.804688 25.101562 81.71875 25.226562 C 80.773438 26.425781 78.785156 28.617188 77.214844 29.320312 C 76.515625 29.609375 75.730469 29.152344 75.523438 28.863281 C 75.277344 28.578125 73.457031 27.667969 73.289062 26.964844 C 73.25 26.550781 73.496094 26.59375 73.703125 26.632812 C 76.265625 27.171875 76.804688 26.507812 77.503906 26.222656 C 79.367188 25.433594 80.152344 23.410156 79.984375 23.285156 C 77.589844 22.871094 76.71875 22.957031 76.226562 21.921875 C 75.523438 18.65625 76.804688 18.492188 78.125 18.984375 C 78.785156 19.277344 79.65625 19.605469 79.902344 19.648438 "/>
<path style=" stroke:none;fill-rule:evenodd;fill:rgb(45.489502%,0%,1.176453%);fill-opacity:1;" d="M 51.632812 26.261719 C 51.964844 26.222656 52.253906 26.261719 52.667969 26.59375 C 53.785156 27.335938 54.113281 28.78125 54.652344 29.527344 C 54.859375 29.527344 55.230469 29.277344 55.683594 28.992188 C 56.265625 28.578125 56.921875 28.160156 56.800781 27.996094 C 56.34375 27.128906 53.90625 21.382812 53.410156 20.640625 C 53.371094 20.558594 53.203125 20.351562 53.164062 20.269531 C 52.253906 19.070312 53.328125 18.121094 53.742188 17.996094 C 54.402344 17.789062 56.265625 18.410156 56.300781 19.070312 C 56.222656 19.773438 56.921875 21.425781 57.582031 22.996094 C 58.203125 24.320312 58.742188 25.640625 59.03125 26.097656 C 59.195312 26.507812 60.644531 25.269531 61.097656 24.773438 C 61.71875 24.363281 60.601562 22.210938 61.015625 21.550781 C 61.179688 21.21875 62.957031 20.765625 63.828125 22.046875 C 64.238281 22.789062 64.449219 23.863281 64.652344 24.855469 C 64.816406 25.558594 65.066406 26.425781 65.1875 26.714844 C 65.316406 27.046875 64.613281 28.90625 64.324219 29.402344 C 63.742188 29.855469 62.792969 28.371094 62.417969 27.542969 C 62.214844 27.089844 62.171875 26.925781 62.007812 26.882812 C 61.59375 27.003906 60.644531 27.664062 60.1875 28.246094 C 59.941406 28.535156 60.023438 29.074219 59.648438 29.363281 C 57.917969 30.0625 56.300781 31.179688 56.179688 31.550781 C 56.097656 31.757812 55.5625 32.832031 55.519531 33.082031 C 55.476562 33.328125 54.773438 33.410156 54.609375 33.535156 C 54.238281 33.90625 53.660156 33.246094 52.875 32.789062 C 52.046875 32.378906 52.253906 31.839844 52.210938 30.972656 C 52.210938 30.023438 51.675781 28.535156 51.179688 27.582031 C 50.929688 27.089844 50.640625 26.507812 51.632812 26.261719 "/>
<path style=" stroke:none;fill-rule:evenodd;fill:rgb(45.489502%,0%,1.176453%);fill-opacity:1;" d="M 37.128906 27.210938 C 37.871094 26.757812 39.277344 26.796875 39.9375 27.085938 C 40.558594 27.417969 40.640625 28.121094 40.472656 28.617188 L 40.308594 28.992188 C 40.144531 29.484375 40.351562 30.808594 40.515625 30.929688 C 40.722656 31.179688 40.886719 31.34375 41.300781 31.261719 C 41.632812 31.304688 42.210938 32.542969 41.960938 33.121094 C 41.882812 33.328125 41.839844 33.535156 41.550781 33.867188 C 40.847656 34.527344 40.433594 35.601562 40.226562 36.675781 C 42.375 38.824219 44.238281 40.933594 46.300781 43.125 C 47.292969 44.363281 47.957031 45.769531 47.460938 46.390625 C 47.046875 46.761719 45.722656 46.304688 44.277344 44.941406 L 38.285156 39.320312 C 37.992188 39.777344 37.707031 40.519531 37.335938 41.386719 L 37.335938 42.132812 C 37.375 42.378906 37.5 42.667969 37.417969 42.878906 C 37.335938 43 37.25 43.125 37.128906 43.246094 L 37.128906 33.496094 C 37.417969 33.78125 37.707031 33.988281 37.785156 33.949219 C 38.285156 33.578125 38.324219 32.585938 38.203125 32.210938 C 38.078125 31.675781 37.828125 30.890625 37.25 30.640625 C 37.210938 30.683594 37.167969 30.683594 37.128906 30.683594 Z M 34.773438 30.476562 C 35.101562 30.1875 35.515625 29.773438 35.929688 29.320312 C 36.300781 28.78125 36.507812 27.832031 36.878906 27.378906 C 36.964844 27.292969 37.046875 27.253906 37.128906 27.210938 L 37.128906 30.683594 C 36.589844 30.890625 36.136719 31.714844 36.011719 32.089844 C 36.054688 32.335938 36.632812 33.039062 37.128906 33.496094 L 37.128906 43.246094 C 36.878906 43.496094 36.546875 43.703125 36.21875 43.742188 C 35.847656 43.785156 35.433594 43.453125 34.773438 43.289062 L 34.773438 38.703125 C 34.976562 38.824219 35.1875 38.867188 35.269531 38.785156 C 35.886719 38.285156 35.96875 38.167969 36.136719 37.503906 C 36.21875 37.253906 35.269531 36.347656 34.773438 35.972656 Z M 31.710938 37.335938 C 32.042969 37.171875 32.085938 36.84375 32.171875 36.347656 C 32.539062 35.023438 32.582031 34.527344 32.996094 33.660156 C 32.332031 33.039062 31.589844 32.460938 30.96875 31.839844 C 30.847656 31.714844 30.679688 31.632812 30.554688 31.59375 C 30.140625 31.46875 29.894531 31.015625 29.894531 30.476562 L 29.894531 30.3125 C 29.894531 29.898438 30.019531 29.441406 30.308594 28.992188 C 30.472656 28.742188 32.042969 28.164062 32.496094 28.617188 C 33.160156 29.277344 33.859375 30.148438 34.566406 30.640625 C 34.605469 30.601562 34.6875 30.519531 34.773438 30.476562 L 34.773438 35.972656 C 34.6875 35.894531 34.605469 35.847656 34.566406 35.808594 C 34.316406 35.808594 34.355469 36.136719 34.355469 36.261719 C 34.195312 36.882812 33.859375 37.335938 33.449219 37.585938 C 33.203125 37.667969 34.152344 38.414062 34.773438 38.703125 L 34.773438 43.289062 C 34.648438 43.246094 34.523438 43.207031 34.355469 43.167969 C 33.738281 43.125 33.203125 43.125 32.703125 42.625 C 32.417969 42.007812 32.25 41.714844 32.125 41.304688 C 32.042969 41.140625 31.917969 40.972656 31.753906 40.769531 C 31.257812 40.230469 30.886719 39.734375 30.597656 39.03125 C 30.472656 38.617188 30.722656 37.460938 31.710938 37.335938 "/>
<g clip-path="url(#clip1)" clip-rule="nonzero">
<path style=" stroke:none;fill-rule:evenodd;fill:rgb(45.489502%,0%,1.176453%);fill-opacity:1;" d="M 70.867188 134.050781 C 36.117188 134.050781 7.949219 105.882812 7.949219 71.132812 C 7.949219 36.382812 36.117188 8.214844 70.867188 8.214844 C 105.617188 8.214844 133.785156 36.382812 133.785156 71.132812 C 133.785156 105.882812 105.617188 134.050781 70.867188 134.050781 M 70.867188 6.867188 C 35.375 6.867188 6.601562 35.640625 6.601562 71.132812 C 6.601562 106.628906 35.375 135.398438 70.867188 135.398438 C 106.359375 135.398438 135.132812 106.628906 135.132812 71.132812 C 135.132812 35.640625 106.359375 6.867188 70.867188 6.867188 M 70.867188 137.320312 C 34.3125 137.320312 4.675781 107.6875 4.675781 71.132812 C 4.675781 34.578125 34.3125 4.945312 70.867188 4.945312 C 107.421875 4.945312 137.054688 34.578125 137.054688 71.132812 C 137.054688 107.6875 107.421875 137.320312 70.867188 137.320312 M 70.867188 0.269531 C 31.726562 0.269531 0 31.996094 0 71.132812 C 0 110.269531 31.726562 142 70.867188 142 C 110.003906 142 141.730469 110.269531 141.730469 71.132812 C 141.730469 31.996094 110.003906 0.269531 70.867188 0.269531 "/>
</g>
<path style=" stroke:none;fill-rule:nonzero;fill:rgb(45.489502%,0%,1.176453%);fill-opacity:1;" d="M 27.894531 60.761719 L 24.382812 59.851562 L 24.472656 59.535156 C 25.386719 59.636719 26.199219 59.46875 26.898438 59.035156 C 27.597656 58.605469 28.042969 58.050781 28.238281 57.371094 C 28.386719 56.84375 28.367188 56.386719 28.171875 56 C 27.976562 55.617188 27.699219 55.371094 27.335938 55.265625 C 27.101562 55.199219 26.882812 55.195312 26.671875 55.25 C 26.386719 55.332031 26.078125 55.503906 25.746094 55.765625 C 25.507812 55.957031 25.046875 56.429688 24.367188 57.183594 C 23.414062 58.238281 22.609375 58.898438 21.953125 59.175781 C 21.292969 59.441406 20.621094 59.480469 19.933594 59.285156 C 19.058594 59.035156 18.402344 58.476562 17.964844 57.617188 C 17.53125 56.753906 17.460938 55.800781 17.761719 54.75 C 17.855469 54.417969 17.976562 54.117188 18.128906 53.84375 C 18.277344 53.566406 18.511719 53.234375 18.820312 52.84375 C 18.996094 52.628906 19.105469 52.441406 19.148438 52.277344 C 19.1875 52.144531 19.175781 51.988281 19.117188 51.8125 C 19.058594 51.632812 18.933594 51.46875 18.75 51.316406 L 18.832031 51.027344 L 22.785156 52.15625 L 22.703125 52.441406 C 21.527344 52.351562 20.554688 52.542969 19.785156 53.023438 C 19.015625 53.503906 18.527344 54.117188 18.3125 54.863281 C 18.148438 55.441406 18.175781 55.945312 18.390625 56.375 C 18.605469 56.808594 18.925781 57.082031 19.339844 57.203125 C 19.589844 57.273438 19.847656 57.277344 20.113281 57.207031 C 20.382812 57.144531 20.660156 57.007812 20.949219 56.800781 C 21.230469 56.59375 21.636719 56.195312 22.167969 55.613281 C 22.90625 54.792969 23.503906 54.222656 23.949219 53.898438 C 24.398438 53.578125 24.855469 53.359375 25.328125 53.253906 C 25.796875 53.144531 26.277344 53.160156 26.765625 53.300781 C 27.601562 53.539062 28.222656 54.046875 28.636719 54.828125 C 29.050781 55.609375 29.121094 56.464844 28.855469 57.394531 C 28.757812 57.734375 28.625 58.054688 28.449219 58.347656 C 28.320312 58.574219 28.121094 58.832031 27.855469 59.136719 C 27.589844 59.433594 27.433594 59.652344 27.394531 59.792969 C 27.355469 59.925781 27.367188 60.042969 27.429688 60.144531 C 27.488281 60.246094 27.667969 60.375 27.960938 60.53125 Z M 27.894531 60.761719 "/>
<path style=" stroke:none;fill-rule:nonzero;fill:rgb(45.489502%,0%,1.176453%);fill-opacity:1;" d="M 27.394531 61.011719 L 26.636719 66.582031 L 26.339844 66.542969 L 26.378906 66.265625 C 26.433594 65.84375 26.429688 65.550781 26.363281 65.382812 C 26.296875 65.214844 26.191406 65.089844 26.046875 65 C 25.902344 64.910156 25.523438 64.824219 24.90625 64.742188 L 19.625 64.023438 C 18.65625 63.890625 18.007812 63.875 17.675781 63.980469 C 17.339844 64.082031 17.050781 64.289062 16.796875 64.59375 C 16.542969 64.898438 16.382812 65.308594 16.3125 65.816406 C 16.234375 66.398438 16.296875 66.917969 16.503906 67.363281 C 16.710938 67.808594 17.03125 68.167969 17.464844 68.433594 C 17.898438 68.703125 18.6875 68.914062 19.835938 69.070312 L 24.234375 69.671875 C 24.71875 69.734375 25.070312 69.730469 25.292969 69.660156 C 25.511719 69.585938 25.671875 69.480469 25.773438 69.335938 C 25.925781 69.113281 26.035156 68.785156 26.09375 68.347656 L 26.386719 68.390625 L 25.878906 72.121094 L 25.585938 72.085938 L 25.613281 71.859375 C 25.65625 71.554688 25.628906 71.296875 25.535156 71.078125 C 25.441406 70.859375 25.277344 70.6875 25.046875 70.566406 C 24.886719 70.472656 24.585938 70.398438 24.144531 70.339844 L 20.046875 69.777344 C 18.777344 69.605469 17.875 69.398438 17.335938 69.15625 C 16.792969 68.910156 16.332031 68.433594 15.949219 67.71875 C 15.566406 67.011719 15.449219 66.09375 15.601562 64.972656 C 15.730469 64.042969 15.953125 63.335938 16.269531 62.859375 C 16.707031 62.210938 17.207031 61.78125 17.777344 61.566406 C 18.347656 61.351562 19.078125 61.304688 19.976562 61.429688 L 25.261719 62.148438 C 25.882812 62.234375 26.273438 62.25 26.433594 62.203125 C 26.59375 62.152344 26.730469 62.050781 26.84375 61.894531 C 26.957031 61.734375 27.042969 61.429688 27.097656 60.972656 Z M 27.394531 61.011719 "/>
<path style=" stroke:none;fill-rule:nonzero;fill:rgb(45.489502%,0%,1.176453%);fill-opacity:1;" d="M 26.117188 74.179688 L 19.640625 79.890625 L 24.320312 79.652344 C 24.972656 79.617188 25.410156 79.503906 25.628906 79.304688 C 25.925781 79.03125 26.054688 78.59375 26.015625 77.988281 L 26.308594 77.976562 L 26.492188 81.570312 L 26.195312 81.582031 C 26.113281 81.125 26.019531 80.820312 25.917969 80.667969 C 25.820312 80.515625 25.660156 80.402344 25.445312 80.324219 C 25.226562 80.246094 24.863281 80.21875 24.351562 80.246094 L 15.289062 80.707031 L 15.277344 80.433594 L 23.960938 72.613281 L 17.046875 72.964844 C 16.421875 73 16.003906 73.164062 15.800781 73.457031 C 15.59375 73.757812 15.503906 74.089844 15.519531 74.460938 L 15.53125 74.714844 L 15.238281 74.730469 L 15.042969 70.871094 L 15.339844 70.855469 C 15.375 71.457031 15.519531 71.867188 15.769531 72.089844 C 16.023438 72.3125 16.4375 72.410156 17.015625 72.378906 L 24.695312 71.992188 L 24.972656 71.746094 C 25.25 71.5 25.429688 71.285156 25.511719 71.105469 C 25.59375 70.925781 25.628906 70.667969 25.625 70.335938 L 25.921875 70.320312 Z M 26.117188 74.179688 "/>
<path style=" stroke:none;fill-rule:nonzero;fill:rgb(45.489502%,0%,1.176453%);fill-opacity:1;" d="M 31.210938 94.832031 L 30.933594 94.945312 C 30.757812 94.625 30.558594 94.410156 30.339844 94.289062 C 30.03125 94.125 29.304688 93.957031 28.160156 93.789062 L 23.621094 93.050781 L 21.171875 94.023438 C 20.648438 94.230469 20.335938 94.386719 20.230469 94.492188 C 20.125 94.597656 20.054688 94.75 20.023438 94.949219 C 19.992188 95.148438 20.027344 95.382812 20.136719 95.652344 L 20.359375 96.222656 L 20.082031 96.332031 L 17.828125 90.648438 L 18.105469 90.539062 L 18.3125 91.070312 C 18.433594 91.367188 18.578125 91.582031 18.753906 91.714844 C 18.875 91.816406 19.035156 91.871094 19.230469 91.878906 C 19.375 91.886719 19.699219 91.789062 20.207031 91.589844 L 22.238281 90.78125 L 25.628906 86.675781 C 26.296875 85.863281 26.667969 85.332031 26.742188 85.078125 C 26.816406 84.820312 26.792969 84.53125 26.671875 84.207031 L 26.945312 84.09375 L 28.875 88.949219 L 28.597656 89.058594 L 28.511719 88.84375 C 28.394531 88.546875 28.273438 88.359375 28.140625 88.277344 C 28.011719 88.195312 27.894531 88.171875 27.800781 88.207031 C 27.621094 88.277344 27.25 88.65625 26.691406 89.34375 L 24.0625 92.503906 L 27.839844 93.113281 C 28.765625 93.265625 29.351562 93.296875 29.59375 93.203125 C 29.730469 93.148438 29.816406 93.039062 29.851562 92.875 C 29.910156 92.65625 29.863281 92.316406 29.707031 91.851562 L 29.984375 91.742188 Z M 31.210938 94.832031 "/>
<path style=" stroke:none;fill-rule:nonzero;fill:rgb(45.489502%,0%,1.176453%);fill-opacity:1;" d="M 27 100.929688 L 29.269531 97.527344 L 25.210938 98.164062 Z M 26.652344 101.480469 L 24.558594 98.25 L 23.421875 98.441406 C 23.042969 98.507812 22.757812 98.601562 22.5625 98.726562 C 22.308594 98.894531 22.1875 99.121094 22.199219 99.40625 C 22.207031 99.574219 22.34375 99.90625 22.617188 100.40625 L 22.367188 100.570312 L 20.398438 97.527344 L 20.648438 97.363281 C 20.910156 97.664062 21.222656 97.84375 21.578125 97.910156 C 21.941406 97.976562 22.570312 97.941406 23.464844 97.800781 L 32.882812 96.351562 L 32.964844 96.476562 L 27.597656 104.628906 C 27.089844 105.402344 26.808594 105.953125 26.753906 106.273438 C 26.714844 106.515625 26.773438 106.785156 26.933594 107.078125 L 26.683594 107.242188 L 23.820312 102.816406 L 24.070312 102.652344 L 24.1875 102.835938 C 24.417969 103.191406 24.628906 103.410156 24.820312 103.488281 C 24.957031 103.539062 25.09375 103.523438 25.226562 103.4375 C 25.308594 103.382812 25.382812 103.316406 25.453125 103.234375 C 25.484375 103.199219 25.609375 103.023438 25.828125 102.703125 Z M 26.652344 101.480469 "/>
<path style=" stroke:none;fill-rule:nonzero;fill:rgb(45.489502%,0%,1.176453%);fill-opacity:1;" d="M 40.933594 106.195312 L 38.796875 108.226562 L 38.59375 108.015625 C 38.972656 107.425781 39.195312 106.949219 39.265625 106.59375 C 39.335938 106.238281 39.3125 105.867188 39.1875 105.480469 C 39.117188 105.269531 38.90625 104.976562 38.558594 104.609375 L 37.996094 104.019531 L 31.910156 109.804688 C 31.507812 110.191406 31.277344 110.453125 31.21875 110.59375 C 31.15625 110.734375 31.152344 110.902344 31.199219 111.105469 C 31.246094 111.308594 31.378906 111.523438 31.59375 111.746094 L 31.84375 112.007812 L 31.628906 112.214844 L 27.699219 108.078125 L 27.914062 107.875 L 28.164062 108.136719 C 28.382812 108.367188 28.597656 108.511719 28.8125 108.574219 C 28.960938 108.625 29.128906 108.613281 29.316406 108.546875 C 29.449219 108.503906 29.714844 108.289062 30.113281 107.914062 L 36.199219 102.128906 L 35.660156 101.558594 C 35.152344 101.027344 34.675781 100.746094 34.21875 100.71875 C 33.585938 100.679688 32.933594 100.894531 32.265625 101.359375 L 32.054688 101.136719 L 34.195312 99.105469 Z M 40.933594 106.195312 "/>
<path style=" stroke:none;fill-rule:nonzero;fill:rgb(45.489502%,0%,1.176453%);fill-opacity:1;" d="M 40.125 113.738281 L 37.011719 111.324219 L 37.871094 110.214844 L 40.984375 112.632812 Z M 40.125 113.738281 "/>
<path style=" stroke:none;fill-rule:nonzero;fill:rgb(45.489502%,0%,1.176453%);fill-opacity:1;" d="M 49.976562 111.765625 L 48.164062 114.914062 L 47.882812 114.742188 C 48.222656 113.886719 48.277344 113.0625 48.050781 112.273438 C 47.816406 111.484375 47.398438 110.902344 46.792969 110.535156 C 46.328125 110.25 45.882812 110.152344 45.460938 110.238281 C 45.035156 110.320312 44.726562 110.527344 44.527344 110.847656 C 44.398438 111.054688 44.335938 111.265625 44.335938 111.488281 C 44.339844 111.78125 44.421875 112.125 44.585938 112.511719 C 44.710938 112.792969 45.042969 113.367188 45.589844 114.222656 C 46.351562 115.417969 46.777344 116.371094 46.867188 117.078125 C 46.953125 117.785156 46.808594 118.441406 46.4375 119.054688 C 45.964844 119.832031 45.253906 120.320312 44.308594 120.511719 C 43.359375 120.703125 42.421875 120.515625 41.484375 119.945312 C 41.191406 119.765625 40.933594 119.570312 40.710938 119.351562 C 40.484375 119.132812 40.226562 118.824219 39.933594 118.417969 C 39.769531 118.191406 39.617188 118.039062 39.472656 117.949219 C 39.355469 117.878906 39.199219 117.847656 39.011719 117.859375 C 38.824219 117.871094 38.632812 117.945312 38.433594 118.082031 L 38.179688 117.929688 L 40.320312 114.414062 L 40.574219 114.566406 C 40.171875 115.675781 40.101562 116.667969 40.359375 117.539062 C 40.617188 118.40625 41.082031 119.039062 41.746094 119.445312 C 42.257812 119.757812 42.75 119.863281 43.222656 119.769531 C 43.699219 119.675781 44.046875 119.445312 44.273438 119.074219 C 44.40625 118.855469 44.480469 118.605469 44.488281 118.328125 C 44.496094 118.050781 44.4375 117.75 44.3125 117.417969 C 44.1875 117.089844 43.910156 116.589844 43.488281 115.925781 C 42.894531 114.996094 42.5 114.269531 42.308594 113.75 C 42.117188 113.234375 42.03125 112.734375 42.050781 112.25 C 42.074219 111.769531 42.214844 111.308594 42.480469 110.875 C 42.929688 110.132812 43.585938 109.667969 44.449219 109.476562 C 45.3125 109.285156 46.15625 109.441406 46.984375 109.945312 C 47.285156 110.128906 47.558594 110.34375 47.792969 110.589844 C 47.976562 110.777344 48.175781 111.039062 48.394531 111.375 C 48.613281 111.710938 48.785156 111.917969 48.910156 111.992188 C 49.027344 112.0625 49.144531 112.085938 49.257812 112.050781 C 49.367188 112.023438 49.539062 111.882812 49.773438 111.640625 Z M 49.976562 111.765625 "/>
<path style=" stroke:none;fill-rule:nonzero;fill:rgb(45.489502%,0%,1.176453%);fill-opacity:1;" d="M 53.382812 114.246094 L 51.746094 118.363281 L 51.945312 118.441406 C 52.585938 118.699219 53.132812 118.683594 53.582031 118.394531 C 54.027344 118.109375 54.449219 117.585938 54.84375 116.832031 L 55.125 116.945312 L 53.015625 122.242188 L 52.734375 122.128906 C 52.902344 121.527344 52.964844 121.003906 52.917969 120.5625 C 52.875 120.117188 52.75 119.78125 52.550781 119.554688 C 52.347656 119.328125 52.003906 119.117188 51.519531 118.925781 L 50.382812 121.773438 C 50.164062 122.332031 50.050781 122.679688 50.046875 122.824219 C 50.042969 122.964844 50.09375 123.105469 50.191406 123.234375 C 50.289062 123.367188 50.480469 123.488281 50.769531 123.605469 L 51.375 123.84375 C 52.320312 124.21875 53.164062 124.304688 53.90625 124.09375 C 54.652344 123.882812 55.324219 123.378906 55.929688 122.582031 L 56.207031 122.695312 L 54.46875 125.726562 L 45.726562 122.242188 L 45.835938 121.964844 L 46.175781 122.101562 C 46.464844 122.214844 46.722656 122.257812 46.945312 122.226562 C 47.101562 122.207031 47.25 122.128906 47.386719 121.988281 C 47.488281 121.890625 47.640625 121.585938 47.84375 121.082031 L 50.492188 114.425781 C 50.675781 113.96875 50.777344 113.683594 50.792969 113.566406 C 50.8125 113.375 50.773438 113.203125 50.675781 113.054688 C 50.546875 112.839844 50.3125 112.667969 49.984375 112.535156 L 49.648438 112.402344 L 49.757812 112.125 L 58.226562 115.5 L 57.035156 118.492188 L 56.75 118.378906 C 56.898438 117.589844 56.902344 116.988281 56.769531 116.5625 C 56.636719 116.140625 56.359375 115.761719 55.941406 115.421875 C 55.699219 115.21875 55.195312 114.96875 54.429688 114.664062 Z M 53.382812 114.246094 "/>
<path style=" stroke:none;fill-rule:nonzero;fill:rgb(45.489502%,0%,1.176453%);fill-opacity:1;" d="M 61.914062 116.355469 L 65.988281 123.960938 L 66.828125 119.355469 C 66.945312 118.710938 66.933594 118.261719 66.789062 118 C 66.589844 117.648438 66.195312 117.421875 65.597656 117.328125 L 65.652344 117.035156 L 69.191406 117.679688 L 69.136719 117.96875 C 68.671875 117.945312 68.355469 117.964844 68.183594 118.03125 C 68.011719 118.09375 67.863281 118.222656 67.738281 118.414062 C 67.613281 118.605469 67.503906 118.957031 67.414062 119.460938 L 65.789062 128.382812 L 65.519531 128.332031 L 59.898438 118.09375 L 58.660156 124.90625 C 58.546875 125.519531 58.613281 125.964844 58.855469 126.230469 C 59.097656 126.496094 59.402344 126.664062 59.765625 126.730469 L 60.019531 126.777344 L 59.964844 127.070312 L 56.164062 126.375 L 56.214844 126.085938 C 56.808594 126.1875 57.242188 126.140625 57.515625 125.945312 C 57.789062 125.75 57.980469 125.367188 58.082031 124.800781 L 59.457031 117.238281 L 59.28125 116.914062 C 59.105469 116.585938 58.941406 116.363281 58.78125 116.242188 C 58.625 116.121094 58.386719 116.027344 58.058594 115.957031 L 58.113281 115.664062 Z M 61.914062 116.355469 "/>
<path style=" stroke:none;fill-rule:nonzero;fill:rgb(45.489502%,0%,1.176453%);fill-opacity:1;" d="M 72.335938 117.683594 L 77.902344 116.863281 L 77.945312 117.160156 L 77.664062 117.199219 C 77.25 117.261719 76.964844 117.347656 76.824219 117.457031 C 76.679688 117.566406 76.585938 117.703125 76.542969 117.867188 C 76.5 118.03125 76.523438 118.417969 76.613281 119.035156 L 77.390625 124.3125 C 77.53125 125.277344 77.699219 125.902344 77.886719 126.195312 C 78.082031 126.484375 78.359375 126.710938 78.722656 126.867188 C 79.085938 127.027344 79.523438 127.066406 80.03125 126.992188 C 80.613281 126.90625 81.09375 126.699219 81.464844 126.378906 C 81.835938 126.054688 82.089844 125.648438 82.226562 125.160156 C 82.363281 124.667969 82.347656 123.851562 82.179688 122.707031 L 81.53125 118.3125 C 81.460938 117.828125 81.359375 117.492188 81.226562 117.300781 C 81.097656 117.109375 80.949219 116.984375 80.785156 116.925781 C 80.527344 116.839844 80.183594 116.828125 79.75 116.894531 L 79.707031 116.601562 L 83.429688 116.050781 L 83.476562 116.34375 L 83.253906 116.375 C 82.953125 116.421875 82.707031 116.519531 82.523438 116.671875 C 82.339844 116.824219 82.222656 117.027344 82.167969 117.285156 C 82.125 117.464844 82.132812 117.773438 82.199219 118.210938 L 82.800781 122.304688 C 82.988281 123.570312 83.039062 124.5 82.953125 125.082031 C 82.871094 125.667969 82.539062 126.246094 81.964844 126.8125 C 81.386719 127.378906 80.539062 127.746094 79.421875 127.910156 C 78.488281 128.046875 77.75 128.027344 77.203125 127.855469 C 76.460938 127.617188 75.90625 127.253906 75.542969 126.769531 C 75.175781 126.28125 74.929688 125.589844 74.796875 124.691406 L 74.023438 119.414062 C 73.929688 118.796875 73.839844 118.417969 73.75 118.273438 C 73.65625 118.132812 73.519531 118.03125 73.339844 117.964844 C 73.15625 117.902344 72.835938 117.902344 72.382812 117.976562 Z M 72.335938 117.683594 "/>
<path style=" stroke:none;fill-rule:nonzero;fill:rgb(45.489502%,0%,1.176453%);fill-opacity:1;" d="M 86.070312 114.96875 L 93.433594 119.476562 L 91.832031 115.078125 C 91.605469 114.460938 91.363281 114.078125 91.113281 113.925781 C 90.765625 113.722656 90.304688 113.730469 89.742188 113.945312 L 89.640625 113.667969 L 93.023438 112.433594 L 93.125 112.714844 C 92.710938 112.929688 92.445312 113.105469 92.328125 113.246094 C 92.214844 113.390625 92.148438 113.574219 92.140625 113.804688 C 92.128906 114.035156 92.210938 114.390625 92.386719 114.875 L 95.492188 123.394531 L 95.238281 123.488281 L 85.207031 117.488281 L 87.578125 123.996094 C 87.792969 124.582031 88.074219 124.933594 88.417969 125.042969 C 88.761719 125.148438 89.109375 125.140625 89.453125 125.015625 L 89.695312 124.925781 L 89.800781 125.203125 L 86.167969 126.527344 L 86.066406 126.25 C 86.625 126.039062 86.976562 125.78125 87.117188 125.472656 C 87.253906 125.164062 87.226562 124.738281 87.027344 124.195312 L 84.394531 116.972656 L 84.078125 116.78125 C 83.761719 116.585938 83.503906 116.476562 83.308594 116.453125 C 83.109375 116.425781 82.855469 116.464844 82.539062 116.570312 L 82.4375 116.289062 Z M 86.070312 114.96875 "/>
<path style=" stroke:none;fill-rule:nonzero;fill:rgb(45.489502%,0%,1.176453%);fill-opacity:1;" d="M 103.054688 118.667969 L 103.203125 118.925781 L 98.25 121.746094 L 98.105469 121.488281 L 98.417969 121.308594 C 98.691406 121.152344 98.886719 120.976562 98.996094 120.785156 C 99.082031 120.652344 99.109375 120.484375 99.085938 120.289062 C 99.074219 120.148438 98.929688 119.84375 98.660156 119.367188 L 95.113281 113.140625 C 94.839844 112.65625 94.640625 112.371094 94.519531 112.277344 C 94.398438 112.1875 94.238281 112.136719 94.027344 112.136719 C 93.820312 112.132812 93.585938 112.210938 93.320312 112.359375 L 93.003906 112.539062 L 92.859375 112.28125 L 97.804688 109.460938 L 97.953125 109.71875 L 97.640625 109.898438 C 97.367188 110.054688 97.171875 110.230469 97.058594 110.425781 C 96.972656 110.558594 96.945312 110.722656 96.964844 110.921875 C 96.976562 111.0625 97.121094 111.371094 97.390625 111.84375 L 100.9375 118.070312 C 101.214844 118.554688 101.414062 118.839844 101.53125 118.933594 C 101.65625 119.023438 101.820312 119.070312 102.03125 119.070312 C 102.238281 119.074219 102.472656 119 102.738281 118.847656 Z M 103.054688 118.667969 "/>
<path style=" stroke:none;fill-rule:nonzero;fill:rgb(45.489502%,0%,1.176453%);fill-opacity:1;" d="M 106.320312 102.675781 L 106.507812 102.90625 C 106.246094 103.207031 106.105469 103.59375 106.097656 104.070312 C 106.097656 104.417969 106.242188 105.117188 106.53125 106.164062 L 108.960938 114.960938 L 108.757812 115.128906 L 100.351562 110.851562 C 99.339844 110.335938 98.71875 110.058594 98.480469 110.015625 C 98.25 109.972656 97.953125 110.066406 97.597656 110.300781 L 97.40625 110.074219 L 101.425781 106.738281 L 101.617188 106.96875 L 101.476562 107.078125 C 101.117188 107.378906 100.90625 107.632812 100.851562 107.832031 C 100.804688 107.972656 100.835938 108.101562 100.933594 108.222656 C 100.996094 108.292969 101.085938 108.371094 101.203125 108.441406 C 101.316406 108.515625 101.652344 108.695312 102.207031 108.976562 L 107.460938 111.667969 L 106.03125 106.578125 C 105.855469 105.964844 105.726562 105.5625 105.644531 105.371094 C 105.566406 105.183594 105.480469 105.035156 105.394531 104.925781 C 105.289062 104.804688 105.164062 104.722656 105.019531 104.679688 C 104.875 104.640625 104.71875 104.648438 104.550781 104.707031 C 104.3125 104.785156 104.050781 104.945312 103.757812 105.1875 L 103.566406 104.957031 Z M 106.320312 102.675781 "/>
<path style=" stroke:none;fill-rule:nonzero;fill:rgb(45.489502%,0%,1.176453%);fill-opacity:1;" d="M 108.464844 100.519531 L 112.023438 103.160156 L 112.152344 102.984375 C 112.566406 102.429688 112.691406 101.902344 112.527344 101.390625 C 112.363281 100.882812 111.964844 100.34375 111.335938 99.773438 L 111.519531 99.527344 L 116.101562 102.921875 L 115.917969 103.167969 C 115.382812 102.847656 114.890625 102.65625 114.449219 102.585938 C 114.011719 102.511719 113.652344 102.546875 113.382812 102.6875 C 113.109375 102.824219 112.816406 103.101562 112.507812 103.519531 L 114.972656 105.34375 C 115.453125 105.703125 115.765625 105.902344 115.902344 105.941406 C 116.039062 105.976562 116.183594 105.96875 116.335938 105.90625 C 116.488281 105.84375 116.65625 105.691406 116.839844 105.441406 L 117.226562 104.917969 C 117.835938 104.101562 118.132812 103.304688 118.117188 102.535156 C 118.105469 101.761719 117.789062 100.980469 117.175781 100.191406 L 117.351562 99.953125 L 119.839844 102.40625 L 114.238281 109.96875 L 113.996094 109.789062 L 114.210938 109.5 C 114.398438 109.246094 114.507812 109.007812 114.53125 108.785156 C 114.554688 108.628906 114.515625 108.464844 114.414062 108.296875 C 114.34375 108.175781 114.089844 107.949219 113.652344 107.625 L 107.898438 103.359375 C 107.503906 103.066406 107.25 102.894531 107.144531 102.851562 C 106.964844 102.78125 106.789062 102.777344 106.617188 102.832031 C 106.378906 102.90625 106.152344 103.082031 105.941406 103.367188 L 105.726562 103.660156 L 105.488281 103.480469 L 110.914062 96.160156 L 113.503906 98.078125 L 113.320312 98.324219 C 112.597656 97.980469 112.011719 97.820312 111.570312 97.839844 C 111.128906 97.863281 110.6875 98.03125 110.253906 98.347656 C 110 98.53125 109.625 98.953125 109.132812 99.617188 Z M 108.464844 100.519531 "/>
<path style=" stroke:none;fill-rule:nonzero;fill:rgb(45.489502%,0%,1.176453%);fill-opacity:1;" d="M 113.273438 92.492188 L 117.707031 94.253906 L 117.875 93.828125 C 118.148438 93.136719 118.292969 92.59375 118.300781 92.199219 C 118.3125 91.804688 118.191406 91.445312 117.9375 91.117188 C 117.683594 90.789062 117.292969 90.519531 116.757812 90.304688 C 115.988281 90 115.34375 89.953125 114.835938 90.167969 C 114.324219 90.382812 113.90625 90.890625 113.589844 91.691406 Z M 118.234375 94.464844 L 121.070312 95.589844 C 121.621094 95.808594 121.976562 95.914062 122.144531 95.902344 C 122.3125 95.890625 122.472656 95.820312 122.625 95.683594 C 122.777344 95.546875 122.945312 95.246094 123.128906 94.785156 L 123.40625 94.894531 L 121.347656 100.074219 L 121.070312 99.964844 C 121.257812 99.496094 121.339844 99.160156 121.316406 98.960938 C 121.296875 98.761719 121.230469 98.597656 121.117188 98.476562 C 121.007812 98.351562 120.675781 98.183594 120.128906 97.964844 L 113.5625 95.355469 C 113.011719 95.136719 112.65625 95.035156 112.488281 95.046875 C 112.320312 95.054688 112.15625 95.128906 112.003906 95.265625 C 111.855469 95.398438 111.683594 95.699219 111.5 96.160156 L 111.226562 96.050781 L 113.09375 91.347656 C 113.582031 90.125 114.023438 89.261719 114.417969 88.761719 C 114.8125 88.261719 115.308594 87.925781 115.90625 87.746094 C 116.503906 87.570312 117.109375 87.601562 117.722656 87.847656 C 118.46875 88.144531 118.976562 88.65625 119.25 89.386719 C 119.421875 89.855469 119.464844 90.425781 119.371094 91.105469 L 123.765625 90.035156 C 124.335938 89.890625 124.703125 89.773438 124.867188 89.683594 C 125.101562 89.539062 125.277344 89.335938 125.398438 89.074219 L 125.675781 89.183594 L 124.410156 92.371094 L 118.5 93.800781 Z M 118.234375 94.464844 "/>
<path style=" stroke:none;fill-rule:nonzero;fill:rgb(45.489502%,0%,1.176453%);fill-opacity:1;" d="M 115.832031 79.507812 L 119.425781 80.015625 L 119.375 80.34375 C 118.453125 80.347656 117.667969 80.605469 117.019531 81.109375 C 116.375 81.621094 115.992188 82.222656 115.875 82.917969 C 115.789062 83.457031 115.859375 83.910156 116.09375 84.273438 C 116.332031 84.632812 116.636719 84.84375 117.011719 84.910156 C 117.25 84.945312 117.46875 84.925781 117.671875 84.847656 C 117.945312 84.734375 118.234375 84.53125 118.53125 84.234375 C 118.746094 84.011719 119.152344 83.492188 119.746094 82.667969 C 120.574219 81.511719 121.296875 80.761719 121.917969 80.414062 C 122.542969 80.074219 123.207031 79.960938 123.914062 80.078125 C 124.8125 80.230469 125.527344 80.707031 126.058594 81.515625 C 126.585938 82.324219 126.765625 83.265625 126.585938 84.34375 C 126.527344 84.679688 126.441406 84.996094 126.320312 85.285156 C 126.203125 85.574219 126.007812 85.929688 125.742188 86.351562 C 125.59375 86.589844 125.507812 86.789062 125.480469 86.953125 C 125.457031 87.089844 125.488281 87.246094 125.570312 87.414062 C 125.648438 87.585938 125.789062 87.738281 125.988281 87.867188 L 125.941406 88.160156 L 121.882812 87.484375 L 121.929688 87.191406 C 123.109375 87.152344 124.058594 86.847656 124.765625 86.285156 C 125.476562 85.71875 125.894531 85.054688 126.023438 84.289062 C 126.121094 83.699219 126.035156 83.199219 125.773438 82.796875 C 125.511719 82.390625 125.164062 82.152344 124.738281 82.082031 C 124.480469 82.039062 124.226562 82.066406 123.964844 82.160156 C 123.707031 82.253906 123.445312 82.421875 123.1875 82.664062 C 122.925781 82.902344 122.566406 83.339844 122.109375 83.980469 C 121.464844 84.878906 120.9375 85.511719 120.527344 85.882812 C 120.121094 86.257812 119.6875 86.523438 119.230469 86.683594 C 118.777344 86.84375 118.296875 86.882812 117.796875 86.796875 C 116.941406 86.65625 116.265625 86.21875 115.765625 85.492188 C 115.269531 84.761719 115.097656 83.917969 115.257812 82.964844 C 115.316406 82.613281 115.414062 82.28125 115.550781 81.96875 C 115.660156 81.734375 115.828125 81.449219 116.058594 81.121094 C 116.289062 80.792969 116.414062 80.558594 116.4375 80.414062 C 116.460938 80.277344 116.4375 80.164062 116.367188 80.070312 C 116.292969 79.976562 116.105469 79.867188 115.792969 79.746094 Z M 115.832031 79.507812 "/>
<path style=" stroke:none;fill-rule:nonzero;fill:rgb(45.489502%,0%,1.176453%);fill-opacity:1;" d="M 127.371094 73.160156 L 127.667969 73.164062 L 127.589844 78.863281 L 127.292969 78.859375 L 127.292969 78.496094 C 127.300781 78.179688 127.25 77.921875 127.140625 77.730469 C 127.066406 77.589844 126.941406 77.480469 126.757812 77.402344 C 126.628906 77.339844 126.292969 77.308594 125.746094 77.300781 L 118.582031 77.199219 C 118.023438 77.191406 117.675781 77.214844 117.535156 77.273438 C 117.394531 77.328125 117.273438 77.445312 117.164062 77.625 C 117.054688 77.800781 117 78.042969 117 78.347656 L 116.992188 78.710938 L 116.695312 78.707031 L 116.777344 73.007812 L 117.074219 73.015625 L 117.070312 73.375 C 117.066406 73.691406 117.117188 73.949219 117.226562 74.144531 C 117.296875 74.28125 117.425781 74.394531 117.609375 74.476562 C 117.734375 74.535156 118.070312 74.574219 118.617188 74.578125 L 125.785156 74.679688 C 126.339844 74.6875 126.691406 74.664062 126.828125 74.605469 C 126.96875 74.542969 127.09375 74.425781 127.199219 74.25 C 127.308594 74.070312 127.363281 73.828125 127.367188 73.523438 Z M 127.371094 73.160156 "/>
<path style=" stroke:none;fill-rule:nonzero;fill:rgb(45.489502%,0%,1.176453%);fill-opacity:1;" d="M 116.203125 62.996094 L 119.125 62.617188 L 119.164062 62.902344 C 118.511719 63.160156 118.050781 63.414062 117.785156 63.660156 C 117.515625 63.902344 117.316406 64.21875 117.1875 64.601562 C 117.121094 64.816406 117.117188 65.175781 117.183594 65.679688 L 117.289062 66.484375 L 125.621094 65.398438 C 126.171875 65.324219 126.515625 65.25 126.644531 65.171875 C 126.773438 65.09375 126.878906 64.957031 126.960938 64.765625 C 127.039062 64.574219 127.0625 64.324219 127.019531 64.015625 L 126.972656 63.660156 L 127.265625 63.617188 L 128.003906 69.277344 L 127.710938 69.316406 L 127.664062 68.957031 C 127.621094 68.640625 127.535156 68.398438 127.398438 68.222656 C 127.304688 68.09375 127.164062 68 126.972656 67.945312 C 126.835938 67.902344 126.5 67.917969 125.957031 67.988281 L 117.625 69.074219 L 117.726562 69.855469 C 117.824219 70.582031 118.046875 71.089844 118.398438 71.378906 C 118.890625 71.785156 119.539062 71.996094 120.351562 72.015625 L 120.390625 72.316406 L 117.46875 72.699219 Z M 116.203125 62.996094 "/>
<path style=" stroke:none;fill-rule:nonzero;fill:rgb(45.489502%,0%,1.176453%);fill-opacity:1;" d="M 112.929688 51.597656 L 113.210938 51.515625 C 113.359375 51.847656 113.539062 52.082031 113.746094 52.222656 C 114.035156 52.417969 114.746094 52.648438 115.867188 52.925781 L 120.3125 54.082031 L 122.839844 53.34375 C 123.382812 53.1875 123.710938 53.058594 123.824219 52.964844 C 123.9375 52.871094 124.019531 52.726562 124.070312 52.527344 C 124.125 52.332031 124.109375 52.09375 124.03125 51.816406 L 123.855469 51.230469 L 124.140625 51.148438 L 125.855469 57.015625 L 125.570312 57.097656 L 125.414062 56.550781 C 125.320312 56.242188 125.195312 56.015625 125.035156 55.867188 C 124.925781 55.753906 124.769531 55.683594 124.574219 55.65625 C 124.433594 55.636719 124.101562 55.703125 123.578125 55.855469 L 121.480469 56.46875 L 117.722656 60.238281 C 116.980469 60.984375 116.558594 61.480469 116.460938 61.726562 C 116.363281 61.972656 116.359375 62.265625 116.453125 62.601562 L 116.167969 62.683594 L 114.703125 57.671875 L 114.988281 57.589844 L 115.054688 57.8125 C 115.140625 58.117188 115.25 58.316406 115.371094 58.410156 C 115.496094 58.507812 115.605469 58.542969 115.703125 58.511719 C 115.886719 58.457031 116.292969 58.117188 116.917969 57.488281 L 119.824219 54.585938 L 116.125 53.628906 C 115.214844 53.386719 114.636719 53.300781 114.382812 53.375 C 114.246094 53.414062 114.148438 53.515625 114.09375 53.675781 C 114.015625 53.890625 114.035156 54.230469 114.144531 54.707031 L 113.859375 54.789062 Z M 112.929688 51.597656 "/>
<path style=" stroke:none;fill-rule:nonzero;fill:rgb(45.489502%,0%,1.176453%);fill-opacity:1;" d="M 70.734375 98.015625 L 73.453125 98.015625 L 73.277344 97.328125 L 72.207031 97.328125 L 73.050781 96.574219 L 72.765625 95.339844 L 70.757812 95.339844 L 70.742188 96.367188 L 71.519531 96.367188 L 71.453125 95.960938 L 72.183594 95.960938 L 72.226562 96.414062 L 70.765625 97.308594 Z M 66.824219 95.339844 L 66.046875 95.339844 L 64.835938 98.015625 L 65.914062 98.015625 Z M 75.0625 96.050781 L 75.335938 96.644531 L 74.765625 96.644531 Z M 75.632812 97.308594 L 75.96875 98.015625 L 76.957031 97.96875 L 76.574219 97.351562 L 77.027344 97.328125 L 76.640625 96.664062 L 76.089844 96.664062 L 75.417969 95.339844 L 74.734375 95.339844 L 74.035156 96.597656 L 74.285156 97.308594 Z M 69.121094 96.289062 L 68.21875 96.289062 L 68.34375 95.8125 L 69.210938 95.800781 Z M 69.886719 95.339844 L 67.898438 95.339844 L 67.429688 96.78125 L 69.027344 96.78125 L 68.960938 97.351562 L 67.222656 97.351562 L 67.007812 98.015625 L 69.683594 98.015625 Z M 98.183594 67.800781 C 94.296875 67.800781 91.027344 70.445312 90.078125 74.03125 L 75.605469 74.03125 L 75.605469 75.164062 L 89.863281 75.164062 C 89.824219 75.5 89.800781 75.839844 89.800781 76.183594 L 89.800781 76.203125 L 75.605469 76.203125 L 75.605469 77.335938 L 81.960938 77.335938 C 79.746094 77.339844 77.949219 79.136719 77.949219 81.355469 L 77.949219 92.6875 L 76.382812 92.6875 L 76.382812 82.898438 L 77.347656 82.898438 L 77.347656 82.140625 L 73.816406 82.140625 L 73.816406 84.832031 C 73.324219 84.273438 72.679688 83.859375 71.953125 83.652344 L 71.953125 82.792969 L 72.367188 82.792969 L 72.367188 82.125 L 69.355469 82.125 L 69.355469 82.792969 L 69.765625 82.792969 L 69.765625 83.699219 C 69.0625 83.929688 68.445312 84.359375 67.976562 84.921875 L 67.976562 82.152344 L 64.382812 82.152344 L 64.382812 82.898438 L 65.359375 82.898438 L 65.359375 92.6875 L 63.730469 92.6875 L 63.730469 81.355469 C 63.730469 79.136719 61.9375 77.339844 59.71875 77.335938 L 66.117188 77.335938 L 66.117188 76.203125 L 51.925781 76.203125 L 51.925781 76.183594 C 51.925781 75.839844 51.902344 75.5 51.863281 75.164062 L 66.117188 75.164062 L 66.117188 74.03125 L 51.648438 74.03125 C 50.699219 70.445312 47.429688 67.800781 43.542969 67.800781 C 42.96875 67.800781 42.40625 67.859375 41.859375 67.96875 C 44.117188 62.175781 49.742188 58.066406 56.332031 58.0625 L 59.8125 58.0625 L 59.8125 57.132812 L 59.816406 57.132812 C 59.816406 51.03125 64.765625 46.085938 70.867188 46.085938 C 76.96875 46.085938 81.917969 51.03125 81.917969 57.132812 L 81.917969 58.0625 L 85.398438 58.0625 C 91.992188 58.066406 97.617188 62.175781 99.871094 67.96875 C 99.328125 67.859375 98.761719 67.800781 98.183594 67.800781 M 85.242188 79.023438 C 84.511719 78.007812 83.324219 77.339844 81.976562 77.335938 L 88.769531 77.335938 C 87.429688 77.566406 86.21875 78.167969 85.242188 79.023438 M 82.765625 84.472656 C 82.765625 84.523438 82.769531 84.574219 82.769531 84.625 L 79.082031 84.625 L 79.082031 81.355469 C 79.082031 79.761719 80.375 78.46875 81.96875 78.46875 C 83.011719 78.46875 83.925781 79.023438 84.429688 79.855469 C 83.390625 81.109375 82.765625 82.714844 82.765625 84.472656 M 80.679688 88.21875 L 80.679688 92.6875 L 79.082031 92.6875 L 79.082031 85.757812 L 81.589844 85.757812 C 81.019531 86.421875 80.679688 87.28125 80.679688 88.21875 M 67.976562 92.6875 L 67.976562 86.980469 C 68.222656 85.523438 69.457031 84.414062 70.941406 84.414062 C 72.304688 84.414062 73.453125 85.363281 73.816406 86.652344 L 73.816406 92.6875 Z M 70.867188 101.105469 C 66.085938 101.105469 62.019531 98.070312 60.480469 93.820312 L 81.253906 93.820312 C 79.710938 98.070312 75.644531 101.105469 70.867188 101.105469 M 62.597656 85.757812 L 62.597656 92.6875 L 61.046875 92.6875 L 61.046875 88.21875 C 61.046875 87.28125 60.703125 86.421875 60.136719 85.757812 Z M 57.269531 79.824219 C 57.78125 79.011719 58.679688 78.46875 59.710938 78.46875 C 61.304688 78.46875 62.597656 79.761719 62.597656 81.355469 L 62.597656 84.625 L 58.957031 84.625 C 58.957031 84.574219 58.960938 84.523438 58.960938 84.472656 C 58.960938 82.703125 58.320312 81.082031 57.269531 79.824219 M 56.457031 79 C 55.484375 78.15625 54.28125 77.5625 52.957031 77.335938 L 59.703125 77.335938 C 58.367188 77.339844 57.1875 77.992188 56.457031 79 M 85.394531 56.824219 L 82.988281 56.824219 C 82.824219 50.269531 77.460938 45.003906 70.867188 45.003906 C 64.269531 45.003906 58.90625 50.269531 58.746094 56.824219 L 56.339844 56.824219 C 47.074219 56.824219 39.570312 64.335938 39.570312 73.597656 C 39.570312 82.855469 47.074219 90.363281 56.339844 90.363281 L 58.746094 90.363281 C 58.90625 96.917969 64.269531 102.1875 70.867188 102.1875 C 77.460938 102.1875 82.824219 96.917969 82.988281 90.363281 L 85.394531 90.363281 C 94.65625 90.363281 102.164062 82.855469 102.164062 73.597656 C 102.164062 64.335938 94.65625 56.824219 85.394531 56.824219 M 71.96875 57.226562 L 71.355469 57.226562 L 71.355469 55.515625 L 71.96875 55.515625 Z M 70.375 57.226562 L 69.765625 57.226562 L 69.765625 55.515625 L 70.375 55.515625 Z M 75.195312 57.226562 L 73.042969 57.226562 L 73.042969 55.515625 L 72.449219 55.515625 L 72.449219 54.429688 L 73.015625 54.429688 L 73.015625 53.441406 L 72.449219 53.441406 L 72.449219 53.289062 C 72.449219 52.492188 71.863281 51.839844 71.097656 51.726562 L 71.097656 48.984375 L 70.632812 48.984375 L 70.632812 51.726562 C 69.871094 51.839844 69.285156 52.492188 69.285156 53.289062 L 69.285156 53.441406 L 68.714844 53.441406 L 68.714844 54.429688 L 69.285156 54.429688 L 69.285156 55.515625 L 68.6875 55.515625 L 68.6875 57.226562 L 66.539062 57.226562 L 66.539062 58.832031 L 65.476562 58.832031 L 65.476562 59.871094 L 76.257812 59.871094 L 76.257812 58.832031 L 75.195312 58.832031 Z M 72.628906 76.203125 L 69.105469 76.203125 L 69.105469 68.007812 L 70.097656 68.007812 C 70.140625 67.632812 70.460938 67.335938 70.847656 67.335938 C 71.238281 67.335938 71.558594 67.632812 71.597656 68.007812 L 72.628906 68.007812 Z M 72.628906 79.050781 L 69.105469 79.050781 L 69.105469 77.363281 L 72.628906 77.363281 Z M 75.21875 61.011719 L 72.628906 61.011719 L 72.628906 66.917969 L 71.746094 66.917969 C 71.496094 66.730469 71.183594 66.617188 70.847656 66.617188 C 70.511719 66.617188 70.199219 66.730469 69.953125 66.917969 L 69.105469 66.917969 L 69.105469 61.011719 L 66.511719 61.011719 L 66.511719 79.050781 L 65.449219 79.050781 L 65.449219 81.695312 L 76.285156 81.695312 L 76.285156 79.050781 L 75.21875 79.050781 Z M 70.867188 64.730469 C 71.457031 64.730469 71.933594 64.253906 71.933594 63.660156 C 71.933594 63.070312 71.457031 62.59375 70.867188 62.59375 C 70.273438 62.59375 69.796875 63.070312 69.796875 63.660156 C 69.796875 64.253906 70.273438 64.730469 70.867188 64.730469 M 103.667969 74.75 C 103.65625 74.972656 103.640625 75.199219 103.617188 75.417969 C 103.605469 75.523438 103.59375 75.628906 103.578125 75.730469 C 103.558594 75.925781 103.535156 76.117188 103.503906 76.308594 C 103.488281 76.425781 103.46875 76.539062 103.449219 76.652344 C 103.417969 76.832031 103.390625 77.011719 103.351562 77.1875 C 103.328125 77.308594 103.300781 77.425781 103.273438 77.542969 C 103.238281 77.710938 103.203125 77.882812 103.160156 78.050781 C 103.128906 78.171875 103.097656 78.289062 103.0625 78.40625 C 103.019531 78.570312 102.972656 78.734375 102.925781 78.898438 C 102.886719 79.019531 102.851562 79.136719 102.8125 79.253906 C 102.757812 79.414062 102.707031 79.570312 102.652344 79.726562 C 102.609375 79.847656 102.566406 79.964844 102.519531 80.082031 C 102.464844 80.234375 102.402344 80.390625 102.339844 80.539062 C 102.292969 80.65625 102.242188 80.773438 102.191406 80.890625 C 102.128906 81.039062 102.0625 81.1875 101.992188 81.332031 C 101.9375 81.449219 101.886719 81.5625 101.828125 81.675781 C 101.757812 81.820312 101.683594 81.964844 101.605469 82.109375 C 101.546875 82.222656 101.492188 82.332031 101.429688 82.441406 C 101.351562 82.582031 101.269531 82.722656 101.1875 82.863281 C 101.125 82.972656 101.0625 83.078125 100.996094 83.183594 C 100.910156 83.324219 100.820312 83.460938 100.730469 83.597656 C 100.664062 83.699219 100.597656 83.804688 100.53125 83.90625 C 100.433594 84.042969 100.335938 84.179688 100.234375 84.316406 C 100.167969 84.410156 100.101562 84.507812 100.03125 84.601562 C 99.925781 84.742188 99.8125 84.878906 99.703125 85.015625 C 99.636719 85.101562 99.570312 85.1875 99.5 85.273438 C 99.371094 85.433594 99.230469 85.589844 99.09375 85.746094 C 99.039062 85.800781 98.992188 85.859375 98.941406 85.917969 C 98.753906 86.125 98.558594 86.328125 98.359375 86.527344 C 98.285156 86.605469 98.203125 86.675781 98.125 86.75 C 98 86.875 97.875 87 97.746094 87.117188 C 97.648438 87.203125 97.550781 87.285156 97.457031 87.367188 C 97.339844 87.472656 97.222656 87.574219 97.101562 87.675781 C 97 87.761719 96.890625 87.84375 96.785156 87.929688 C 96.671875 88.019531 96.554688 88.113281 96.433594 88.203125 C 96.324219 88.289062 96.210938 88.371094 96.097656 88.449219 C 95.980469 88.535156 95.863281 88.621094 95.742188 88.703125 C 95.625 88.785156 95.503906 88.863281 95.386719 88.9375 C 95.269531 89.015625 95.148438 89.09375 95.027344 89.167969 C 94.90625 89.246094 94.78125 89.320312 94.65625 89.390625 C 94.535156 89.464844 94.414062 89.53125 94.289062 89.601562 C 94.164062 89.675781 94.035156 89.742188 93.90625 89.8125 C 93.78125 89.875 93.65625 89.941406 93.53125 90 C 93.398438 90.066406 93.265625 90.132812 93.132812 90.195312 C 93.007812 90.253906 92.882812 90.308594 92.753906 90.367188 C 92.617188 90.425781 92.480469 90.484375 92.339844 90.542969 C 92.210938 90.59375 92.082031 90.644531 91.953125 90.695312 C 91.8125 90.746094 91.671875 90.800781 91.53125 90.851562 C 91.398438 90.898438 91.269531 90.941406 91.140625 90.984375 C 90.992188 91.03125 90.847656 91.082031 90.703125 91.125 C 90.570312 91.164062 90.4375 91.199219 90.308594 91.234375 C 90.160156 91.277344 90.007812 91.324219 89.855469 91.359375 C 89.722656 91.390625 89.589844 91.417969 89.460938 91.449219 C 89.304688 91.484375 89.152344 91.519531 88.996094 91.554688 C 88.863281 91.578125 88.730469 91.601562 88.601562 91.625 C 88.441406 91.652344 88.28125 91.683594 88.121094 91.703125 C 87.996094 91.726562 87.871094 91.738281 87.746094 91.753906 C 86.976562 91.851562 86.191406 91.910156 85.394531 91.910156 C 85.015625 91.910156 84.636719 91.894531 84.261719 91.871094 C 84.128906 92.871094 83.886719 93.839844 83.546875 94.761719 C 83.484375 94.925781 83.417969 95.09375 83.351562 95.253906 C 83.3125 95.34375 83.273438 95.429688 83.238281 95.515625 C 83.195312 95.609375 83.15625 95.699219 83.109375 95.792969 C 83.070312 95.882812 83.027344 95.96875 82.980469 96.058594 C 82.9375 96.148438 82.890625 96.238281 82.84375 96.324219 C 82.800781 96.410156 82.757812 96.496094 82.710938 96.578125 C 82.65625 96.683594 82.59375 96.785156 82.535156 96.890625 C 82.460938 97.011719 82.390625 97.125 82.316406 97.246094 C 82.253906 97.34375 82.195312 97.4375 82.132812 97.53125 C 82.082031 97.609375 82.027344 97.6875 81.972656 97.765625 C 81.914062 97.847656 81.855469 97.933594 81.796875 98.015625 C 81.738281 98.089844 81.683594 98.164062 81.625 98.242188 C 81.5625 98.328125 81.492188 98.410156 81.425781 98.496094 C 81.375 98.566406 81.320312 98.632812 81.265625 98.695312 C 81.152344 98.832031 81.035156 98.96875 80.914062 99.101562 C 80.859375 99.164062 80.800781 99.226562 80.746094 99.28125 C 80.667969 99.367188 80.589844 99.449219 80.511719 99.527344 C 80.449219 99.59375 80.386719 99.652344 80.324219 99.714844 C 80.246094 99.792969 80.164062 99.871094 80.082031 99.949219 C 80.019531 100.003906 79.960938 100.0625 79.898438 100.117188 C 79.785156 100.21875 79.667969 100.320312 79.550781 100.417969 C 79.488281 100.46875 79.425781 100.515625 79.367188 100.570312 C 79.253906 100.660156 79.136719 100.75 79.019531 100.839844 C 78.957031 100.886719 78.894531 100.933594 78.832031 100.980469 C 78.734375 101.050781 78.632812 101.121094 78.535156 101.191406 C 78.472656 101.234375 78.40625 101.277344 78.339844 101.324219 C 78.226562 101.398438 78.113281 101.46875 78 101.539062 C 77.949219 101.574219 77.898438 101.605469 77.84375 101.636719 C 77.679688 101.738281 77.515625 101.832031 77.347656 101.925781 C 77.296875 101.953125 77.242188 101.980469 77.1875 102.007812 C 77.0625 102.074219 76.941406 102.136719 76.816406 102.199219 C 76.75 102.230469 76.683594 102.261719 76.621094 102.292969 C 76.496094 102.351562 76.375 102.40625 76.253906 102.457031 C 76.191406 102.484375 76.128906 102.511719 76.066406 102.539062 C 75.890625 102.613281 75.707031 102.6875 75.523438 102.753906 C 75.511719 102.757812 75.5 102.761719 75.484375 102.765625 C 75.308594 102.832031 75.132812 102.894531 74.949219 102.945312 C 74.886719 102.96875 74.828125 102.984375 74.765625 103.003906 C 74.628906 103.042969 74.492188 103.082031 74.355469 103.121094 C 74.289062 103.136719 74.226562 103.15625 74.15625 103.171875 C 74.003906 103.207031 73.855469 103.242188 73.699219 103.277344 C 73.652344 103.285156 73.609375 103.300781 73.5625 103.308594 C 73.363281 103.347656 73.160156 103.382812 72.957031 103.414062 C 72.910156 103.421875 72.859375 103.429688 72.8125 103.433594 C 72.65625 103.457031 72.5 103.480469 72.339844 103.496094 C 72.269531 103.503906 72.203125 103.507812 72.136719 103.515625 C 71.988281 103.527344 71.839844 103.539062 71.6875 103.550781 C 71.625 103.554688 71.5625 103.558594 71.5 103.5625 C 71.289062 103.570312 71.078125 103.578125 70.867188 103.578125 C 70.65625 103.578125 70.441406 103.570312 70.234375 103.5625 C 70.171875 103.558594 70.105469 103.554688 70.039062 103.550781 C 69.894531 103.539062 69.746094 103.527344 69.597656 103.515625 C 69.527344 103.507812 69.460938 103.503906 69.390625 103.496094 C 69.234375 103.480469 69.082031 103.457031 68.925781 103.4375 C 68.875 103.429688 68.824219 103.421875 68.773438 103.414062 C 68.570312 103.382812 68.371094 103.347656 68.171875 103.308594 C 68.121094 103.296875 68.070312 103.285156 68.019531 103.273438 C 67.871094 103.242188 67.726562 103.207031 67.578125 103.171875 C 67.507812 103.15625 67.4375 103.136719 67.371094 103.117188 C 67.238281 103.082031 67.105469 103.046875 66.976562 103.007812 C 66.910156 102.988281 66.84375 102.96875 66.777344 102.945312 C 66.609375 102.894531 66.441406 102.835938 66.277344 102.777344 C 66.242188 102.765625 66.203125 102.75 66.167969 102.738281 C 66 102.675781 65.832031 102.609375 65.667969 102.539062 C 65.601562 102.511719 65.535156 102.484375 65.464844 102.453125 C 65.351562 102.402344 65.234375 102.351562 65.121094 102.296875 C 65.050781 102.265625 64.976562 102.230469 64.90625 102.191406 C 64.792969 102.140625 64.679688 102.078125 64.566406 102.019531 C 64.503906 101.984375 64.4375 101.953125 64.375 101.917969 C 64.214844 101.832031 64.054688 101.738281 63.894531 101.644531 C 63.832031 101.605469 63.769531 101.5625 63.707031 101.523438 C 63.601562 101.460938 63.5 101.394531 63.398438 101.328125 C 63.328125 101.28125 63.253906 101.230469 63.183594 101.183594 C 63.09375 101.117188 63.003906 101.054688 62.917969 100.992188 C 62.84375 100.9375 62.773438 100.886719 62.703125 100.832031 C 62.605469 100.757812 62.507812 100.683594 62.414062 100.609375 C 62.316406 100.527344 62.214844 100.445312 62.117188 100.363281 C 62.027344 100.285156 61.933594 100.203125 61.84375 100.125 C 61.769531 100.058594 61.703125 99.992188 61.628906 99.929688 C 61.5625 99.863281 61.492188 99.796875 61.421875 99.730469 C 61.351562 99.660156 61.277344 99.589844 61.210938 99.519531 C 61.144531 99.449219 61.078125 99.382812 61.011719 99.3125 C 60.945312 99.238281 60.875 99.167969 60.808594 99.09375 C 60.707031 98.980469 60.601562 98.863281 60.507812 98.742188 C 60.429688 98.648438 60.351562 98.554688 60.277344 98.460938 C 60.222656 98.390625 60.167969 98.324219 60.117188 98.253906 C 60.050781 98.167969 59.984375 98.082031 59.921875 97.996094 C 59.871094 97.925781 59.824219 97.859375 59.777344 97.789062 C 59.714844 97.699219 59.648438 97.609375 59.589844 97.519531 C 59.546875 97.449219 59.503906 97.382812 59.460938 97.316406 C 59.351562 97.144531 59.242188 96.96875 59.140625 96.789062 C 59.101562 96.722656 59.066406 96.660156 59.027344 96.59375 C 58.972656 96.496094 58.921875 96.394531 58.867188 96.292969 C 58.832031 96.222656 58.796875 96.152344 58.757812 96.078125 C 58.710938 95.980469 58.660156 95.875 58.613281 95.773438 C 58.578125 95.703125 58.546875 95.628906 58.515625 95.558594 C 58.464844 95.453125 58.421875 95.347656 58.375 95.242188 C 58.363281 95.210938 58.347656 95.175781 58.335938 95.144531 C 57.917969 94.113281 57.621094 93.015625 57.464844 91.871094 C 57.09375 91.894531 56.71875 91.910156 56.339844 91.910156 C 55.53125 91.910156 54.734375 91.851562 53.957031 91.75 C 53.84375 91.734375 53.726562 91.722656 53.617188 91.703125 C 53.445312 91.679688 53.277344 91.648438 53.109375 91.621094 C 52.984375 91.597656 52.863281 91.578125 52.742188 91.554688 C 52.578125 91.519531 52.417969 91.484375 52.253906 91.445312 C 52.128906 91.417969 52.003906 91.390625 51.882812 91.359375 C 51.722656 91.320312 51.566406 91.277344 51.410156 91.230469 C 51.285156 91.199219 51.160156 91.164062 51.039062 91.128906 C 50.882812 91.082031 50.730469 91.03125 50.578125 90.980469 C 50.457031 90.9375 50.332031 90.898438 50.210938 90.855469 C 50.058594 90.804688 49.914062 90.746094 49.765625 90.6875 C 49.640625 90.644531 49.519531 90.59375 49.398438 90.542969 C 49.253906 90.484375 49.113281 90.425781 48.964844 90.359375 C 48.847656 90.308594 48.730469 90.253906 48.609375 90.199219 C 48.46875 90.132812 48.328125 90.066406 48.1875 89.996094 C 48.070312 89.9375 47.957031 89.878906 47.839844 89.816406 C 47.703125 89.746094 47.566406 89.671875 47.429688 89.597656 C 47.316406 89.53125 47.203125 89.46875 47.09375 89.402344 C 46.957031 89.324219 46.824219 89.246094 46.691406 89.160156 C 46.582031 89.09375 46.472656 89.023438 46.363281 88.953125 C 46.234375 88.867188 46.105469 88.785156 45.980469 88.695312 C 45.871094 88.621094 45.765625 88.542969 45.664062 88.46875 C 45.535156 88.382812 45.410156 88.289062 45.289062 88.199219 C 45.183594 88.117188 45.085938 88.035156 44.980469 87.957031 C 44.859375 87.863281 44.738281 87.765625 44.621094 87.667969 C 44.519531 87.585938 44.425781 87.496094 44.324219 87.414062 C 44.210938 87.3125 44.09375 87.214844 43.976562 87.109375 C 43.882812 87.019531 43.792969 86.933594 43.699219 86.84375 C 43.585938 86.734375 43.472656 86.628906 43.367188 86.519531 C 43.289062 86.445312 43.214844 86.363281 43.140625 86.289062 C 42.925781 86.0625 42.714844 85.828125 42.507812 85.59375 C 42.417969 85.488281 42.328125 85.386719 42.234375 85.28125 C 42.144531 85.167969 42.058594 85.054688 41.96875 84.945312 C 41.882812 84.832031 41.792969 84.722656 41.707031 84.609375 C 41.621094 84.496094 41.542969 84.378906 41.457031 84.265625 C 41.375 84.148438 41.289062 84.035156 41.210938 83.917969 C 41.128906 83.796875 41.050781 83.679688 40.976562 83.5625 C 40.898438 83.441406 40.816406 83.320312 40.742188 83.199219 C 40.667969 83.078125 40.597656 82.953125 40.527344 82.832031 C 40.453125 82.707031 40.378906 82.582031 40.308594 82.457031 C 40.242188 82.332031 40.175781 82.207031 40.109375 82.082031 C 40.042969 81.953125 39.976562 81.824219 39.910156 81.695312 C 39.847656 81.566406 39.789062 81.4375 39.726562 81.3125 C 39.664062 81.175781 39.605469 81.042969 39.546875 80.910156 C 39.492188 80.78125 39.4375 80.648438 39.382812 80.515625 C 39.328125 80.382812 39.269531 80.246094 39.21875 80.105469 C 39.167969 79.972656 39.121094 79.839844 39.074219 79.707031 C 39.023438 79.566406 38.976562 79.425781 38.929688 79.285156 C 38.886719 79.148438 38.839844 79.015625 38.800781 78.878906 C 38.757812 78.734375 38.71875 78.589844 38.679688 78.441406 C 38.640625 78.308594 38.601562 78.171875 38.566406 78.035156 C 38.53125 77.886719 38.5 77.734375 38.464844 77.582031 C 38.433594 77.445312 38.402344 77.308594 38.375 77.171875 C 38.34375 77.019531 38.316406 76.859375 38.292969 76.707031 C 38.269531 76.570312 38.246094 76.433594 38.222656 76.292969 C 38.199219 76.132812 38.179688 75.972656 38.160156 75.808594 C 38.144531 75.671875 38.125 75.539062 38.113281 75.40625 C 38.097656 75.230469 38.085938 75.054688 38.074219 74.875 C 38.066406 74.753906 38.054688 74.628906 38.046875 74.503906 C 38.035156 74.265625 38.03125 74.027344 38.03125 73.792969 C 38.027344 73.726562 38.023438 73.660156 38.023438 73.597656 C 38.023438 73.527344 38.027344 73.464844 38.03125 73.398438 C 38.03125 73.160156 38.035156 72.921875 38.046875 72.6875 C 38.054688 72.5625 38.066406 72.4375 38.074219 72.3125 C 38.085938 72.136719 38.097656 71.957031 38.113281 71.785156 C 38.125 71.648438 38.144531 71.515625 38.160156 71.382812 C 38.179688 71.21875 38.199219 71.054688 38.222656 70.894531 C 38.246094 70.757812 38.269531 70.621094 38.292969 70.480469 C 38.316406 70.328125 38.34375 70.171875 38.375 70.019531 C 38.402344 69.882812 38.433594 69.742188 38.464844 69.605469 C 38.5 69.457031 38.53125 69.304688 38.566406 69.15625 C 38.601562 69.019531 38.640625 68.882812 38.679688 68.746094 C 38.71875 68.601562 38.757812 68.453125 38.800781 68.3125 C 38.839844 68.175781 38.886719 68.039062 38.929688 67.90625 C 38.976562 67.765625 39.023438 67.621094 39.074219 67.480469 C 39.121094 67.347656 39.167969 67.214844 39.21875 67.082031 C 39.269531 66.945312 39.328125 66.808594 39.382812 66.671875 C 39.4375 66.539062 39.492188 66.410156 39.546875 66.28125 C 39.605469 66.144531 39.664062 66.015625 39.726562 65.878906 C 39.789062 65.75 39.847656 65.621094 39.910156 65.496094 C 39.976562 65.367188 40.042969 65.238281 40.109375 65.109375 C 40.175781 64.984375 40.242188 64.855469 40.308594 64.734375 C 40.378906 64.609375 40.453125 64.484375 40.527344 64.355469 C 40.597656 64.234375 40.667969 64.113281 40.742188 63.992188 C 40.816406 63.871094 40.898438 63.75 40.976562 63.632812 C 41.050781 63.511719 41.128906 63.390625 41.210938 63.273438 C 41.289062 63.15625 41.375 63.042969 41.457031 62.925781 C 41.542969 62.808594 41.621094 62.691406 41.707031 62.578125 C 41.792969 62.46875 41.882812 62.355469 41.96875 62.246094 C 42.058594 62.132812 42.144531 62.019531 42.234375 61.90625 C 42.328125 61.804688 42.417969 61.703125 42.507812 61.597656 C 42.714844 61.359375 42.925781 61.128906 43.140625 60.902344 C 43.214844 60.824219 43.289062 60.746094 43.367188 60.667969 C 43.472656 60.558594 43.585938 60.453125 43.699219 60.347656 C 43.792969 60.257812 43.882812 60.167969 43.976562 60.082031 C 44.09375 59.976562 44.210938 59.878906 44.324219 59.777344 C 44.425781 59.691406 44.519531 59.605469 44.621094 59.519531 C 44.738281 59.421875 44.859375 59.328125 44.980469 59.234375 C 45.085938 59.152344 45.183594 59.070312 45.289062 58.992188 C 45.410156 58.898438 45.535156 58.808594 45.664062 58.71875 C 45.765625 58.644531 45.871094 58.566406 45.980469 58.492188 C 46.105469 58.40625 46.234375 58.324219 46.363281 58.238281 C 46.472656 58.164062 46.582031 58.097656 46.691406 58.027344 C 46.824219 57.945312 46.957031 57.867188 47.09375 57.789062 C 47.203125 57.722656 47.316406 57.65625 47.429688 57.59375 C 47.566406 57.519531 47.703125 57.445312 47.839844 57.371094 C 47.957031 57.3125 48.070312 57.25 48.1875 57.195312 C 48.328125 57.125 48.46875 57.054688 48.609375 56.992188 C 48.730469 56.9375 48.847656 56.882812 48.964844 56.828125 C 49.113281 56.765625 49.253906 56.703125 49.398438 56.644531 C 49.519531 56.59375 49.640625 56.546875 49.765625 56.5 C 49.914062 56.445312 50.058594 56.386719 50.210938 56.335938 C 50.332031 56.292969 50.457031 56.25 50.578125 56.207031 C 50.730469 56.160156 50.882812 56.109375 51.039062 56.0625 C 51.160156 56.027344 51.285156 55.992188 51.410156 55.957031 C 51.566406 55.914062 51.722656 55.867188 51.882812 55.828125 C 52.003906 55.800781 52.128906 55.773438 52.253906 55.742188 C 52.417969 55.707031 52.578125 55.667969 52.742188 55.636719 C 52.863281 55.613281 52.984375 55.59375 53.109375 55.570312 C 53.277344 55.539062 53.445312 55.507812 53.617188 55.484375 C 53.726562 55.464844 53.84375 55.453125 53.957031 55.441406 C 54.734375 55.339844 55.53125 55.28125 56.339844 55.28125 C 56.71875 55.28125 57.09375 55.296875 57.46875 55.320312 C 57.617188 54.210938 57.898438 53.144531 58.300781 52.140625 C 58.324219 52.074219 58.347656 52.011719 58.375 51.945312 C 58.417969 51.84375 58.464844 51.742188 58.511719 51.640625 C 58.542969 51.5625 58.578125 51.488281 58.613281 51.414062 C 58.660156 51.3125 58.707031 51.214844 58.757812 51.113281 C 58.792969 51.039062 58.835938 50.964844 58.875 50.890625 C 58.921875 50.792969 58.972656 50.695312 59.023438 50.601562 C 59.066406 50.523438 59.113281 50.449219 59.15625 50.375 C 59.25 50.210938 59.347656 50.050781 59.449219 49.890625 C 59.496094 49.816406 59.542969 49.742188 59.59375 49.667969 C 59.648438 49.578125 59.710938 49.492188 59.769531 49.40625 C 59.820312 49.332031 59.875 49.261719 59.925781 49.191406 C 59.988281 49.105469 60.050781 49.023438 60.113281 48.9375 C 60.167969 48.863281 60.226562 48.789062 60.285156 48.71875 C 60.347656 48.640625 60.40625 48.5625 60.46875 48.488281 C 60.582031 48.355469 60.695312 48.222656 60.8125 48.09375 C 60.875 48.023438 60.9375 47.953125 61.003906 47.886719 C 61.074219 47.8125 61.144531 47.742188 61.210938 47.667969 C 61.28125 47.601562 61.347656 47.53125 61.417969 47.46875 C 61.488281 47.394531 61.5625 47.324219 61.636719 47.253906 C 61.707031 47.191406 61.769531 47.128906 61.839844 47.066406 C 61.9375 46.980469 62.039062 46.894531 62.140625 46.808594 C 62.222656 46.734375 62.308594 46.664062 62.398438 46.59375 C 62.5 46.515625 62.601562 46.433594 62.703125 46.351562 C 62.773438 46.300781 62.839844 46.25 62.910156 46.203125 C 63.003906 46.136719 63.09375 46.070312 63.1875 46.003906 C 63.257812 45.957031 63.328125 45.910156 63.398438 45.863281 C 63.503906 45.792969 63.605469 45.726562 63.710938 45.660156 C 63.773438 45.621094 63.832031 45.582031 63.890625 45.546875 C 64.050781 45.449219 64.214844 45.359375 64.378906 45.269531 C 64.4375 45.234375 64.5 45.203125 64.558594 45.171875 C 64.675781 45.113281 64.792969 45.050781 64.90625 44.992188 C 64.976562 44.960938 65.046875 44.925781 65.121094 44.894531 C 65.234375 44.839844 65.351562 44.785156 65.46875 44.734375 C 65.535156 44.707031 65.601562 44.675781 65.667969 44.648438 C 65.835938 44.578125 66.007812 44.511719 66.175781 44.449219 C 66.207031 44.4375 66.238281 44.425781 66.269531 44.414062 C 66.4375 44.355469 66.605469 44.296875 66.777344 44.242188 C 66.84375 44.222656 66.910156 44.203125 66.972656 44.183594 C 67.105469 44.144531 67.238281 44.105469 67.371094 44.070312 C 67.4375 44.054688 67.507812 44.035156 67.578125 44.015625 C 67.726562 43.980469 67.871094 43.945312 68.019531 43.914062 C 68.070312 43.902344 68.121094 43.890625 68.171875 43.882812 C 68.371094 43.839844 68.570312 43.804688 68.773438 43.773438 C 68.824219 43.765625 68.875 43.761719 68.925781 43.75 C 69.078125 43.730469 69.234375 43.710938 69.390625 43.695312 C 69.460938 43.6875 69.527344 43.679688 69.597656 43.671875 C 69.746094 43.660156 69.894531 43.648438 70.039062 43.640625 C 70.105469 43.636719 70.171875 43.632812 70.234375 43.628906 C 70.441406 43.617188 70.65625 43.613281 70.867188 43.613281 C 71.078125 43.613281 71.289062 43.617188 71.5 43.628906 C 71.5625 43.632812 71.625 43.636719 71.6875 43.640625 C 71.839844 43.648438 71.988281 43.660156 72.136719 43.671875 C 72.203125 43.679688 72.269531 43.6875 72.335938 43.691406 C 72.5 43.710938 72.65625 43.730469 72.8125 43.753906 C 72.859375 43.761719 72.910156 43.765625 72.957031 43.773438 C 73.160156 43.804688 73.363281 43.839844 73.5625 43.882812 C 73.609375 43.890625 73.652344 43.902344 73.699219 43.910156 C 73.855469 43.945312 74.003906 43.980469 74.15625 44.019531 C 74.226562 44.035156 74.289062 44.050781 74.355469 44.070312 C 74.492188 44.105469 74.628906 44.144531 74.765625 44.1875 C 74.828125 44.203125 74.886719 44.222656 74.949219 44.242188 C 75.132812 44.296875 75.3125 44.359375 75.492188 44.425781 C 75.503906 44.429688 75.507812 44.429688 75.519531 44.433594 C 75.707031 44.503906 75.890625 44.574219 76.074219 44.652344 C 76.128906 44.675781 76.1875 44.703125 76.25 44.730469 C 76.375 44.78125 76.5 44.839844 76.625 44.898438 C 76.683594 44.929688 76.75 44.957031 76.8125 44.988281 C 76.941406 45.050781 77.070312 45.117188 77.195312 45.183594 C 77.246094 45.210938 77.296875 45.238281 77.34375 45.265625 C 77.511719 45.355469 77.679688 45.453125 77.847656 45.550781 C 77.894531 45.582031 77.941406 45.613281 77.992188 45.644531 C 78.109375 45.71875 78.226562 45.792969 78.34375 45.867188 C 78.40625 45.910156 78.46875 45.953125 78.53125 45.996094 C 78.632812 46.066406 78.738281 46.140625 78.839844 46.214844 C 78.898438 46.257812 78.957031 46.300781 79.015625 46.347656 C 79.140625 46.441406 79.261719 46.535156 79.382812 46.632812 C 79.433594 46.671875 79.480469 46.714844 79.527344 46.75 C 79.65625 46.855469 79.777344 46.964844 79.902344 47.074219 C 79.960938 47.128906 80.015625 47.183594 80.074219 47.234375 C 80.160156 47.316406 80.246094 47.398438 80.332031 47.480469 C 80.390625 47.539062 80.449219 47.597656 80.507812 47.65625 C 80.589844 47.742188 80.671875 47.828125 80.753906 47.914062 C 80.808594 47.972656 80.859375 48.027344 80.914062 48.085938 C 81.035156 48.21875 81.152344 48.355469 81.269531 48.496094 C 81.316406 48.558594 81.367188 48.621094 81.417969 48.679688 C 81.488281 48.773438 81.5625 48.859375 81.628906 48.953125 C 81.683594 49.027344 81.738281 49.097656 81.792969 49.167969 C 81.855469 49.257812 81.917969 49.34375 81.976562 49.429688 C 82.03125 49.503906 82.082031 49.578125 82.132812 49.652344 C 82.199219 49.757812 82.261719 49.859375 82.328125 49.960938 C 82.390625 50.066406 82.453125 50.167969 82.515625 50.273438 C 82.582031 50.386719 82.652344 50.5 82.714844 50.613281 C 82.757812 50.695312 82.800781 50.777344 82.839844 50.859375 C 82.890625 50.949219 82.9375 51.042969 82.984375 51.136719 C 83.027344 51.222656 83.070312 51.304688 83.109375 51.394531 C 83.15625 51.488281 83.199219 51.582031 83.242188 51.683594 C 83.277344 51.765625 83.3125 51.847656 83.351562 51.933594 C 83.417969 52.097656 83.484375 52.261719 83.546875 52.429688 C 83.886719 53.347656 84.128906 54.316406 84.261719 55.320312 C 84.636719 55.296875 85.015625 55.28125 85.394531 55.28125 C 86.191406 55.28125 86.976562 55.339844 87.746094 55.4375 C 87.871094 55.453125 87.996094 55.464844 88.121094 55.484375 C 88.28125 55.507812 88.441406 55.539062 88.601562 55.566406 C 88.730469 55.589844 88.863281 55.613281 88.996094 55.636719 C 89.152344 55.667969 89.304688 55.703125 89.460938 55.738281 C 89.589844 55.769531 89.722656 55.800781 89.855469 55.832031 C 90.007812 55.867188 90.160156 55.910156 90.308594 55.953125 C 90.4375 55.988281 90.570312 56.027344 90.703125 56.0625 C 90.847656 56.109375 90.992188 56.15625 91.140625 56.203125 C 91.269531 56.25 91.398438 56.292969 91.53125 56.339844 C 91.671875 56.386719 91.8125 56.441406 91.953125 56.496094 C 92.082031 56.546875 92.210938 56.59375 92.339844 56.648438 C 92.480469 56.703125 92.617188 56.765625 92.753906 56.824219 C 92.882812 56.882812 93.007812 56.9375 93.132812 56.996094 C 93.265625 57.058594 93.398438 57.121094 93.53125 57.1875 C 93.65625 57.25 93.78125 57.316406 93.90625 57.378906 C 94.035156 57.449219 94.164062 57.515625 94.289062 57.585938 C 94.414062 57.65625 94.535156 57.726562 94.65625 57.800781 C 94.78125 57.871094 94.90625 57.945312 95.027344 58.019531 C 95.148438 58.097656 95.269531 58.175781 95.386719 58.25 C 95.503906 58.328125 95.625 58.40625 95.742188 58.488281 C 95.863281 58.570312 95.980469 58.652344 96.097656 58.738281 C 96.210938 58.820312 96.324219 58.902344 96.433594 58.984375 C 96.554688 59.074219 96.671875 59.167969 96.785156 59.261719 C 96.890625 59.34375 97 59.425781 97.101562 59.511719 C 97.222656 59.613281 97.339844 59.71875 97.457031 59.824219 C 97.550781 59.90625 97.648438 59.988281 97.746094 60.074219 C 97.875 60.191406 98 60.316406 98.125 60.4375 C 98.203125 60.511719 98.285156 60.585938 98.359375 60.664062 C 98.558594 60.863281 98.753906 61.066406 98.941406 61.273438 C 98.992188 61.328125 99.039062 61.390625 99.09375 61.445312 C 99.230469 61.601562 99.371094 61.757812 99.5 61.917969 C 99.570312 62 99.636719 62.089844 99.703125 62.175781 C 99.8125 62.308594 99.925781 62.445312 100.03125 62.589844 C 100.101562 62.683594 100.167969 62.777344 100.234375 62.875 C 100.335938 63.011719 100.433594 63.144531 100.53125 63.285156 C 100.597656 63.386719 100.664062 63.488281 100.730469 63.589844 C 100.820312 63.726562 100.910156 63.863281 100.996094 64.003906 C 101.0625 64.109375 101.125 64.21875 101.1875 64.324219 C 101.269531 64.464844 101.351562 64.605469 101.429688 64.75 C 101.492188 64.859375 101.546875 64.96875 101.605469 65.078125 C 101.683594 65.222656 101.757812 65.367188 101.828125 65.515625 C 101.886719 65.625 101.9375 65.742188 101.992188 65.855469 C 102.0625 66.003906 102.128906 66.152344 102.191406 66.300781 C 102.242188 66.414062 102.292969 66.53125 102.339844 66.648438 C 102.402344 66.800781 102.464844 66.953125 102.519531 67.109375 C 102.566406 67.226562 102.609375 67.34375 102.652344 67.460938 C 102.707031 67.617188 102.757812 67.777344 102.8125 67.933594 C 102.851562 68.054688 102.886719 68.171875 102.925781 68.292969 C 102.972656 68.453125 103.019531 68.617188 103.0625 68.78125 C 103.097656 68.898438 103.128906 69.019531 103.160156 69.140625 C 103.203125 69.308594 103.238281 69.480469 103.273438 69.648438 C 103.300781 69.765625 103.328125 69.882812 103.351562 70.003906 C 103.390625 70.179688 103.417969 70.359375 103.449219 70.535156 C 103.46875 70.652344 103.488281 70.765625 103.503906 70.878906 C 103.535156 71.070312 103.558594 71.265625 103.578125 71.457031 C 103.59375 71.5625 103.605469 71.664062 103.617188 71.769531 C 103.640625 71.992188 103.65625 72.214844 103.667969 72.441406 C 103.671875 72.519531 103.679688 72.597656 103.683594 72.675781 C 103.699219 72.980469 103.707031 73.285156 103.707031 73.597656 C 103.707031 73.902344 103.699219 74.210938 103.683594 74.515625 C 103.679688 74.59375 103.671875 74.671875 103.667969 74.75 M 86.625 52.382812 C 84.585938 45.609375 78.300781 40.675781 70.867188 40.675781 C 63.429688 40.675781 57.148438 45.609375 55.105469 52.382812 C 43.941406 53.019531 35.085938 62.269531 35.085938 73.597656 C 35.085938 84.917969 43.941406 94.167969 55.105469 94.808594 C 57.148438 101.578125 63.429688 106.515625 70.867188 106.515625 C 78.300781 106.515625 84.585938 101.578125 86.625 94.808594 C 97.789062 94.167969 106.644531 84.917969 106.644531 73.597656 C 106.644531 62.269531 97.789062 53.019531 86.625 52.382812 M 70.867188 69.667969 C 70.597656 69.667969 70.378906 69.886719 70.378906 70.152344 L 70.378906 74.039062 C 70.378906 74.308594 70.597656 74.527344 70.867188 74.527344 C 71.132812 74.527344 71.351562 74.308594 71.351562 74.039062 L 71.351562 70.152344 C 71.351562 69.886719 71.132812 69.667969 70.867188 69.667969 "/>
</g>
</svg>
