<?xml version="1.0" encoding="UTF-8"?>
<svg xmlns="http://www.w3.org/2000/svg" xmlns:xlink="http://www.w3.org/1999/xlink" width="401pt" height="142pt" viewBox="0 0 401 142" version="1.2">
<defs>
<clipPath id="clip1">
  <path d="M 319 5 L 400.378906 5 L 400.378906 107 L 319 107 Z M 319 5 "/>
</clipPath>
<clipPath id="clip2">
  <path d="M 1 0.269531 L 75 0.269531 L 75 112 L 1 112 Z M 1 0.269531 "/>
</clipPath>
<clipPath id="clip3">
  <path d="M 0 121 L 400.378906 121 L 400.378906 142 L 0 142 Z M 0 121 "/>
</clipPath>
</defs>
<g id="surface1">
<g clip-path="url(#clip1)" clip-rule="nonzero">
<path style=" stroke:none;fill-rule:evenodd;fill:rgb(0%,33.724976%,12.156677%);fill-opacity:1;" d="M 353.46875 63.082031 L 353.46875 55.554688 C 351.035156 56.164062 349.0625 56.769531 347.691406 57.378906 C 346.398438 57.984375 342.597656 60.195312 341.304688 60.953125 C 338.183594 62.777344 338.875 64.222656 340.238281 65.363281 C 343.507812 68.175781 348.148438 66.730469 348.980469 65.820312 C 350.65625 64.070312 352.023438 63.460938 353.46875 63.082031 M 353.46875 81.707031 L 353.46875 73.726562 C 352.632812 73.726562 351.640625 73.726562 350.882812 73.800781 C 346.015625 74.410156 339.859375 73.800781 335.222656 75.015625 C 330.355469 76.308594 331.421875 78.363281 333.699219 80.492188 C 334.84375 81.558594 335.222656 82.316406 338.339844 83.914062 C 341.304688 85.363281 348.601562 81.933594 353.46875 81.707031 M 353.46875 102.921875 C 352.554688 101.933594 351.492188 100.714844 350.121094 99.5 C 347.992188 97.523438 344.34375 96.15625 342.519531 94.40625 C 341.226562 92.355469 348.375 92.960938 353.46875 92.65625 Z M 333.394531 51.144531 C 334.6875 50.078125 334.382812 35.105469 333.699219 30.539062 C 332.789062 28.257812 332.5625 25.140625 332.941406 23.390625 C 333.394531 21.113281 334.6875 20.503906 336.136719 21.261719 C 337.808594 22.101562 339.707031 24.609375 341.609375 28.636719 C 342.976562 31.453125 341.457031 30.996094 341.457031 32.058594 C 341.382812 37.152344 340.925781 42.324219 340.847656 45.746094 C 340.847656 47.796875 343.660156 48.027344 344.117188 46.8125 C 344.574219 38.445312 343.585938 27.195312 344.34375 22.328125 C 344.421875 19.132812 343.054688 15.105469 344.34375 14.117188 C 345.867188 12.980469 349.289062 13.738281 350.808594 14.496094 C 352.023438 15.105469 352.023438 13.050781 352.859375 12.75 C 353.089844 12.671875 353.320312 12.59375 353.46875 12.59375 L 353.46875 19.742188 L 353.242188 19.742188 C 352.785156 20.125 352.933594 20.730469 352.859375 21.113281 C 352.554688 24.230469 352.023438 26.734375 352.101562 29.703125 C 352.328125 29.929688 352.859375 29.777344 353.46875 29.472656 L 353.46875 36.394531 C 352.859375 36.621094 351.796875 36.925781 351.640625 38.597656 C 351.414062 41.714844 349.59375 41.714844 350.578125 44.605469 C 350.960938 44.988281 352.253906 44.53125 353.46875 43.84375 L 353.46875 52.4375 C 352.632812 53.121094 351.949219 54.414062 350.808594 54.566406 C 348.828125 54.867188 347.234375 54.792969 346.167969 54.867188 C 344.726562 55.097656 344.042969 55.402344 342.367188 55.707031 C 340.847656 55.933594 337.425781 56.464844 335.222656 58.441406 C 333.09375 60.269531 332.789062 65.589844 331.644531 67.871094 C 330.660156 69.769531 329.671875 71.597656 328.835938 73.195312 C 327.769531 75.246094 326.78125 76.839844 324.652344 77.375 C 321.761719 78.058594 319.40625 74.410156 319.101562 72.128906 L 319.101562 71.289062 C 320.015625 67.945312 320.699219 65.207031 321 62.167969 C 321.15625 60.195312 320.472656 58.214844 320.699219 56.542969 C 320.925781 54.945312 321.992188 54.261719 322.75 53.351562 C 323.589844 52.285156 324.5 51.144531 326.023438 51.449219 C 327.238281 51.597656 328 52.664062 329.289062 52.738281 C 331.195312 52.96875 332.101562 52.210938 333.394531 51.144531 M 363.046875 103.835938 C 360.386719 106.191406 357.574219 106.871094 356.054688 105.660156 C 355.523438 105.28125 354.6875 104.214844 353.46875 102.921875 L 353.46875 92.65625 C 355.828125 92.503906 357.804688 92.203125 358.261719 91.367188 C 359.851562 88.625 359.703125 85.890625 359.398438 82.621094 C 359.476562 81.328125 357.652344 82.089844 354.839844 81.785156 C 354.457031 81.707031 354 81.707031 353.46875 81.707031 L 353.46875 73.726562 C 354.457031 73.648438 355.371094 73.496094 355.75 72.964844 C 357.042969 71.597656 354.457031 70.074219 354.6875 68.785156 C 354.988281 66.503906 360.613281 65.898438 361.152344 64.375 C 361.757812 62.699219 362.667969 63.613281 362.898438 61.5625 C 363.125 59.738281 358.792969 61.714844 356.96875 62.246094 C 355.671875 62.621094 354.535156 62.777344 353.46875 63.082031 L 353.46875 55.554688 C 356.207031 54.945312 359.398438 54.339844 363.046875 53.65625 Z M 353.46875 12.59375 C 355.21875 12.140625 357.117188 12.292969 358.03125 13.050781 C 359.550781 14.417969 361.453125 15.636719 363.046875 14.953125 L 363.046875 29.550781 C 362.898438 29.628906 362.589844 29.777344 362.441406 30.234375 C 361.832031 31.375 361.605469 31.601562 361.984375 32.746094 C 362.136719 32.894531 362.589844 32.667969 363.046875 32.367188 L 363.046875 43.464844 C 362.820312 43.691406 362.820312 43.769531 362.589844 44.53125 C 362.589844 44.683594 362.820312 44.835938 363.046875 44.910156 L 363.046875 50.382812 C 361.074219 50.535156 359.09375 50.761719 357.269531 51.144531 C 356.507812 51.371094 354.988281 51.449219 353.699219 52.285156 C 353.621094 52.285156 353.546875 52.359375 353.46875 52.4375 L 353.46875 43.84375 C 354.914062 43.007812 356.359375 41.792969 356.507812 40.804688 C 356.96875 37.230469 356.890625 35.40625 354 36.164062 C 353.921875 36.316406 353.773438 36.316406 353.46875 36.394531 L 353.46875 29.472656 C 354.914062 28.636719 356.738281 26.734375 357.042969 24.988281 C 357.421875 21.492188 356.207031 19.132812 353.46875 19.742188 Z M 371.714844 64.90625 C 369.738281 66.503906 368.292969 68.328125 368.21875 69.390625 C 368.140625 70.457031 369.585938 70.683594 371.714844 70.609375 L 371.714844 79.503906 C 370.195312 81.027344 371.714844 88.625 370.273438 92.125 C 369.207031 94.863281 367.6875 98.054688 366.242188 100.183594 C 365.253906 101.628906 364.1875 102.84375 363.046875 103.835938 L 363.046875 53.65625 L 364.648438 53.351562 C 366.925781 52.96875 369.359375 52.664062 371.714844 52.4375 Z M 363.046875 14.953125 C 363.429688 14.800781 363.734375 14.574219 364.039062 14.269531 C 366.242188 11.988281 363.808594 5.601562 368.292969 5.144531 C 369.507812 5.070312 370.652344 5.753906 371.714844 6.589844 L 371.714844 17.765625 C 371.414062 18.070312 371.183594 18.375 370.878906 18.679688 C 370.730469 18.90625 370.425781 19.058594 370.273438 20.425781 C 370.347656 21.339844 371.03125 21.644531 371.714844 22.175781 L 371.714844 30.085938 C 371.03125 30.460938 371.414062 31.527344 371.640625 32.289062 C 371.640625 32.367188 371.640625 32.441406 371.714844 32.441406 L 371.714844 39.816406 C 371.640625 39.816406 371.566406 39.816406 371.488281 39.890625 C 370.195312 40.042969 370.5 40.421875 370.121094 41.5625 C 370.195312 41.867188 371.03125 42.171875 371.714844 42.171875 L 371.714844 49.621094 C 370.578125 49.777344 369.359375 49.851562 368.21875 49.925781 C 366.546875 50.078125 364.796875 50.152344 363.046875 50.382812 L 363.046875 44.910156 C 363.660156 45.0625 364.417969 44.988281 364.796875 44.683594 C 365.710938 43.617188 365.785156 43.3125 364.722656 42.929688 C 364.648438 43.007812 364.1875 42.171875 363.582031 42.859375 C 363.351562 43.160156 363.199219 43.386719 363.046875 43.464844 L 363.046875 32.367188 C 363.660156 31.984375 364.1875 31.453125 364.265625 31.070312 C 364.417969 29.703125 364.492188 29.171875 363.351562 29.402344 C 363.351562 29.472656 363.277344 29.472656 363.046875 29.550781 Z M 374.453125 49.46875 C 373.542969 49.546875 372.628906 49.621094 371.714844 49.621094 L 371.714844 42.171875 C 372.019531 42.171875 372.25 42.097656 372.402344 41.945312 C 372.859375 41.414062 373.691406 41.03125 373.007812 40.269531 C 372.703125 39.890625 372.402344 39.738281 371.714844 39.816406 L 371.714844 32.441406 C 371.945312 32.820312 372.929688 33.046875 373.847656 32.972656 L 374.453125 32.972656 Z M 371.714844 70.609375 C 372.476562 70.609375 373.464844 70.457031 374.453125 70.378906 L 374.453125 78.894531 C 373.765625 78.96875 373.007812 79.046875 372.171875 79.199219 C 372.019531 79.277344 371.792969 79.351562 371.714844 79.503906 Z M 374.453125 63.15625 C 373.464844 63.613281 372.554688 64.296875 371.714844 64.90625 L 371.714844 52.4375 C 372.628906 52.285156 373.542969 52.210938 374.453125 52.132812 Z M 374.453125 21.339844 C 373.765625 20.882812 373.3125 20.351562 373.238281 19.972656 C 373.085938 19.285156 373.542969 18.832031 374.453125 18.601562 Z M 371.714844 22.175781 C 372.476562 22.707031 373.160156 23.390625 372.703125 25.21875 C 372.628906 25.828125 373.390625 26.28125 374.453125 26.585938 L 374.453125 29.929688 C 373.464844 29.855469 372.628906 29.855469 372.171875 29.929688 C 371.945312 29.929688 371.792969 30.007812 371.714844 30.085938 Z M 371.714844 6.589844 C 372.78125 7.503906 373.765625 8.714844 374.453125 9.554688 L 374.453125 14.117188 C 373.847656 15.105469 372.929688 16.320312 371.714844 17.765625 Z M 374.453125 70.378906 C 376.355469 70.074219 378.40625 69.769531 380.382812 69.542969 C 383.121094 69.242188 384.71875 67.71875 385.785156 68.476562 C 388.898438 70.835938 389.433594 71.21875 391.027344 75.625 C 392.398438 79.503906 386.695312 80.945312 383.726562 80.1875 C 379.242188 79.121094 378.027344 78.515625 374.453125 78.894531 Z M 374.453125 26.585938 C 376.429688 27.117188 379.472656 27.195312 379.929688 27.496094 C 380.765625 27.953125 381.523438 26.511719 380.382812 25.597656 C 380.003906 25.292969 378.863281 24.230469 377.722656 23.46875 C 376.585938 22.78125 375.289062 22.023438 374.453125 21.339844 L 374.453125 18.601562 C 375.441406 18.21875 376.960938 18.070312 378.632812 17.992188 C 380.914062 17.765625 383.726562 15.636719 385.707031 16.246094 C 387.605469 16.855469 389.050781 16.625 391.789062 23.085938 C 392.167969 24.230469 390.953125 26.054688 389.886719 27.800781 C 388.214844 30.390625 387.761719 32.820312 386.085938 35.632812 C 384.867188 37.535156 381.371094 43.3125 383.273438 42.859375 C 389.734375 41.488281 391.789062 41.792969 395.363281 44.988281 C 397.722656 47.113281 400 48.40625 400.230469 50.839844 L 400.230469 51.449219 C 400.152344 51.828125 400.078125 52.359375 399.847656 52.890625 C 396.121094 59.277344 387.679688 54.492188 380.382812 57.453125 C 379.242188 58.820312 379.699219 61.257812 376.734375 62.167969 C 375.972656 62.394531 375.214844 62.699219 374.453125 63.15625 L 374.453125 52.132812 C 376.960938 51.90625 379.09375 51.75 380.382812 51.675781 C 381.828125 51.523438 382.511719 50.003906 381.523438 49.320312 C 381.144531 49.089844 378.253906 49.242188 374.453125 49.46875 L 374.453125 32.972656 C 375.898438 33.125 376.808594 33.125 377.265625 32.589844 C 377.644531 32.058594 377.722656 30.996094 377.117188 30.460938 C 376.355469 30.234375 375.367188 30.007812 374.453125 29.929688 Z M 374.453125 9.554688 C 375.441406 10.769531 375.597656 12.0625 374.453125 14.117188 Z M 374.453125 9.554688 "/>
</g>
<path style=" stroke:none;fill-rule:evenodd;fill:rgb(0%,33.724976%,12.156677%);fill-opacity:1;" d="M 222.238281 39.589844 C 226.648438 39.738281 229.460938 39.28125 229.386719 38.445312 C 229.613281 34.875 229.613281 28.714844 228.550781 24 C 227.941406 21.644531 229.765625 20.125 231.058594 19.367188 C 234.328125 17.460938 235.164062 16.550781 236.988281 16.78125 C 240.183594 17.234375 242.539062 19.285156 244.816406 22.179688 C 245.882812 23.769531 246.71875 21.566406 245.425781 29.324219 C 244.746094 33.351562 245.425781 33.65625 245.960938 34.265625 C 247.785156 34.949219 249.6875 34.417969 252.421875 33.578125 C 255.769531 32.59375 256.910156 27.421875 263.601562 35.253906 C 264.511719 36.242188 265.195312 37.613281 263.976562 39.207031 C 262.535156 41.183594 259.113281 42.246094 255.234375 44.378906 C 250.21875 47.265625 242.007812 47.722656 243.222656 51.371094 C 246.644531 60.039062 255.996094 72.433594 268.3125 81.027344 C 271.507812 83.226562 275.308594 85.054688 279.640625 86.269531 C 285.953125 87.945312 291.277344 89.308594 288.15625 90.90625 C 283.367188 93.34375 265.652344 96.234375 260.710938 93.570312 C 255.539062 90.757812 240.183594 66.351562 237.445312 61.5625 C 237.292969 61.332031 236.914062 61.257812 236.609375 61.9375 C 233.796875 68.25 227.710938 80.039062 221.480469 84.976562 C 218.820312 87.105469 214.785156 85.964844 213.570312 85.054688 C 212.125 83.992188 203.15625 82.015625 201.710938 79.203125 C 200.875 77.453125 202.089844 77.296875 203.078125 77.144531 C 214.9375 76.691406 216.535156 73.195312 219.273438 71.0625 C 226.570312 65.4375 227.710938 55.707031 226.722656 55.328125 C 215.855469 56.390625 212.125 57.683594 208.707031 53.65625 C 201.9375 40.195312 207.414062 37.914062 213.722656 38.75 C 216.914062 39.132812 221.175781 39.589844 222.238281 39.589844 "/>
<path style=" stroke:none;fill-rule:evenodd;fill:rgb(0%,33.724976%,12.156677%);fill-opacity:1;" d="M 113.210938 52.511719 C 114.5 52.890625 115.644531 53.578125 116.785156 55.855469 C 119.976562 60.953125 118.683594 67.492188 119.59375 71.519531 C 120.355469 72.050781 122.484375 71.671875 124.839844 71.292969 C 128.035156 70.761719 131.453125 70.152344 131.304688 69.3125 C 130.925781 64.90625 131.609375 36.546875 130.925781 32.667969 C 130.847656 32.210938 130.542969 30.921875 130.46875 30.539062 C 129.027344 24 135.183594 22.101562 137.082031 22.328125 C 140.277344 22.632812 146.738281 28.714844 145.75 31.453125 C 144.078125 34.265625 143.925781 42.324219 143.851562 50.082031 C 143.769531 56.695312 143.699219 63.082031 144 65.515625 C 144 67.566406 152.136719 65.058594 154.875 63.917969 C 158.296875 63.308594 157.613281 52.359375 160.503906 50.382812 C 161.945312 49.394531 170.082031 50.839844 171.375 57.683594 C 171.527344 61.40625 170.460938 66.273438 169.550781 70.835938 C 168.863281 74.105469 168.332031 78.058594 168.253906 79.578125 C 168.105469 81.097656 161.792969 87.5625 159.664062 89.007812 C 156.394531 89.84375 155.332031 82.015625 155.332031 77.832031 C 155.332031 75.550781 155.40625 74.789062 154.796875 74.257812 C 152.820312 74.105469 147.804688 74.945312 144.839844 76.539062 C 143.242188 77.375 142.707031 79.730469 140.503906 80.113281 C 132.0625 79.808594 123.398438 81.480469 122.027344 82.847656 C 121.269531 83.535156 117.238281 87.03125 116.554688 87.945312 C 115.871094 88.855469 112.90625 87.945312 111.992188 88.25 C 109.867188 88.929688 108.566406 85.054688 106.140625 81.933594 C 103.480469 78.589844 105.304688 76.617188 106.820312 73.117188 C 108.496094 69.085938 109.105469 61.9375 108.722656 57.226562 C 108.722656 54.714844 108.566406 51.828125 113.210938 52.511719 "/>
<g clip-path="url(#clip2)" clip-rule="nonzero">
<path style=" stroke:none;fill-rule:evenodd;fill:rgb(0%,33.724976%,12.156677%);fill-opacity:1;" d="M 15.28125 31.300781 C 16.878906 31.832031 18.015625 30.765625 19.996094 29.628906 C 21.820312 28.566406 23.1875 27.726562 24.40625 27.039062 L 24.40625 37.535156 C 22.808594 37.992188 21.210938 37.992188 19.917969 37.535156 C 18.472656 36.925781 19.996094 46.964844 21.667969 47.414062 C 22.882812 47.570312 23.71875 47.644531 24.40625 47.644531 L 24.40625 60.496094 C 23.035156 61.027344 21.4375 61.714844 19.765625 62.394531 C 18.933594 63.082031 18.246094 63.765625 17.484375 64.675781 C 16.722656 65.515625 16.117188 66.957031 15.203125 67.1875 C 12.921875 67.792969 10.492188 67.492188 8.515625 66.046875 C 6.996094 64.832031 6.917969 61.636719 4.636719 58.289062 C 2.886719 56.007812 1.136719 54.339844 1.136719 51.144531 C 2.28125 48.332031 2.660156 46.8125 3.648438 45.0625 C 3.875 44.300781 4.027344 43.464844 4.179688 42.175781 C 4.484375 38.828125 4.941406 36.089844 6.15625 32.972656 C 7.070312 31.222656 11.707031 28.335938 15.28125 31.300781 M 24.40625 27.039062 C 26.839844 25.597656 28.585938 24.761719 31.402344 23.773438 C 31.246094 19.742188 30.714844 15.40625 30.867188 11.53125 C 30.867188 10.695312 30.640625 9.933594 30.335938 9.402344 C 28.664062 5.980469 32.464844 1.570312 37.863281 0.277344 C 39.382812 0.0507812 46.152344 3.242188 46.152344 6.285156 C 46 10.621094 45.542969 15.558594 45.921875 19.363281 C 46.910156 19.4375 48.28125 19.589844 49.800781 19.667969 L 49.800781 27.574219 C 48.28125 27.726562 46.679688 28.257812 45.84375 28.714844 C 44.855469 30.234375 44.324219 39.664062 45.542969 40.351562 C 46.910156 40.496094 48.507812 39.8125 49.800781 38.828125 L 49.800781 53.882812 C 47.902344 54.71875 46.074219 55.707031 44.25 56.921875 C 44.023438 70.53125 42.957031 83.304688 42.5 96.839844 C 41.511719 103.984375 39.078125 110.601562 35.429688 111.058594 C 32.84375 110.828125 30.335938 105.125 30.179688 96.078125 L 29.652344 58.898438 C 28.128906 59.128906 26.382812 59.738281 24.40625 60.496094 L 24.40625 47.644531 C 25.925781 47.644531 26.839844 47.265625 28.664062 46.125 C 29.953125 45.367188 29.578125 37.152344 29.121094 35.710938 C 28.511719 34.871094 27.445312 36.089844 27.144531 36.316406 C 26.230469 36.851562 25.316406 37.230469 24.40625 37.535156 Z M 49.800781 19.667969 C 51.320312 19.742188 52.917969 19.742188 54.589844 19.589844 C 57.554688 19.285156 61.28125 16.777344 64.015625 16.703125 C 67.894531 16.703125 73.21875 22.179688 74.585938 25.671875 C 75.34375 28.714844 73.445312 31.148438 71.394531 32.289062 L 69.488281 32.746094 C 67.441406 33.882812 63.714844 38.75 63.867188 39.738281 C 63.789062 41.183594 63.714844 42.097656 65.3125 43.238281 C 66.148438 44.605469 63.941406 50.230469 61.207031 51.296875 C 60.367188 51.753906 59.683594 52.210938 57.554688 52.210938 C 54.96875 52.132812 52.382812 52.738281 49.800781 53.882812 L 49.800781 38.828125 C 51.019531 37.992188 52.003906 36.925781 52.308594 36.164062 C 53.753906 34.191406 55.578125 30.765625 54.4375 28.257812 C 53.375 27.347656 51.546875 27.269531 49.800781 27.574219 Z M 49.800781 19.667969 "/>
</g>
<g clip-path="url(#clip3)" clip-rule="nonzero">
<path style=" stroke:none;fill-rule:evenodd;fill:rgb(0%,34.117126%,17.64679%);fill-opacity:1;" d="M 12.621094 128.089844 L 11.859375 128.089844 C 11.480469 126.796875 10.945312 125.652344 10.1875 124.746094 C 9.046875 123.449219 7.828125 122.84375 6.308594 122.84375 C 5.546875 122.84375 4.789062 123.070312 4.179688 123.527344 C 3.570312 123.980469 3.269531 124.667969 3.269531 125.503906 C 3.269531 126.261719 3.496094 126.871094 3.875 127.328125 C 4.257812 127.707031 5.015625 128.242188 6.234375 128.847656 L 10.339844 130.902344 C 11.101562 131.277344 11.707031 131.8125 12.242188 132.496094 C 13.074219 133.5625 13.457031 134.78125 13.457031 136.070312 C 13.457031 137.589844 12.921875 138.886719 11.933594 139.945312 C 10.640625 141.316406 8.820312 142 6.460938 142 C 5.546875 142 4.710938 141.925781 3.953125 141.695312 C 3.191406 141.46875 2.429688 141.242188 1.671875 141.011719 C 1.367188 141.011719 1.21875 141.089844 1.066406 141.316406 C 0.988281 141.46875 0.835938 141.695312 0.835938 142 L 0 142 L 0 135.007812 L 0.835938 135.007812 C 1.140625 136.757812 1.75 138.046875 2.507812 139.113281 C 3.570312 140.40625 4.941406 141.089844 6.613281 141.089844 C 7.679688 141.089844 8.589844 140.78125 9.199219 140.175781 C 9.808594 139.570312 10.109375 138.808594 10.109375 137.894531 C 10.109375 137.058594 9.808594 136.375 9.199219 135.84375 C 8.820312 135.464844 8.058594 135.007812 6.917969 134.476562 L 5.015625 133.5625 C 2.964844 132.574219 1.597656 131.433594 0.835938 130.140625 C 0.457031 129.457031 0.226562 128.542969 0.226562 127.476562 C 0.226562 125.730469 0.835938 124.285156 2.128906 123.296875 C 3.191406 122.386719 4.636719 121.929688 6.460938 121.929688 C 7.371094 121.929688 8.289062 122.085938 9.273438 122.386719 C 10.1875 122.6875 10.71875 122.917969 10.871094 122.917969 C 11.175781 122.917969 11.480469 122.765625 11.558594 122.460938 C 11.632812 122.308594 11.707031 122.15625 11.785156 121.929688 L 12.621094 121.929688 Z M 35.808594 122.386719 L 35.808594 123.070312 C 34.972656 123.222656 34.441406 123.449219 34.136719 123.679688 C 33.832031 123.980469 33.605469 124.589844 33.605469 125.503906 L 33.605469 134.476562 C 33.605469 135.464844 33.53125 136.449219 33.300781 137.363281 C 33 138.503906 32.617188 139.339844 32.082031 139.945312 C 31.402344 140.632812 30.488281 141.164062 29.421875 141.546875 C 28.511719 141.847656 27.519531 142 26.535156 142 C 25.542969 142 24.707031 141.925781 23.875 141.695312 C 22.65625 141.394531 21.589844 140.933594 20.753906 140.253906 C 20.070312 139.570312 19.613281 138.960938 19.3125 138.429688 C 19.007812 137.667969 18.855469 136.527344 18.855469 135.082031 L 18.855469 125.730469 C 18.855469 124.589844 18.625 123.90625 18.246094 123.601562 C 18.015625 123.375 17.414062 123.222656 16.496094 123.070312 L 16.496094 122.386719 L 26.078125 122.386719 L 26.078125 123.070312 C 25.015625 123.070312 24.328125 123.222656 24.027344 123.449219 C 23.570312 123.832031 23.339844 124.589844 23.339844 125.730469 L 23.339844 135.082031 C 23.339844 137.058594 23.644531 138.429688 24.328125 139.339844 C 25.015625 140.175781 26.003906 140.632812 27.371094 140.632812 C 29.5 140.632812 30.941406 139.796875 31.78125 138.277344 C 32.160156 137.363281 32.390625 136.148438 32.390625 134.476562 L 32.390625 125.882812 C 32.390625 124.898438 32.238281 124.210938 31.933594 123.832031 C 31.550781 123.375 30.792969 123.070312 29.648438 123.070312 L 29.648438 122.386719 Z M 38.320312 141.46875 L 38.320312 140.78125 C 39.230469 140.632812 39.839844 140.480469 40.144531 140.253906 C 40.523438 139.945312 40.753906 139.414062 40.753906 138.503906 L 40.753906 125.121094 C 40.070312 124.210938 39.460938 123.679688 39.152344 123.375 C 38.851562 123.222656 38.621094 123.070312 38.394531 123.070312 L 38.394531 122.386719 L 44.324219 122.386719 L 54.132812 134.476562 L 54.132812 125.882812 C 54.132812 124.972656 53.984375 124.285156 53.675781 123.832031 C 53.296875 123.375 52.613281 123.070312 51.542969 123.070312 L 51.542969 122.386719 L 57.632812 122.386719 L 57.632812 123.070312 C 56.640625 123.222656 56.035156 123.449219 55.808594 123.753906 C 55.5 124.058594 55.425781 124.589844 55.425781 125.347656 L 55.425781 141.925781 L 54.589844 141.925781 L 42.042969 126.71875 L 42.042969 137.972656 C 42.042969 138.960938 42.195312 139.644531 42.578125 140.023438 C 42.882812 140.40625 43.640625 140.632812 44.707031 140.78125 L 44.707031 141.46875 Z M 94.65625 140.632812 C 94.582031 140.710938 94.429688 140.710938 94.28125 140.78125 L 94.28125 141.46875 L 94.65625 141.46875 Z M 94.65625 122.386719 L 94.65625 123.144531 C 94.351562 123.296875 94.050781 123.375 93.824219 123.449219 C 93.59375 123.601562 93.367188 123.832031 93.136719 124.210938 L 87.816406 132.953125 L 87.816406 138.125 C 87.816406 139.265625 87.964844 139.945312 88.347656 140.253906 C 88.574219 140.480469 89.257812 140.632812 90.402344 140.78125 L 90.402344 141.46875 L 80.59375 141.46875 L 80.59375 140.78125 C 81.65625 140.632812 82.339844 140.480469 82.644531 140.253906 C 83.027344 139.945312 83.253906 139.265625 83.253906 138.125 L 83.253906 134.019531 L 78.082031 124.667969 C 77.855469 124.359375 77.78125 124.132812 77.703125 124.058594 C 77.167969 123.449219 76.5625 123.070312 75.800781 123.070312 L 75.800781 122.386719 L 85.230469 122.386719 L 85.230469 123.070312 C 84.242188 123.070312 83.636719 123.144531 83.402344 123.296875 C 83.101562 123.375 82.949219 123.679688 82.949219 124.058594 C 82.949219 124.210938 83.027344 124.515625 83.253906 124.898438 C 83.402344 125.199219 83.554688 125.503906 83.636719 125.652344 L 87.058594 132.191406 L 90.171875 126.945312 C 90.402344 126.644531 90.554688 126.261719 90.78125 125.808594 C 91.082031 125.199219 91.234375 124.667969 91.234375 124.359375 C 91.234375 123.832031 91.007812 123.527344 90.628906 123.375 C 90.246094 123.222656 89.640625 123.070312 88.878906 123.070312 L 88.878906 122.386719 Z M 94.65625 123.144531 L 94.65625 122.386719 L 95.113281 122.386719 L 95.113281 123.070312 C 94.964844 123.144531 94.808594 123.144531 94.65625 123.144531 M 102.105469 124.972656 L 102.105469 128.164062 L 102.03125 127.933594 L 99.371094 134.78125 L 102.105469 134.78125 L 102.105469 135.917969 L 98.914062 135.917969 C 98.535156 136.980469 98.230469 137.820312 98.003906 138.351562 C 97.773438 138.960938 97.699219 139.339844 97.699219 139.570312 C 97.699219 140.023438 98.003906 140.324219 98.457031 140.554688 C 98.839844 140.710938 99.371094 140.78125 99.980469 140.78125 L 99.980469 141.46875 L 94.65625 141.46875 L 94.65625 140.632812 C 95.1875 140.480469 95.648438 140.253906 95.949219 139.796875 C 96.179688 139.492188 96.558594 138.65625 97.089844 137.4375 Z M 113.359375 140.78125 C 112.753906 140.710938 112.296875 140.480469 111.914062 139.875 C 111.535156 139.492188 111.078125 138.429688 110.394531 136.832031 L 104.085938 122.003906 L 103.328125 122.003906 L 102.105469 124.972656 L 102.105469 128.164062 L 104.84375 134.78125 L 102.105469 134.78125 L 102.105469 135.917969 L 105.304688 135.917969 C 105.679688 136.832031 105.988281 137.519531 106.140625 137.820312 C 106.441406 138.65625 106.59375 139.265625 106.59375 139.644531 C 106.59375 140.101562 106.441406 140.40625 106.140625 140.554688 C 105.832031 140.710938 105.226562 140.78125 104.3125 140.78125 L 104.3125 141.46875 L 113.359375 141.46875 Z M 113.359375 122.386719 L 113.359375 128.089844 L 113.285156 128.089844 Z M 144.078125 136.601562 L 134.347656 136.601562 L 134.347656 133.332031 L 144.078125 133.332031 Z M 160.351562 128.089844 L 159.589844 128.089844 C 159.207031 126.796875 158.679688 125.652344 157.917969 124.746094 C 156.851562 123.449219 155.554688 122.84375 154.039062 122.84375 C 153.277344 122.84375 152.519531 123.070312 151.910156 123.527344 C 151.375 123.980469 151.070312 124.667969 151.070312 125.503906 C 151.070312 126.261719 151.226562 126.871094 151.605469 127.328125 C 151.984375 127.707031 152.746094 128.242188 153.960938 128.847656 L 158.070312 130.902344 C 158.828125 131.277344 159.433594 131.8125 159.96875 132.496094 C 160.804688 133.5625 161.183594 134.78125 161.183594 136.070312 C 161.183594 137.589844 160.652344 138.886719 159.664062 139.945312 C 158.371094 141.316406 156.546875 142 154.191406 142 C 153.277344 142 152.441406 141.925781 151.679688 141.695312 C 150.921875 141.46875 150.160156 141.242188 149.398438 141.011719 C 149.09375 141.011719 149.019531 141.089844 148.867188 141.316406 C 148.792969 141.46875 148.71875 141.695312 148.644531 142 L 147.804688 142 L 147.804688 135.007812 L 148.644531 135.007812 C 148.945312 136.757812 149.472656 138.046875 150.316406 139.113281 C 151.304688 140.40625 152.667969 141.089844 154.34375 141.089844 C 155.40625 141.089844 156.316406 140.78125 156.925781 140.175781 C 157.535156 139.570312 157.839844 138.808594 157.839844 137.894531 C 157.839844 137.058594 157.535156 136.375 156.925781 135.84375 C 156.546875 135.464844 155.789062 135.007812 154.648438 134.476562 L 152.820312 133.5625 C 150.691406 132.574219 149.324219 131.433594 148.644531 130.140625 C 148.257812 129.457031 148.035156 128.542969 148.035156 127.476562 C 148.035156 125.730469 148.644531 124.285156 149.855469 123.296875 C 150.921875 122.386719 152.367188 121.929688 154.191406 121.929688 C 155.105469 121.929688 156.015625 122.085938 157.003906 122.386719 C 157.917969 122.6875 158.449219 122.917969 158.597656 122.917969 C 158.902344 122.917969 159.207031 122.765625 159.359375 122.460938 C 159.433594 122.308594 159.433594 122.15625 159.511719 121.929688 L 160.351562 121.929688 Z M 164.230469 123.070312 L 164.230469 122.386719 L 180.5 122.386719 L 180.5 128.089844 L 179.8125 128.089844 C 179.511719 126.1875 178.824219 124.898438 177.761719 124.210938 C 176.925781 123.679688 175.40625 123.375 173.351562 123.375 C 172.511719 123.375 171.980469 123.449219 171.75 123.601562 C 171.449219 123.753906 171.296875 124.132812 171.296875 124.667969 L 171.296875 131.203125 C 172.742188 131.203125 173.808594 130.976562 174.414062 130.445312 C 175.175781 129.839844 175.707031 128.695312 175.859375 127.023438 L 176.621094 127.023438 L 176.621094 136.527344 L 175.859375 136.527344 C 175.707031 134.855469 175.25 133.714844 174.566406 133.105469 C 173.882812 132.496094 172.816406 132.191406 171.296875 132.191406 L 171.296875 139.035156 C 171.296875 139.644531 171.449219 140.023438 171.828125 140.253906 C 172.136719 140.480469 172.742188 140.554688 173.65625 140.554688 C 175.328125 140.554688 176.695312 140.253906 177.761719 139.71875 C 179.128906 138.960938 180.269531 137.589844 181.109375 135.613281 L 181.867188 135.613281 L 180.722656 141.46875 L 164.230469 141.46875 L 164.230469 140.78125 C 165.21875 140.632812 165.820312 140.554688 166.125 140.324219 C 166.507812 140.101562 166.738281 139.570312 166.738281 138.734375 L 166.738281 125.121094 C 166.738281 124.285156 166.507812 123.679688 165.976562 123.449219 C 165.671875 123.222656 165.058594 123.070312 164.230469 123.070312 M 184.453125 141.46875 L 184.453125 140.78125 C 185.441406 140.632812 186.050781 140.480469 186.351562 140.253906 C 186.730469 139.945312 186.960938 139.414062 186.960938 138.503906 L 186.960938 125.121094 C 186.199219 124.210938 185.667969 123.679688 185.285156 123.375 C 185.058594 123.222656 184.832031 123.070312 184.527344 123.070312 L 184.527344 122.386719 L 190.535156 122.386719 L 200.265625 134.476562 L 200.34375 125.882812 C 200.34375 124.972656 200.1875 124.285156 199.886719 123.832031 C 199.503906 123.375 198.824219 123.070312 197.757812 123.070312 L 197.757812 122.386719 L 203.761719 122.386719 L 203.761719 123.070312 C 202.851562 123.222656 202.242188 123.449219 201.9375 123.753906 C 201.710938 124.058594 201.558594 124.589844 201.558594 125.347656 L 201.558594 141.925781 L 200.796875 141.925781 L 188.253906 126.71875 L 188.175781 137.972656 C 188.175781 138.960938 188.40625 139.644531 188.707031 140.023438 C 189.089844 140.40625 189.773438 140.632812 190.839844 140.78125 L 190.839844 141.46875 Z M 233.414062 122.386719 L 233.414062 123.070312 C 232.578125 123.222656 232.046875 123.449219 231.742188 123.679688 C 231.4375 123.980469 231.210938 124.589844 231.210938 125.503906 L 231.210938 134.476562 C 231.210938 135.464844 231.136719 136.449219 230.90625 137.363281 C 230.601562 138.503906 230.222656 139.339844 229.691406 139.945312 C 229.003906 140.632812 228.09375 141.164062 227.03125 141.546875 C 226.117188 141.847656 225.128906 142 224.136719 142 C 223.152344 142 222.316406 141.925781 221.480469 141.695312 C 220.261719 141.394531 219.199219 140.933594 218.363281 140.253906 C 217.675781 139.570312 217.222656 138.960938 216.914062 138.429688 C 216.613281 137.667969 216.460938 136.527344 216.460938 135.082031 L 216.460938 125.730469 C 216.460938 124.589844 216.234375 123.90625 215.855469 123.601562 C 215.625 123.375 215.015625 123.222656 214.105469 123.070312 L 214.105469 122.386719 L 223.683594 122.386719 L 223.683594 123.070312 C 222.617188 123.070312 221.933594 123.222656 221.628906 123.449219 C 221.175781 123.832031 220.945312 124.589844 220.945312 125.730469 L 220.945312 135.082031 C 220.945312 137.058594 221.25 138.429688 221.933594 139.339844 C 222.617188 140.175781 223.609375 140.632812 224.976562 140.632812 C 227.105469 140.632812 228.550781 139.796875 229.386719 138.277344 C 229.765625 137.363281 229.992188 136.148438 229.992188 134.476562 L 229.992188 125.882812 C 229.992188 124.898438 229.839844 124.210938 229.539062 123.832031 C 229.15625 123.375 228.398438 123.070312 227.257812 123.070312 L 227.257812 122.386719 Z M 235.621094 141.46875 L 235.621094 140.78125 C 236.53125 140.632812 237.214844 140.480469 237.445312 140.253906 C 237.902344 139.945312 238.054688 139.414062 238.054688 138.503906 L 238.054688 125.121094 C 237.371094 124.210938 236.835938 123.679688 236.457031 123.375 C 236.152344 123.222656 235.925781 123.070312 235.695312 123.070312 L 235.695312 122.386719 L 241.625 122.386719 L 251.4375 134.476562 L 251.511719 125.882812 C 251.511719 124.972656 251.359375 124.285156 251.054688 123.832031 C 250.671875 123.375 249.914062 123.070312 248.851562 123.070312 L 248.851562 122.386719 L 254.933594 122.386719 L 254.933594 123.070312 C 253.941406 123.222656 253.335938 123.449219 253.109375 123.753906 C 252.878906 124.058594 252.726562 124.589844 252.726562 125.347656 L 252.726562 141.925781 L 251.890625 141.925781 L 239.347656 126.71875 L 239.347656 137.972656 C 239.347656 138.960938 239.496094 139.644531 239.878906 140.023438 C 240.183594 140.40625 240.941406 140.632812 242.011719 140.78125 L 242.011719 141.46875 Z M 267.09375 140.78125 L 267.09375 141.46875 L 257.214844 141.46875 L 257.214844 140.78125 C 258.351562 140.632812 259.113281 140.40625 259.417969 140.175781 C 259.648438 139.875 259.796875 139.414062 259.796875 138.734375 L 259.796875 125.121094 C 259.796875 124.285156 259.570312 123.753906 259.039062 123.449219 C 258.65625 123.222656 258.050781 123.070312 257.214844 123.070312 L 257.214844 122.386719 L 267.09375 122.386719 L 267.09375 123.070312 C 266.1875 123.070312 265.574219 123.222656 265.195312 123.375 C 264.664062 123.679688 264.359375 124.210938 264.359375 125.121094 L 264.359375 138.734375 C 264.359375 139.570312 264.664062 140.101562 265.121094 140.40625 C 265.574219 140.632812 266.1875 140.78125 267.09375 140.78125 M 288.234375 122.386719 L 288.234375 123.070312 C 287.472656 123.222656 286.941406 123.375 286.640625 123.679688 C 286.332031 123.980469 286.03125 124.589844 285.652344 125.425781 L 279.265625 141.925781 L 278.5 141.925781 L 271.277344 125.046875 C 270.898438 124.285156 270.59375 123.753906 270.367188 123.601562 C 270.066406 123.375 269.605469 123.222656 268.917969 123.070312 L 268.917969 122.386719 L 278.351562 122.386719 L 278.351562 123.070312 C 277.359375 123.070312 276.75 123.144531 276.449219 123.296875 C 276.070312 123.449219 275.917969 123.753906 275.917969 124.285156 C 275.917969 124.515625 276.070312 124.898438 276.296875 125.503906 C 276.527344 126.109375 276.679688 126.492188 276.75 126.71875 L 280.480469 135.613281 L 284.050781 126.339844 C 284.203125 125.960938 284.355469 125.578125 284.433594 125.273438 C 284.585938 124.898438 284.660156 124.667969 284.660156 124.4375 C 284.660156 123.527344 283.824219 123.070312 282.226562 123.070312 L 282.226562 122.386719 Z M 290.667969 123.070312 L 290.667969 122.386719 L 306.9375 122.386719 L 306.9375 128.089844 L 306.179688 128.089844 C 305.949219 126.1875 305.265625 124.898438 304.199219 124.210938 C 303.289062 123.679688 301.84375 123.375 299.789062 123.375 C 298.953125 123.375 298.347656 123.449219 298.117188 123.601562 C 297.816406 123.753906 297.738281 124.132812 297.738281 124.667969 L 297.738281 131.203125 C 299.183594 131.203125 300.171875 130.976562 300.855469 130.445312 C 301.617188 129.839844 302.070312 128.695312 302.300781 127.023438 L 302.984375 127.023438 L 302.984375 136.527344 L 302.300781 136.527344 C 302.070312 134.855469 301.691406 133.714844 301.007812 133.105469 C 300.246094 132.496094 299.183594 132.191406 297.738281 132.191406 L 297.738281 139.035156 C 297.738281 139.644531 297.890625 140.023438 298.195312 140.253906 C 298.5 140.480469 299.183594 140.554688 300.097656 140.554688 C 301.769531 140.554688 303.136719 140.253906 304.125 139.71875 C 305.570312 138.960938 306.636719 137.589844 307.472656 135.613281 L 308.308594 135.613281 L 307.164062 141.46875 L 290.667969 141.46875 L 290.667969 140.78125 C 291.578125 140.632812 292.1875 140.554688 292.492188 140.324219 C 292.949219 140.101562 293.101562 139.570312 293.101562 138.734375 L 293.101562 125.121094 C 293.101562 124.285156 292.875 123.679688 292.414062 123.449219 C 292.035156 123.222656 291.425781 123.070312 290.667969 123.070312 M 113.359375 128.089844 L 114.121094 128.089844 C 114.351562 126.109375 115.113281 124.746094 116.328125 123.980469 C 117.085938 123.527344 118.152344 123.296875 119.519531 123.296875 L 119.519531 138.125 C 119.519531 139.339844 119.371094 140.023438 118.988281 140.324219 C 118.605469 140.632812 117.925781 140.78125 116.785156 140.78125 L 116.785156 141.46875 L 126.894531 141.46875 L 126.894531 140.78125 C 125.757812 140.78125 124.992188 140.632812 124.691406 140.324219 C 124.308594 140.023438 124.082031 139.339844 124.082031 138.125 L 124.082031 123.296875 C 125.523438 123.296875 126.589844 123.527344 127.351562 123.980469 C 128.566406 124.746094 129.253906 126.109375 129.558594 128.089844 L 130.316406 128.089844 L 130.316406 122.386719 L 113.359375 122.386719 Z M 113.359375 140.78125 L 113.433594 140.78125 L 113.433594 141.46875 L 113.359375 141.46875 Z M 319.636719 122.386719 L 319.636719 123.449219 C 319.40625 123.375 319.105469 123.375 318.796875 123.375 C 318.113281 123.375 317.65625 123.449219 317.429688 123.601562 C 317.277344 123.679688 317.125 124.058594 317.050781 124.515625 L 317.050781 131.734375 C 318.113281 131.734375 318.949219 131.660156 319.636719 131.507812 L 319.636719 135.386719 L 317.808594 132.652344 L 317.050781 132.652344 L 317.050781 138.125 C 317.050781 139.1875 317.277344 139.875 317.582031 140.175781 C 317.890625 140.40625 318.570312 140.632812 319.558594 140.78125 L 319.558594 141.46875 L 310.054688 141.46875 L 310.054688 140.78125 C 311.042969 140.632812 311.726562 140.480469 311.957031 140.253906 C 312.332031 139.945312 312.488281 139.265625 312.488281 138.125 L 312.488281 125.730469 C 312.488281 124.589844 312.261719 123.832031 311.882812 123.527344 C 311.578125 123.222656 310.96875 123.070312 310.054688 123.070312 L 310.054688 122.386719 Z M 344.726562 128.089844 L 343.890625 128.089844 C 343.585938 126.796875 342.980469 125.652344 342.21875 124.746094 C 341.152344 123.449219 339.859375 122.84375 338.414062 122.84375 C 337.578125 122.84375 336.894531 123.070312 336.289062 123.527344 C 335.675781 123.980469 335.375 124.667969 335.375 125.503906 C 335.375 126.261719 335.527344 126.871094 335.90625 127.328125 C 336.363281 127.707031 337.121094 128.242188 338.265625 128.847656 L 342.441406 130.902344 C 343.128906 131.277344 343.738281 131.8125 344.269531 132.496094 C 345.105469 133.5625 345.484375 134.78125 345.484375 136.070312 C 345.484375 137.589844 345.027344 138.886719 343.96875 139.945312 C 342.671875 141.316406 340.847656 142 338.488281 142 C 337.578125 142 336.820312 141.925781 336.058594 141.695312 C 335.300781 141.46875 334.460938 141.242188 333.699219 141.011719 C 333.476562 141.011719 333.242188 141.089844 333.167969 141.316406 C 333.015625 141.46875 332.941406 141.695312 332.863281 142 L 332.027344 142 L 332.027344 135.007812 L 332.863281 135.007812 C 333.167969 136.757812 333.777344 138.046875 334.613281 139.113281 C 335.601562 140.40625 336.96875 141.089844 338.644531 141.089844 C 339.78125 141.089844 340.621094 140.78125 341.226562 140.175781 C 341.832031 139.570312 342.140625 138.808594 342.140625 137.894531 C 342.140625 137.058594 341.832031 136.375 341.304688 135.84375 C 340.847656 135.464844 340.089844 135.007812 339.023438 134.476562 L 337.121094 133.5625 C 334.992188 132.574219 333.625 131.433594 332.941406 130.140625 C 332.484375 129.457031 332.257812 128.542969 332.257812 127.476562 C 332.257812 125.730469 332.941406 124.285156 334.15625 123.296875 C 335.300781 122.386719 336.742188 121.929688 338.488281 121.929688 C 339.402344 121.929688 340.316406 122.085938 341.304688 122.386719 C 342.292969 122.6875 342.824219 122.917969 342.902344 122.917969 C 343.28125 122.917969 343.507812 122.765625 343.660156 122.460938 C 343.738281 122.308594 343.8125 122.15625 343.8125 121.929688 L 344.726562 121.929688 Z M 358.5625 140.78125 L 358.5625 141.46875 L 348.679688 141.46875 L 348.679688 140.78125 C 349.898438 140.632812 350.578125 140.40625 350.886719 140.175781 C 351.1875 139.875 351.339844 139.414062 351.339844 138.734375 L 351.339844 125.121094 C 351.339844 124.285156 351.035156 123.753906 350.503906 123.449219 C 350.121094 123.222656 349.515625 123.070312 348.679688 123.070312 L 348.679688 122.386719 L 358.5625 122.386719 L 358.5625 123.070312 C 357.726562 123.070312 357.117188 123.222656 356.738281 123.375 C 356.128906 123.679688 355.902344 124.210938 355.902344 125.121094 L 355.902344 138.734375 C 355.902344 139.570312 356.128906 140.101562 356.660156 140.40625 C 357.039062 140.632812 357.652344 140.78125 358.5625 140.78125 M 374.988281 140.78125 L 374.988281 141.46875 L 364.875 141.46875 L 364.875 140.78125 C 366.015625 140.78125 366.695312 140.632812 367.078125 140.324219 C 367.457031 140.023438 367.609375 139.339844 367.609375 138.125 L 367.609375 123.296875 C 366.242188 123.296875 365.175781 123.527344 364.417969 123.980469 C 363.199219 124.746094 362.441406 126.109375 362.214844 128.089844 L 361.375 128.089844 L 361.453125 122.386719 L 378.40625 122.386719 L 378.40625 128.089844 L 377.648438 128.089844 C 377.34375 126.109375 376.660156 124.746094 375.441406 123.980469 C 374.683594 123.527344 373.617188 123.296875 372.171875 123.296875 L 372.171875 138.125 C 372.171875 139.339844 372.402344 140.023438 372.78125 140.324219 C 373.085938 140.632812 373.847656 140.78125 374.988281 140.78125 M 319.636719 135.386719 L 319.636719 131.507812 C 320.242188 131.355469 320.699219 131.203125 321 130.976562 C 321.84375 130.367188 322.222656 129.152344 322.222656 127.402344 C 322.222656 126.035156 321.917969 124.972656 321.386719 124.359375 C 321 123.832031 320.394531 123.527344 319.636719 123.449219 L 319.636719 122.386719 C 321.992188 122.460938 323.738281 122.917969 325.03125 123.679688 C 326.402344 124.515625 327.011719 125.730469 327.011719 127.328125 C 327.011719 128.847656 326.480469 130.066406 325.414062 130.902344 C 324.804688 131.355469 323.894531 131.8125 322.601562 132.191406 L 328.304688 140.253906 C 328.457031 140.40625 328.609375 140.554688 328.835938 140.632812 C 328.988281 140.710938 329.214844 140.78125 329.441406 140.78125 L 329.441406 141.46875 L 323.664062 141.46875 Z M 400.378906 122.386719 L 400.378906 123.070312 C 399.847656 123.222656 399.464844 123.296875 399.164062 123.449219 C 398.933594 123.601562 398.707031 123.832031 398.476562 124.210938 L 393.078125 132.953125 L 393.078125 138.125 C 393.078125 139.265625 393.308594 139.945312 393.6875 140.253906 C 393.917969 140.480469 394.605469 140.632812 395.742188 140.78125 L 395.742188 141.46875 L 385.933594 141.46875 L 385.933594 140.78125 C 387 140.632812 387.679688 140.480469 387.988281 140.253906 C 388.367188 139.945312 388.519531 139.265625 388.519531 138.125 L 388.519531 134.019531 L 383.425781 124.667969 C 383.199219 124.359375 383.121094 124.132812 383.046875 124.058594 C 382.511719 123.449219 381.902344 123.070312 381.144531 123.070312 L 381.144531 122.386719 L 390.574219 122.386719 L 390.574219 123.070312 C 389.585938 123.070312 388.976562 123.144531 388.671875 123.296875 C 388.445312 123.375 388.292969 123.679688 388.292969 124.058594 C 388.292969 124.210938 388.367188 124.515625 388.597656 124.898438 C 388.746094 125.199219 388.898438 125.503906 388.976562 125.652344 L 392.320312 132.191406 L 395.515625 126.945312 C 395.742188 126.644531 395.894531 126.261719 396.121094 125.808594 C 396.429688 125.199219 396.578125 124.667969 396.578125 124.359375 C 396.578125 123.832031 396.347656 123.527344 395.972656 123.375 C 395.515625 123.222656 394.980469 123.070312 394.222656 123.070312 L 394.222656 122.386719 Z M 400.378906 122.386719 "/>
</g>
</g>
</svg>
