<?xml version="1.0" encoding="UTF-8"?>
<svg xmlns="http://www.w3.org/2000/svg" xmlns:xlink="http://www.w3.org/1999/xlink" width="141.732pt" height="141.732pt" viewBox="0 0 141.732 141.732" version="1.2">
<defs>
<clipPath id="clip1">
  <path d="M 0 0 L 141.464844 0 L 141.464844 141.464844 L 0 141.464844 Z M 0 0 "/>
</clipPath>
</defs>
<g id="surface1">
<path style=" stroke:none;fill-rule:evenodd;fill:rgb(100%,100%,100%);fill-opacity:1;" d="M 109.042969 31.265625 C 109.167969 31.390625 109.332031 31.429688 109.535156 31.390625 C 110.238281 31.308594 110.652344 29.863281 111.476562 30.359375 C 111.929688 30.730469 111.929688 31.511719 111.96875 31.96875 C 111.96875 32.542969 111.597656 32.832031 110.15625 33.082031 C 110.074219 33.121094 110.03125 33.082031 109.785156 33.328125 C 109.578125 33.65625 110.15625 33.988281 109.578125 34.484375 C 109.289062 34.730469 110.484375 35.679688 110.566406 35.84375 C 110.652344 36.050781 110.9375 35.886719 110.898438 35.558594 C 110.855469 35.472656 110.8125 35.144531 110.691406 34.855469 C 110.527344 34.359375 110.277344 33.824219 110.402344 33.617188 C 110.527344 33.328125 111.023438 33.617188 111.558594 33.988281 C 111.96875 34.277344 112.753906 34.277344 113 34.648438 C 113.289062 35.019531 113.539062 35.183594 113.164062 36.667969 C 113.082031 36.917969 112.628906 37.078125 112.21875 37.207031 C 111.558594 37.453125 111.1875 37.828125 110.527344 38.074219 C 110.15625 38.238281 109.246094 38.566406 109.042969 38.816406 L 109.042969 36.257812 C 109.167969 36.335938 109.289062 36.382812 109.414062 36.382812 C 109.535156 36.335938 109.703125 36.132812 109.660156 36.011719 C 109.492188 35.761719 109.246094 35.515625 109.042969 35.347656 Z M 109.042969 38.980469 L 109.082031 38.980469 C 110.402344 39.597656 110.691406 39.929688 110.898438 40.960938 C 111.0625 41.824219 111.347656 42.441406 110.652344 42.941406 C 110.03125 43.1875 109.535156 43.019531 109.042969 42.734375 Z M 107.101562 29.535156 C 107.144531 29.578125 107.1875 29.613281 107.1875 29.65625 C 107.308594 29.945312 107.597656 29.578125 107.804688 29.65625 C 108.214844 29.78125 108.585938 30.109375 108.628906 30.398438 C 108.710938 30.730469 108.835938 31.097656 109.042969 31.265625 L 109.042969 35.347656 C 108.957031 35.308594 108.917969 35.265625 108.875 35.226562 C 108.628906 35.101562 108.546875 35.390625 108.464844 35.558594 C 108.421875 35.679688 108.546875 35.886719 108.753906 35.96875 C 108.875 36.09375 108.957031 36.171875 109.042969 36.257812 L 109.042969 38.816406 C 109 38.855469 109 38.941406 109.042969 38.980469 L 109.042969 42.734375 C 108.464844 42.320312 107.886719 41.703125 107.101562 41.332031 L 107.101562 39.96875 C 107.226562 40.007812 107.308594 40.09375 107.390625 40.132812 C 107.640625 40.300781 107.96875 40.132812 107.886719 39.886719 C 107.886719 39.804688 107.554688 39.597656 107.101562 39.269531 L 107.101562 37.289062 C 107.1875 37.328125 107.226562 37.371094 107.308594 37.371094 C 107.433594 37.328125 107.640625 37.371094 107.640625 37.164062 C 107.597656 37.042969 107.597656 36.960938 107.390625 36.875 C 107.269531 36.792969 107.1875 36.792969 107.101562 36.875 L 107.101562 34.441406 C 107.226562 34.441406 107.269531 34.402344 107.308594 34.359375 C 107.554688 34.152344 107.640625 34.070312 107.390625 33.945312 C 107.351562 33.988281 107.308594 33.90625 107.101562 33.988281 L 107.101562 32.050781 C 107.390625 31.636719 107.433594 31.265625 107.101562 31.019531 Z M 105.578125 29.328125 C 105.742188 28.996094 105.90625 28.75 106.113281 28.75 C 106.484375 28.75 106.894531 29.203125 107.101562 29.535156 L 107.101562 31.019531 C 107.0625 30.980469 106.980469 30.933594 106.894531 30.933594 C 106.769531 30.933594 106.730469 31.058594 106.6875 31.097656 C 106.277344 31.511719 105.90625 31.84375 105.578125 32.257812 Z M 107.101562 41.332031 C 106.980469 41.25 106.8125 41.207031 106.609375 41.164062 C 106.277344 41.207031 106.03125 41.621094 105.578125 41.535156 L 105.578125 38.980469 C 106.152344 39.351562 106.730469 39.722656 107.101562 39.96875 Z M 105.578125 43.519531 C 105.824219 43.601562 106.03125 43.640625 106.074219 43.808594 C 106.316406 44.632812 106.359375 44.753906 106.03125 45.746094 C 105.949219 46.035156 105.78125 46.15625 105.578125 46.199219 Z M 107.101562 39.269531 L 107.101562 37.289062 C 107.023438 37.207031 106.9375 37.042969 106.9375 37 C 107.023438 36.917969 107.0625 36.875 107.101562 36.875 L 107.101562 34.441406 C 106.9375 34.441406 106.730469 34.402344 106.6875 34.359375 C 106.8125 34.113281 106.855469 34.113281 107.101562 33.988281 L 107.101562 32.050781 C 107.0625 32.132812 106.980469 32.257812 106.855469 32.335938 C 106.566406 32.625 105.90625 32.710938 105.578125 32.625 L 105.578125 36.382812 L 105.617188 36.335938 C 105.824219 36.296875 105.78125 36.503906 105.824219 36.503906 C 105.949219 36.710938 105.90625 36.75 105.617188 36.832031 L 105.578125 36.832031 L 105.578125 38.238281 C 106.152344 38.609375 106.6875 38.980469 107.101562 39.269531 M 104.175781 31.183594 C 104.460938 30.769531 104.75 30.398438 105 30.152344 C 105.203125 29.90625 105.410156 29.578125 105.578125 29.328125 L 105.578125 32.257812 C 105.496094 32.335938 105.453125 32.417969 105.371094 32.503906 C 105.410156 32.542969 105.453125 32.585938 105.578125 32.625 L 105.578125 36.382812 C 105.371094 36.421875 105.410156 36.382812 105.246094 36.503906 C 105.203125 36.585938 105.410156 36.792969 105.578125 36.832031 L 105.578125 38.238281 L 105.496094 38.195312 C 105.039062 37.90625 104.585938 37.617188 104.175781 37.371094 L 104.175781 35.183594 C 104.378906 35.183594 104.585938 35.144531 104.667969 35.019531 C 105.203125 34.484375 105.453125 34.152344 104.835938 33.90625 C 104.792969 33.945312 104.503906 33.65625 104.175781 33.945312 Z M 105.578125 41.535156 L 105.578125 38.980469 C 105.164062 38.730469 104.792969 38.527344 104.421875 38.316406 L 104.175781 38.195312 L 104.175781 41.289062 C 104.546875 41.289062 105 41.332031 105.328125 41.496094 C 105.410156 41.496094 105.496094 41.535156 105.578125 41.535156 M 104.175781 42.773438 C 104.421875 42.941406 104.710938 43.105469 105 43.269531 C 105.203125 43.394531 105.371094 43.433594 105.578125 43.519531 L 105.578125 46.199219 C 105.082031 46.28125 104.460938 45.953125 104.175781 45.578125 Z M 99.261719 33.742188 C 99.59375 33.742188 101.574219 31.097656 102.070312 30.191406 C 102.195312 29.65625 102.605469 29.078125 102.851562 28.832031 C 103.269531 28.503906 103.554688 28.585938 103.71875 28.871094 C 103.925781 29.246094 103.882812 29.945312 103.679688 30.933594 C 103.554688 31.597656 103.347656 31.308594 103.222656 31.511719 C 102.523438 32.378906 101.742188 33.203125 101.289062 33.824219 C 100.996094 34.152344 101.453125 34.5625 101.699219 34.441406 C 102.523438 33.453125 103.429688 32.132812 104.175781 31.183594 L 104.175781 33.945312 L 104.132812 33.988281 C 103.636719 34.523438 103.347656 34.277344 103.101562 34.894531 C 103.144531 35.058594 103.71875 35.183594 104.175781 35.183594 L 104.175781 37.371094 C 103.925781 37.207031 103.636719 37.078125 103.429688 36.960938 C 103.269531 36.875 102.976562 36.710938 102.648438 36.667969 C 102.398438 36.628906 102.070312 36.792969 101.820312 36.667969 C 101.453125 36.464844 101.160156 36.257812 100.957031 36.132812 C 100.710938 35.96875 100.542969 35.929688 100.210938 35.761719 C 99.882812 35.597656 99.222656 35.226562 98.5625 35.265625 C 97.945312 35.308594 97.203125 36.214844 96.707031 36.421875 C 96.253906 36.628906 95.839844 36.832031 95.46875 37 C 95.015625 37.207031 94.644531 37.371094 94.191406 37.164062 C 93.527344 36.875 93.695312 35.679688 94.066406 35.347656 C 94.644531 34.894531 95.136719 34.523438 95.59375 34.03125 C 95.882812 33.699219 96.046875 33.246094 96.292969 32.996094 C 96.542969 32.75 96.832031 32.75 97.078125 32.710938 C 97.367188 32.625 97.695312 32.542969 97.90625 32.792969 C 98.109375 32.996094 98.109375 33.285156 98.316406 33.492188 C 98.605469 33.78125 98.851562 33.78125 99.261719 33.742188 M 104.175781 41.289062 L 104.175781 38.195312 C 102.730469 37.453125 101.617188 36.917969 100.914062 36.75 C 100.582031 36.667969 99.632812 36.546875 99.304688 36.546875 C 98.523438 36.421875 98.4375 36.75 98.523438 37.164062 C 98.730469 38.074219 99.71875 38.441406 100.007812 38.402344 C 100.914062 38.238281 101.203125 38.609375 101.863281 38.855469 C 102.277344 38.980469 103.308594 39.226562 103.019531 39.515625 C 102.691406 39.847656 102.648438 39.558594 102.316406 39.761719 C 102.027344 39.96875 100.957031 39.351562 100.582031 39.679688 C 100.378906 39.886719 100.625 40.503906 100.210938 40.585938 C 99.964844 40.628906 99.59375 40.261719 99.261719 40.050781 C 98.316406 39.515625 97.324219 38.566406 96.378906 38.15625 C 95.34375 37.742188 95.261719 38.238281 95.386719 38.898438 C 95.425781 39.269531 95.386719 39.433594 95.71875 40.132812 C 96.085938 40.875 98.152344 41.25 98.894531 41.992188 C 99.347656 42.402344 99.761719 42.53125 99.554688 42.734375 C 99.179688 43.351562 98.851562 43.847656 98.191406 44.097656 C 97.574219 44.382812 95.097656 41.785156 95.058594 42.53125 C 95.136719 43.105469 95.59375 43.808594 95.675781 44.425781 C 95.839844 45.332031 95.839844 46.074219 95.882812 46.320312 C 96.046875 46.898438 97.160156 47.148438 98.4375 46.734375 C 98.976562 46.53125 99.632812 46.199219 100.210938 45.871094 C 100.996094 45.414062 101.820312 43.601562 102.277344 43.847656 C 103.347656 44.425781 103.390625 44.632812 104.175781 45.578125 L 104.175781 42.773438 C 103.347656 42.320312 102.648438 41.90625 102.894531 41.621094 C 103.058594 41.414062 103.554688 41.289062 104.175781 41.289062 "/>
<path style=" stroke:none;fill-rule:evenodd;fill:rgb(100%,100%,100%);fill-opacity:1;" d="M 79.75 19.34375 C 80.660156 19.632812 81.28125 19.675781 81.320312 19.507812 C 81.566406 18.765625 81.898438 17.449219 81.9375 16.375 C 81.980469 15.835938 82.433594 15.632812 82.765625 15.546875 C 83.546875 15.300781 83.796875 15.175781 84.164062 15.300781 C 84.824219 15.589844 85.195312 16.167969 85.527344 16.910156 C 85.652344 17.28125 85.984375 16.871094 85.238281 18.476562 C 84.910156 19.261719 84.992188 19.382812 85.117188 19.550781 C 85.445312 19.796875 85.859375 19.757812 86.515625 19.757812 C 87.304688 19.714844 87.796875 18.683594 88.789062 20.746094 C 88.949219 20.992188 88.992188 21.324219 88.664062 21.613281 C 88.25 21.941406 87.46875 21.980469 86.515625 22.234375 C 85.28125 22.519531 83.503906 22.191406 83.546875 23.015625 C 83.796875 25.078125 85.117188 28.214844 87.261719 30.730469 C 87.796875 31.390625 88.539062 32.007812 89.40625 32.503906 C 90.644531 33.203125 91.675781 33.78125 90.933594 33.945312 C 89.777344 34.195312 85.859375 33.824219 84.949219 32.996094 C 84 32.089844 82.0625 26.066406 81.777344 24.871094 C 81.734375 24.832031 81.648438 24.785156 81.566406 24.914062 C 80.621094 26.109375 78.636719 28.296875 77.070312 28.996094 C 76.371094 29.285156 75.585938 28.832031 75.378906 28.542969 C 75.132812 28.257812 73.316406 27.347656 73.152344 26.644531 C 73.109375 26.234375 73.359375 26.273438 73.566406 26.316406 C 76.121094 26.855469 76.660156 26.191406 77.359375 25.902344 C 79.214844 25.117188 80 23.097656 79.835938 22.972656 C 77.441406 22.558594 76.578125 22.644531 76.082031 21.613281 C 75.378906 18.351562 76.660156 18.1875 77.976562 18.683594 C 78.636719 18.972656 79.503906 19.304688 79.75 19.34375 "/>
<path style=" stroke:none;fill-rule:evenodd;fill:rgb(100%,100%,100%);fill-opacity:1;" d="M 51.535156 25.945312 C 51.867188 25.902344 52.15625 25.945312 52.566406 26.273438 C 53.683594 27.015625 54.011719 28.460938 54.546875 29.203125 C 54.753906 29.203125 55.125 28.953125 55.578125 28.671875 C 56.15625 28.257812 56.816406 27.84375 56.695312 27.679688 C 56.238281 26.8125 53.804688 21.078125 53.308594 20.335938 C 53.269531 20.25 53.105469 20.046875 53.0625 19.960938 C 52.15625 18.765625 53.226562 17.820312 53.640625 17.695312 C 54.300781 17.488281 56.15625 18.105469 56.195312 18.765625 C 56.117188 19.46875 56.816406 21.117188 57.476562 22.6875 C 58.09375 24.007812 58.632812 25.324219 58.921875 25.78125 C 59.085938 26.191406 60.527344 24.953125 60.984375 24.460938 C 61.601562 24.046875 60.488281 21.902344 60.898438 21.242188 C 61.066406 20.910156 62.839844 20.457031 63.707031 21.738281 C 64.117188 22.480469 64.324219 23.550781 64.53125 24.539062 C 64.695312 25.242188 64.945312 26.109375 65.066406 26.398438 C 65.191406 26.726562 64.492188 28.582031 64.203125 29.078125 C 63.621094 29.535156 62.675781 28.046875 62.300781 27.222656 C 62.097656 26.769531 62.054688 26.605469 61.890625 26.5625 C 61.476562 26.6875 60.527344 27.347656 60.074219 27.921875 C 59.828125 28.214844 59.910156 28.75 59.539062 29.039062 C 57.808594 29.738281 56.195312 30.855469 56.074219 31.222656 C 55.992188 31.429688 55.457031 32.503906 55.414062 32.75 C 55.371094 32.996094 54.671875 33.082031 54.507812 33.203125 C 54.136719 33.578125 53.558594 32.914062 52.773438 32.460938 C 51.945312 32.050781 52.15625 31.511719 52.113281 30.648438 C 52.113281 29.699219 51.578125 28.214844 51.082031 27.261719 C 50.835938 26.769531 50.546875 26.191406 51.535156 25.945312 "/>
<path style=" stroke:none;fill-rule:evenodd;fill:rgb(100%,100%,100%);fill-opacity:1;" d="M 37.058594 26.894531 C 37.800781 26.441406 39.203125 26.480469 39.863281 26.769531 C 40.480469 27.097656 40.566406 27.800781 40.398438 28.292969 L 40.234375 28.667969 C 40.066406 29.160156 40.277344 30.484375 40.4375 30.605469 C 40.644531 30.855469 40.8125 31.019531 41.222656 30.933594 C 41.554688 30.976562 42.132812 32.214844 41.882812 32.789062 C 41.800781 32.996094 41.761719 33.203125 41.472656 33.535156 C 40.769531 34.195312 40.359375 35.265625 40.152344 36.339844 C 42.296875 38.484375 44.152344 40.585938 46.214844 42.777344 C 47.203125 44.011719 47.867188 45.414062 47.371094 46.035156 C 46.960938 46.40625 45.636719 45.949219 44.191406 44.589844 L 38.210938 38.980469 C 37.921875 39.433594 37.632812 40.175781 37.265625 41.042969 L 37.265625 41.785156 C 37.304688 42.035156 37.429688 42.320312 37.347656 42.53125 C 37.265625 42.652344 37.179688 42.777344 37.058594 42.898438 L 37.058594 33.164062 C 37.347656 33.453125 37.632812 33.660156 37.714844 33.617188 C 38.210938 33.246094 38.253906 32.257812 38.128906 31.882812 C 38.007812 31.347656 37.757812 30.5625 37.179688 30.316406 C 37.140625 30.359375 37.097656 30.359375 37.058594 30.359375 Z M 34.707031 30.152344 C 35.035156 29.863281 35.449219 29.453125 35.859375 28.996094 C 36.230469 28.460938 36.4375 27.511719 36.808594 27.058594 C 36.894531 26.972656 36.976562 26.933594 37.058594 26.894531 L 37.058594 30.359375 C 36.519531 30.5625 36.066406 31.390625 35.945312 31.761719 C 35.984375 32.007812 36.5625 32.710938 37.058594 33.164062 L 37.058594 42.898438 C 36.808594 43.144531 36.480469 43.351562 36.148438 43.394531 C 35.777344 43.433594 35.367188 43.105469 34.707031 42.941406 L 34.707031 38.359375 C 34.910156 38.484375 35.121094 38.527344 35.203125 38.441406 C 35.816406 37.949219 35.902344 37.828125 36.066406 37.164062 C 36.148438 36.917969 35.203125 36.011719 34.707031 35.636719 Z M 31.652344 37 C 31.984375 36.835938 32.023438 36.503906 32.109375 36.011719 C 32.480469 34.691406 32.519531 34.195312 32.933594 33.328125 C 32.273438 32.710938 31.527344 32.132812 30.910156 31.511719 C 30.789062 31.390625 30.621094 31.308594 30.496094 31.265625 C 30.085938 31.140625 29.835938 30.691406 29.835938 30.152344 L 29.835938 29.984375 C 29.835938 29.574219 29.960938 29.117188 30.25 28.667969 C 30.414062 28.421875 31.984375 27.839844 32.4375 28.292969 C 33.097656 28.957031 33.796875 29.824219 34.5 30.316406 C 34.539062 30.277344 34.625 30.191406 34.707031 30.152344 L 34.707031 35.636719 C 34.625 35.558594 34.539062 35.515625 34.5 35.476562 C 34.253906 35.476562 34.292969 35.800781 34.292969 35.929688 C 34.128906 36.542969 33.796875 37 33.386719 37.246094 C 33.140625 37.328125 34.085938 38.074219 34.707031 38.359375 L 34.707031 42.941406 C 34.582031 42.898438 34.457031 42.859375 34.292969 42.816406 C 33.675781 42.777344 33.140625 42.777344 32.644531 42.277344 C 32.355469 41.660156 32.191406 41.371094 32.066406 40.960938 C 31.984375 40.792969 31.859375 40.628906 31.695312 40.425781 C 31.199219 39.886719 30.828125 39.390625 30.539062 38.691406 C 30.414062 38.277344 30.664062 37.125 31.652344 37 "/>
<g clip-path="url(#clip1)" clip-rule="nonzero">
<path style=" stroke:none;fill-rule:evenodd;fill:rgb(100%,100%,100%);fill-opacity:1;" d="M 70.734375 133.53125 C 36.046875 133.53125 7.933594 105.414062 7.933594 70.730469 C 7.933594 36.046875 36.046875 7.929688 70.734375 7.929688 C 105.417969 7.929688 133.53125 36.046875 133.53125 70.730469 C 133.53125 105.414062 105.417969 133.53125 70.734375 133.53125 M 70.734375 6.589844 C 35.308594 6.589844 6.585938 35.308594 6.585938 70.730469 C 6.585938 106.15625 35.308594 134.875 70.734375 134.875 C 106.15625 134.875 134.878906 106.15625 134.878906 70.730469 C 134.878906 35.308594 106.15625 6.589844 70.734375 6.589844 M 70.734375 136.796875 C 34.246094 136.796875 4.667969 107.21875 4.667969 70.730469 C 4.667969 34.246094 34.246094 4.667969 70.734375 4.667969 C 107.21875 4.667969 136.796875 34.246094 136.796875 70.730469 C 136.796875 107.21875 107.21875 136.796875 70.734375 136.796875 M 70.734375 0 C 31.667969 0 0 31.667969 0 70.730469 C 0 109.796875 31.667969 141.464844 70.734375 141.464844 C 109.796875 141.464844 141.464844 109.796875 141.464844 70.730469 C 141.464844 31.667969 109.796875 0 70.734375 0 "/>
</g>
<path style=" stroke:none;fill-rule:nonzero;fill:rgb(100%,100%,100%);fill-opacity:1;" d="M 27.84375 60.378906 L 24.335938 59.46875 L 24.425781 59.152344 C 25.339844 59.253906 26.148438 59.089844 26.847656 58.65625 C 27.542969 58.226562 27.992188 57.671875 28.183594 56.992188 C 28.332031 56.46875 28.3125 56.015625 28.121094 55.628906 C 27.925781 55.242188 27.648438 54.996094 27.28125 54.894531 C 27.050781 54.828125 26.832031 54.824219 26.621094 54.878906 C 26.335938 54.960938 26.03125 55.128906 25.699219 55.390625 C 25.460938 55.585938 25 56.054688 24.320312 56.808594 C 23.367188 57.859375 22.566406 58.519531 21.910156 58.796875 C 21.253906 59.0625 20.582031 59.101562 19.894531 58.90625 C 19.023438 58.652344 18.367188 58.101562 17.933594 57.238281 C 17.5 56.378906 17.429688 55.425781 17.730469 54.378906 C 17.820312 54.046875 17.945312 53.746094 18.09375 53.472656 C 18.246094 53.199219 18.476562 52.867188 18.785156 52.476562 C 18.960938 52.261719 19.070312 52.074219 19.117188 51.914062 C 19.152344 51.78125 19.140625 51.625 19.082031 51.445312 C 19.023438 51.265625 18.898438 51.101562 18.714844 50.949219 L 18.796875 50.664062 L 22.742188 51.789062 L 22.660156 52.074219 C 21.484375 51.984375 20.515625 52.179688 19.75 52.65625 C 18.984375 53.136719 18.492188 53.746094 18.277344 54.492188 C 18.113281 55.066406 18.140625 55.570312 18.355469 56 C 18.574219 56.433594 18.890625 56.707031 19.304688 56.824219 C 19.550781 56.898438 19.808594 56.902344 20.078125 56.832031 C 20.347656 56.769531 20.621094 56.632812 20.90625 56.425781 C 21.191406 56.21875 21.597656 55.820312 22.125 55.238281 C 22.863281 54.421875 23.457031 53.851562 23.90625 53.53125 C 24.351562 53.207031 24.8125 52.992188 25.28125 52.882812 C 25.75 52.777344 26.226562 52.792969 26.71875 52.933594 C 27.550781 53.167969 28.171875 53.675781 28.582031 54.457031 C 28.996094 55.234375 29.066406 56.089844 28.800781 57.019531 C 28.707031 57.359375 28.570312 57.675781 28.398438 57.96875 C 28.265625 58.195312 28.070312 58.457031 27.804688 58.757812 C 27.539062 59.054688 27.382812 59.273438 27.34375 59.414062 C 27.304688 59.546875 27.316406 59.664062 27.375 59.765625 C 27.4375 59.863281 27.617188 59.992188 27.910156 60.148438 Z M 27.84375 60.378906 "/>
<path style=" stroke:none;fill-rule:nonzero;fill:rgb(100%,100%,100%);fill-opacity:1;" d="M 27.339844 60.628906 L 26.582031 66.191406 L 26.289062 66.148438 L 26.328125 65.871094 C 26.386719 65.453125 26.382812 65.160156 26.3125 64.992188 C 26.246094 64.824219 26.144531 64.695312 25.996094 64.609375 C 25.851562 64.519531 25.476562 64.4375 24.859375 64.355469 L 19.585938 63.632812 C 18.621094 63.503906 17.972656 63.488281 17.640625 63.59375 C 17.308594 63.695312 17.015625 63.898438 16.765625 64.203125 C 16.511719 64.511719 16.351562 64.917969 16.285156 65.425781 C 16.203125 66.007812 16.265625 66.523438 16.472656 66.96875 C 16.679688 67.414062 17 67.769531 17.433594 68.039062 C 17.867188 68.304688 18.652344 68.515625 19.796875 68.671875 L 24.191406 69.269531 C 24.671875 69.335938 25.023438 69.332031 25.242188 69.257812 C 25.464844 69.1875 25.621094 69.078125 25.722656 68.9375 C 25.878906 68.714844 25.984375 68.386719 26.042969 67.953125 L 26.335938 67.992188 L 25.832031 71.71875 L 25.535156 71.679688 L 25.566406 71.457031 C 25.609375 71.152344 25.582031 70.894531 25.488281 70.679688 C 25.390625 70.457031 25.230469 70.289062 24.996094 70.164062 C 24.839844 70.074219 24.539062 69.996094 24.101562 69.9375 L 20.007812 69.378906 C 18.742188 69.207031 17.839844 69 17.300781 68.757812 C 16.761719 68.511719 16.300781 68.035156 15.917969 67.324219 C 15.535156 66.617188 15.421875 65.699219 15.570312 64.585938 C 15.699219 63.652344 15.921875 62.949219 16.238281 62.472656 C 16.675781 61.828125 17.175781 61.394531 17.742188 61.183594 C 18.3125 60.96875 19.042969 60.921875 19.9375 61.042969 L 25.214844 61.761719 C 25.832031 61.847656 26.222656 61.867188 26.382812 61.816406 C 26.542969 61.769531 26.679688 61.667969 26.792969 61.507812 C 26.90625 61.351562 26.992188 61.046875 27.046875 60.589844 Z M 27.339844 60.628906 "/>
<path style=" stroke:none;fill-rule:nonzero;fill:rgb(100%,100%,100%);fill-opacity:1;" d="M 26.070312 73.773438 L 19.605469 79.472656 L 24.273438 79.234375 C 24.925781 79.203125 25.359375 79.085938 25.582031 78.886719 C 25.878906 78.613281 26.003906 78.175781 25.964844 77.574219 L 26.261719 77.5625 L 26.441406 81.148438 L 26.148438 81.160156 C 26.066406 80.707031 25.972656 80.402344 25.871094 80.25 C 25.769531 80.097656 25.613281 79.980469 25.398438 79.902344 C 25.179688 79.828125 24.816406 79.800781 24.304688 79.828125 L 15.261719 80.285156 L 15.25 80.011719 L 23.917969 72.210938 L 17.015625 72.558594 C 16.390625 72.59375 15.976562 72.757812 15.769531 73.054688 C 15.566406 73.347656 15.472656 73.683594 15.492188 74.050781 L 15.503906 74.308594 L 15.210938 74.324219 L 15.011719 70.46875 L 15.308594 70.457031 C 15.34375 71.054688 15.488281 71.460938 15.742188 71.6875 C 15.992188 71.910156 16.40625 72.007812 16.984375 71.976562 L 24.648438 71.589844 L 24.925781 71.339844 C 25.203125 71.097656 25.382812 70.882812 25.464844 70.703125 C 25.546875 70.523438 25.582031 70.265625 25.574219 69.933594 L 25.871094 69.921875 Z M 26.070312 73.773438 "/>
<path style=" stroke:none;fill-rule:nonzero;fill:rgb(100%,100%,100%);fill-opacity:1;" d="M 31.152344 94.386719 L 30.875 94.496094 C 30.699219 94.179688 30.5 93.964844 30.28125 93.84375 C 29.972656 93.675781 29.25 93.511719 28.105469 93.34375 L 23.578125 92.609375 L 21.132812 93.578125 C 20.609375 93.785156 20.296875 93.941406 20.191406 94.042969 C 20.089844 94.152344 20.019531 94.304688 19.984375 94.503906 C 19.953125 94.703125 19.988281 94.9375 20.097656 95.207031 L 20.320312 95.773438 L 20.046875 95.882812 L 17.792969 90.210938 L 18.070312 90.101562 L 18.28125 90.628906 C 18.398438 90.925781 18.542969 91.140625 18.71875 91.273438 C 18.839844 91.375 19 91.433594 19.195312 91.4375 C 19.335938 91.445312 19.660156 91.351562 20.167969 91.148438 L 22.195312 90.34375 L 25.582031 86.246094 C 26.246094 85.433594 26.617188 84.902344 26.691406 84.648438 C 26.769531 84.394531 26.742188 84.105469 26.621094 83.777344 L 26.894531 83.667969 L 28.820312 88.511719 L 28.542969 88.625 L 28.457031 88.40625 C 28.339844 88.113281 28.21875 87.925781 28.085938 87.84375 C 27.957031 87.757812 27.84375 87.738281 27.75 87.773438 C 27.570312 87.84375 27.199219 88.222656 26.640625 88.90625 L 24.015625 92.0625 L 27.789062 92.671875 C 28.710938 92.824219 29.296875 92.851562 29.539062 92.757812 C 29.671875 92.703125 29.761719 92.59375 29.796875 92.433594 C 29.855469 92.214844 29.804688 91.871094 29.648438 91.410156 L 29.925781 91.300781 Z M 31.152344 94.386719 "/>
<path style=" stroke:none;fill-rule:nonzero;fill:rgb(100%,100%,100%);fill-opacity:1;" d="M 26.949219 100.472656 L 29.214844 97.078125 L 25.164062 97.710938 Z M 26.601562 101.023438 L 24.511719 97.796875 L 23.378906 97.988281 C 23 98.054688 22.714844 98.148438 22.519531 98.273438 C 22.265625 98.441406 22.144531 98.664062 22.15625 98.949219 C 22.164062 99.117188 22.300781 99.449219 22.574219 99.949219 L 22.324219 100.113281 L 20.359375 97.074219 L 20.609375 96.914062 C 20.871094 97.210938 21.179688 97.390625 21.539062 97.457031 C 21.898438 97.523438 22.523438 97.488281 23.417969 97.347656 L 32.820312 95.902344 L 32.902344 96.027344 L 27.542969 104.164062 C 27.039062 104.9375 26.757812 105.484375 26.707031 105.808594 C 26.664062 106.046875 26.722656 106.316406 26.882812 106.609375 L 26.632812 106.769531 L 23.777344 102.355469 L 24.027344 102.191406 L 24.140625 102.375 C 24.371094 102.730469 24.582031 102.945312 24.773438 103.027344 C 24.910156 103.078125 25.042969 103.0625 25.179688 102.972656 C 25.261719 102.921875 25.335938 102.851562 25.402344 102.773438 C 25.4375 102.738281 25.5625 102.5625 25.777344 102.242188 Z M 26.601562 101.023438 "/>
<path style=" stroke:none;fill-rule:nonzero;fill:rgb(100%,100%,100%);fill-opacity:1;" d="M 40.855469 105.726562 L 38.722656 107.753906 L 38.523438 107.546875 C 38.898438 106.953125 39.121094 106.480469 39.191406 106.125 C 39.261719 105.769531 39.234375 105.398438 39.117188 105.015625 C 39.042969 104.800781 38.835938 104.511719 38.484375 104.144531 L 37.925781 103.554688 L 31.847656 109.332031 C 31.445312 109.714844 31.214844 109.976562 31.15625 110.117188 C 31.097656 110.257812 31.09375 110.425781 31.140625 110.628906 C 31.1875 110.832031 31.320312 111.042969 31.53125 111.269531 L 31.78125 111.53125 L 31.566406 111.734375 L 27.644531 107.609375 L 27.863281 107.40625 L 28.109375 107.667969 C 28.328125 107.894531 28.542969 108.039062 28.757812 108.101562 C 28.90625 108.152344 29.074219 108.144531 29.261719 108.074219 C 29.394531 108.03125 29.660156 107.820312 30.054688 107.441406 L 36.132812 101.667969 L 35.59375 101.097656 C 35.089844 100.570312 34.609375 100.289062 34.15625 100.261719 C 33.519531 100.222656 32.871094 100.4375 32.207031 100.898438 L 31.996094 100.675781 L 34.128906 98.652344 Z M 40.855469 105.726562 "/>
<path style=" stroke:none;fill-rule:nonzero;fill:rgb(100%,100%,100%);fill-opacity:1;" d="M 40.050781 113.253906 L 36.941406 110.84375 L 37.796875 109.738281 L 40.90625 112.15625 Z M 40.050781 113.253906 "/>
<path style=" stroke:none;fill-rule:nonzero;fill:rgb(100%,100%,100%);fill-opacity:1;" d="M 49.882812 111.289062 L 48.074219 114.433594 L 47.792969 114.261719 C 48.132812 113.402344 48.1875 112.582031 47.957031 111.792969 C 47.726562 111.003906 47.308594 110.425781 46.707031 110.058594 C 46.238281 109.777344 45.796875 109.675781 45.371094 109.761719 C 44.949219 109.84375 44.640625 110.050781 44.441406 110.371094 C 44.316406 110.578125 44.253906 110.789062 44.253906 111.007812 C 44.253906 111.304688 44.335938 111.644531 44.503906 112.035156 C 44.625 112.3125 44.957031 112.882812 45.5 113.738281 C 46.265625 114.933594 46.6875 115.886719 46.78125 116.589844 C 46.867188 117.292969 46.722656 117.949219 46.351562 118.5625 C 45.878906 119.339844 45.171875 119.824219 44.222656 120.015625 C 43.277344 120.207031 42.339844 120.019531 41.410156 119.453125 C 41.117188 119.273438 40.859375 119.078125 40.632812 118.859375 C 40.40625 118.640625 40.148438 118.332031 39.855469 117.925781 C 39.695312 117.703125 39.539062 117.546875 39.398438 117.460938 C 39.28125 117.390625 39.125 117.359375 38.9375 117.371094 C 38.75 117.378906 38.558594 117.453125 38.363281 117.589844 L 38.109375 117.4375 L 40.242188 113.929688 L 40.496094 114.082031 C 40.097656 115.191406 40.027344 116.179688 40.285156 117.046875 C 40.542969 117.914062 41.003906 118.546875 41.664062 118.953125 C 42.175781 119.261719 42.667969 119.371094 43.144531 119.277344 C 43.617188 119.183594 43.964844 118.953125 44.191406 118.582031 C 44.324219 118.363281 44.394531 118.113281 44.402344 117.839844 C 44.410156 117.5625 44.351562 117.257812 44.226562 116.929688 C 44.101562 116.601562 43.828125 116.105469 43.40625 115.441406 C 42.816406 114.511719 42.421875 113.785156 42.230469 113.269531 C 42.039062 112.75 41.953125 112.253906 41.972656 111.769531 C 41.996094 111.289062 42.132812 110.832031 42.398438 110.398438 C 42.847656 109.660156 43.503906 109.195312 44.363281 109.003906 C 45.226562 108.8125 46.070312 108.96875 46.894531 109.472656 C 47.195312 109.65625 47.46875 109.871094 47.703125 110.113281 C 47.886719 110.300781 48.085938 110.5625 48.304688 110.894531 C 48.523438 111.230469 48.695312 111.4375 48.816406 111.511719 C 48.9375 111.585938 49.050781 111.605469 49.164062 111.574219 C 49.277344 111.542969 49.445312 111.40625 49.675781 111.164062 Z M 49.882812 111.289062 "/>
<path style=" stroke:none;fill-rule:nonzero;fill:rgb(100%,100%,100%);fill-opacity:1;" d="M 53.285156 113.761719 L 51.644531 117.871094 L 51.847656 117.953125 C 52.488281 118.207031 53.03125 118.191406 53.480469 117.90625 C 53.929688 117.617188 54.347656 117.097656 54.738281 116.34375 L 55.023438 116.457031 L 52.914062 121.746094 L 52.632812 121.628906 C 52.800781 121.03125 52.867188 120.507812 52.820312 120.066406 C 52.773438 119.621094 52.652344 119.289062 52.449219 119.0625 C 52.246094 118.832031 51.90625 118.625 51.425781 118.433594 L 50.289062 121.273438 C 50.070312 121.832031 49.957031 122.183594 49.953125 122.324219 C 49.949219 122.46875 49.996094 122.605469 50.097656 122.734375 C 50.191406 122.867188 50.386719 122.988281 50.671875 123.101562 L 51.277344 123.34375 C 52.21875 123.71875 53.0625 123.800781 53.804688 123.59375 C 54.546875 123.382812 55.222656 122.878906 55.824219 122.082031 L 56.101562 122.195312 L 54.367188 125.222656 L 45.640625 121.746094 L 45.75 121.46875 L 46.085938 121.601562 C 46.378906 121.71875 46.636719 121.761719 46.855469 121.726562 C 47.011719 121.710938 47.160156 121.628906 47.296875 121.488281 C 47.398438 121.394531 47.550781 121.089844 47.753906 120.582031 L 50.398438 113.941406 C 50.582031 113.484375 50.679688 113.199219 50.699219 113.085938 C 50.71875 112.890625 50.679688 112.722656 50.582031 112.574219 C 50.449219 112.359375 50.21875 112.1875 49.890625 112.058594 L 49.554688 111.921875 L 49.664062 111.648438 L 58.117188 115.015625 L 56.925781 118 L 56.644531 117.890625 C 56.789062 117.101562 56.796875 116.5 56.664062 116.078125 C 56.53125 115.65625 56.253906 115.277344 55.835938 114.9375 C 55.59375 114.734375 55.089844 114.484375 54.324219 114.179688 Z M 53.285156 113.761719 "/>
<path style=" stroke:none;fill-rule:nonzero;fill:rgb(100%,100%,100%);fill-opacity:1;" d="M 61.796875 115.867188 L 65.863281 123.460938 L 66.703125 118.863281 C 66.816406 118.21875 66.804688 117.769531 66.664062 117.511719 C 66.464844 117.160156 66.070312 116.933594 65.472656 116.835938 L 65.527344 116.546875 L 69.058594 117.1875 L 69.007812 117.480469 C 68.542969 117.457031 68.226562 117.476562 68.054688 117.539062 C 67.882812 117.601562 67.734375 117.730469 67.609375 117.921875 C 67.484375 118.113281 67.378906 118.464844 67.285156 118.96875 L 65.664062 127.871094 L 65.398438 127.824219 L 59.785156 117.605469 L 58.550781 124.402344 C 58.4375 125.015625 58.503906 125.457031 58.742188 125.726562 C 58.984375 125.992188 59.289062 126.15625 59.652344 126.222656 L 59.902344 126.269531 L 59.851562 126.5625 L 56.058594 125.871094 L 56.109375 125.578125 C 56.699219 125.683594 57.132812 125.636719 57.40625 125.441406 C 57.679688 125.246094 57.871094 124.863281 57.972656 124.296875 L 59.347656 116.75 L 59.167969 116.425781 C 58.996094 116.097656 58.828125 115.875 58.671875 115.753906 C 58.515625 115.636719 58.273438 115.539062 57.949219 115.46875 L 58.003906 115.175781 Z M 61.796875 115.867188 "/>
<path style=" stroke:none;fill-rule:nonzero;fill:rgb(100%,100%,100%);fill-opacity:1;" d="M 72.203125 117.195312 L 77.753906 116.375 L 77.800781 116.671875 L 77.519531 116.710938 C 77.101562 116.773438 76.824219 116.859375 76.679688 116.96875 C 76.535156 117.078125 76.441406 117.214844 76.398438 117.378906 C 76.355469 117.542969 76.378906 117.929688 76.46875 118.542969 L 77.242188 123.808594 C 77.386719 124.773438 77.550781 125.398438 77.742188 125.6875 C 77.933594 125.980469 78.210938 126.203125 78.574219 126.359375 C 78.9375 126.519531 79.375 126.5625 79.882812 126.484375 C 80.460938 126.398438 80.941406 126.195312 81.3125 125.875 C 81.683594 125.550781 81.9375 125.144531 82.074219 124.65625 C 82.207031 124.164062 82.191406 123.347656 82.023438 122.207031 L 81.378906 117.820312 C 81.308594 117.339844 81.207031 117.003906 81.078125 116.8125 C 80.945312 116.621094 80.796875 116.496094 80.632812 116.441406 C 80.375 116.351562 80.03125 116.339844 79.597656 116.40625 L 79.554688 116.113281 L 83.273438 115.566406 L 83.316406 115.859375 L 83.097656 115.890625 C 82.796875 115.933594 82.554688 116.03125 82.367188 116.183594 C 82.183594 116.335938 82.066406 116.539062 82.011719 116.796875 C 81.96875 116.976562 81.980469 117.28125 82.042969 117.722656 L 82.644531 121.804688 C 82.832031 123.070312 82.882812 123.996094 82.796875 124.582031 C 82.714844 125.164062 82.386719 125.742188 81.808594 126.304688 C 81.230469 126.871094 80.386719 127.238281 79.269531 127.402344 C 78.339844 127.535156 77.601562 127.519531 77.058594 127.347656 C 76.316406 127.109375 75.761719 126.75 75.398438 126.261719 C 75.035156 125.773438 74.789062 125.085938 74.65625 124.191406 L 73.882812 118.921875 C 73.792969 118.304688 73.703125 117.925781 73.609375 117.785156 C 73.519531 117.644531 73.382812 117.542969 73.199219 117.476562 C 73.015625 117.410156 72.699219 117.414062 72.246094 117.488281 Z M 72.203125 117.195312 "/>
<path style=" stroke:none;fill-rule:nonzero;fill:rgb(100%,100%,100%);fill-opacity:1;" d="M 85.910156 114.484375 L 93.257812 118.984375 L 91.65625 114.589844 C 91.433594 113.980469 91.195312 113.59375 90.941406 113.445312 C 90.59375 113.238281 90.136719 113.25 89.574219 113.464844 L 89.46875 113.183594 L 92.847656 111.957031 L 92.949219 112.234375 C 92.539062 112.449219 92.273438 112.625 92.15625 112.765625 C 92.039062 112.90625 91.976562 113.09375 91.964844 113.320312 C 91.957031 113.550781 92.039062 113.90625 92.210938 114.390625 L 95.3125 122.894531 L 95.058594 122.988281 L 85.046875 117 L 87.414062 123.492188 C 87.625 124.082031 87.90625 124.429688 88.25 124.539062 C 88.59375 124.644531 88.9375 124.636719 89.285156 124.511719 L 89.527344 124.421875 L 89.628906 124.699219 L 86.003906 126.019531 L 85.902344 125.742188 C 86.460938 125.53125 86.8125 125.273438 86.953125 124.96875 C 87.089844 124.660156 87.0625 124.238281 86.863281 123.695312 L 84.238281 116.484375 L 83.921875 116.292969 C 83.605469 116.097656 83.347656 115.992188 83.152344 115.964844 C 82.957031 115.941406 82.699219 115.980469 82.386719 116.082031 L 82.28125 115.804688 Z M 85.910156 114.484375 "/>
<path style=" stroke:none;fill-rule:nonzero;fill:rgb(100%,100%,100%);fill-opacity:1;" d="M 102.859375 118.175781 L 103.003906 118.433594 L 98.066406 121.25 L 97.917969 120.992188 L 98.234375 120.8125 C 98.507812 120.65625 98.699219 120.480469 98.808594 120.289062 C 98.894531 120.15625 98.921875 119.992188 98.898438 119.796875 C 98.886719 119.65625 98.746094 119.347656 98.476562 118.875 L 94.9375 112.660156 C 94.660156 112.175781 94.460938 111.890625 94.34375 111.796875 C 94.222656 111.707031 94.058594 111.660156 93.851562 111.65625 C 93.644531 111.65625 93.410156 111.730469 93.144531 111.878906 L 92.828125 112.058594 L 92.683594 111.800781 L 97.621094 108.988281 L 97.769531 109.246094 L 97.457031 109.425781 C 97.183594 109.578125 96.988281 109.753906 96.878906 109.949219 C 96.792969 110.082031 96.761719 110.246094 96.78125 110.445312 C 96.796875 110.585938 96.9375 110.890625 97.207031 111.367188 L 100.746094 117.578125 C 101.023438 118.0625 101.222656 118.347656 101.34375 118.441406 C 101.464844 118.53125 101.628906 118.578125 101.835938 118.578125 C 102.042969 118.582031 102.28125 118.507812 102.546875 118.355469 Z M 102.859375 118.175781 "/>
<path style=" stroke:none;fill-rule:nonzero;fill:rgb(100%,100%,100%);fill-opacity:1;" d="M 106.121094 102.214844 L 106.308594 102.441406 C 106.046875 102.746094 105.90625 103.132812 105.898438 103.605469 C 105.898438 103.953125 106.039062 104.652344 106.332031 105.695312 L 108.757812 114.476562 L 108.550781 114.644531 L 100.164062 110.375 C 99.152344 109.863281 98.53125 109.582031 98.296875 109.542969 C 98.0625 109.496094 97.769531 109.59375 97.414062 109.824219 L 97.222656 109.597656 L 101.234375 106.269531 L 101.425781 106.5 L 101.285156 106.609375 C 100.925781 106.910156 100.714844 107.160156 100.660156 107.359375 C 100.617188 107.5 100.644531 107.632812 100.742188 107.75 C 100.804688 107.824219 100.894531 107.894531 101.011719 107.96875 C 101.125 108.042969 101.460938 108.222656 102.015625 108.503906 L 107.257812 111.1875 L 105.832031 106.109375 C 105.65625 105.496094 105.527344 105.097656 105.445312 104.90625 C 105.367188 104.714844 105.28125 104.570312 105.195312 104.460938 C 105.089844 104.339844 104.96875 104.257812 104.824219 104.214844 C 104.679688 104.175781 104.523438 104.183594 104.355469 104.242188 C 104.117188 104.320312 103.855469 104.476562 103.5625 104.722656 L 103.375 104.492188 Z M 106.121094 102.214844 "/>
<path style=" stroke:none;fill-rule:nonzero;fill:rgb(100%,100%,100%);fill-opacity:1;" d="M 108.257812 100.0625 L 111.8125 102.699219 L 111.941406 102.523438 C 112.351562 101.96875 112.476562 101.441406 112.3125 100.933594 C 112.148438 100.425781 111.757812 99.886719 111.128906 99.316406 L 111.308594 99.070312 L 115.878906 102.460938 L 115.699219 102.703125 C 115.164062 102.386719 114.675781 102.191406 114.234375 102.125 C 113.796875 102.050781 113.4375 102.085938 113.167969 102.226562 C 112.894531 102.363281 112.605469 102.640625 112.296875 103.054688 L 114.757812 104.878906 C 115.238281 105.234375 115.546875 105.433594 115.683594 105.472656 C 115.820312 105.511719 115.964844 105.5 116.117188 105.4375 C 116.265625 105.378906 116.433594 105.222656 116.621094 104.972656 L 117.007812 104.453125 C 117.613281 103.636719 117.910156 102.84375 117.894531 102.070312 C 117.882812 101.300781 117.566406 100.523438 116.953125 99.734375 L 117.128906 99.496094 L 119.613281 101.945312 L 114.023438 109.492188 L 113.78125 109.316406 L 113.996094 109.027344 C 114.183594 108.773438 114.292969 108.535156 114.316406 108.3125 C 114.339844 108.15625 114.296875 107.996094 114.195312 107.828125 C 114.128906 107.703125 113.875 107.480469 113.4375 107.15625 L 107.695312 102.898438 C 107.300781 102.605469 107.050781 102.433594 106.945312 102.390625 C 106.761719 102.320312 106.585938 102.3125 106.417969 102.371094 C 106.175781 102.445312 105.953125 102.621094 105.742188 102.90625 L 105.527344 103.195312 L 105.289062 103.019531 L 110.707031 95.710938 L 113.289062 97.625 L 113.105469 97.871094 C 112.382812 97.527344 111.800781 97.367188 111.359375 97.386719 C 110.917969 97.410156 110.480469 97.578125 110.046875 97.894531 C 109.789062 98.078125 109.417969 98.5 108.925781 99.160156 Z M 108.257812 100.0625 "/>
<path style=" stroke:none;fill-rule:nonzero;fill:rgb(100%,100%,100%);fill-opacity:1;" d="M 113.058594 92.046875 L 117.484375 93.808594 L 117.652344 93.382812 C 117.925781 92.695312 118.066406 92.152344 118.078125 91.757812 C 118.089844 91.363281 117.96875 91.003906 117.714844 90.675781 C 117.460938 90.351562 117.070312 90.082031 116.539062 89.867188 C 115.769531 89.5625 115.128906 89.515625 114.617188 89.730469 C 114.109375 89.945312 113.691406 90.453125 113.375 91.25 Z M 118.011719 94.019531 L 120.84375 95.144531 C 121.390625 95.363281 121.75 95.464844 121.917969 95.453125 C 122.082031 95.441406 122.242188 95.371094 122.394531 95.234375 C 122.546875 95.097656 122.714844 94.800781 122.898438 94.339844 L 123.171875 94.445312 L 121.117188 99.617188 L 120.84375 99.507812 C 121.03125 99.042969 121.109375 98.707031 121.089844 98.507812 C 121.070312 98.308594 121 98.144531 120.890625 98.019531 C 120.777344 97.898438 120.449219 97.730469 119.902344 97.511719 L 113.347656 94.90625 C 112.800781 94.691406 112.441406 94.585938 112.273438 94.597656 C 112.105469 94.609375 111.945312 94.679688 111.792969 94.816406 C 111.644531 94.953125 111.476562 95.25 111.292969 95.710938 L 111.015625 95.601562 L 112.882812 90.90625 C 113.367188 89.6875 113.808594 88.828125 114.203125 88.328125 C 114.59375 87.828125 115.09375 87.492188 115.6875 87.316406 C 116.28125 87.136719 116.886719 87.167969 117.5 87.414062 C 118.246094 87.710938 118.753906 88.222656 119.027344 88.953125 C 119.199219 89.417969 119.238281 89.988281 119.148438 90.664062 L 123.53125 89.59375 C 124.101562 89.453125 124.46875 89.335938 124.628906 89.246094 C 124.863281 89.101562 125.042969 88.902344 125.164062 88.640625 L 125.4375 88.75 L 124.171875 91.929688 L 118.277344 93.355469 Z M 118.011719 94.019531 "/>
<path style=" stroke:none;fill-rule:nonzero;fill:rgb(100%,100%,100%);fill-opacity:1;" d="M 115.617188 79.089844 L 119.203125 79.597656 L 119.152344 79.925781 C 118.230469 79.925781 117.445312 80.183594 116.800781 80.691406 C 116.152344 81.199219 115.773438 81.800781 115.65625 82.496094 C 115.570312 83.035156 115.640625 83.484375 115.875 83.847656 C 116.113281 84.207031 116.414062 84.417969 116.792969 84.480469 C 117.027344 84.519531 117.25 84.5 117.453125 84.417969 C 117.726562 84.308594 118.007812 84.101562 118.308594 83.804688 C 118.523438 83.585938 118.929688 83.066406 119.519531 82.246094 C 120.34375 81.09375 121.070312 80.34375 121.691406 79.996094 C 122.3125 79.65625 122.976562 79.542969 123.679688 79.660156 C 124.578125 79.8125 125.289062 80.289062 125.820312 81.09375 C 126.347656 81.898438 126.523438 82.84375 126.34375 83.917969 C 126.289062 84.253906 126.203125 84.570312 126.082031 84.855469 C 125.964844 85.144531 125.773438 85.5 125.507812 85.921875 C 125.359375 86.160156 125.273438 86.355469 125.246094 86.519531 C 125.222656 86.660156 125.25 86.8125 125.332031 86.984375 C 125.410156 87.152344 125.550781 87.304688 125.753906 87.433594 L 125.703125 87.726562 L 121.652344 87.054688 L 121.703125 86.757812 C 122.878906 86.71875 123.820312 86.417969 124.53125 85.855469 C 125.242188 85.292969 125.660156 84.628906 125.785156 83.863281 C 125.882812 83.273438 125.800781 82.777344 125.539062 82.371094 C 125.273438 81.96875 124.929688 81.730469 124.503906 81.660156 C 124.246094 81.617188 123.992188 81.644531 123.730469 81.738281 C 123.472656 81.832031 123.214844 82 122.957031 82.238281 C 122.695312 82.476562 122.335938 82.914062 121.878906 83.554688 C 121.234375 84.449219 120.710938 85.082031 120.300781 85.453125 C 119.894531 85.828125 119.460938 86.089844 119.007812 86.25 C 118.554688 86.410156 118.074219 86.449219 117.574219 86.367188 C 116.71875 86.222656 116.042969 85.789062 115.546875 85.0625 C 115.050781 84.335938 114.882812 83.492188 115.039062 82.539062 C 115.097656 82.191406 115.199219 81.859375 115.335938 81.546875 C 115.441406 81.3125 115.609375 81.027344 115.839844 80.699219 C 116.070312 80.375 116.195312 80.140625 116.21875 79.996094 C 116.242188 79.859375 116.21875 79.746094 116.148438 79.652344 C 116.074219 79.558594 115.886719 79.449219 115.578125 79.328125 Z M 115.617188 79.089844 "/>
<path style=" stroke:none;fill-rule:nonzero;fill:rgb(100%,100%,100%);fill-opacity:1;" d="M 127.132812 72.753906 L 127.429688 72.761719 L 127.347656 78.445312 L 127.050781 78.441406 L 127.054688 78.078125 C 127.0625 77.765625 127.011719 77.507812 126.898438 77.316406 C 126.824219 77.175781 126.699219 77.066406 126.519531 76.988281 C 126.390625 76.929688 126.054688 76.894531 125.511719 76.886719 L 118.359375 76.785156 C 117.800781 76.777344 117.453125 76.800781 117.3125 76.859375 C 117.175781 76.917969 117.050781 77.03125 116.945312 77.210938 C 116.835938 77.386719 116.78125 77.628906 116.777344 77.933594 L 116.769531 78.292969 L 116.472656 78.289062 L 116.554688 72.605469 L 116.855469 72.609375 L 116.847656 72.96875 C 116.84375 73.285156 116.894531 73.539062 117.007812 73.734375 C 117.078125 73.875 117.203125 73.984375 117.386719 74.070312 C 117.511719 74.128906 117.847656 74.164062 118.394531 74.171875 L 125.546875 74.273438 C 126.101562 74.28125 126.449219 74.253906 126.589844 74.195312 C 126.730469 74.136719 126.855469 74.019531 126.960938 73.839844 C 127.066406 73.664062 127.125 73.421875 127.128906 73.117188 Z M 127.132812 72.753906 "/>
<path style=" stroke:none;fill-rule:nonzero;fill:rgb(100%,100%,100%);fill-opacity:1;" d="M 115.984375 62.609375 L 118.902344 62.230469 L 118.9375 62.515625 C 118.289062 62.777344 117.828125 63.027344 117.558594 63.273438 C 117.292969 63.515625 117.097656 63.828125 116.96875 64.210938 C 116.898438 64.429688 116.898438 64.785156 116.964844 65.289062 L 117.066406 66.09375 L 125.382812 65.007812 C 125.9375 64.9375 126.273438 64.859375 126.40625 64.78125 C 126.535156 64.703125 126.640625 64.570312 126.71875 64.378906 C 126.800781 64.183594 126.824219 63.933594 126.78125 63.628906 L 126.734375 63.273438 L 127.027344 63.234375 L 127.765625 68.878906 L 127.46875 68.914062 L 127.421875 68.558594 C 127.382812 68.246094 127.292969 68 127.160156 67.824219 C 127.066406 67.695312 126.921875 67.605469 126.734375 67.550781 C 126.597656 67.507812 126.261719 67.523438 125.71875 67.589844 L 117.40625 68.675781 L 117.507812 69.453125 C 117.601562 70.179688 117.824219 70.6875 118.175781 70.976562 C 118.664062 71.382812 119.3125 71.59375 120.125 71.613281 L 120.164062 71.914062 L 117.246094 72.292969 Z M 115.984375 62.609375 "/>
<path style=" stroke:none;fill-rule:nonzero;fill:rgb(100%,100%,100%);fill-opacity:1;" d="M 112.714844 51.234375 L 113 51.152344 C 113.148438 51.480469 113.324219 51.714844 113.53125 51.855469 C 113.820312 52.050781 114.527344 52.28125 115.648438 52.554688 L 120.089844 53.714844 L 122.609375 52.976562 C 123.148438 52.820312 123.476562 52.691406 123.589844 52.597656 C 123.707031 52.503906 123.785156 52.359375 123.839844 52.160156 C 123.890625 51.964844 123.875 51.730469 123.796875 51.453125 L 123.625 50.867188 L 123.910156 50.785156 L 125.621094 56.640625 L 125.335938 56.722656 L 125.175781 56.175781 C 125.085938 55.871094 124.960938 55.640625 124.800781 55.492188 C 124.691406 55.378906 124.535156 55.3125 124.339844 55.285156 C 124.199219 55.265625 123.867188 55.332031 123.34375 55.484375 L 121.253906 56.097656 L 117.5 59.859375 C 116.761719 60.601562 116.339844 61.097656 116.242188 61.34375 C 116.144531 61.589844 116.140625 61.878906 116.234375 62.214844 L 115.949219 62.296875 L 114.488281 57.296875 L 114.773438 57.210938 L 114.835938 57.4375 C 114.925781 57.738281 115.03125 57.9375 115.152344 58.035156 C 115.277344 58.128906 115.386719 58.164062 115.484375 58.132812 C 115.667969 58.078125 116.074219 57.738281 116.695312 57.113281 L 119.597656 54.214844 L 115.90625 53.257812 C 115 53.015625 114.417969 52.933594 114.167969 53.003906 C 114.03125 53.046875 113.933594 53.148438 113.878906 53.308594 C 113.800781 53.519531 113.820312 53.863281 113.929688 54.335938 L 113.644531 54.417969 Z M 112.714844 51.234375 "/>
<path style=" stroke:none;fill-rule:nonzero;fill:rgb(100%,100%,100%);fill-opacity:1;" d="M 70.597656 97.5625 L 73.3125 97.5625 L 73.140625 96.878906 L 72.070312 96.878906 L 72.914062 96.125 L 72.628906 94.894531 L 70.621094 94.894531 L 70.609375 95.921875 L 71.382812 95.921875 L 71.316406 95.511719 L 72.046875 95.511719 L 72.089844 95.964844 L 70.632812 96.855469 Z M 66.699219 94.894531 L 65.921875 94.894531 L 64.714844 97.5625 L 65.789062 97.5625 Z M 74.921875 95.601562 L 75.195312 96.195312 L 74.625 96.195312 Z M 75.492188 96.855469 L 75.824219 97.5625 L 76.8125 97.515625 L 76.425781 96.902344 L 76.882812 96.878906 L 76.496094 96.214844 L 75.945312 96.214844 L 75.277344 94.894531 L 74.59375 94.894531 L 73.894531 96.148438 L 74.144531 96.855469 Z M 68.988281 95.839844 L 68.089844 95.839844 L 68.214844 95.363281 L 69.082031 95.351562 Z M 69.753906 94.894531 L 67.769531 94.894531 L 67.300781 96.332031 L 68.898438 96.332031 L 68.832031 96.902344 L 67.097656 96.902344 L 66.882812 97.5625 L 69.550781 97.5625 Z M 97.996094 67.402344 C 94.117188 67.402344 90.855469 70.042969 89.90625 73.625 L 75.464844 73.625 L 75.464844 74.757812 L 89.691406 74.757812 C 89.652344 75.089844 89.628906 75.429688 89.628906 75.773438 C 89.628906 75.777344 89.628906 75.785156 89.628906 75.789062 L 75.464844 75.789062 L 75.464844 76.921875 L 81.804688 76.921875 C 79.59375 76.925781 77.804688 78.71875 77.804688 80.933594 L 77.804688 92.246094 L 76.242188 92.246094 L 76.242188 82.472656 L 77.203125 82.472656 L 77.203125 81.71875 L 73.675781 81.71875 L 73.675781 84.40625 C 73.183594 83.847656 72.542969 83.433594 71.820312 83.230469 L 71.820312 82.371094 L 72.230469 82.371094 L 72.230469 81.703125 L 69.222656 81.703125 L 69.222656 82.371094 L 69.632812 82.371094 L 69.632812 83.273438 C 68.933594 83.5 68.316406 83.933594 67.847656 84.492188 L 67.847656 81.730469 L 64.261719 81.730469 L 64.261719 82.472656 L 65.234375 82.472656 L 65.234375 92.246094 L 63.609375 92.246094 L 63.609375 80.933594 C 63.609375 78.71875 61.820312 76.925781 59.609375 76.921875 L 65.992188 76.921875 L 65.992188 75.789062 L 51.828125 75.789062 L 51.828125 75.773438 C 51.828125 75.429688 51.804688 75.089844 51.765625 74.757812 L 65.992188 74.757812 L 65.992188 73.625 L 51.550781 73.625 C 50.601562 70.042969 47.339844 67.402344 43.460938 67.402344 C 42.886719 67.402344 42.324219 67.460938 41.78125 67.570312 C 44.03125 61.789062 49.648438 57.6875 56.226562 57.683594 L 59.703125 57.683594 L 59.703125 56.757812 C 59.703125 50.667969 64.640625 45.730469 70.730469 45.730469 C 76.824219 45.730469 81.761719 50.667969 81.761719 56.757812 L 81.761719 57.683594 L 85.238281 57.683594 C 91.816406 57.6875 97.433594 61.789062 99.683594 67.574219 C 99.140625 67.460938 98.574219 67.402344 97.996094 67.402344 M 85.078125 78.605469 C 84.351562 77.589844 83.167969 76.925781 81.824219 76.921875 L 88.601562 76.921875 C 87.265625 77.152344 86.058594 77.753906 85.078125 78.605469 M 82.609375 84.042969 C 82.609375 84.09375 82.613281 84.144531 82.613281 84.195312 L 78.933594 84.195312 L 78.933594 80.933594 C 78.933594 79.339844 80.222656 78.054688 81.8125 78.054688 C 82.855469 78.054688 83.765625 78.605469 84.273438 79.4375 C 83.234375 80.6875 82.609375 82.292969 82.609375 84.042969 M 80.527344 87.785156 L 80.527344 92.246094 L 78.933594 92.246094 L 78.933594 85.328125 L 81.433594 85.328125 C 80.867188 85.988281 80.527344 86.847656 80.527344 87.785156 M 67.847656 92.246094 L 67.847656 86.546875 C 68.09375 85.09375 69.324219 83.988281 70.804688 83.988281 C 72.167969 83.988281 73.316406 84.933594 73.675781 86.222656 L 73.675781 92.246094 Z M 70.730469 100.644531 C 65.960938 100.644531 61.902344 97.617188 60.367188 93.375 L 81.097656 93.375 C 79.5625 97.617188 75.503906 100.644531 70.730469 100.644531 M 62.480469 85.328125 L 62.480469 92.246094 L 60.929688 92.246094 L 60.929688 87.785156 C 60.929688 86.847656 60.589844 85.988281 60.023438 85.328125 Z M 57.160156 79.40625 C 57.671875 78.59375 58.570312 78.054688 59.597656 78.054688 C 61.191406 78.054688 62.480469 79.339844 62.480469 80.933594 L 62.480469 84.195312 L 58.84375 84.195312 C 58.84375 84.144531 58.847656 84.09375 58.847656 84.042969 C 58.847656 82.277344 58.214844 80.660156 57.160156 79.40625 M 56.351562 78.582031 C 55.378906 77.742188 54.179688 77.152344 52.855469 76.921875 L 59.589844 76.921875 C 58.257812 76.925781 57.078125 77.578125 56.351562 78.582031 M 85.230469 56.453125 L 82.832031 56.453125 C 82.667969 49.90625 77.316406 44.652344 70.730469 44.652344 C 64.148438 44.652344 58.796875 49.90625 58.632812 56.453125 L 56.234375 56.453125 C 46.988281 56.453125 39.496094 63.945312 39.496094 73.1875 C 39.496094 82.433594 46.988281 89.925781 56.234375 89.925781 L 58.632812 89.925781 C 58.796875 96.46875 64.148438 101.726562 70.730469 101.726562 C 77.316406 101.726562 82.667969 96.46875 82.832031 89.925781 L 85.230469 89.925781 C 94.476562 89.925781 101.96875 82.433594 101.96875 73.1875 C 101.96875 63.945312 94.476562 56.453125 85.230469 56.453125 M 71.832031 56.851562 L 71.222656 56.851562 L 71.222656 55.144531 L 71.832031 55.144531 Z M 70.242188 56.851562 L 69.632812 56.851562 L 69.632812 55.144531 L 70.242188 55.144531 Z M 75.054688 56.851562 L 72.90625 56.851562 L 72.90625 55.144531 L 72.3125 55.144531 L 72.3125 54.058594 L 72.878906 54.058594 L 72.878906 53.074219 L 72.3125 53.074219 L 72.3125 52.917969 C 72.3125 52.128906 71.726562 51.472656 70.964844 51.359375 L 70.964844 48.625 L 70.5 48.625 L 70.5 51.359375 C 69.738281 51.472656 69.152344 52.128906 69.152344 52.917969 L 69.152344 53.074219 L 68.585938 53.074219 L 68.585938 54.058594 L 69.152344 54.058594 L 69.152344 55.144531 L 68.558594 55.144531 L 68.558594 56.851562 L 66.410156 56.851562 L 66.410156 58.457031 L 65.351562 58.457031 L 65.351562 59.488281 L 76.113281 59.488281 L 76.113281 58.457031 L 75.054688 58.457031 Z M 72.492188 75.792969 L 68.972656 75.792969 L 68.972656 67.613281 L 69.964844 67.613281 C 70.007812 67.234375 70.324219 66.941406 70.714844 66.941406 C 71.105469 66.941406 71.421875 67.234375 71.464844 67.613281 L 72.492188 67.613281 Z M 72.492188 78.632812 L 68.972656 78.632812 L 68.972656 76.949219 L 72.492188 76.949219 Z M 75.078125 60.628906 L 72.492188 60.628906 L 72.492188 66.527344 L 71.609375 66.527344 C 71.359375 66.335938 71.050781 66.222656 70.714844 66.222656 C 70.378906 66.222656 70.070312 66.335938 69.820312 66.527344 L 68.972656 66.527344 L 68.972656 60.628906 L 66.386719 60.628906 L 66.386719 78.632812 L 65.328125 78.632812 L 65.328125 81.273438 L 76.140625 81.273438 L 76.140625 78.632812 L 75.078125 78.632812 Z M 70.730469 64.339844 C 71.320312 64.339844 71.800781 63.863281 71.800781 63.273438 C 71.800781 62.683594 71.320312 62.207031 70.730469 62.207031 C 70.140625 62.207031 69.667969 62.683594 69.667969 63.273438 C 69.667969 63.863281 70.140625 64.339844 70.730469 64.339844 M 103.472656 74.339844 C 103.457031 74.566406 103.445312 74.789062 103.421875 75.007812 C 103.410156 75.113281 103.398438 75.21875 103.382812 75.320312 C 103.363281 75.515625 103.339844 75.707031 103.3125 75.898438 C 103.292969 76.011719 103.273438 76.125 103.253906 76.242188 C 103.222656 76.421875 103.191406 76.597656 103.15625 76.773438 C 103.132812 76.894531 103.109375 77.011719 103.082031 77.128906 C 103.046875 77.296875 103.007812 77.46875 102.964844 77.636719 C 102.933594 77.753906 102.902344 77.875 102.867188 77.992188 C 102.824219 78.15625 102.78125 78.320312 102.730469 78.480469 C 102.695312 78.601562 102.65625 78.71875 102.617188 78.839844 C 102.566406 78.996094 102.515625 79.15625 102.457031 79.308594 C 102.414062 79.429688 102.371094 79.546875 102.328125 79.664062 C 102.269531 79.816406 102.210938 79.96875 102.148438 80.121094 C 102.101562 80.238281 102.050781 80.355469 102 80.46875 C 101.933594 80.617188 101.867188 80.765625 101.800781 80.914062 C 101.746094 81.027344 101.691406 81.140625 101.636719 81.253906 C 101.566406 81.402344 101.492188 81.542969 101.417969 81.6875 C 101.355469 81.796875 101.300781 81.910156 101.238281 82.019531 C 101.160156 82.160156 101.078125 82.300781 100.996094 82.441406 C 100.929688 82.546875 100.871094 82.652344 100.804688 82.757812 C 100.722656 82.898438 100.628906 83.035156 100.539062 83.175781 C 100.472656 83.277344 100.40625 83.378906 100.339844 83.480469 C 100.246094 83.617188 100.148438 83.753906 100.046875 83.886719 C 99.980469 83.984375 99.914062 84.078125 99.84375 84.171875 C 99.734375 84.3125 99.625 84.449219 99.515625 84.589844 C 99.449219 84.671875 99.382812 84.761719 99.3125 84.84375 C 99.179688 85.003906 99.042969 85.160156 98.90625 85.316406 C 98.855469 85.371094 98.808594 85.433594 98.753906 85.488281 C 98.566406 85.695312 98.371094 85.898438 98.171875 86.097656 C 98.097656 86.175781 98.019531 86.246094 97.941406 86.320312 C 97.816406 86.445312 97.6875 86.566406 97.558594 86.683594 C 97.464844 86.769531 97.367188 86.851562 97.273438 86.9375 C 97.15625 87.039062 97.039062 87.140625 96.917969 87.242188 C 96.8125 87.328125 96.707031 87.410156 96.601562 87.496094 C 96.488281 87.585938 96.371094 87.679688 96.253906 87.769531 C 96.140625 87.855469 96.027344 87.9375 95.914062 88.015625 C 95.796875 88.101562 95.683594 88.1875 95.5625 88.269531 C 95.445312 88.347656 95.328125 88.425781 95.207031 88.503906 C 95.089844 88.582031 94.96875 88.660156 94.847656 88.734375 C 94.726562 88.808594 94.601562 88.882812 94.476562 88.957031 C 94.355469 89.027344 94.238281 89.097656 94.113281 89.164062 C 93.984375 89.238281 93.859375 89.304688 93.730469 89.375 C 93.605469 89.4375 93.480469 89.503906 93.355469 89.5625 C 93.222656 89.628906 93.089844 89.695312 92.957031 89.757812 C 92.832031 89.816406 92.707031 89.871094 92.578125 89.925781 C 92.441406 89.988281 92.304688 90.046875 92.167969 90.105469 C 92.039062 90.15625 91.910156 90.203125 91.78125 90.253906 C 91.640625 90.308594 91.5 90.363281 91.355469 90.414062 C 91.226562 90.457031 91.097656 90.503906 90.96875 90.542969 C 90.820312 90.59375 90.675781 90.640625 90.53125 90.683594 C 90.398438 90.726562 90.265625 90.761719 90.136719 90.796875 C 89.988281 90.839844 89.839844 90.882812 89.6875 90.917969 C 89.554688 90.953125 89.425781 90.980469 89.292969 91.011719 C 89.136719 91.046875 88.984375 91.082031 88.824219 91.113281 C 88.699219 91.136719 88.566406 91.160156 88.4375 91.183594 C 88.273438 91.210938 88.113281 91.242188 87.953125 91.265625 C 87.828125 91.285156 87.707031 91.296875 87.582031 91.3125 C 86.8125 91.410156 86.027344 91.46875 85.230469 91.46875 C 84.855469 91.46875 84.476562 91.453125 84.105469 91.429688 C 83.96875 92.429688 83.730469 93.394531 83.386719 94.316406 C 83.328125 94.480469 83.261719 94.644531 83.191406 94.808594 C 83.15625 94.894531 83.117188 94.980469 83.078125 95.066406 C 83.039062 95.160156 83 95.253906 82.957031 95.34375 C 82.914062 95.433594 82.871094 95.523438 82.828125 95.609375 C 82.78125 95.699219 82.738281 95.785156 82.691406 95.875 C 82.644531 95.960938 82.601562 96.046875 82.554688 96.128906 C 82.5 96.234375 82.4375 96.335938 82.378906 96.4375 C 82.308594 96.558594 82.234375 96.675781 82.160156 96.792969 C 82.101562 96.890625 82.039062 96.984375 81.976562 97.082031 C 81.925781 97.15625 81.871094 97.234375 81.816406 97.3125 C 81.757812 97.394531 81.703125 97.480469 81.640625 97.5625 C 81.585938 97.636719 81.53125 97.710938 81.472656 97.789062 C 81.40625 97.875 81.339844 97.957031 81.273438 98.042969 C 81.21875 98.109375 81.167969 98.175781 81.113281 98.242188 C 80.996094 98.378906 80.882812 98.515625 80.761719 98.648438 C 80.707031 98.707031 80.648438 98.769531 80.59375 98.828125 C 80.515625 98.910156 80.4375 98.992188 80.359375 99.074219 C 80.300781 99.136719 80.234375 99.199219 80.171875 99.261719 C 80.09375 99.335938 80.011719 99.414062 79.929688 99.492188 C 79.871094 99.546875 79.808594 99.605469 79.746094 99.660156 C 79.632812 99.761719 79.515625 99.863281 79.398438 99.960938 C 79.339844 100.011719 79.277344 100.0625 79.21875 100.109375 C 79.101562 100.203125 78.988281 100.292969 78.871094 100.382812 C 78.808594 100.429688 78.746094 100.476562 78.683594 100.523438 C 78.585938 100.59375 78.488281 100.664062 78.386719 100.734375 C 78.324219 100.777344 78.257812 100.820312 78.195312 100.863281 C 78.082031 100.9375 77.96875 101.011719 77.851562 101.082031 C 77.800781 101.113281 77.75 101.148438 77.695312 101.179688 C 77.535156 101.277344 77.371094 101.375 77.203125 101.464844 C 77.148438 101.492188 77.097656 101.519531 77.042969 101.546875 C 76.917969 101.613281 76.796875 101.675781 76.671875 101.738281 C 76.605469 101.769531 76.542969 101.800781 76.476562 101.832031 C 76.355469 101.890625 76.230469 101.945312 76.109375 101.996094 C 76.046875 102.023438 75.988281 102.050781 75.925781 102.078125 C 75.746094 102.152344 75.566406 102.226562 75.382812 102.292969 C 75.371094 102.296875 75.359375 102.300781 75.34375 102.304688 C 75.167969 102.371094 74.988281 102.429688 74.808594 102.484375 C 74.746094 102.507812 74.6875 102.523438 74.625 102.542969 C 74.488281 102.582031 74.351562 102.621094 74.214844 102.660156 C 74.148438 102.675781 74.085938 102.691406 74.019531 102.710938 C 73.867188 102.746094 73.714844 102.78125 73.558594 102.8125 C 73.515625 102.824219 73.46875 102.835938 73.421875 102.847656 C 73.222656 102.886719 73.023438 102.921875 72.820312 102.953125 C 72.773438 102.960938 72.722656 102.964844 72.675781 102.972656 C 72.519531 102.996094 72.363281 103.015625 72.203125 103.03125 C 72.136719 103.039062 72.070312 103.046875 72 103.054688 C 71.851562 103.066406 71.703125 103.078125 71.554688 103.085938 C 71.488281 103.089844 71.425781 103.09375 71.363281 103.097656 C 71.15625 103.109375 70.945312 103.113281 70.730469 103.113281 C 70.519531 103.113281 70.308594 103.109375 70.101562 103.097656 C 70.039062 103.09375 69.972656 103.089844 69.910156 103.085938 C 69.761719 103.078125 69.617188 103.066406 69.46875 103.054688 C 69.398438 103.046875 69.328125 103.039062 69.257812 103.03125 C 69.105469 103.015625 68.949219 102.996094 68.796875 102.972656 C 68.742188 102.964844 68.691406 102.960938 68.640625 102.953125 C 68.441406 102.921875 68.242188 102.886719 68.042969 102.847656 C 67.992188 102.835938 67.945312 102.824219 67.894531 102.8125 C 67.742188 102.78125 67.597656 102.746094 67.453125 102.710938 C 67.382812 102.691406 67.3125 102.675781 67.242188 102.65625 C 67.109375 102.621094 66.980469 102.585938 66.847656 102.542969 C 66.78125 102.527344 66.71875 102.507812 66.652344 102.484375 C 66.484375 102.433594 66.316406 102.375 66.152344 102.316406 C 66.117188 102.304688 66.078125 102.289062 66.042969 102.277344 C 65.875 102.214844 65.707031 102.148438 65.546875 102.078125 C 65.476562 102.050781 65.410156 102.023438 65.34375 101.992188 C 65.226562 101.941406 65.109375 101.890625 65 101.835938 C 64.925781 101.804688 64.855469 101.769531 64.785156 101.734375 C 64.667969 101.679688 64.554688 101.621094 64.445312 101.558594 C 64.382812 101.527344 64.316406 101.496094 64.253906 101.460938 C 64.09375 101.371094 63.933594 101.28125 63.773438 101.183594 C 63.710938 101.144531 63.648438 101.105469 63.585938 101.066406 C 63.484375 101 63.382812 100.9375 63.28125 100.871094 C 63.207031 100.820312 63.136719 100.773438 63.0625 100.722656 C 62.972656 100.660156 62.886719 100.597656 62.796875 100.535156 C 62.726562 100.480469 62.65625 100.429688 62.582031 100.375 C 62.488281 100.300781 62.390625 100.226562 62.296875 100.148438 C 62.195312 100.070312 62.097656 99.988281 62 99.90625 C 61.910156 99.828125 61.816406 99.746094 61.726562 99.667969 C 61.65625 99.601562 61.585938 99.535156 61.515625 99.472656 C 61.445312 99.40625 61.375 99.339844 61.304688 99.273438 C 61.234375 99.203125 61.164062 99.132812 61.09375 99.0625 C 61.027344 98.992188 60.960938 98.925781 60.898438 98.855469 C 60.828125 98.785156 60.761719 98.710938 60.695312 98.636719 C 60.59375 98.523438 60.492188 98.410156 60.390625 98.289062 C 60.316406 98.195312 60.238281 98.101562 60.164062 98.007812 C 60.109375 97.9375 60.054688 97.871094 60 97.800781 C 59.9375 97.714844 59.871094 97.632812 59.808594 97.542969 C 59.761719 97.472656 59.710938 97.40625 59.664062 97.335938 C 59.601562 97.246094 59.539062 97.15625 59.480469 97.066406 C 59.433594 97 59.390625 96.929688 59.347656 96.863281 C 59.238281 96.691406 59.132812 96.515625 59.03125 96.339844 C 58.992188 96.273438 58.953125 96.210938 58.917969 96.144531 C 58.863281 96.046875 58.808594 95.945312 58.757812 95.84375 C 58.722656 95.773438 58.683594 95.703125 58.648438 95.628906 C 58.597656 95.53125 58.550781 95.429688 58.5 95.324219 C 58.46875 95.253906 58.433594 95.179688 58.402344 95.109375 C 58.355469 95.003906 58.308594 94.898438 58.265625 94.792969 C 58.25 94.761719 58.238281 94.730469 58.226562 94.699219 C 57.808594 93.667969 57.511719 92.570312 57.359375 91.429688 C 56.984375 91.453125 56.609375 91.46875 56.234375 91.46875 C 55.425781 91.46875 54.632812 91.410156 53.855469 91.308594 C 53.742188 91.292969 53.625 91.28125 53.515625 91.265625 C 53.34375 91.238281 53.175781 91.207031 53.007812 91.179688 C 52.886719 91.15625 52.761719 91.136719 52.640625 91.113281 C 52.480469 91.082031 52.316406 91.042969 52.15625 91.003906 C 52.03125 90.976562 51.910156 90.949219 51.785156 90.921875 C 51.625 90.878906 51.46875 90.835938 51.3125 90.792969 C 51.1875 90.757812 51.0625 90.726562 50.941406 90.6875 C 50.785156 90.640625 50.636719 90.589844 50.484375 90.539062 C 50.359375 90.5 50.238281 90.460938 50.117188 90.417969 C 49.964844 90.363281 49.816406 90.308594 49.671875 90.25 C 49.546875 90.203125 49.425781 90.15625 49.308594 90.105469 C 49.164062 90.046875 49.019531 89.984375 48.875 89.921875 C 48.753906 89.871094 48.636719 89.816406 48.519531 89.761719 C 48.378906 89.695312 48.238281 89.628906 48.097656 89.558594 C 47.980469 89.5 47.867188 89.441406 47.75 89.382812 C 47.613281 89.308594 47.476562 89.234375 47.339844 89.160156 C 47.226562 89.097656 47.113281 89.03125 47.003906 88.964844 C 46.867188 88.886719 46.738281 88.808594 46.605469 88.726562 C 46.492188 88.660156 46.382812 88.585938 46.277344 88.515625 C 46.148438 88.433594 46.019531 88.347656 45.890625 88.261719 C 45.785156 88.1875 45.679688 88.109375 45.574219 88.035156 C 45.449219 87.945312 45.324219 87.855469 45.203125 87.761719 C 45.097656 87.683594 45 87.605469 44.894531 87.523438 C 44.777344 87.429688 44.652344 87.332031 44.535156 87.234375 C 44.4375 87.152344 44.339844 87.066406 44.242188 86.980469 C 44.128906 86.878906 44.011719 86.78125 43.894531 86.675781 C 43.800781 86.589844 43.710938 86.5 43.617188 86.410156 C 43.503906 86.304688 43.390625 86.199219 43.28125 86.089844 C 43.207031 86.015625 43.132812 85.933594 43.0625 85.855469 C 42.84375 85.632812 42.632812 85.398438 42.425781 85.160156 C 42.335938 85.0625 42.246094 84.957031 42.15625 84.851562 C 42.066406 84.742188 41.980469 84.628906 41.890625 84.515625 C 41.804688 84.40625 41.714844 84.296875 41.628906 84.183594 C 41.542969 84.070312 41.460938 83.953125 41.378906 83.835938 C 41.296875 83.722656 41.210938 83.605469 41.132812 83.492188 C 41.050781 83.371094 40.976562 83.253906 40.898438 83.136719 C 40.820312 83.015625 40.738281 82.894531 40.667969 82.773438 C 40.59375 82.652344 40.519531 82.53125 40.449219 82.40625 C 40.378906 82.285156 40.304688 82.160156 40.234375 82.035156 C 40.164062 81.910156 40.101562 81.785156 40.035156 81.660156 C 39.96875 81.53125 39.902344 81.402344 39.835938 81.273438 C 39.773438 81.144531 39.714844 81.019531 39.652344 80.890625 C 39.589844 80.757812 39.53125 80.625 39.472656 80.488281 C 39.417969 80.359375 39.363281 80.230469 39.308594 80.097656 C 39.25 79.964844 39.199219 79.824219 39.144531 79.6875 C 39.097656 79.554688 39.046875 79.421875 39 79.289062 C 38.949219 79.148438 38.902344 79.007812 38.855469 78.867188 C 38.8125 78.734375 38.769531 78.597656 38.730469 78.464844 C 38.683594 78.320312 38.644531 78.171875 38.605469 78.027344 C 38.566406 77.890625 38.527344 77.753906 38.496094 77.617188 C 38.460938 77.472656 38.425781 77.320312 38.390625 77.167969 C 38.363281 77.03125 38.332031 76.894531 38.304688 76.757812 C 38.273438 76.605469 38.246094 76.449219 38.21875 76.292969 C 38.199219 76.15625 38.171875 76.023438 38.152344 75.882812 C 38.125 75.722656 38.109375 75.558594 38.089844 75.398438 C 38.074219 75.261719 38.054688 75.128906 38.042969 74.996094 C 38.023438 74.820312 38.011719 74.644531 38 74.46875 C 37.992188 74.34375 37.980469 74.21875 37.972656 74.09375 C 37.964844 73.859375 37.960938 73.621094 37.957031 73.386719 C 37.957031 73.320312 37.953125 73.253906 37.953125 73.1875 C 37.953125 73.121094 37.957031 73.058594 37.957031 72.992188 C 37.960938 72.753906 37.964844 72.515625 37.972656 72.28125 C 37.980469 72.15625 37.992188 72.035156 38 71.910156 C 38.011719 71.734375 38.023438 71.554688 38.042969 71.378906 C 38.054688 71.246094 38.074219 71.113281 38.089844 70.980469 C 38.109375 70.816406 38.125 70.65625 38.152344 70.492188 C 38.171875 70.355469 38.199219 70.21875 38.21875 70.082031 C 38.246094 69.925781 38.273438 69.773438 38.304688 69.617188 C 38.332031 69.480469 38.363281 69.34375 38.390625 69.207031 C 38.425781 69.058594 38.460938 68.90625 38.496094 68.757812 C 38.527344 68.621094 38.566406 68.484375 38.605469 68.351562 C 38.644531 68.203125 38.683594 68.058594 38.730469 67.914062 C 38.769531 67.777344 38.8125 67.644531 38.855469 67.511719 C 38.902344 67.367188 38.949219 67.226562 39 67.085938 C 39.046875 66.953125 39.097656 66.820312 39.144531 66.6875 C 39.199219 66.550781 39.25 66.414062 39.308594 66.277344 C 39.363281 66.148438 39.417969 66.015625 39.472656 65.886719 C 39.53125 65.753906 39.589844 65.621094 39.652344 65.488281 C 39.714844 65.359375 39.773438 65.230469 39.835938 65.105469 C 39.902344 64.976562 39.96875 64.847656 40.035156 64.71875 C 40.101562 64.59375 40.164062 64.464844 40.234375 64.34375 C 40.304688 64.21875 40.378906 64.09375 40.449219 63.96875 C 40.519531 63.847656 40.59375 63.726562 40.667969 63.601562 C 40.738281 63.480469 40.820312 63.363281 40.898438 63.242188 C 40.976562 63.125 41.050781 63.003906 41.132812 62.886719 C 41.210938 62.769531 41.296875 62.65625 41.378906 62.542969 C 41.460938 62.421875 41.542969 62.308594 41.628906 62.191406 C 41.714844 62.082031 41.804688 61.972656 41.890625 61.863281 C 41.980469 61.75 42.066406 61.636719 42.15625 61.523438 C 42.246094 61.417969 42.335938 61.316406 42.425781 61.214844 C 42.632812 60.976562 42.84375 60.746094 43.0625 60.519531 C 43.132812 60.441406 43.207031 60.363281 43.28125 60.285156 C 43.390625 60.175781 43.503906 60.074219 43.617188 59.964844 C 43.710938 59.878906 43.800781 59.785156 43.894531 59.699219 C 44.011719 59.597656 44.128906 59.496094 44.242188 59.394531 C 44.339844 59.3125 44.4375 59.222656 44.535156 59.140625 C 44.652344 59.042969 44.777344 58.949219 44.894531 58.851562 C 45 58.773438 45.097656 58.691406 45.203125 58.613281 C 45.324219 58.519531 45.449219 58.433594 45.574219 58.339844 C 45.679688 58.265625 45.785156 58.191406 45.890625 58.117188 C 46.019531 58.027344 46.148438 57.945312 46.277344 57.859375 C 46.382812 57.789062 46.492188 57.71875 46.605469 57.652344 C 46.738281 57.570312 46.867188 57.488281 47.003906 57.410156 C 47.113281 57.347656 47.226562 57.28125 47.339844 57.21875 C 47.476562 57.140625 47.613281 57.066406 47.75 56.996094 C 47.867188 56.9375 47.980469 56.875 48.097656 56.816406 C 48.238281 56.75 48.378906 56.679688 48.519531 56.617188 C 48.636719 56.5625 48.753906 56.507812 48.875 56.453125 C 49.019531 56.390625 49.164062 56.328125 49.308594 56.269531 C 49.425781 56.21875 49.546875 56.171875 49.671875 56.125 C 49.816406 56.070312 49.964844 56.015625 50.117188 55.960938 C 50.238281 55.917969 50.359375 55.878906 50.484375 55.835938 C 50.636719 55.785156 50.785156 55.734375 50.941406 55.6875 C 51.0625 55.652344 51.1875 55.621094 51.3125 55.582031 C 51.46875 55.539062 51.625 55.496094 51.785156 55.457031 C 51.910156 55.425781 52.03125 55.398438 52.15625 55.371094 C 52.316406 55.332031 52.480469 55.296875 52.640625 55.261719 C 52.761719 55.238281 52.886719 55.21875 53.007812 55.199219 C 53.175781 55.167969 53.34375 55.136719 53.515625 55.109375 C 53.625 55.09375 53.742188 55.082031 53.855469 55.070312 C 54.632812 54.96875 55.425781 54.910156 56.234375 54.910156 C 56.609375 54.910156 56.988281 54.921875 57.363281 54.945312 C 57.511719 53.839844 57.789062 52.777344 58.191406 51.773438 C 58.214844 51.707031 58.238281 51.644531 58.265625 51.582031 C 58.308594 51.476562 58.355469 51.375 58.402344 51.277344 C 58.433594 51.199219 58.46875 51.121094 58.503906 51.046875 C 58.550781 50.945312 58.597656 50.851562 58.644531 50.75 C 58.683594 50.675781 58.722656 50.601562 58.761719 50.523438 C 58.8125 50.429688 58.863281 50.332031 58.914062 50.238281 C 58.957031 50.160156 59 50.085938 59.042969 50.011719 C 59.136719 49.847656 59.234375 49.6875 59.335938 49.527344 C 59.382812 49.453125 59.429688 49.378906 59.480469 49.304688 C 59.539062 49.21875 59.597656 49.132812 59.65625 49.046875 C 59.710938 48.972656 59.761719 48.898438 59.8125 48.832031 C 59.875 48.746094 59.9375 48.660156 60 48.578125 C 60.054688 48.503906 60.113281 48.429688 60.171875 48.359375 C 60.234375 48.28125 60.292969 48.203125 60.355469 48.128906 C 60.46875 47.996094 60.582031 47.863281 60.695312 47.734375 C 60.761719 47.664062 60.824219 47.597656 60.890625 47.527344 C 60.957031 47.457031 61.027344 47.382812 61.097656 47.3125 C 61.164062 47.242188 61.230469 47.175781 61.300781 47.109375 C 61.371094 47.039062 61.449219 46.964844 61.523438 46.898438 C 61.589844 46.835938 61.65625 46.773438 61.722656 46.710938 C 61.820312 46.621094 61.921875 46.539062 62.023438 46.453125 C 62.105469 46.378906 62.195312 46.308594 62.28125 46.238281 C 62.382812 46.160156 62.484375 46.078125 62.585938 45.996094 C 62.65625 45.945312 62.722656 45.898438 62.792969 45.847656 C 62.882812 45.78125 62.976562 45.714844 63.066406 45.652344 C 63.136719 45.601562 63.207031 45.554688 63.277344 45.507812 C 63.382812 45.4375 63.488281 45.371094 63.589844 45.308594 C 63.652344 45.269531 63.710938 45.230469 63.773438 45.195312 C 63.929688 45.097656 64.09375 45.003906 64.257812 44.914062 C 64.316406 44.882812 64.378906 44.851562 64.4375 44.820312 C 64.550781 44.757812 64.667969 44.699219 64.785156 44.640625 C 64.855469 44.605469 64.925781 44.574219 64.996094 44.542969 C 65.109375 44.488281 65.226562 44.433594 65.347656 44.382812 C 65.410156 44.355469 65.476562 44.324219 65.542969 44.296875 C 65.710938 44.226562 65.882812 44.160156 66.050781 44.097656 C 66.082031 44.085938 66.113281 44.074219 66.144531 44.0625 C 66.3125 44.003906 66.480469 43.945312 66.652344 43.890625 C 66.71875 43.871094 66.78125 43.851562 66.847656 43.832031 C 66.980469 43.792969 67.109375 43.753906 67.242188 43.722656 C 67.3125 43.699219 67.378906 43.683594 67.449219 43.664062 C 67.597656 43.628906 67.742188 43.597656 67.894531 43.566406 C 67.945312 43.554688 67.992188 43.542969 68.042969 43.53125 C 68.242188 43.492188 68.441406 43.457031 68.640625 43.425781 C 68.691406 43.414062 68.742188 43.410156 68.796875 43.402344 C 68.949219 43.378906 69.105469 43.363281 69.261719 43.34375 C 69.328125 43.335938 69.398438 43.328125 69.46875 43.320312 C 69.617188 43.308594 69.761719 43.296875 69.910156 43.289062 C 69.972656 43.285156 70.039062 43.28125 70.101562 43.277344 C 70.308594 43.269531 70.519531 43.261719 70.730469 43.261719 C 70.945312 43.261719 71.15625 43.269531 71.363281 43.277344 C 71.425781 43.28125 71.488281 43.285156 71.554688 43.289062 C 71.703125 43.296875 71.851562 43.308594 72 43.320312 C 72.070312 43.332031 72.136719 43.335938 72.203125 43.34375 C 72.363281 43.363281 72.519531 43.378906 72.675781 43.402344 C 72.722656 43.410156 72.773438 43.414062 72.820312 43.425781 C 73.023438 43.457031 73.222656 43.492188 73.421875 43.53125 C 73.46875 43.539062 73.515625 43.550781 73.558594 43.5625 C 73.714844 43.59375 73.867188 43.628906 74.019531 43.667969 C 74.085938 43.683594 74.148438 43.699219 74.214844 43.71875 C 74.351562 43.753906 74.488281 43.792969 74.625 43.835938 C 74.6875 43.855469 74.746094 43.871094 74.804688 43.890625 C 74.988281 43.949219 75.171875 44.007812 75.351562 44.074219 C 75.359375 44.074219 75.367188 44.078125 75.375 44.082031 C 75.5625 44.152344 75.746094 44.222656 75.929688 44.300781 C 75.988281 44.324219 76.046875 44.351562 76.105469 44.375 C 76.230469 44.429688 76.355469 44.488281 76.480469 44.546875 C 76.542969 44.574219 76.605469 44.605469 76.671875 44.636719 C 76.796875 44.699219 76.925781 44.765625 77.050781 44.832031 C 77.097656 44.859375 77.148438 44.882812 77.199219 44.910156 C 77.367188 45.003906 77.535156 45.097656 77.699219 45.199219 C 77.746094 45.226562 77.796875 45.257812 77.84375 45.289062 C 77.964844 45.363281 78.082031 45.4375 78.195312 45.515625 C 78.257812 45.554688 78.320312 45.597656 78.382812 45.640625 C 78.488281 45.714844 78.589844 45.785156 78.6875 45.859375 C 78.75 45.902344 78.808594 45.945312 78.867188 45.992188 C 78.992188 46.085938 79.113281 46.179688 79.234375 46.277344 C 79.28125 46.316406 79.328125 46.355469 79.378906 46.394531 C 79.503906 46.5 79.628906 46.609375 79.75 46.71875 C 79.808594 46.769531 79.867188 46.824219 79.925781 46.878906 C 80.007812 46.960938 80.09375 47.039062 80.179688 47.121094 C 80.238281 47.179688 80.296875 47.238281 80.355469 47.300781 C 80.4375 47.382812 80.519531 47.46875 80.601562 47.554688 C 80.65625 47.613281 80.707031 47.667969 80.757812 47.726562 C 80.882812 47.859375 81 47.996094 81.113281 48.136719 C 81.167969 48.195312 81.214844 48.257812 81.261719 48.320312 C 81.335938 48.410156 81.40625 48.5 81.476562 48.59375 C 81.53125 48.664062 81.585938 48.738281 81.636719 48.808594 C 81.703125 48.894531 81.761719 48.980469 81.824219 49.070312 C 81.875 49.144531 81.925781 49.21875 81.976562 49.292969 C 82.042969 49.394531 82.109375 49.496094 82.171875 49.601562 C 82.238281 49.703125 82.296875 49.804688 82.359375 49.910156 C 82.429688 50.023438 82.496094 50.136719 82.558594 50.25 C 82.601562 50.332031 82.644531 50.414062 82.6875 50.496094 C 82.734375 50.585938 82.78125 50.675781 82.828125 50.773438 C 82.871094 50.855469 82.914062 50.941406 82.953125 51.027344 C 83 51.125 83.039062 51.21875 83.082031 51.316406 C 83.121094 51.398438 83.15625 51.480469 83.191406 51.566406 C 83.261719 51.730469 83.328125 51.894531 83.390625 52.0625 L 83.386719 52.0625 C 83.730469 52.980469 83.96875 53.945312 84.105469 54.945312 C 84.476562 54.921875 84.855469 54.910156 85.230469 54.910156 C 86.027344 54.910156 86.8125 54.964844 87.582031 55.0625 C 87.707031 55.078125 87.828125 55.09375 87.953125 55.109375 C 88.113281 55.136719 88.273438 55.164062 88.4375 55.195312 C 88.566406 55.21875 88.699219 55.238281 88.824219 55.265625 C 88.984375 55.292969 89.136719 55.332031 89.292969 55.367188 C 89.425781 55.398438 89.554688 55.425781 89.6875 55.457031 C 89.839844 55.496094 89.988281 55.539062 90.136719 55.578125 C 90.265625 55.617188 90.398438 55.652344 90.53125 55.691406 C 90.675781 55.734375 90.820312 55.785156 90.96875 55.832031 C 91.097656 55.875 91.226562 55.917969 91.355469 55.964844 C 91.5 56.015625 91.640625 56.070312 91.78125 56.121094 C 91.910156 56.171875 92.039062 56.222656 92.167969 56.273438 C 92.304688 56.328125 92.441406 56.390625 92.578125 56.449219 C 92.707031 56.503906 92.832031 56.5625 92.957031 56.621094 C 93.089844 56.683594 93.222656 56.746094 93.355469 56.8125 C 93.480469 56.875 93.605469 56.9375 93.730469 57.003906 C 93.859375 57.070312 93.984375 57.140625 94.113281 57.210938 C 94.238281 57.277344 94.355469 57.347656 94.476562 57.421875 C 94.601562 57.492188 94.726562 57.570312 94.847656 57.640625 C 94.96875 57.71875 95.089844 57.796875 95.207031 57.875 C 95.328125 57.949219 95.445312 58.027344 95.5625 58.109375 C 95.683594 58.191406 95.796875 58.277344 95.914062 58.359375 C 96.027344 58.441406 96.140625 58.523438 96.253906 58.605469 C 96.371094 58.695312 96.488281 58.789062 96.601562 58.882812 C 96.707031 58.964844 96.8125 59.046875 96.917969 59.132812 C 97.039062 59.234375 97.15625 59.339844 97.273438 59.441406 C 97.367188 59.523438 97.464844 59.609375 97.558594 59.691406 C 97.6875 59.8125 97.816406 59.933594 97.941406 60.054688 C 98.019531 60.128906 98.097656 60.203125 98.171875 60.28125 C 98.371094 60.480469 98.566406 60.683594 98.753906 60.890625 C 98.808594 60.945312 98.855469 61.003906 98.90625 61.0625 C 99.042969 61.214844 99.179688 61.371094 99.3125 61.53125 C 99.382812 61.617188 99.449219 61.703125 99.515625 61.789062 C 99.625 61.925781 99.734375 62.0625 99.84375 62.203125 C 99.914062 62.296875 99.980469 62.394531 100.046875 62.488281 C 100.148438 62.625 100.246094 62.757812 100.339844 62.898438 C 100.40625 63 100.472656 63.101562 100.539062 63.203125 C 100.628906 63.339844 100.722656 63.476562 100.804688 63.617188 C 100.871094 63.722656 100.929688 63.828125 100.996094 63.9375 C 101.078125 64.078125 101.160156 64.21875 101.238281 64.359375 C 101.300781 64.46875 101.355469 64.578125 101.417969 64.691406 C 101.492188 64.832031 101.566406 64.976562 101.636719 65.125 C 101.691406 65.234375 101.746094 65.347656 101.800781 65.460938 C 101.867188 65.609375 101.933594 65.757812 102 65.90625 C 102.050781 66.023438 102.101562 66.136719 102.148438 66.257812 C 102.210938 66.40625 102.269531 66.558594 102.328125 66.714844 C 102.371094 66.832031 102.414062 66.949219 102.457031 67.066406 C 102.515625 67.222656 102.566406 67.382812 102.617188 67.539062 C 102.65625 67.65625 102.695312 67.777344 102.730469 67.898438 C 102.78125 68.058594 102.824219 68.21875 102.867188 68.382812 C 102.902344 68.503906 102.933594 68.621094 102.964844 68.742188 C 103.007812 68.910156 103.046875 69.078125 103.082031 69.25 C 103.109375 69.367188 103.132812 69.484375 103.15625 69.601562 C 103.191406 69.78125 103.222656 69.960938 103.253906 70.136719 C 103.273438 70.25 103.292969 70.363281 103.3125 70.476562 C 103.339844 70.667969 103.363281 70.863281 103.382812 71.058594 C 103.398438 71.160156 103.410156 71.261719 103.421875 71.367188 C 103.445312 71.589844 103.457031 71.8125 103.472656 72.039062 C 103.476562 72.113281 103.484375 72.191406 103.488281 72.269531 C 103.503906 72.574219 103.511719 72.878906 103.511719 73.1875 C 103.511719 73.496094 103.503906 73.804688 103.488281 74.109375 C 103.484375 74.183594 103.476562 74.261719 103.472656 74.339844 M 86.460938 52.015625 C 84.425781 45.257812 78.15625 40.332031 70.730469 40.332031 C 63.308594 40.332031 57.039062 45.257812 55.003906 52.015625 C 43.859375 52.652344 35.019531 61.886719 35.019531 73.1875 C 35.019531 84.488281 43.859375 93.722656 55.003906 94.359375 C 57.039062 101.121094 63.308594 106.046875 70.730469 106.046875 C 78.15625 106.046875 84.425781 101.121094 86.460938 94.359375 C 97.601562 93.722656 106.445312 84.488281 106.445312 73.1875 C 106.445312 61.886719 97.601562 52.652344 86.460938 52.015625 M 70.730469 69.269531 C 70.464844 69.269531 70.246094 69.484375 70.246094 69.753906 L 70.246094 73.632812 C 70.246094 73.902344 70.464844 74.121094 70.730469 74.121094 C 71 74.121094 71.21875 73.902344 71.21875 73.632812 L 71.21875 69.753906 C 71.21875 69.484375 71 69.269531 70.730469 69.269531 "/>
</g>
</svg>
