<?xml version="1.0" encoding="UTF-8"?>
<svg xmlns="http://www.w3.org/2000/svg" xmlns:xlink="http://www.w3.org/1999/xlink" width="400.256pt" height="141.732pt" viewBox="0 0 400.256 141.732" version="1.2">
<defs>
<clipPath id="clip1">
  <path d="M 0.0078125 0 L 74 0 L 74 111 L 0.0078125 111 Z M 0.0078125 0 "/>
</clipPath>
<clipPath id="clip2">
  <path d="M 0.0078125 121 L 399.507812 121 L 399.507812 141.464844 L 0.0078125 141.464844 Z M 0.0078125 121 "/>
</clipPath>
</defs>
<g id="surface1">
<path style=" stroke:none;fill-rule:evenodd;fill:rgb(100%,100%,100%);fill-opacity:1;" d="M 352.246094 62.617188 L 352.246094 55.113281 C 349.78125 55.671875 347.875 56.234375 346.53125 56.902344 C 345.1875 57.578125 341.378906 59.707031 340.148438 60.488281 C 336.898438 62.28125 337.683594 63.738281 339.027344 64.859375 C 342.277344 67.660156 346.867188 66.3125 347.765625 65.304688 C 349.441406 63.625 350.789062 62.953125 352.246094 62.617188 M 352.246094 81.207031 L 352.246094 73.257812 C 351.347656 73.257812 350.453125 73.257812 349.667969 73.367188 C 344.851562 73.929688 338.582031 73.257812 333.988281 74.488281 C 329.171875 75.832031 330.179688 77.847656 332.535156 79.976562 C 333.652344 80.988281 333.988281 81.878906 337.125 83.339844 C 340.035156 84.90625 347.316406 81.433594 352.246094 81.207031 M 352.246094 102.378906 C 351.347656 101.367188 350.226562 100.136719 348.886719 98.90625 C 346.757812 97.003906 343.175781 95.65625 341.269531 93.867188 C 340.035156 91.851562 347.203125 92.410156 352.246094 92.1875 Z M 332.195312 50.746094 C 333.542969 49.625 333.207031 34.730469 332.535156 30.25 C 331.636719 28.011719 331.414062 24.761719 331.75 23.078125 C 332.195312 20.84375 333.425781 20.28125 334.882812 20.953125 C 336.675781 21.738281 338.46875 24.3125 340.371094 28.347656 C 341.714844 31.144531 340.257812 30.699219 340.257812 31.707031 C 340.148438 36.746094 339.699219 41.898438 339.699219 45.257812 C 339.589844 47.386719 342.390625 47.609375 342.832031 46.378906 C 343.285156 37.976562 342.277344 26.890625 343.0625 21.960938 C 343.175781 18.824219 341.828125 14.796875 343.0625 13.898438 C 344.628906 12.664062 348.101562 13.449219 349.554688 14.234375 C 350.789062 14.796875 350.789062 12.78125 351.683594 12.4375 C 351.796875 12.4375 352.019531 12.332031 352.246094 12.332031 L 352.246094 19.386719 C 352.132812 19.386719 352.132812 19.496094 352.019531 19.496094 C 351.574219 19.832031 351.683594 20.503906 351.683594 20.730469 C 351.347656 23.976562 350.789062 26.441406 350.789062 29.351562 C 351.125 29.578125 351.683594 29.464844 352.246094 29.128906 L 352.246094 35.960938 C 351.574219 36.1875 350.5625 36.519531 350.453125 38.089844 C 350.226562 41.339844 348.324219 41.222656 349.332031 44.136719 C 349.78125 44.472656 351.011719 44.136719 352.246094 43.355469 L 352.246094 51.976562 C 351.347656 52.652344 350.675781 53.882812 349.554688 54.109375 C 347.652344 54.441406 345.976562 54.328125 344.964844 54.441406 C 343.507812 54.667969 342.832031 55 341.15625 55.226562 C 339.589844 55.449219 336.226562 56.007812 333.988281 57.914062 C 331.859375 59.816406 331.523438 65.082031 330.40625 67.320312 C 329.507812 69.222656 328.390625 71.128906 327.605469 72.695312 C 326.59375 74.714844 325.589844 76.394531 323.460938 76.84375 C 320.546875 77.511719 318.199219 73.816406 317.972656 71.578125 L 317.972656 70.792969 C 318.871094 67.433594 319.539062 64.746094 319.761719 61.722656 C 319.988281 59.707031 319.316406 57.6875 319.539062 56.007812 C 319.652344 54.441406 320.769531 53.769531 321.554688 52.875 C 322.453125 51.867188 323.238281 50.632812 324.804688 50.96875 C 326.035156 51.191406 326.820312 52.203125 328.050781 52.3125 C 329.957031 52.539062 330.96875 51.75 332.195312 50.746094 M 361.875 103.273438 C 359.074219 105.625 356.386719 106.296875 354.820312 105.179688 C 354.257812 104.730469 353.363281 103.722656 352.246094 102.378906 L 352.246094 92.1875 C 354.597656 91.960938 356.5 91.738281 357.0625 90.839844 C 358.625 88.152344 358.515625 85.464844 358.183594 82.105469 C 358.183594 80.875 356.5 81.546875 353.585938 81.207031 L 352.246094 81.207031 L 352.246094 73.257812 C 353.25 73.144531 354.148438 73.035156 354.597656 72.472656 C 355.828125 71.019531 353.25 69.5625 353.472656 68.21875 C 353.699219 66.089844 359.410156 65.417969 359.859375 63.847656 C 360.53125 62.167969 361.429688 63.175781 361.652344 61.050781 C 361.875 59.257812 357.507812 61.273438 355.714844 61.722656 C 354.484375 62.167969 353.363281 62.28125 352.246094 62.617188 L 352.246094 55.113281 C 354.929688 54.441406 358.183594 53.882812 361.875 53.207031 Z M 352.246094 12.332031 C 354.039062 11.882812 355.828125 11.992188 356.726562 12.78125 C 358.292969 14.121094 360.195312 15.355469 361.875 14.683594 L 361.875 29.242188 C 361.652344 29.351562 361.429688 29.464844 361.203125 29.914062 C 360.644531 31.03125 360.308594 31.261719 360.753906 32.378906 C 360.867188 32.492188 361.316406 32.378906 361.875 32.042969 L 361.875 43.015625 C 361.539062 43.238281 361.539062 43.355469 361.316406 44.136719 C 361.316406 44.25 361.539062 44.363281 361.875 44.472656 L 361.875 49.847656 C 359.859375 50.074219 357.84375 50.296875 356.050781 50.746094 C 355.265625 50.855469 353.699219 50.96875 352.46875 51.867188 C 352.359375 51.867188 352.359375 51.867188 352.246094 51.976562 L 352.246094 43.355469 C 353.699219 42.570312 355.15625 41.339844 355.265625 40.332031 C 355.714844 36.746094 355.605469 34.953125 352.691406 35.734375 C 352.691406 35.847656 352.582031 35.847656 352.246094 35.960938 L 352.246094 29.128906 C 353.699219 28.347656 355.492188 26.441406 355.714844 24.648438 C 356.164062 21.179688 355.042969 18.824219 352.246094 19.386719 Z M 370.386719 64.410156 C 368.484375 65.976562 367.03125 67.769531 367.03125 68.890625 C 366.914062 70.007812 368.375 70.234375 370.386719 70.121094 L 370.386719 78.96875 C 368.929688 80.535156 370.386719 88.152344 369.046875 91.625 C 367.925781 94.316406 366.46875 97.445312 365.011719 99.578125 C 364.003906 101.144531 362.882812 102.378906 361.875 103.273438 L 361.875 53.207031 L 363.332031 52.875 C 365.683594 52.539062 368.148438 52.203125 370.386719 51.976562 Z M 361.875 14.683594 C 362.214844 14.457031 362.4375 14.234375 362.773438 13.898438 C 365.011719 11.769531 362.546875 5.273438 367.03125 4.824219 C 368.257812 4.824219 369.378906 5.496094 370.386719 6.28125 L 370.386719 17.484375 C 370.164062 17.820312 369.941406 18.042969 369.601562 18.378906 C 369.496094 18.601562 369.15625 18.714844 369.046875 20.171875 C 369.046875 20.953125 369.828125 21.402344 370.386719 21.851562 L 370.386719 29.800781 C 369.828125 30.136719 370.164062 31.144531 370.386719 32.042969 L 370.386719 39.433594 L 370.164062 39.433594 C 368.929688 39.65625 369.15625 39.996094 368.820312 41.113281 C 368.929688 41.449219 369.714844 41.671875 370.386719 41.671875 L 370.386719 49.175781 C 369.265625 49.289062 368.148438 49.402344 366.914062 49.511719 C 365.238281 49.625 363.554688 49.738281 361.875 49.847656 L 361.875 44.472656 C 362.324219 44.585938 363.222656 44.585938 363.554688 44.25 C 364.453125 43.128906 364.566406 42.90625 363.441406 42.457031 C 363.332031 42.570312 362.882812 41.789062 362.324219 42.457031 C 362.101562 42.792969 361.988281 42.90625 361.875 43.015625 L 361.875 32.042969 C 362.324219 31.707031 362.882812 31.144531 362.996094 30.808594 C 363.222656 29.351562 363.222656 28.792969 362.101562 29.128906 C 362.101562 29.128906 361.988281 29.128906 361.875 29.242188 Z M 373.191406 48.953125 C 372.289062 49.0625 371.394531 49.175781 370.386719 49.175781 L 370.386719 41.671875 C 370.726562 41.671875 370.949219 41.671875 371.171875 41.449219 C 371.617188 41.003906 372.40625 40.554688 371.730469 39.769531 C 371.394531 39.433594 371.171875 39.324219 370.386719 39.433594 L 370.386719 32.152344 C 370.726562 32.492188 371.730469 32.714844 372.628906 32.601562 L 373.191406 32.714844 Z M 370.386719 70.121094 C 371.285156 70.121094 372.179688 70.007812 373.191406 69.894531 L 373.191406 78.410156 C 372.519531 78.410156 371.730469 78.519531 370.949219 78.746094 C 370.726562 78.746094 370.613281 78.859375 370.386719 78.96875 Z M 373.191406 62.617188 C 372.179688 63.175781 371.285156 63.738281 370.386719 64.410156 L 370.386719 51.976562 C 371.394531 51.867188 372.289062 51.75 373.191406 51.644531 Z M 373.191406 21.066406 C 372.519531 20.617188 372.070312 20.054688 371.957031 19.609375 C 371.84375 18.9375 372.289062 18.601562 373.191406 18.265625 Z M 370.386719 21.851562 C 371.171875 22.40625 371.84375 23.078125 371.507812 24.875 C 371.285156 25.546875 372.070312 25.996094 373.191406 26.21875 L 373.191406 29.6875 C 372.179688 29.578125 371.285156 29.578125 370.835938 29.578125 C 370.726562 29.6875 370.5 29.6875 370.386719 29.800781 Z M 370.386719 6.28125 C 371.507812 7.289062 372.519531 8.410156 373.191406 9.191406 L 373.191406 13.789062 C 372.628906 14.796875 371.730469 16.027344 370.386719 17.484375 Z M 373.191406 69.894531 C 375.089844 69.671875 377.21875 69.335938 379.125 69.113281 C 381.8125 68.777344 383.492188 67.210938 384.5 67.992188 C 387.632812 70.34375 388.195312 70.792969 389.652344 75.160156 C 391.109375 79.082031 385.398438 80.425781 382.480469 79.753906 C 378.003906 78.636719 376.773438 77.960938 373.191406 78.410156 Z M 373.191406 26.21875 C 375.089844 26.777344 378.230469 26.890625 378.675781 27.113281 C 379.460938 27.671875 380.246094 26.21875 379.125 25.324219 C 378.675781 24.984375 377.558594 23.976562 376.4375 23.195312 C 375.316406 22.40625 374.082031 21.738281 373.191406 21.066406 L 373.191406 18.265625 C 374.195312 17.929688 375.652344 17.820312 377.445312 17.707031 C 379.570312 17.484375 382.480469 15.355469 384.386719 15.914062 C 386.292969 16.585938 387.746094 16.359375 390.433594 22.746094 C 390.886719 23.976562 389.652344 25.769531 388.644531 27.449219 C 386.964844 30.027344 386.515625 32.492188 384.722656 35.175781 C 383.605469 37.082031 380.132812 42.792969 381.925781 42.457031 C 388.417969 41.113281 390.546875 41.339844 394.132812 44.585938 C 396.371094 46.597656 398.722656 47.949219 398.835938 50.410156 L 398.835938 50.855469 C 398.835938 51.304688 398.722656 51.867188 398.613281 52.425781 C 394.804688 58.808594 386.40625 53.992188 379.125 57.015625 C 378.003906 58.359375 378.339844 60.828125 375.429688 61.722656 C 374.648438 61.945312 373.859375 62.28125 373.191406 62.617188 L 373.191406 51.644531 C 375.652344 51.417969 377.78125 51.304688 379.125 51.191406 C 380.582031 51.082031 381.253906 49.511719 380.246094 48.839844 C 379.90625 48.617188 376.996094 48.730469 373.191406 48.953125 L 373.191406 32.714844 C 374.648438 32.824219 375.539062 32.824219 375.988281 32.265625 C 376.4375 31.707031 376.4375 30.699219 375.761719 30.136719 C 375.089844 29.914062 374.082031 29.6875 373.191406 29.6875 Z M 373.191406 9.191406 C 374.195312 10.425781 374.304688 11.769531 373.191406 13.789062 Z M 373.191406 9.191406 "/>
<path style=" stroke:none;fill-rule:evenodd;fill:rgb(100%,100%,100%);fill-opacity:1;" d="M 221.207031 39.097656 C 225.574219 39.324219 228.371094 38.875 228.371094 37.976562 C 228.484375 34.394531 228.597656 28.457031 227.476562 23.753906 C 226.917969 21.289062 228.707031 19.832031 230.050781 19.046875 C 233.300781 17.144531 234.085938 16.25 235.878906 16.472656 C 239.125 16.921875 241.476562 18.9375 243.71875 21.851562 C 244.835938 23.417969 245.617188 21.289062 244.390625 29.019531 C 243.71875 32.9375 244.277344 33.160156 244.949219 33.832031 C 246.742188 34.503906 248.644531 33.949219 251.335938 33.160156 C 254.691406 32.265625 255.8125 27.113281 262.421875 34.84375 C 263.429688 35.734375 264.101562 37.082031 262.871094 38.761719 C 261.410156 40.777344 258.054688 41.789062 254.132812 43.910156 C 249.089844 46.828125 240.914062 47.273438 242.148438 50.96875 C 245.511719 59.480469 254.917969 71.914062 267.238281 80.535156 C 270.375 82.664062 274.179688 84.570312 278.550781 85.6875 C 284.824219 87.484375 290.085938 88.824219 287.058594 90.394531 C 282.246094 92.859375 264.546875 95.65625 259.621094 92.96875 C 254.46875 90.28125 239.125 65.867188 236.324219 61.050781 C 236.210938 60.828125 235.765625 60.828125 235.539062 61.496094 C 232.738281 67.769531 226.582031 79.527344 220.417969 84.457031 C 217.734375 86.585938 213.703125 85.464844 212.472656 84.570312 C 211.125 83.449219 202.277344 81.433594 200.824219 78.636719 C 200.039062 76.953125 201.15625 76.726562 202.164062 76.617188 C 213.925781 76.171875 215.492188 72.695312 218.292969 70.570312 C 225.574219 64.96875 226.582031 55.226562 225.6875 54.890625 C 214.820312 55.894531 211.125 57.242188 207.761719 53.207031 C 201.046875 39.769531 206.53125 37.417969 212.691406 38.3125 C 215.828125 38.652344 220.082031 39.097656 221.207031 39.097656 "/>
<path style=" stroke:none;fill-rule:evenodd;fill:rgb(100%,100%,100%);fill-opacity:1;" d="M 112.339844 51.976562 C 113.6875 52.425781 114.804688 53.097656 115.925781 55.339844 C 119.0625 60.488281 117.832031 66.984375 118.726562 71.019531 C 119.507812 71.578125 121.636719 71.128906 123.988281 70.792969 C 127.125 70.34375 130.601562 69.671875 130.484375 68.777344 C 130.039062 64.410156 130.710938 36.074219 130.039062 32.378906 C 129.925781 31.929688 129.699219 30.585938 129.589844 30.25 C 128.136719 23.753906 134.292969 21.738281 136.199219 21.960938 C 139.445312 22.296875 145.828125 28.347656 144.933594 31.144531 C 143.140625 33.832031 143.027344 41.898438 142.914062 49.625 C 142.914062 56.234375 142.804688 62.617188 143.140625 65.082031 C 143.140625 67.097656 151.320312 64.519531 154.003906 63.511719 C 157.476562 62.839844 156.804688 51.976562 159.71875 49.960938 C 161.0625 48.953125 169.234375 50.410156 170.46875 57.242188 C 170.695312 60.9375 169.574219 65.753906 168.675781 70.34375 C 168.007812 73.59375 167.558594 77.511719 167.441406 79.082031 C 167.332031 80.535156 160.949219 87.035156 158.824219 88.492188 C 155.574219 89.382812 154.453125 81.546875 154.453125 77.289062 C 154.566406 75.046875 154.566406 74.265625 154.003906 73.816406 C 151.992188 73.59375 146.949219 74.488281 143.929688 76.054688 C 142.359375 76.953125 141.796875 79.195312 139.667969 79.644531 C 131.15625 79.304688 122.535156 80.984375 121.191406 82.328125 C 120.40625 83 116.375 86.476562 115.703125 87.480469 C 115.03125 88.375 112.117188 87.367188 111.222656 87.707031 C 108.980469 88.375 107.753906 84.570312 105.289062 81.433594 C 102.710938 78.074219 104.503906 76.171875 105.957031 72.585938 C 107.636719 68.554688 108.199219 61.496094 107.863281 56.679688 C 107.863281 54.21875 107.753906 51.304688 112.339844 51.976562 "/>
<g clip-path="url(#clip1)" clip-rule="nonzero">
<path style=" stroke:none;fill-rule:evenodd;fill:rgb(100%,100%,100%);fill-opacity:1;" d="M 14.570312 31.03125 C 16.136719 31.480469 17.367188 30.472656 19.269531 29.351562 C 21.0625 28.234375 22.519531 27.449219 23.75 26.664062 L 23.75 37.082031 C 22.070312 37.53125 20.503906 37.53125 19.15625 37.082031 C 17.8125 36.519531 19.269531 46.492188 20.953125 46.941406 C 22.183594 47.050781 22.964844 47.164062 23.75 47.164062 L 23.75 60.042969 C 22.292969 60.601562 20.726562 61.160156 19.046875 61.945312 C 18.261719 62.617188 17.476562 63.289062 16.808594 64.1875 C 16.023438 65.082031 15.464844 66.425781 14.453125 66.761719 C 12.214844 67.320312 9.863281 66.984375 7.847656 65.644531 C 6.28125 64.296875 6.28125 61.160156 4.039062 57.800781 C 2.25 55.5625 0.453125 53.882812 0.453125 50.746094 C 1.578125 47.832031 2.023438 46.378906 2.917969 44.699219 C 3.253906 43.800781 3.367188 43.019531 3.476562 41.671875 C 3.816406 38.425781 4.261719 35.625 5.496094 32.601562 C 6.390625 30.921875 10.984375 28.011719 14.570312 31.03125 M 23.75 26.664062 C 26.105469 25.324219 27.894531 24.425781 30.695312 23.527344 C 30.46875 19.386719 30.023438 15.128906 30.132812 11.210938 C 30.132812 10.425781 29.90625 9.644531 29.574219 9.082031 C 27.894531 5.722656 31.703125 1.355469 37.1875 0.0117188 C 38.648438 -0.210938 45.363281 3.035156 45.476562 6.058594 C 45.253906 10.3125 44.808594 15.246094 45.253906 19.046875 C 46.148438 19.164062 47.496094 19.273438 49.0625 19.386719 L 49.0625 27.226562 C 47.496094 27.449219 45.929688 27.898438 45.027344 28.347656 C 44.136719 29.914062 43.574219 39.210938 44.808594 39.882812 C 46.148438 40.109375 47.71875 39.324219 49.0625 38.425781 L 49.0625 53.433594 C 47.15625 54.21875 45.363281 55.226562 43.574219 56.457031 C 43.351562 70.007812 42.230469 82.777344 41.785156 96.332031 C 40.773438 103.496094 38.308594 109.992188 34.726562 110.554688 C 32.148438 110.214844 29.574219 104.617188 29.464844 95.546875 L 28.902344 58.472656 C 27.445312 58.699219 25.65625 59.257812 23.75 60.042969 L 23.75 47.164062 C 25.203125 47.164062 26.105469 46.828125 28.007812 45.707031 C 29.238281 44.921875 28.789062 36.746094 28.453125 35.289062 C 27.78125 34.394531 26.777344 35.734375 26.4375 35.847656 C 25.542969 36.410156 24.648438 36.859375 23.75 37.082031 Z M 49.0625 19.386719 C 50.519531 19.386719 52.199219 19.386719 53.878906 19.273438 C 56.789062 18.9375 60.484375 16.476562 63.171875 16.359375 C 67.09375 16.359375 72.46875 21.851562 73.816406 25.324219 C 74.597656 28.457031 72.691406 30.808594 70.566406 31.929688 L 68.773438 32.492188 C 66.644531 33.5 62.949219 38.3125 63.0625 39.324219 C 62.949219 40.667969 62.949219 41.671875 64.515625 42.792969 C 65.414062 44.136719 63.171875 49.738281 60.484375 50.746094 C 59.589844 51.304688 58.917969 51.753906 56.789062 51.753906 C 54.214844 51.644531 51.636719 52.3125 49.0625 53.433594 L 49.0625 38.425781 C 50.296875 37.53125 51.1875 36.410156 51.527344 35.734375 C 52.980469 33.722656 54.886719 30.472656 53.765625 27.898438 C 52.648438 27.113281 50.851562 27 49.0625 27.226562 Z M 49.0625 19.386719 "/>
</g>
<g clip-path="url(#clip2)" clip-rule="nonzero">
<path style=" stroke:none;fill-rule:evenodd;fill:rgb(100%,100%,100%);fill-opacity:1;" d="M 12.546875 127.578125 L 11.765625 127.578125 C 11.433594 126.234375 10.871094 125.113281 10.085938 124.21875 C 9.078125 122.984375 7.734375 122.3125 6.28125 122.3125 C 5.496094 122.3125 4.824219 122.535156 4.148438 122.984375 C 3.589844 123.433594 3.253906 124.105469 3.253906 125 C 3.253906 125.785156 3.476562 126.34375 3.816406 126.792969 C 4.261719 127.242188 5.046875 127.6875 6.164062 128.359375 L 10.308594 130.375 C 10.984375 130.714844 11.65625 131.273438 12.214844 131.945312 C 13 133.066406 13.445312 134.183594 13.445312 135.527344 C 13.445312 137.097656 12.890625 138.328125 11.875 139.449219 C 10.648438 140.792969 8.742188 141.464844 6.390625 141.464844 C 5.496094 141.464844 4.710938 141.351562 3.925781 141.125 C 3.140625 140.902344 2.472656 140.679688 1.578125 140.457031 C 1.351562 140.457031 1.125 140.570312 1.011719 140.792969 C 0.902344 140.902344 0.902344 141.125 0.789062 141.464844 L 0.0078125 141.464844 L 0.0078125 134.519531 L 0.789062 134.519531 C 1.125 136.199219 1.683594 137.546875 2.582031 138.554688 C 3.589844 139.898438 4.933594 140.570312 6.503906 140.570312 C 7.621094 140.570312 8.515625 140.234375 9.191406 139.671875 C 9.746094 139 10.085938 138.328125 10.085938 137.320312 C 10.085938 136.539062 9.746094 135.867188 9.191406 135.304688 C 8.855469 134.96875 8.070312 134.519531 6.949219 133.960938 L 5.046875 133.066406 C 2.917969 132.058594 1.578125 130.9375 0.789062 129.59375 C 0.453125 128.921875 0.230469 128.027344 0.230469 127.019531 C 0.230469 125.226562 0.902344 123.769531 2.136719 122.757812 C 3.140625 121.867188 4.597656 121.417969 6.390625 121.417969 C 7.289062 121.417969 8.292969 121.644531 9.191406 121.867188 C 10.195312 122.199219 10.757812 122.425781 10.871094 122.425781 C 11.207031 122.425781 11.433594 122.199219 11.539062 121.976562 C 11.65625 121.867188 11.65625 121.644531 11.765625 121.417969 L 12.546875 121.417969 Z M 35.734375 121.867188 L 35.734375 122.648438 C 34.949219 122.757812 34.390625 122.875 34.054688 123.207031 C 33.71875 123.546875 33.609375 124.105469 33.609375 125 L 33.609375 133.960938 C 33.609375 134.96875 33.496094 135.867188 33.269531 136.761719 C 32.933594 137.992188 32.484375 138.777344 31.929688 139.339844 C 31.367188 140.121094 30.46875 140.679688 29.351562 141.015625 C 28.453125 141.242188 27.445312 141.464844 26.4375 141.464844 C 25.542969 141.464844 24.648438 141.351562 23.863281 141.125 C 22.519531 140.902344 21.511719 140.34375 20.726562 139.671875 C 20.054688 139 19.605469 138.441406 19.269531 137.882812 C 18.933594 137.097656 18.824219 135.976562 18.824219 134.636719 L 18.824219 125.226562 C 18.824219 124.105469 18.597656 123.433594 18.261719 123.097656 C 17.925781 122.875 17.367188 122.648438 16.46875 122.648438 L 16.46875 121.867188 L 25.992188 121.867188 L 25.992188 122.648438 C 24.980469 122.648438 24.199219 122.757812 23.976562 122.984375 C 23.527344 123.320312 23.300781 123.992188 23.300781 125.226562 L 23.300781 134.636719 C 23.300781 136.539062 23.640625 137.882812 24.308594 138.777344 C 24.871094 139.671875 25.992188 140.121094 27.335938 140.121094 C 29.464844 140.121094 30.917969 139.226562 31.703125 137.65625 C 32.148438 136.875 32.261719 135.527344 32.261719 133.960938 L 32.261719 125.339844 C 32.261719 124.441406 32.148438 123.769531 31.8125 123.320312 C 31.476562 122.875 30.695312 122.648438 29.574219 122.648438 L 29.574219 121.867188 Z M 38.199219 140.902344 L 38.199219 140.234375 C 39.207031 140.121094 39.765625 139.898438 40.105469 139.789062 C 40.4375 139.449219 40.664062 138.890625 40.664062 137.992188 L 40.664062 124.664062 C 39.992188 123.769531 39.433594 123.097656 39.09375 122.875 C 38.757812 122.648438 38.535156 122.648438 38.308594 122.648438 L 38.308594 121.867188 L 44.246094 121.867188 L 53.992188 133.960938 L 53.992188 125.339844 C 53.992188 124.441406 53.878906 123.769531 53.542969 123.320312 C 53.207031 122.875 52.535156 122.648438 51.414062 122.648438 L 51.414062 121.867188 L 57.460938 121.867188 L 57.460938 122.648438 C 56.453125 122.757812 55.894531 122.875 55.671875 123.207031 C 55.449219 123.546875 55.222656 124.105469 55.222656 124.886719 L 55.222656 141.464844 L 54.441406 141.464844 L 42.007812 126.121094 L 41.894531 137.433594 C 41.894531 138.441406 42.117188 139.113281 42.453125 139.449219 C 42.789062 139.898438 43.460938 140.121094 44.582031 140.234375 L 44.582031 140.902344 Z M 94.535156 140.121094 C 94.3125 140.121094 94.195312 140.234375 94.085938 140.234375 L 94.085938 140.902344 L 94.535156 140.902344 Z M 94.535156 121.867188 L 94.535156 122.648438 C 94.085938 122.757812 93.863281 122.875 93.640625 122.984375 C 93.414062 123.097656 93.191406 123.320312 92.96875 123.65625 L 87.589844 132.390625 L 87.589844 137.65625 C 87.589844 138.667969 87.816406 139.449219 88.148438 139.671875 C 88.375 139.898438 89.046875 140.121094 90.164062 140.234375 L 90.164062 140.902344 L 80.421875 140.902344 L 80.421875 140.234375 C 81.542969 140.121094 82.214844 139.898438 82.4375 139.789062 C 82.886719 139.449219 83 138.667969 83 137.65625 L 83 133.515625 L 77.84375 124.105469 C 77.734375 123.878906 77.621094 123.65625 77.511719 123.546875 C 76.949219 122.875 76.390625 122.648438 75.609375 122.648438 L 75.609375 121.867188 L 85.011719 121.867188 L 85.011719 122.648438 C 84.121094 122.648438 83.445312 122.648438 83.222656 122.757812 C 82.886719 122.875 82.773438 123.097656 82.773438 123.546875 C 82.773438 123.769531 82.886719 123.992188 83.109375 124.328125 C 83.222656 124.777344 83.332031 125 83.445312 125.113281 L 86.804688 131.609375 L 89.941406 126.457031 C 90.164062 126.121094 90.390625 125.785156 90.613281 125.339844 C 90.835938 124.664062 91.0625 124.105469 91.0625 123.878906 C 91.0625 123.320312 90.835938 122.984375 90.390625 122.875 C 90.050781 122.648438 89.378906 122.648438 88.710938 122.648438 L 88.710938 121.867188 Z M 94.535156 121.867188 L 94.871094 121.867188 L 94.871094 122.648438 L 94.535156 122.648438 Z M 101.925781 124.441406 L 101.925781 127.6875 L 101.8125 127.464844 L 99.128906 134.292969 L 101.925781 134.292969 L 101.925781 135.414062 L 98.679688 135.414062 C 98.34375 136.425781 98.007812 137.210938 97.78125 137.882812 C 97.558594 138.441406 97.441406 138.777344 97.441406 139 C 97.441406 139.449219 97.78125 139.789062 98.230469 140.007812 C 98.679688 140.121094 99.128906 140.234375 99.796875 140.234375 L 99.796875 140.902344 L 94.535156 140.902344 L 94.535156 140.121094 C 94.980469 140.007812 95.429688 139.671875 95.765625 139.226562 C 95.988281 138.890625 96.328125 138.105469 96.886719 136.875 Z M 113.125 140.234375 C 112.566406 140.234375 112.003906 139.898438 111.671875 139.339844 C 111.332031 138.890625 110.773438 137.882812 110.101562 136.3125 L 103.832031 121.527344 L 103.046875 121.527344 L 101.925781 124.441406 L 101.925781 127.6875 L 104.617188 134.292969 L 101.925781 134.292969 L 101.925781 135.414062 L 105.0625 135.414062 C 105.507812 136.3125 105.730469 136.984375 105.847656 137.320312 C 106.183594 138.105469 106.292969 138.777344 106.292969 139.113281 C 106.292969 139.5625 106.183594 139.898438 105.847656 140.007812 C 105.621094 140.121094 104.949219 140.234375 104.050781 140.234375 L 104.050781 140.902344 L 113.125 140.902344 Z M 113.125 121.867188 L 113.125 127.578125 L 113.015625 127.578125 Z M 143.816406 136.089844 L 134.070312 136.089844 L 134.070312 132.839844 L 143.816406 132.839844 Z M 160.054688 127.578125 L 159.269531 127.578125 C 158.933594 126.234375 158.371094 125.113281 157.589844 124.21875 C 156.582031 122.984375 155.234375 122.3125 153.785156 122.3125 C 153 122.3125 152.328125 122.535156 151.65625 122.984375 C 151.09375 123.433594 150.757812 124.105469 150.757812 125 C 150.757812 125.785156 150.980469 126.34375 151.320312 126.792969 C 151.761719 127.242188 152.550781 127.6875 153.667969 128.359375 L 157.8125 130.375 C 158.488281 130.714844 159.15625 131.273438 159.71875 131.945312 C 160.503906 133.066406 160.945312 134.183594 160.945312 135.527344 C 160.945312 137.097656 160.390625 138.328125 159.382812 139.449219 C 158.148438 140.792969 156.246094 141.464844 153.890625 141.464844 C 153 141.464844 152.214844 141.351562 151.429688 141.125 C 150.644531 140.902344 149.972656 140.679688 149.074219 140.457031 C 148.855469 140.457031 148.628906 140.570312 148.515625 140.792969 C 148.402344 140.902344 148.402344 141.125 148.292969 141.464844 L 147.511719 141.464844 L 147.511719 134.519531 L 148.292969 134.519531 C 148.628906 136.199219 149.191406 137.546875 150.085938 138.554688 C 151.09375 139.898438 152.4375 140.570312 154.003906 140.570312 C 155.125 140.570312 156.023438 140.234375 156.691406 139.671875 C 157.253906 139 157.589844 138.328125 157.589844 137.320312 C 157.589844 136.539062 157.253906 135.867188 156.691406 135.304688 C 156.359375 134.96875 155.574219 134.519531 154.453125 133.960938 L 152.550781 133.066406 C 150.421875 132.058594 149.074219 130.9375 148.292969 129.59375 C 147.957031 128.921875 147.734375 128.027344 147.734375 127.019531 C 147.734375 125.226562 148.402344 123.769531 149.636719 122.757812 C 150.644531 121.867188 152.101562 121.417969 153.890625 121.417969 C 154.789062 121.417969 155.796875 121.644531 156.691406 121.867188 C 157.703125 122.199219 158.261719 122.425781 158.371094 122.425781 C 158.710938 122.425781 158.933594 122.199219 159.042969 121.976562 C 159.15625 121.867188 159.15625 121.644531 159.269531 121.417969 L 160.054688 121.417969 Z M 163.972656 122.648438 L 163.972656 121.867188 L 180.214844 121.867188 L 180.214844 127.578125 L 179.542969 127.578125 C 179.207031 125.671875 178.53125 124.328125 177.527344 123.65625 C 176.628906 123.097656 175.171875 122.875 173.046875 122.875 C 172.261719 122.875 171.703125 122.875 171.476562 123.097656 C 171.140625 123.207031 171.03125 123.546875 171.03125 124.21875 L 171.03125 130.714844 C 172.484375 130.714844 173.496094 130.492188 174.164062 129.929688 C 174.835938 129.257812 175.394531 128.136719 175.621094 126.457031 L 176.292969 126.457031 L 176.292969 135.976562 L 175.621094 135.976562 C 175.394531 134.292969 174.949219 133.179688 174.277344 132.617188 C 173.605469 131.945312 172.484375 131.609375 171.03125 131.609375 L 171.03125 138.441406 C 171.03125 139.113281 171.140625 139.449219 171.476562 139.671875 C 171.8125 139.898438 172.484375 140.007812 173.382812 140.007812 C 175.0625 140.007812 176.40625 139.789062 177.410156 139.113281 C 178.871094 138.441406 179.988281 136.984375 180.773438 135.082031 L 181.558594 135.082031 L 180.4375 140.902344 L 163.972656 140.902344 L 163.972656 140.234375 C 164.980469 140.121094 165.542969 140.007812 165.765625 139.789062 C 166.214844 139.5625 166.4375 139 166.4375 138.214844 L 166.4375 124.554688 C 166.4375 123.769531 166.214844 123.207031 165.765625 122.875 C 165.320312 122.648438 164.761719 122.648438 163.972656 122.648438 M 184.132812 140.902344 L 184.132812 140.234375 C 185.140625 140.121094 185.699219 139.898438 186.039062 139.789062 C 186.371094 139.449219 186.59375 138.890625 186.59375 137.992188 L 186.59375 124.664062 C 185.925781 123.769531 185.367188 123.097656 185.03125 122.875 C 184.695312 122.648438 184.46875 122.648438 184.246094 122.648438 L 184.246094 121.867188 L 190.183594 121.867188 L 199.925781 133.960938 L 200.039062 125.339844 C 200.039062 124.441406 199.8125 123.769531 199.589844 123.320312 C 199.140625 122.875 198.46875 122.648438 197.347656 122.648438 L 197.347656 121.867188 L 203.394531 121.867188 L 203.394531 122.648438 C 202.5 122.757812 201.828125 122.875 201.605469 123.207031 C 201.378906 123.546875 201.269531 124.105469 201.269531 124.886719 L 201.269531 141.464844 L 200.484375 141.464844 L 187.9375 126.121094 L 187.828125 137.433594 C 187.828125 138.441406 188.050781 139.113281 188.390625 139.449219 C 188.726562 139.898438 189.511719 140.121094 190.515625 140.234375 L 190.515625 140.902344 Z M 232.851562 121.867188 L 232.851562 122.648438 C 232.070312 122.757812 231.507812 122.875 231.285156 123.207031 C 230.835938 123.546875 230.726562 124.105469 230.726562 125 L 230.726562 133.960938 C 230.726562 134.96875 230.613281 135.867188 230.390625 136.761719 C 230.050781 137.992188 229.71875 138.777344 229.15625 139.339844 C 228.484375 140.121094 227.585938 140.679688 226.472656 141.015625 C 225.574219 141.242188 224.566406 141.464844 223.558594 141.464844 C 222.664062 141.464844 221.761719 141.351562 220.980469 141.125 C 219.75 140.902344 218.628906 140.34375 217.84375 139.671875 C 217.171875 139 216.722656 138.441406 216.390625 137.882812 C 216.054688 137.097656 215.9375 135.976562 215.9375 134.636719 L 215.9375 125.226562 C 215.9375 124.105469 215.71875 123.433594 215.382812 123.097656 C 215.15625 122.875 214.597656 122.648438 213.585938 122.648438 L 213.585938 121.867188 L 223.113281 121.867188 L 223.113281 122.648438 C 222.097656 122.648438 221.429688 122.757812 221.09375 122.984375 C 220.644531 123.320312 220.421875 123.992188 220.421875 125.226562 L 220.421875 134.636719 C 220.421875 136.539062 220.757812 137.882812 221.429688 138.777344 C 222.097656 139.671875 223.113281 140.121094 224.453125 140.121094 C 226.582031 140.121094 228.039062 139.226562 228.820312 137.65625 C 229.269531 136.875 229.492188 135.527344 229.492188 133.960938 L 229.492188 125.339844 C 229.492188 124.441406 229.269531 123.769531 229.046875 123.320312 C 228.597656 122.875 227.816406 122.648438 226.695312 122.648438 L 226.695312 121.867188 Z M 235.09375 140.902344 L 235.09375 140.234375 C 235.992188 140.121094 236.660156 139.898438 236.882812 139.789062 C 237.332031 139.449219 237.554688 138.890625 237.554688 137.992188 L 237.554688 124.664062 C 236.773438 123.769531 236.210938 123.097656 235.878906 122.875 C 235.652344 122.648438 235.429688 122.648438 235.09375 122.648438 L 235.09375 121.867188 L 241.03125 121.867188 L 250.886719 133.960938 L 250.886719 125.339844 C 250.886719 124.441406 250.769531 123.769531 250.4375 123.320312 C 250.101562 122.875 249.316406 122.648438 248.308594 122.648438 L 248.308594 121.867188 L 254.355469 121.867188 L 254.355469 122.648438 C 253.351562 122.757812 252.789062 122.875 252.566406 123.207031 C 252.226562 123.546875 252.121094 124.105469 252.121094 124.886719 L 252.121094 141.464844 L 251.335938 141.464844 L 238.789062 126.121094 L 238.789062 137.433594 C 238.789062 138.441406 238.902344 139.113281 239.351562 139.449219 C 239.683594 139.898438 240.359375 140.121094 241.476562 140.234375 L 241.476562 140.902344 Z M 266.453125 140.234375 L 266.453125 140.902344 L 256.597656 140.902344 L 256.597656 140.234375 C 257.828125 140.121094 258.5 139.898438 258.835938 139.671875 C 259.0625 139.339844 259.175781 138.890625 259.175781 138.214844 L 259.175781 124.554688 C 259.175781 123.769531 258.949219 123.207031 258.390625 122.875 C 258.054688 122.648438 257.378906 122.648438 256.597656 122.648438 L 256.597656 121.867188 L 266.453125 121.867188 L 266.453125 122.648438 C 265.554688 122.648438 265 122.648438 264.664062 122.875 C 264.101562 123.207031 263.765625 123.769531 263.765625 124.554688 L 263.765625 138.214844 C 263.765625 139 263.988281 139.5625 264.546875 139.898438 C 264.886719 140.121094 265.554688 140.234375 266.453125 140.234375 M 287.507812 121.867188 L 287.507812 122.648438 C 286.835938 122.648438 286.277344 122.875 285.9375 123.207031 C 285.71875 123.546875 285.378906 124.105469 285.046875 124.886719 L 278.550781 141.464844 L 277.878906 141.464844 L 270.597656 124.554688 C 270.261719 123.769531 269.925781 123.207031 269.699219 123.097656 C 269.476562 122.875 269.027344 122.757812 268.246094 122.648438 L 268.246094 121.867188 L 277.761719 121.867188 L 277.761719 122.648438 C 276.757812 122.648438 276.082031 122.648438 275.75 122.757812 C 275.527344 122.875 275.300781 123.207031 275.300781 123.769531 C 275.300781 123.992188 275.414062 124.441406 275.636719 125 C 275.859375 125.5625 276.082031 126.011719 276.195312 126.234375 L 279.894531 135.082031 L 283.367188 125.785156 C 283.589844 125.449219 283.703125 125 283.8125 124.777344 C 283.925781 124.441406 283.925781 124.105469 283.925781 123.878906 C 283.925781 122.984375 283.140625 122.648438 281.574219 122.648438 L 281.574219 121.867188 Z M 289.972656 122.648438 L 289.972656 121.867188 L 306.210938 121.867188 L 306.210938 127.578125 L 305.539062 127.578125 C 305.207031 125.671875 304.535156 124.328125 303.523438 123.65625 C 302.628906 123.097656 301.171875 122.875 299.046875 122.875 C 298.261719 122.875 297.699219 122.875 297.476562 123.097656 C 297.140625 123.207031 297.027344 123.546875 297.027344 124.21875 L 297.027344 130.714844 C 298.484375 130.714844 299.492188 130.492188 300.167969 129.929688 C 300.945312 129.257812 301.394531 128.136719 301.621094 126.457031 L 302.292969 126.457031 L 302.292969 135.976562 L 301.621094 135.976562 C 301.394531 134.292969 300.945312 133.179688 300.277344 132.617188 C 299.605469 131.945312 298.484375 131.609375 297.027344 131.609375 L 297.027344 138.441406 C 297.027344 139.113281 297.140625 139.449219 297.476562 139.671875 C 297.8125 139.898438 298.484375 140.007812 299.382812 140.007812 C 301.058594 140.007812 302.40625 139.789062 303.410156 139.113281 C 304.867188 138.441406 305.988281 136.984375 306.773438 135.082031 L 307.554688 135.082031 L 306.441406 140.902344 L 289.972656 140.902344 L 289.972656 140.234375 C 290.980469 140.121094 291.539062 140.007812 291.875 139.789062 C 292.210938 139.5625 292.4375 139 292.4375 138.214844 L 292.4375 124.554688 C 292.4375 123.769531 292.210938 123.207031 291.765625 122.875 C 291.433594 122.648438 290.757812 122.648438 289.972656 122.648438 M 113.125 127.578125 L 113.90625 127.578125 C 114.132812 125.5625 114.804688 124.21875 116.039062 123.433594 C 116.820312 122.984375 117.832031 122.757812 119.289062 122.757812 L 119.289062 137.65625 C 119.289062 138.777344 119.0625 139.449219 118.726562 139.789062 C 118.386719 140.121094 117.71875 140.234375 116.597656 140.234375 L 116.597656 140.902344 L 126.566406 140.902344 L 126.566406 140.234375 C 125.445312 140.234375 124.773438 140.121094 124.4375 139.789062 C 123.988281 139.449219 123.878906 138.777344 123.878906 137.65625 L 123.878906 122.757812 C 125.222656 122.757812 126.339844 122.984375 127.125 123.546875 C 128.246094 124.21875 129.03125 125.5625 129.253906 127.578125 L 130.039062 127.578125 L 130.039062 121.867188 L 113.125 121.867188 Z M 113.125 140.234375 L 113.238281 140.234375 L 113.238281 140.902344 L 113.125 140.902344 Z M 318.871094 121.867188 L 318.871094 122.875 L 318.085938 122.875 C 317.414062 122.875 316.964844 122.875 316.738281 123.097656 C 316.515625 123.207031 316.40625 123.546875 316.40625 123.992188 L 316.40625 131.160156 C 317.414062 131.160156 318.199219 131.160156 318.871094 130.9375 L 318.871094 134.855469 L 317.074219 132.058594 L 316.40625 132.058594 L 316.40625 137.65625 C 316.40625 138.667969 316.515625 139.339844 316.855469 139.671875 C 317.191406 139.898438 317.859375 140.121094 318.871094 140.234375 L 318.871094 140.902344 L 309.351562 140.902344 L 309.351562 140.234375 C 310.359375 140.121094 311.03125 139.898438 311.25 139.671875 C 311.589844 139.339844 311.8125 138.667969 311.8125 137.65625 L 311.8125 125.226562 C 311.8125 124.105469 311.589844 123.320312 311.140625 122.984375 C 310.804688 122.757812 310.246094 122.648438 309.351562 122.648438 L 309.351562 121.867188 Z M 343.957031 127.578125 L 343.175781 127.578125 C 342.835938 126.234375 342.277344 125.113281 341.492188 124.21875 C 340.371094 122.984375 339.140625 122.3125 337.574219 122.3125 C 336.789062 122.3125 336.117188 122.535156 335.554688 122.984375 C 334.882812 123.433594 334.660156 124.105469 334.660156 125 C 334.660156 125.785156 334.769531 126.34375 335.21875 126.792969 C 335.554688 127.242188 336.339844 127.6875 337.460938 128.359375 L 341.609375 130.375 C 342.390625 130.714844 342.949219 131.273438 343.507812 131.945312 C 344.292969 133.066406 344.738281 134.183594 344.738281 135.527344 C 344.738281 137.097656 344.179688 138.328125 343.175781 139.449219 C 341.941406 140.792969 340.148438 141.464844 337.796875 141.464844 C 336.898438 141.464844 336.003906 141.351562 335.21875 141.125 C 334.546875 140.902344 333.761719 140.679688 332.980469 140.457031 C 332.644531 140.457031 332.535156 140.570312 332.421875 140.792969 C 332.308594 140.902344 332.191406 141.125 332.082031 141.464844 L 331.300781 141.464844 L 331.300781 134.519531 L 332.082031 134.519531 C 332.421875 136.199219 332.980469 137.546875 333.878906 138.554688 C 334.882812 139.898438 336.226562 140.570312 337.90625 140.570312 C 339.027344 140.570312 339.8125 140.234375 340.484375 139.671875 C 341.042969 139 341.378906 138.328125 341.378906 137.320312 C 341.378906 136.539062 341.042969 135.867188 340.484375 135.304688 C 340.148438 134.96875 339.363281 134.519531 338.246094 133.960938 L 336.339844 133.066406 C 334.214844 132.058594 332.871094 130.9375 332.191406 129.59375 C 331.75 128.921875 331.523438 128.027344 331.523438 127.019531 C 331.523438 125.226562 332.191406 123.769531 333.429688 122.757812 C 334.546875 121.867188 336.003906 121.417969 337.796875 121.417969 C 338.691406 121.417969 339.589844 121.644531 340.484375 121.867188 C 341.492188 122.199219 342.050781 122.425781 342.164062 122.425781 C 342.5 122.425781 342.722656 122.199219 342.835938 121.976562 C 342.949219 121.867188 343.0625 121.644531 343.0625 121.417969 L 343.957031 121.417969 Z M 357.730469 140.234375 L 357.730469 140.902344 L 347.875 140.902344 L 347.875 140.234375 C 349.109375 140.121094 349.78125 139.898438 350.117188 139.671875 C 350.339844 139.339844 350.5625 138.890625 350.5625 138.214844 L 350.5625 124.554688 C 350.5625 123.769531 350.226562 123.207031 349.671875 122.875 C 349.332031 122.648438 348.773438 122.648438 347.875 122.648438 L 347.875 121.867188 L 357.730469 121.867188 L 357.730469 122.648438 C 356.949219 122.648438 356.277344 122.648438 355.941406 122.875 C 355.378906 123.207031 355.042969 123.769531 355.042969 124.554688 L 355.042969 138.214844 C 355.042969 139 355.378906 139.5625 355.828125 139.898438 C 356.277344 140.121094 356.835938 140.234375 357.730469 140.234375 M 374.082031 140.234375 L 374.082031 140.902344 L 364.117188 140.902344 L 364.117188 140.234375 C 365.238281 140.234375 365.90625 140.121094 366.242188 139.789062 C 366.582031 139.449219 366.804688 138.777344 366.804688 137.65625 L 366.804688 122.757812 C 365.460938 122.757812 364.339844 122.984375 363.554688 123.433594 C 362.324219 124.21875 361.652344 125.5625 361.429688 127.578125 L 360.53125 127.578125 L 360.644531 121.867188 L 377.558594 121.867188 L 377.558594 127.578125 L 376.773438 127.578125 C 376.546875 125.5625 375.761719 124.21875 374.648438 123.546875 C 373.859375 122.984375 372.742188 122.757812 371.394531 122.757812 L 371.394531 137.65625 C 371.394531 138.777344 371.617188 139.449219 371.957031 139.789062 C 372.292969 140.121094 372.964844 140.234375 374.082031 140.234375 M 318.871094 134.855469 L 318.871094 130.9375 C 319.542969 130.824219 319.988281 130.714844 320.324219 130.492188 C 321.109375 129.816406 321.441406 128.699219 321.441406 126.90625 C 321.441406 125.449219 321.21875 124.441406 320.660156 123.769531 C 320.214844 123.320312 319.652344 122.984375 318.871094 122.875 L 318.871094 121.867188 C 321.21875 121.976562 323.011719 122.425781 324.246094 123.207031 C 325.589844 123.992188 326.261719 125.226562 326.261719 126.792969 C 326.261719 128.359375 325.8125 129.480469 324.691406 130.375 C 324.132812 130.824219 323.125 131.273438 321.890625 131.609375 L 327.488281 139.671875 C 327.71875 139.898438 327.941406 140.007812 328.050781 140.121094 C 328.277344 140.121094 328.5 140.234375 328.726562 140.234375 L 328.726562 140.902344 L 322.898438 140.902344 Z M 399.507812 121.867188 L 399.507812 122.648438 C 398.945312 122.648438 398.5 122.757812 398.273438 122.984375 C 398.050781 123.097656 397.828125 123.320312 397.605469 123.65625 L 392.226562 132.390625 L 392.226562 137.65625 C 392.226562 138.667969 392.453125 139.449219 392.785156 139.671875 C 393.007812 139.898438 393.683594 140.121094 394.804688 140.234375 L 394.804688 140.902344 L 385.058594 140.902344 L 385.058594 140.234375 C 386.179688 140.121094 386.851562 139.898438 387.078125 139.789062 C 387.523438 139.449219 387.632812 138.667969 387.632812 137.65625 L 387.632812 133.515625 L 382.480469 124.105469 C 382.371094 123.878906 382.261719 123.65625 382.148438 123.546875 C 381.699219 122.875 381.03125 122.648438 380.246094 122.648438 L 380.246094 121.867188 L 389.652344 121.867188 L 389.652344 122.648438 C 388.753906 122.648438 388.082031 122.648438 387.859375 122.757812 C 387.523438 122.875 387.414062 123.097656 387.414062 123.546875 C 387.414062 123.769531 387.523438 123.992188 387.75 124.328125 C 387.859375 124.777344 388.082031 125 388.082031 125.113281 L 391.445312 131.609375 L 394.578125 126.457031 C 394.804688 126.121094 395.027344 125.785156 395.253906 125.339844 C 395.585938 124.664062 395.699219 124.105469 395.699219 123.878906 C 395.699219 123.320312 395.476562 122.984375 395.027344 122.875 C 394.691406 122.648438 394.132812 122.648438 393.347656 122.648438 L 393.347656 121.867188 Z M 399.507812 121.867188 "/>
</g>
</g>
</svg>
