<?xml version="1.0" encoding="UTF-8"?>
<svg xmlns="http://www.w3.org/2000/svg" xmlns:xlink="http://www.w3.org/1999/xlink" width="143pt" height="494pt" viewBox="0 0 143 494" version="1.2">
<defs>
<clipPath id="clip1">
  <path d="M 38 256 L 142.730469 256 L 142.730469 349 L 38 349 Z M 38 256 "/>
</clipPath>
<clipPath id="clip2">
  <path d="M 37 0.839844 L 125 0.839844 L 125 133 L 37 133 Z M 37 0.839844 "/>
</clipPath>
</defs>
<g id="surface1">
<path style=" stroke:none;fill-rule:evenodd;fill:rgb(45.489502%,0%,1.176453%);fill-opacity:1;" d="M 76.21875 439.785156 L 76.21875 430.847656 C 73.300781 431.582031 70.929688 432.214844 69.289062 433.035156 C 67.738281 433.765625 63.265625 436.320312 61.71875 437.234375 C 57.972656 439.511719 58.796875 441.15625 60.4375 442.523438 C 64.269531 445.808594 69.835938 444.167969 70.835938 443.070312 C 72.84375 440.972656 74.484375 440.242188 76.21875 439.785156 M 76.21875 462.042969 L 76.21875 452.464844 C 75.214844 452.558594 74.03125 452.464844 73.117188 452.558594 C 67.277344 453.289062 59.984375 452.558594 54.417969 454.015625 C 48.671875 455.566406 49.855469 457.941406 52.59375 460.492188 C 53.964844 461.769531 54.417969 462.773438 58.160156 464.597656 C 61.71875 466.332031 70.378906 462.222656 76.21875 462.042969 M 76.21875 487.3125 C 75.121094 486.03125 73.757812 484.667969 72.203125 483.113281 C 69.652344 480.832031 65.269531 479.1875 63.085938 477.09375 C 61.625 474.71875 70.105469 475.359375 76.21875 475.089844 Z M 52.320312 425.648438 C 53.871094 424.371094 53.507812 406.496094 52.6875 401.019531 C 51.589844 398.375 51.316406 394.542969 51.683594 392.539062 C 52.230469 389.796875 53.78125 389.070312 55.511719 389.980469 C 57.609375 390.984375 59.710938 393.996094 62.082031 398.832031 C 63.632812 402.113281 61.898438 401.660156 61.898438 402.84375 C 61.808594 408.957031 61.261719 415.066406 61.167969 419.171875 C 61.167969 421.636719 64.449219 421.90625 65 420.449219 C 65.546875 410.414062 64.359375 397.101562 65.269531 391.261719 C 65.363281 387.429688 63.8125 382.683594 65.269531 381.5 C 67.097656 380.132812 71.203125 380.953125 73.027344 381.957031 C 74.484375 382.683594 74.394531 380.222656 75.488281 379.855469 C 75.761719 379.765625 75.945312 379.675781 76.21875 379.675781 L 76.21875 388.15625 C 76.128906 388.15625 76.035156 388.15625 75.945312 388.25 C 75.398438 388.613281 75.582031 389.34375 75.488281 389.796875 C 75.035156 393.539062 74.484375 396.546875 74.484375 400.015625 C 74.851562 400.289062 75.488281 400.109375 76.21875 399.746094 L 76.21875 408.042969 C 75.488281 408.226562 74.210938 408.683594 74.03125 410.597656 C 73.757812 414.425781 71.566406 414.335938 72.660156 417.804688 C 73.210938 418.261719 74.667969 417.710938 76.21875 416.800781 L 76.21875 427.105469 C 75.121094 427.929688 74.394531 429.476562 73.027344 429.660156 C 70.65625 430.027344 68.738281 429.9375 67.554688 430.027344 C 65.820312 430.300781 65 430.664062 62.902344 431.03125 C 61.167969 431.304688 57.0625 431.941406 54.417969 434.21875 C 51.863281 436.503906 51.589844 442.796875 50.132812 445.535156 C 49.035156 447.722656 47.757812 450.003906 46.851562 451.828125 C 45.570312 454.292969 44.386719 456.203125 41.828125 456.847656 C 38.363281 457.664062 35.535156 453.289062 35.265625 450.546875 L 35.265625 449.640625 C 36.355469 445.625 37.179688 442.339844 37.542969 438.785156 C 37.726562 436.320312 36.90625 433.949219 37.085938 431.941406 C 37.359375 430.117188 38.636719 429.292969 39.550781 428.207031 C 40.644531 427.019531 41.648438 425.558594 43.472656 425.921875 C 44.933594 426.195312 45.84375 427.382812 47.394531 427.5625 C 49.585938 427.75 50.769531 426.921875 52.320312 425.648438 M 87.621094 488.3125 C 84.429688 491.144531 81.054688 491.964844 79.230469 490.59375 C 78.589844 490.046875 77.589844 488.863281 76.21875 487.3125 L 76.21875 475.089844 C 79.046875 474.902344 81.328125 474.539062 81.871094 473.539062 C 83.789062 470.25 83.609375 467.058594 83.242188 463.140625 C 83.335938 461.585938 81.238281 462.5 77.863281 462.042969 C 77.316406 462.042969 76.765625 461.953125 76.21875 462.042969 L 76.21875 452.464844 C 77.402344 452.378906 78.40625 452.195312 78.953125 451.644531 C 80.417969 449.910156 77.402344 448.085938 77.589844 446.535156 C 78.046875 443.890625 84.703125 443.164062 85.335938 441.339844 C 86.070312 439.332031 87.164062 440.425781 87.4375 438.050781 C 87.714844 435.773438 82.511719 438.144531 80.324219 438.785156 C 78.773438 439.238281 77.496094 439.421875 76.21875 439.785156 L 76.21875 430.847656 C 79.410156 430.117188 83.335938 429.390625 87.621094 428.566406 Z M 76.21875 379.675781 C 78.316406 379.125 80.507812 379.308594 81.597656 380.222656 C 83.425781 381.863281 85.617188 383.324219 87.621094 382.414062 L 87.621094 399.835938 C 87.4375 399.929688 87.074219 400.109375 86.796875 400.65625 C 86.160156 402.023438 85.890625 402.296875 86.34375 403.664062 C 86.527344 403.847656 87.074219 403.574219 87.621094 403.207031 L 87.621094 416.433594 C 87.34375 416.710938 87.34375 416.800781 87.074219 417.710938 C 87.074219 417.894531 87.34375 418.078125 87.621094 418.171875 L 87.621094 424.644531 C 85.246094 424.832031 82.878906 425.191406 80.6875 425.648438 C 79.773438 425.832031 77.953125 426.011719 76.496094 426.921875 C 76.402344 427.019531 76.308594 427.019531 76.21875 427.105469 L 76.21875 416.800781 C 77.953125 415.890625 79.597656 414.425781 79.867188 413.242188 C 80.324219 409.046875 80.234375 406.855469 76.765625 407.765625 C 76.765625 407.859375 76.496094 407.953125 76.21875 408.042969 L 76.21875 399.746094 C 77.863281 398.832031 80.140625 396.460938 80.417969 394.453125 C 80.871094 390.257812 79.503906 387.429688 76.21875 388.15625 Z M 97.929688 441.976562 C 95.558594 443.890625 93.824219 445.988281 93.734375 447.265625 C 93.734375 448.636719 95.371094 448.90625 97.929688 448.820312 L 97.929688 459.304688 C 96.105469 461.222656 97.839844 470.25 96.195312 474.449219 C 94.921875 477.644531 93.09375 481.378906 91.449219 483.9375 C 90.265625 485.761719 88.988281 487.21875 87.621094 488.3125 L 87.621094 428.566406 L 89.445312 428.207031 C 92.1875 427.75 95.101562 427.382812 97.929688 427.105469 Z M 87.621094 382.414062 C 87.988281 382.226562 88.441406 381.957031 88.808594 381.589844 C 91.359375 378.945312 88.535156 371.28125 93.824219 370.734375 C 95.285156 370.734375 96.652344 371.464844 97.929688 372.46875 L 97.929688 385.789062 C 97.5625 386.152344 97.289062 386.515625 96.925781 386.882812 C 96.742188 387.152344 96.378906 387.339844 96.195312 388.980469 C 96.285156 390.074219 97.109375 390.4375 97.929688 391.074219 L 97.929688 400.476562 C 97.109375 401.019531 97.5625 402.203125 97.839844 403.113281 C 97.839844 403.207031 97.839844 403.207031 97.929688 403.300781 L 97.929688 412.144531 L 97.5625 412.144531 C 96.195312 412.332031 96.46875 412.789062 96.011719 414.15625 C 96.105469 414.519531 97.109375 414.878906 97.929688 414.878906 L 97.929688 423.820312 C 96.5625 423.914062 95.101562 424.003906 93.734375 424.097656 C 91.726562 424.277344 89.628906 424.460938 87.621094 424.644531 L 87.621094 418.171875 C 88.261719 418.261719 89.261719 418.261719 89.628906 417.894531 C 90.8125 416.617188 90.90625 416.253906 89.539062 415.800781 C 89.445312 415.890625 88.988281 414.878906 88.261719 415.707031 C 87.988281 416.070312 87.808594 416.34375 87.621094 416.433594 L 87.621094 403.207031 C 88.261719 402.753906 88.988281 402.113281 89.082031 401.660156 C 89.261719 400.015625 89.355469 399.378906 87.988281 399.746094 C 87.988281 399.746094 87.808594 399.746094 87.621094 399.835938 Z M 101.121094 423.550781 C 100.117188 423.644531 99.023438 423.730469 97.929688 423.820312 L 97.929688 414.878906 C 98.199219 414.878906 98.566406 414.792969 98.75 414.613281 C 99.296875 413.972656 100.300781 413.515625 99.386719 412.601562 C 99.113281 412.238281 98.75 412.058594 97.929688 412.144531 L 97.929688 403.300781 C 98.199219 403.753906 99.386719 404.027344 100.484375 403.9375 L 101.121094 403.9375 Z M 97.929688 448.820312 C 98.839844 448.726562 100.027344 448.636719 101.121094 448.453125 L 101.121094 458.574219 C 100.394531 458.667969 99.476562 458.851562 98.476562 459.035156 C 98.199219 459.035156 98.019531 459.125 97.929688 459.304688 Z M 101.121094 439.878906 C 100.027344 440.425781 98.839844 441.246094 97.929688 441.976562 L 97.929688 427.105469 C 99.023438 427.019531 100.117188 426.832031 101.121094 426.746094 Z M 101.121094 390.074219 C 100.394531 389.527344 99.84375 388.980469 99.753906 388.429688 C 99.566406 387.609375 100.117188 387.152344 101.121094 386.792969 Z M 97.929688 391.074219 C 98.75 391.714844 99.566406 392.539062 99.113281 394.722656 C 98.933594 395.460938 99.84375 396 101.121094 396.273438 L 101.121094 400.378906 C 100.027344 400.195312 98.933594 400.195312 98.386719 400.289062 C 98.199219 400.378906 98.019531 400.378906 97.929688 400.476562 Z M 97.929688 372.46875 C 99.203125 373.65625 100.394531 375.023438 101.121094 376.027344 L 101.121094 381.5 C 100.484375 382.683594 99.386719 384.054688 97.929688 385.789062 Z M 101.121094 448.453125 C 103.402344 448.179688 105.953125 447.8125 108.238281 447.542969 C 111.425781 447.175781 113.433594 445.261719 114.714844 446.261719 C 118.359375 449.089844 119 449.546875 120.914062 454.746094 C 122.558594 459.398438 115.714844 461.039062 112.25 460.21875 C 106.867188 458.941406 105.410156 458.125 101.121094 458.574219 Z M 101.121094 396.273438 C 103.492188 396.914062 107.144531 397.101562 107.691406 397.371094 C 108.695312 397.917969 109.605469 396.1875 108.238281 395.183594 C 107.78125 394.722656 106.414062 393.539062 105.042969 392.628906 C 103.675781 391.714844 102.214844 390.894531 101.121094 390.074219 L 101.121094 386.792969 C 102.308594 386.425781 104.132812 386.242188 106.230469 386.0625 C 108.878906 385.875 112.25 383.324219 114.527344 384.054688 C 116.902344 384.691406 118.546875 384.511719 121.828125 392.167969 C 122.285156 393.539062 120.824219 395.640625 119.550781 397.734375 C 117.632812 400.835938 116.988281 403.753906 114.988281 407.042969 C 113.527344 409.410156 109.421875 416.253906 111.703125 415.707031 C 119.367188 414.066406 121.828125 414.425781 126.117188 418.261719 C 128.851562 420.722656 131.589844 422.363281 131.863281 425.191406 L 131.863281 425.921875 C 131.769531 426.46875 131.679688 427.019531 131.496094 427.65625 C 127.023438 435.316406 116.988281 429.570312 108.328125 433.128906 C 106.867188 434.769531 107.414062 437.597656 103.859375 438.691406 C 102.945312 438.964844 102.03125 439.421875 101.121094 439.878906 L 101.121094 426.746094 C 104.132812 426.5625 106.6875 426.378906 108.328125 426.195312 C 109.96875 426.011719 110.792969 424.277344 109.605469 423.460938 C 109.148438 423.183594 105.773438 423.273438 101.121094 423.550781 L 101.121094 403.9375 C 102.855469 404.121094 103.949219 404.121094 104.496094 403.484375 C 105.042969 402.84375 105.042969 401.566406 104.3125 401.019531 C 103.402344 400.65625 102.214844 400.476562 101.121094 400.378906 Z M 101.121094 376.027344 L 101.210938 376.027344 C 102.398438 377.484375 102.578125 379.035156 101.121094 381.5 Z M 101.121094 376.027344 "/>
<g clip-path="url(#clip1)" clip-rule="nonzero">
<path style=" stroke:none;fill-rule:evenodd;fill:rgb(45.489502%,0%,1.176453%);fill-opacity:1;" d="M 63.175781 283.347656 C 68.375 283.441406 71.75 282.984375 71.660156 281.980469 C 71.84375 277.695312 71.929688 270.398438 70.65625 264.828125 C 69.925781 261.914062 72.023438 260.179688 73.667969 259.175781 C 77.496094 256.898438 78.5 255.894531 80.6875 256.171875 C 84.519531 256.714844 87.34375 259.085938 89.992188 262.554688 C 91.269531 264.464844 92.273438 261.824219 90.722656 271.125 C 89.992188 275.871094 90.722656 276.238281 91.359375 276.964844 C 93.550781 277.785156 95.828125 277.144531 99.113281 276.144531 C 103.128906 274.957031 104.40625 268.847656 112.339844 278.152344 C 113.433594 279.335938 114.257812 280.886719 112.890625 282.890625 C 111.15625 285.265625 107.050781 286.453125 102.398438 289.097656 C 96.46875 292.472656 86.617188 293.019531 88.078125 297.398438 C 92.1875 307.617188 103.3125 322.484375 117.996094 332.699219 C 121.734375 335.25 126.296875 337.441406 131.496094 338.898438 C 139.066406 340.996094 145.363281 342.550781 141.621094 344.464844 C 135.96875 347.382812 114.804688 350.757812 108.878906 347.566406 C 102.761719 344.285156 84.429688 315.1875 81.238281 309.4375 C 81.054688 309.164062 80.507812 309.164062 80.234375 309.984375 C 76.859375 317.464844 69.558594 331.515625 62.261719 337.351562 C 58.976562 339.902344 54.234375 338.628906 52.773438 337.441406 C 51.042969 336.164062 40.371094 333.792969 38.636719 330.507812 C 37.726562 328.410156 39.09375 328.226562 40.277344 328.042969 C 54.417969 327.5 56.332031 323.394531 59.617188 320.835938 C 68.285156 314.089844 69.558594 302.507812 68.464844 302.050781 C 55.511719 303.328125 51.042969 304.878906 46.9375 300.039062 C 39.003906 283.988281 45.476562 281.34375 52.957031 282.253906 C 56.699219 282.804688 61.808594 283.257812 63.175781 283.347656 "/>
</g>
<path style=" stroke:none;fill-rule:evenodd;fill:rgb(45.489502%,0%,1.176453%);fill-opacity:1;" d="M 53.234375 190.765625 C 54.785156 191.222656 56.152344 192.039062 57.429688 194.683594 C 61.261719 200.890625 59.710938 208.554688 60.804688 213.386719 C 61.8125 213.933594 64.269531 213.476562 67.097656 213.023438 C 70.835938 212.386719 74.945312 211.65625 74.851562 210.648438 C 74.304688 205.542969 75.125 171.699219 74.394531 167.050781 C 74.210938 166.59375 73.9375 165.042969 73.757812 164.585938 C 72.113281 156.832031 79.410156 154.554688 81.597656 154.734375 C 85.433594 155.1875 93.089844 162.398438 92 165.589844 C 89.992188 169.054688 89.8125 178.632812 89.722656 187.847656 C 89.722656 195.78125 89.539062 203.351562 89.902344 206.269531 C 89.902344 208.644531 99.664062 205.726562 102.949219 204.355469 C 107.050781 203.625 106.230469 190.582031 109.699219 188.210938 C 111.335938 187.027344 121.097656 188.757812 122.558594 196.875 C 122.832031 201.34375 121.460938 207.09375 120.367188 212.5625 C 119.636719 216.398438 119 221.140625 118.910156 222.871094 C 118.726562 224.699219 111.246094 232.449219 108.695312 234.183594 C 104.679688 235.1875 103.492188 225.792969 103.492188 220.773438 C 103.492188 218.128906 103.585938 217.21875 102.855469 216.574219 C 100.484375 216.398438 94.464844 217.402344 90.90625 219.316406 C 88.988281 220.320312 88.351562 223.054688 85.796875 223.511719 C 75.671875 223.144531 65.363281 225.242188 63.726562 226.792969 C 62.808594 227.613281 58.066406 231.722656 57.246094 232.90625 C 56.425781 234 52.867188 232.816406 51.773438 233.179688 C 49.21875 234.09375 47.667969 229.441406 44.746094 225.699219 C 41.648438 221.78125 43.835938 219.40625 45.570312 215.207031 C 47.667969 210.375 48.308594 201.984375 47.851562 196.328125 C 47.851562 193.410156 47.667969 189.945312 53.234375 190.765625 "/>
<g clip-path="url(#clip2)" clip-rule="nonzero">
<path style=" stroke:none;fill-rule:evenodd;fill:rgb(45.489502%,0%,1.176453%);fill-opacity:1;" d="M 54.054688 37.882812 C 55.96875 38.433594 57.339844 37.152344 59.617188 35.789062 C 61.808594 34.601562 63.449219 33.597656 64.910156 32.6875 L 64.910156 45.183594 C 62.992188 45.730469 61.167969 45.730469 59.527344 45.273438 C 57.886719 44.546875 59.617188 56.492188 61.625 56.949219 C 63.085938 57.132812 64.089844 57.3125 64.910156 57.3125 L 64.910156 72.550781 C 63.265625 73.1875 61.441406 74.007812 59.433594 74.828125 C 58.433594 75.648438 57.519531 76.472656 56.605469 77.566406 C 55.695312 78.570312 55.058594 80.300781 53.964844 80.574219 C 51.226562 81.214844 48.308594 80.847656 45.9375 79.207031 C 44.113281 77.746094 44.113281 74.007812 41.375 69.902344 C 39.277344 67.257812 37.179688 65.25 37.179688 61.511719 C 38.546875 58.136719 39.003906 56.3125 40.1875 54.210938 C 40.464844 53.300781 40.644531 52.296875 40.828125 50.746094 C 41.101562 46.824219 41.738281 43.542969 43.199219 39.800781 C 44.292969 37.703125 49.765625 34.234375 54.054688 37.882812 M 64.910156 32.6875 C 67.824219 31.042969 69.925781 30.042969 73.207031 28.855469 C 73.027344 24.019531 72.390625 18.914062 72.570312 14.261719 C 72.660156 13.257812 72.296875 12.34375 71.929688 11.707031 C 70.015625 7.691406 74.488281 2.398438 80.964844 0.851562 C 82.789062 0.578125 90.8125 4.40625 90.8125 8.058594 C 90.632812 13.167969 90.082031 19.003906 90.539062 23.5625 C 91.726562 23.75 93.371094 23.839844 95.191406 23.929688 L 95.191406 33.328125 C 93.277344 33.597656 91.453125 34.144531 90.449219 34.695312 C 89.355469 36.515625 88.625 47.828125 90.082031 48.558594 C 91.726562 48.828125 93.644531 47.917969 95.191406 46.824219 L 95.191406 64.703125 C 92.914062 65.707031 90.722656 66.890625 88.535156 68.351562 C 88.351562 84.589844 86.980469 99.734375 86.4375 115.875 C 85.335938 124.449219 82.425781 132.296875 78.046875 132.84375 C 74.945312 132.566406 71.929688 125.726562 71.84375 114.960938 L 71.109375 70.722656 C 69.378906 70.996094 67.28125 71.636719 64.910156 72.550781 L 64.910156 57.3125 C 66.734375 57.3125 67.824219 56.859375 70.015625 55.492188 C 71.476562 54.578125 71.019531 44.816406 70.5625 43.085938 C 69.835938 42.082031 68.558594 43.542969 68.105469 43.8125 C 67.097656 44.453125 66.003906 44.910156 64.910156 45.183594 Z M 95.191406 23.929688 C 96.925781 24.019531 98.839844 24.019531 100.847656 23.929688 C 104.40625 23.472656 108.875 20.464844 112.066406 20.367188 C 116.71875 20.367188 123.105469 26.9375 124.652344 31.132812 C 125.570312 34.78125 123.378906 37.609375 120.824219 38.984375 L 118.636719 39.527344 C 116.171875 40.894531 111.703125 46.730469 111.886719 47.828125 C 111.792969 49.5625 111.792969 50.746094 113.617188 52.023438 C 114.714844 53.667969 111.972656 60.328125 108.785156 61.601562 C 107.78125 62.148438 106.867188 62.695312 104.40625 62.695312 C 101.394531 62.605469 98.292969 63.425781 95.191406 64.703125 L 95.191406 46.824219 C 96.652344 45.730469 97.746094 44.453125 98.203125 43.632812 C 99.933594 41.261719 102.035156 37.246094 100.753906 34.144531 C 99.476562 33.144531 97.289062 33.050781 95.191406 33.328125 Z M 95.191406 23.929688 "/>
</g>
<path style=" stroke:none;fill-rule:evenodd;fill:rgb(45.489502%,0%,1.176453%);fill-opacity:1;" d="M 11.671875 178.753906 L 7.566406 178.753906 L 7.566406 166.808594 L 11.671875 166.808594 Z M 14.039062 453.683594 L 14.039062 459.339844 L 5.742188 459.339844 C 4.285156 459.339844 3.460938 459.609375 3.003906 460.066406 C 2.734375 460.429688 2.546875 461.34375 2.546875 462.710938 L 1.636719 462.710938 L 1.636719 450.308594 L 2.546875 450.308594 C 2.546875 451.675781 2.734375 452.585938 3.003906 452.953125 C 3.460938 453.5 4.285156 453.683594 5.742188 453.683594 Z M 14.039062 433.613281 L 14.039062 439.269531 L 5.011719 439.269531 C 4.007812 439.269531 3.367188 439.546875 3.003906 440.183594 C 2.640625 440.636719 2.546875 441.460938 2.546875 442.550781 L 1.636719 442.550781 L 1.636719 430.421875 L 2.546875 430.421875 C 2.640625 431.882812 2.914062 432.792969 3.277344 433.164062 C 3.644531 433.433594 4.191406 433.613281 5.011719 433.613281 Z M 14.039062 412.179688 L 14.039062 423.671875 C 13.679688 424.128906 13.222656 424.585938 12.679688 425.039062 C 11.398438 426.042969 9.941406 426.503906 8.296875 426.503906 C 6.472656 426.503906 4.828125 425.863281 3.554688 424.585938 C 1.820312 423.03125 1 420.753906 1 417.925781 C 1 416.828125 1.183594 415.738281 1.363281 414.824219 C 1.636719 413.914062 1.90625 412.910156 2.183594 412 C 2.183594 411.632812 2.089844 411.449219 1.90625 411.265625 C 1.636719 411.175781 1.363281 410.992188 1 410.902344 L 1 409.898438 L 9.570312 409.898438 L 9.570312 410.902344 C 7.476562 411.355469 5.835938 412.089844 4.554688 413.09375 C 3.003906 414.367188 2.183594 416.007812 2.183594 418.015625 C 2.183594 419.386719 2.546875 420.480469 3.277344 421.207031 C 4.007812 422.03125 4.921875 422.394531 6.015625 422.394531 C 7.109375 422.394531 7.933594 422.03125 8.660156 421.300781 C 9.023438 420.84375 9.570312 419.839844 10.300781 418.472656 L 11.398438 416.195312 C 12.21875 414.460938 13.128906 413.09375 14.039062 412.179688 M 14.039062 385.90625 L 14.039062 391.566406 L 13.679688 391.566406 C 13.679688 393.113281 13.765625 394.390625 14.039062 395.300781 L 14.039062 400.777344 C 13.679688 400.136719 13.40625 399.316406 13.039062 398.316406 L 3.1875 405.339844 C 2.914062 405.523438 2.734375 405.703125 2.640625 405.980469 C 2.546875 406.246094 2.546875 406.433594 2.546875 406.703125 L 1.636719 406.703125 L 1.636719 399.589844 L 12.488281 392.476562 L 12.488281 391.566406 L 5.742188 391.566406 C 4.464844 391.566406 3.644531 391.746094 3.277344 392.199219 C 2.914062 392.566406 2.734375 393.296875 2.546875 394.574219 L 1.636719 394.574219 L 1.636719 382.898438 L 2.546875 382.898438 C 2.734375 384.175781 2.914062 384.902344 3.1875 385.269531 C 3.554688 385.726562 4.371094 385.90625 5.742188 385.90625 Z M 14.039062 362.101562 L 14.039062 374.230469 L 7.75 374.230469 L 7.75 373.320312 C 9.753906 373.140625 11.214844 372.59375 11.941406 371.769531 C 12.679688 370.855469 13.039062 369.488281 13.039062 367.667969 L 4.734375 367.667969 C 3.917969 367.667969 3.460938 367.941406 3.1875 368.304688 C 2.914062 368.757812 2.734375 369.488281 2.734375 370.582031 C 2.734375 372.679688 3.097656 374.324219 3.824219 375.597656 C 4.734375 377.335938 6.472656 378.703125 8.933594 379.703125 L 8.933594 380.710938 L 1.636719 379.34375 L 1.636719 359 L 2.546875 359 C 2.640625 360.1875 2.820312 361.007812 3.003906 361.277344 C 3.367188 361.828125 4.007812 362.101562 5.011719 362.101562 Z M 14.039062 338.476562 L 14.039062 344.402344 L 8.84375 346.503906 L 14.039062 348.511719 L 14.039062 350.058594 L 1.089844 344.953125 L 1.089844 344.039062 Z M 14.039062 321.144531 L 14.039062 326.707031 L 5.011719 326.707031 C 4.007812 326.707031 3.367188 327.074219 3.003906 327.621094 C 2.640625 328.167969 2.546875 328.898438 2.546875 329.992188 L 1.636719 329.992188 L 1.636719 317.859375 L 2.546875 317.859375 C 2.640625 319.320312 2.914062 320.230469 3.277344 320.59375 C 3.644531 320.964844 4.191406 321.144531 5.011719 321.144531 Z M 14.039062 300.714844 L 14.039062 307.734375 L 10.300781 310.746094 L 14.039062 310.835938 L 14.039062 312.390625 L 1.089844 312.390625 L 1.089844 311.386719 Z M 14.039062 294.417969 L 14.039062 295.96875 L 6.015625 295.878906 C 4.734375 295.878906 3.917969 296.148438 3.460938 296.605469 C 3.003906 296.972656 2.640625 297.882812 2.546875 299.160156 L 1.636719 299.160156 L 1.636719 291.316406 L 2.546875 291.316406 C 2.640625 292.5 2.914062 293.234375 3.097656 293.59375 C 3.460938 294.144531 4.191406 294.417969 5.285156 294.417969 Z M 14.039062 267.785156 L 14.039062 273.253906 L 9.480469 273.253906 C 7.109375 273.253906 5.378906 273.714844 4.285156 274.535156 C 3.277344 275.355469 2.734375 276.539062 2.734375 278.273438 C 2.734375 280.917969 3.644531 282.648438 5.652344 283.65625 C 6.742188 284.199219 8.296875 284.472656 10.210938 284.472656 L 14.039062 284.472656 L 14.039062 285.9375 L 10.210938 285.9375 C 9.023438 285.9375 7.835938 285.84375 6.742188 285.570312 C 5.285156 285.207031 4.285156 284.660156 3.554688 284.019531 C 2.640625 283.199219 2.003906 282.101562 1.542969 280.738281 C 1.183594 279.640625 1 278.457031 1 277.179688 C 1 276.082031 1.183594 274.988281 1.363281 273.988281 C 1.730469 272.4375 2.367188 271.160156 3.1875 270.15625 C 4.007812 269.335938 4.734375 268.695312 5.46875 268.421875 C 6.378906 267.96875 7.75 267.785156 9.480469 267.785156 Z M 14.039062 237.863281 L 14.039062 244.792969 L 10.300781 247.898438 L 14.039062 247.898438 L 14.039062 249.449219 L 1.089844 249.449219 L 1.089844 248.535156 Z M 14.039062 231.480469 L 14.039062 233.027344 L 6.015625 233.027344 C 4.734375 233.027344 3.917969 233.210938 3.460938 233.667969 C 3.003906 234.125 2.640625 235.039062 2.546875 236.3125 L 1.636719 236.3125 L 1.636719 228.46875 L 2.546875 228.46875 C 2.640625 229.652344 2.914062 230.382812 3.097656 230.746094 C 3.460938 231.203125 4.191406 231.480469 5.285156 231.480469 Z M 14.039062 206.757812 L 14.039062 218.796875 L 7.75 218.796875 L 7.75 217.886719 C 9.753906 217.703125 11.214844 217.15625 11.941406 216.246094 C 12.679688 215.425781 13.039062 214.058594 13.039062 212.234375 L 4.734375 212.234375 C 3.917969 212.234375 3.460938 212.503906 3.1875 212.871094 C 2.914062 213.234375 2.734375 214.058594 2.734375 215.152344 C 2.734375 217.246094 3.097656 218.890625 3.824219 220.164062 C 4.734375 221.902344 6.472656 223.265625 8.933594 224.273438 L 8.933594 225.277344 L 1.636719 223.90625 L 1.636719 203.65625 L 2.546875 203.65625 C 2.640625 204.84375 2.820312 205.570312 3.003906 205.9375 C 3.367188 206.488281 4.007812 206.757812 5.011719 206.757812 Z M 14.039062 185.597656 L 14.039062 196.996094 C 13.679688 197.546875 13.222656 198.003906 12.679688 198.367188 C 11.398438 199.371094 9.941406 199.917969 8.296875 199.917969 C 6.472656 199.917969 4.828125 199.277344 3.554688 198.003906 C 1.820312 196.453125 1 194.171875 1 191.34375 C 1 190.15625 1.183594 189.15625 1.363281 188.242188 C 1.636719 187.328125 1.90625 186.328125 2.183594 185.414062 C 2.183594 185.050781 2.089844 184.867188 1.90625 184.683594 C 1.636719 184.503906 1.363281 184.410156 1 184.320312 L 1 183.316406 L 9.570312 183.316406 L 9.570312 184.320312 C 7.476562 184.773438 5.835938 185.507812 4.554688 186.507812 C 3.003906 187.785156 2.183594 189.429688 2.183594 191.433594 C 2.183594 192.800781 2.546875 193.898438 3.277344 194.628906 C 4.007812 195.359375 4.921875 195.8125 6.015625 195.8125 C 7.109375 195.8125 7.933594 195.449219 8.660156 194.722656 C 9.023438 194.261719 9.570312 193.257812 10.300781 191.890625 L 11.398438 189.609375 C 12.21875 187.878906 13.128906 186.507812 14.039062 185.597656 M 14.039062 148.5625 L 14.039062 154.222656 L 5.742188 154.222656 C 4.285156 154.222656 3.460938 154.492188 3.003906 154.949219 C 2.734375 155.3125 2.546875 156.222656 2.546875 157.589844 L 1.636719 157.589844 L 1.636719 145.28125 L 2.546875 145.28125 C 2.546875 146.554688 2.734375 147.46875 3.003906 147.832031 C 3.460938 148.378906 4.285156 148.5625 5.742188 148.5625 Z M 14.039062 123.933594 L 14.039062 125.394531 L 9.847656 123.753906 L 9.847656 130.496094 L 14.039062 128.765625 L 14.039062 134.515625 L 7.382812 137.34375 C 5.378906 138.160156 4.097656 138.800781 3.554688 139.167969 C 2.914062 139.710938 2.546875 140.355469 2.546875 141.085938 L 1.636719 141.085938 L 1.636719 129.863281 L 2.546875 129.863281 C 2.546875 130.960938 2.640625 131.6875 2.820312 132.050781 C 3.003906 132.421875 3.367188 132.6875 3.917969 132.6875 C 4.371094 132.6875 5.101562 132.421875 6.105469 132.050781 C 6.566406 131.871094 7.382812 131.59375 8.480469 131.050781 L 8.480469 123.296875 C 7.199219 122.75 6.195312 122.382812 5.46875 122.109375 C 4.734375 121.835938 4.285156 121.746094 4.007812 121.746094 C 3.460938 121.746094 3.003906 122.015625 2.820312 122.65625 C 2.640625 123.113281 2.546875 123.753906 2.546875 124.570312 L 1.636719 124.570312 L 1.636719 117.546875 L 2.546875 117.546875 C 2.640625 118.367188 3.097656 119.101562 3.644531 119.554688 C 4.097656 119.832031 5.101562 120.28125 6.566406 120.925781 Z M 14.039062 102.132812 L 14.039062 108.0625 L 13.128906 108.609375 L 14.039062 109.15625 L 14.039062 110.707031 L 12.128906 109.527344 L 5.742188 109.527344 C 4.371094 109.527344 3.554688 109.703125 3.1875 110.160156 C 2.914062 110.527344 2.640625 111.347656 2.546875 112.714844 L 1.636719 112.714844 L 1.636719 100.675781 L 2.546875 100.675781 C 2.640625 102.042969 2.914062 102.863281 3.097656 103.136719 C 3.554688 103.6875 4.371094 103.867188 5.742188 103.867188 L 10.847656 103.867188 Z M 14.039062 58.074219 L 14.039062 65.007812 L 10.300781 68.113281 L 14.039062 68.113281 L 14.039062 69.660156 L 1.089844 69.660156 L 1.089844 68.746094 Z M 14.039062 51.6875 L 14.039062 53.242188 L 6.015625 53.242188 C 4.734375 53.242188 3.917969 53.421875 3.460938 53.878906 C 3.003906 54.335938 2.640625 55.25 2.546875 56.523438 L 1.636719 56.523438 L 1.636719 48.679688 L 2.546875 48.679688 C 2.640625 49.867188 2.914062 50.59375 3.097656 50.960938 C 3.460938 51.417969 4.191406 51.6875 5.285156 51.6875 Z M 14.039062 24.6875 L 14.039062 30.253906 L 9.480469 30.253906 C 7.109375 30.253906 5.378906 30.617188 4.285156 31.441406 C 3.277344 32.257812 2.734375 33.539062 2.734375 35.269531 C 2.734375 37.824219 3.644531 39.652344 5.652344 40.652344 C 6.742188 41.109375 8.296875 41.382812 10.210938 41.382812 L 14.039062 41.382812 L 14.039062 42.929688 L 10.210938 42.929688 C 9.023438 42.929688 7.835938 42.75 6.742188 42.476562 C 5.285156 42.207031 4.285156 41.65625 3.554688 41.015625 C 2.640625 40.199219 2.003906 39.105469 1.542969 37.734375 C 1.183594 36.636719 1 35.453125 1 34.175781 C 1 32.992188 1.183594 31.988281 1.363281 30.890625 C 1.730469 29.34375 2.367188 28.15625 3.1875 27.152344 C 4.007812 26.242188 4.734375 25.695312 5.46875 25.332031 C 6.378906 24.964844 7.75 24.6875 9.480469 24.6875 Z M 14.039062 3.804688 L 14.039062 15.203125 C 13.679688 15.75 13.222656 16.207031 12.679688 16.664062 C 11.398438 17.578125 9.941406 18.117188 8.296875 18.117188 C 6.472656 18.117188 4.828125 17.480469 3.554688 16.207031 C 1.820312 14.65625 1 12.375 1 9.546875 C 1 8.363281 1.183594 7.359375 1.363281 6.445312 C 1.636719 5.535156 1.90625 4.535156 2.183594 3.617188 C 2.183594 3.253906 2.089844 3.070312 1.90625 2.890625 C 1.636719 2.703125 1.363281 2.617188 1 2.523438 L 1 1.519531 L 9.570312 1.519531 L 9.570312 2.523438 C 7.476562 2.984375 5.835938 3.710938 4.554688 4.714844 C 3.003906 5.992188 2.183594 7.632812 2.183594 9.640625 C 2.183594 11.007812 2.546875 12.105469 3.277344 12.832031 C 4.007812 13.652344 4.921875 14.019531 6.015625 14.019531 C 7.109375 14.019531 7.933594 13.652344 8.660156 12.921875 C 9.023438 12.46875 9.570312 11.464844 10.300781 10.09375 L 11.398438 7.816406 C 12.21875 6.082031 13.128906 4.714844 14.039062 3.804688 M 14.039062 486.246094 L 12.128906 485.0625 L 5.742188 485.0625 C 4.371094 485.0625 3.554688 485.246094 3.1875 485.699219 C 2.914062 486.066406 2.640625 486.886719 2.546875 488.25 L 1.636719 488.25 L 1.636719 476.210938 L 2.546875 476.210938 C 2.640625 477.582031 2.914062 478.402344 3.097656 478.675781 C 3.554688 479.222656 4.371094 479.40625 5.742188 479.40625 L 10.847656 479.40625 L 14.039062 477.675781 L 14.039062 483.601562 L 13.128906 484.148438 L 14.039062 484.695312 Z M 18.785156 465.90625 L 18.785156 467.003906 L 18.148438 467.003906 L 18.148438 465.992188 C 18.328125 465.992188 18.601562 465.90625 18.785156 465.90625 M 18.785156 459.339844 L 14.039062 459.339844 L 14.039062 453.683594 L 18.785156 453.683594 Z M 18.785156 446.019531 L 18.785156 447.113281 C 18.601562 447.113281 18.328125 447.023438 18.148438 447.023438 L 18.148438 446.019531 Z M 18.785156 439.269531 L 14.039062 439.269531 L 14.039062 433.613281 L 18.785156 433.613281 Z M 18.785156 424.3125 L 18.785156 425.5 L 18.148438 425.5 L 18.148438 424.496094 C 18.328125 424.496094 18.601562 424.398438 18.785156 424.3125 M 18.785156 410.265625 L 18.785156 415.003906 C 18.328125 415.554688 17.785156 416.375 17.234375 417.5625 L 14.683594 422.671875 C 14.496094 423.03125 14.316406 423.308594 14.039062 423.671875 L 14.039062 412.179688 C 14.589844 411.722656 15.042969 411.265625 15.59375 410.992188 C 16.507812 410.535156 17.507812 410.265625 18.785156 410.265625 M 18.785156 397.859375 L 18.785156 403.785156 C 17.054688 403.695312 15.6875 403.058594 14.683594 401.78125 C 14.496094 401.507812 14.226562 401.234375 14.039062 400.777344 L 14.039062 395.300781 C 14.226562 395.757812 14.40625 396.125 14.589844 396.402344 C 15.316406 397.3125 16.6875 397.859375 18.785156 397.859375 M 18.785156 391.566406 L 14.039062 391.566406 L 14.039062 385.90625 L 18.785156 385.90625 Z M 18.785156 378.066406 L 18.785156 379.070312 L 18.148438 379.070312 L 18.148438 378.15625 C 18.328125 378.15625 18.601562 378.066406 18.785156 378.066406 M 18.785156 362.101562 L 18.785156 367.667969 L 14.226562 367.667969 C 14.226562 369.488281 14.589844 370.769531 15.226562 371.585938 C 15.957031 372.410156 17.144531 372.957031 18.785156 373.230469 L 18.785156 374.230469 L 14.039062 374.230469 L 14.039062 362.101562 Z M 18.785156 350.335938 L 18.785156 351.882812 L 14.039062 350.058594 L 14.039062 348.511719 Z M 18.785156 336.472656 L 18.785156 342.398438 L 14.039062 344.402344 L 14.039062 338.476562 Z M 18.785156 326.707031 L 14.039062 326.707031 L 14.039062 321.144531 L 18.785156 321.144531 Z M 18.785156 312.390625 L 14.039062 312.390625 L 14.039062 310.839844 L 18.785156 310.839844 Z M 18.785156 296.878906 L 18.785156 303.902344 L 14.039062 307.734375 L 14.039062 300.714844 Z M 18.785156 295.96875 L 14.039062 295.96875 L 14.039062 294.417969 L 18.785156 294.417969 Z M 18.785156 285.9375 L 14.039062 285.9375 L 14.039062 284.472656 L 18.785156 284.472656 Z M 18.785156 273.253906 L 14.039062 273.253906 L 14.039062 267.785156 L 18.785156 267.785156 Z M 18.785156 247.988281 L 18.785156 249.449219 L 14.039062 249.449219 L 14.039062 247.898438 Z M 18.785156 233.941406 L 18.785156 240.964844 L 14.039062 244.792969 L 14.039062 237.863281 Z M 18.785156 231.480469 L 18.785156 233.117188 L 14.039062 233.027344 L 14.039062 231.480469 Z M 18.785156 222.632812 L 18.785156 223.636719 L 18.148438 223.636719 L 18.148438 222.722656 C 18.328125 222.722656 18.601562 222.632812 18.785156 222.632812 M 18.785156 206.757812 L 18.785156 212.234375 L 14.226562 212.234375 C 14.226562 214.058594 14.589844 215.332031 15.226562 216.0625 C 15.957031 216.976562 17.144531 217.519531 18.785156 217.796875 L 18.785156 218.796875 L 14.039062 218.796875 L 14.039062 206.757812 Z M 18.785156 197.726562 L 18.785156 198.914062 L 18.148438 198.914062 L 18.148438 197.914062 C 18.328125 197.914062 18.601562 197.820312 18.785156 197.726562 M 18.785156 183.679688 L 18.785156 188.425781 C 18.328125 188.96875 17.785156 189.796875 17.234375 190.976562 L 14.683594 196.085938 C 14.496094 196.453125 14.316406 196.726562 14.039062 196.996094 L 14.039062 185.597656 C 14.589844 185.050781 15.042969 184.683594 15.59375 184.410156 C 16.507812 183.867188 17.507812 183.679688 18.785156 183.679688 M 18.785156 160.78125 L 18.785156 161.882812 L 18.148438 161.882812 L 18.148438 160.878906 C 18.328125 160.878906 18.601562 160.78125 18.785156 160.78125 M 18.785156 154.222656 L 14.039062 154.222656 L 14.039062 148.5625 L 18.785156 148.5625 Z M 18.785156 140.902344 L 18.785156 141.996094 C 18.601562 141.996094 18.328125 141.902344 18.148438 141.902344 L 18.148438 140.902344 Z M 18.785156 125.851562 L 18.785156 132.507812 L 14.039062 134.515625 L 14.039062 128.765625 L 18.242188 127.035156 L 14.039062 125.394531 L 14.039062 123.933594 Z M 18.785156 111.984375 L 18.785156 113.628906 L 14.039062 110.707031 L 14.039062 109.15625 Z M 18.785156 99.484375 L 18.785156 105.601562 L 14.039062 108.0625 L 14.039062 102.132812 Z M 18.785156 68.199219 L 18.785156 69.660156 L 14.039062 69.660156 L 14.039062 68.113281 Z M 18.785156 54.152344 L 18.785156 61.175781 L 14.039062 65.007812 L 14.039062 58.074219 Z M 18.785156 51.6875 L 18.785156 53.335938 L 14.039062 53.242188 L 14.039062 51.6875 Z M 18.785156 42.929688 L 14.039062 42.929688 L 14.039062 41.382812 L 18.785156 41.382812 Z M 18.785156 30.253906 L 14.039062 30.253906 L 14.039062 24.6875 L 18.785156 24.6875 Z M 18.785156 15.929688 L 18.785156 17.117188 L 18.148438 17.117188 L 18.148438 16.117188 C 18.328125 16.117188 18.601562 16.023438 18.785156 15.929688 M 18.785156 1.886719 L 18.785156 6.628906 C 18.328125 7.175781 17.785156 7.996094 17.234375 9.183594 L 14.683594 14.292969 C 14.496094 14.65625 14.316406 14.929688 14.039062 15.203125 L 14.039062 3.804688 C 14.589844 3.253906 15.042969 2.890625 15.59375 2.617188 C 16.507812 2.066406 17.507812 1.886719 18.785156 1.886719 M 14.039062 477.675781 L 18.785156 475.03125 L 18.785156 481.140625 L 14.039062 483.601562 Z M 18.785156 489.164062 L 14.039062 486.246094 L 14.039062 484.695312 L 18.785156 487.523438 Z M 18.785156 17.117188 L 18.785156 15.929688 C 20.0625 15.480469 21.246094 14.929688 22.253906 14.019531 C 23.804688 12.742188 24.625 11.1875 24.625 9.363281 C 24.625 8.363281 24.347656 7.449219 23.710938 6.71875 C 23.164062 5.992188 22.34375 5.625 21.339844 5.625 C 20.335938 5.625 19.605469 5.898438 19.0625 6.355469 C 18.96875 6.445312 18.875 6.539062 18.785156 6.628906 L 18.785156 1.886719 C 21.066406 1.886719 22.796875 2.617188 24.074219 4.167969 C 25.078125 5.535156 25.625 7.269531 25.625 9.546875 C 25.625 10.644531 25.445312 11.738281 25.078125 12.921875 C 24.714844 14.109375 24.535156 14.746094 24.535156 14.929688 C 24.535156 15.292969 24.714844 15.65625 25.078125 15.839844 C 25.171875 15.929688 25.445312 16.023438 25.625 16.023438 L 25.625 17.117188 Z M 18.785156 30.253906 L 18.785156 24.6875 L 21.066406 24.6875 C 22.34375 24.6875 23.257812 24.507812 23.617188 24.050781 C 23.894531 23.777344 24.171875 23.050781 24.257812 21.859375 L 25.078125 21.859375 L 25.078125 33.628906 L 24.257812 33.628906 C 24.257812 32.351562 24.074219 31.441406 23.804688 31.074219 C 23.347656 30.527344 22.433594 30.253906 21.066406 30.253906 Z M 18.785156 42.929688 L 18.785156 41.382812 L 20.792969 41.382812 C 21.976562 41.382812 22.890625 41.203125 23.347656 40.835938 C 23.894531 40.378906 24.257812 39.378906 24.257812 38.007812 L 25.078125 38.007812 L 25.078125 45.671875 L 24.257812 45.671875 C 24.074219 44.574219 23.894531 43.9375 23.527344 43.570312 C 23.164062 43.117188 22.34375 42.929688 21.339844 42.929688 Z M 18.785156 61.175781 L 18.785156 54.152344 L 19.882812 53.335938 L 18.785156 53.335938 L 18.785156 51.6875 L 21.792969 51.6875 C 22.890625 50.777344 23.617188 50.140625 23.894531 49.683594 C 24.171875 49.410156 24.257812 49.042969 24.257812 48.773438 L 25.078125 48.773438 L 25.078125 56.070312 Z M 18.785156 69.660156 L 18.785156 68.199219 L 20.792969 68.199219 C 21.976562 68.199219 22.796875 68.019531 23.347656 67.652344 C 23.894531 67.195312 24.257812 66.285156 24.257812 64.917969 L 25.078125 64.917969 L 25.078125 72.402344 L 24.257812 72.402344 C 24.074219 71.214844 23.804688 70.480469 23.4375 70.207031 C 23.074219 69.84375 22.433594 69.660156 21.433594 69.660156 Z M 18.785156 105.601562 L 18.785156 99.484375 L 22.34375 97.574219 C 22.707031 97.386719 22.980469 97.210938 23.074219 97.117188 C 23.894531 96.480469 24.257812 95.65625 24.257812 94.839844 L 25.078125 94.839844 L 25.078125 106.421875 L 24.257812 106.421875 C 24.257812 105.234375 24.171875 104.414062 24.074219 104.136719 C 23.894531 103.777344 23.617188 103.59375 23.074219 103.59375 C 22.890625 103.59375 22.523438 103.6875 22.070312 103.960938 C 21.613281 104.136719 21.339844 104.320312 21.15625 104.414062 Z M 18.785156 113.628906 L 18.785156 111.984375 L 19.515625 112.441406 C 19.882812 112.714844 20.335938 112.984375 20.882812 113.171875 C 21.703125 113.628906 22.34375 113.808594 22.707031 113.808594 C 23.347656 113.808594 23.710938 113.535156 23.894531 112.984375 C 24.171875 112.53125 24.257812 111.800781 24.257812 110.886719 L 25.078125 110.886719 L 25.078125 118.464844 L 24.257812 118.464844 C 24.171875 117.820312 23.984375 117.273438 23.804688 117 C 23.617188 116.726562 23.347656 116.363281 22.890625 116.179688 Z M 18.785156 132.507812 L 18.785156 125.851562 L 25.625 128.585938 L 25.625 129.585938 Z M 18.785156 161.882812 L 18.785156 160.78125 C 20.882812 160.421875 22.34375 159.507812 23.164062 158.234375 C 23.710938 157.226562 23.984375 155.949219 23.984375 154.222656 L 18.785156 154.222656 L 18.785156 148.5625 L 23.984375 148.5625 C 23.984375 146.828125 23.710938 145.550781 23.164062 144.640625 C 22.34375 143.269531 20.882812 142.359375 18.785156 141.996094 L 18.785156 140.902344 L 25.078125 140.992188 L 25.078125 161.789062 Z M 18.785156 198.914062 L 18.785156 197.726562 C 20.0625 197.273438 21.246094 196.726562 22.253906 195.8125 C 23.804688 194.535156 24.625 192.984375 24.625 191.15625 C 24.625 190.15625 24.347656 189.246094 23.710938 188.511719 C 23.164062 187.785156 22.34375 187.421875 21.339844 187.421875 C 20.335938 187.421875 19.605469 187.695312 19.0625 188.152344 C 18.96875 188.242188 18.875 188.332031 18.785156 188.425781 L 18.785156 183.679688 C 21.066406 183.679688 22.796875 184.410156 24.074219 185.960938 C 25.078125 187.328125 25.625 189.0625 25.625 191.34375 C 25.625 192.347656 25.445312 193.53125 25.078125 194.722656 C 24.714844 195.902344 24.535156 196.546875 24.535156 196.726562 C 24.535156 197.09375 24.714844 197.453125 25.078125 197.636719 C 25.171875 197.726562 25.445312 197.820312 25.625 197.820312 L 25.625 198.914062 Z M 18.785156 218.796875 L 19.425781 218.796875 L 19.425781 217.886719 C 19.238281 217.886719 18.96875 217.796875 18.785156 217.796875 Z M 18.785156 223.636719 L 18.785156 222.632812 C 20.792969 222.175781 22.164062 221.445312 22.890625 220.257812 C 23.617188 219.164062 23.894531 217.339844 23.894531 214.785156 C 23.894531 213.785156 23.804688 213.050781 23.617188 212.78125 C 23.4375 212.414062 22.980469 212.234375 22.34375 212.234375 L 18.785156 212.234375 L 18.785156 206.757812 L 21.792969 206.757812 C 22.796875 206.757812 23.527344 206.394531 23.894531 205.847656 C 24.074219 205.390625 24.257812 204.660156 24.257812 203.65625 L 25.078125 203.65625 L 25.078125 223.636719 Z M 18.785156 240.964844 L 18.785156 233.941406 L 19.882812 233.117188 L 18.785156 233.117188 L 18.785156 231.480469 L 21.792969 231.480469 C 22.890625 230.566406 23.617188 229.925781 23.894531 229.472656 C 24.171875 229.199219 24.257812 228.835938 24.257812 228.558594 L 25.078125 228.558594 L 25.078125 235.859375 Z M 18.785156 249.449219 L 18.785156 247.988281 L 20.792969 247.988281 C 21.976562 247.988281 22.796875 247.804688 23.347656 247.441406 C 23.894531 246.984375 24.257812 246.074219 24.257812 244.703125 L 25.078125 244.703125 L 25.078125 252.183594 L 24.257812 252.183594 C 24.074219 251 23.804688 250.269531 23.4375 249.992188 C 23.074219 249.632812 22.433594 249.449219 21.433594 249.449219 Z M 18.785156 273.253906 L 18.785156 267.785156 L 21.066406 267.785156 C 22.34375 267.785156 23.257812 267.507812 23.617188 267.050781 C 23.894531 266.78125 24.171875 266.050781 24.257812 264.953125 L 25.078125 264.953125 L 25.078125 276.628906 L 24.257812 276.628906 C 24.257812 275.355469 24.074219 274.535156 23.804688 274.078125 C 23.347656 273.527344 22.433594 273.253906 21.066406 273.253906 Z M 18.785156 285.9375 L 18.785156 284.472656 L 20.792969 284.472656 C 21.976562 284.472656 22.890625 284.292969 23.347656 283.839844 C 23.894531 283.382812 24.257812 282.46875 24.257812 281.011719 L 25.078125 281.011719 L 25.078125 288.667969 L 24.257812 288.667969 C 24.074219 287.664062 23.894531 286.9375 23.527344 286.574219 C 23.164062 286.210938 22.34375 285.9375 21.339844 285.9375 Z M 18.785156 303.902344 L 18.785156 296.878906 L 19.882812 295.96875 L 18.785156 295.96875 L 18.785156 294.417969 L 21.792969 294.417969 C 22.890625 293.503906 23.617188 292.777344 23.894531 292.410156 C 24.171875 292.050781 24.257812 291.773438 24.257812 291.40625 L 25.078125 291.40625 L 25.078125 298.796875 Z M 18.785156 312.390625 L 18.785156 310.835938 L 20.792969 310.835938 C 21.976562 310.835938 22.796875 310.65625 23.347656 310.289062 C 23.894531 309.835938 24.257812 308.921875 24.257812 307.644531 L 25.078125 307.644531 L 25.078125 315.125 L 24.257812 315.125 C 24.074219 313.941406 23.804688 313.117188 23.4375 312.847656 C 23.074219 312.570312 22.433594 312.390625 21.433594 312.390625 Z M 18.785156 326.707031 L 18.785156 321.144531 L 21.792969 321.144531 C 22.796875 321.144531 23.527344 320.78125 23.894531 320.140625 C 24.074219 319.683594 24.257812 318.867188 24.257812 317.859375 L 25.078125 317.859375 L 25.078125 329.992188 L 24.257812 329.992188 C 24.257812 328.988281 24.171875 328.261719 23.894531 327.800781 C 23.527344 327.074219 22.890625 326.707031 21.792969 326.707031 Z M 18.785156 342.398438 L 18.785156 336.472656 L 21.792969 335.191406 C 22.796875 334.738281 23.4375 334.371094 23.710938 334.007812 C 23.894531 333.730469 24.074219 333.097656 24.257812 332.269531 L 25.078125 332.269531 L 25.078125 343.949219 L 24.257812 343.949219 C 24.257812 342.765625 24.171875 341.945312 23.984375 341.488281 C 23.804688 341.121094 23.4375 340.9375 22.796875 340.9375 C 22.523438 340.9375 22.070312 341.121094 21.339844 341.394531 C 20.609375 341.667969 20.0625 341.851562 19.789062 341.945312 Z M 18.785156 351.882812 L 18.785156 350.335938 L 20.242188 350.882812 C 20.792969 351.152344 21.246094 351.339844 21.613281 351.425781 C 21.976562 351.519531 22.34375 351.613281 22.617188 351.613281 C 23.710938 351.613281 24.257812 350.609375 24.257812 348.601562 L 25.078125 348.601562 L 25.078125 355.992188 L 24.257812 355.992188 C 24.171875 355.078125 23.894531 354.441406 23.527344 354.070312 C 23.164062 353.710938 22.433594 353.34375 21.433594 352.890625 Z M 18.785156 374.230469 L 19.425781 374.230469 L 19.425781 373.320312 C 19.238281 373.320312 18.96875 373.230469 18.785156 373.230469 Z M 18.785156 379.070312 L 18.785156 378.066406 C 20.792969 377.605469 22.164062 376.878906 22.890625 375.695312 C 23.617188 374.597656 23.894531 372.773438 23.894531 370.21875 C 23.894531 369.21875 23.804688 368.578125 23.617188 368.214844 C 23.4375 367.847656 22.980469 367.667969 22.34375 367.667969 L 18.785156 367.667969 L 18.785156 362.101562 L 21.792969 362.101562 C 22.796875 362.101562 23.527344 361.828125 23.894531 361.1875 C 24.074219 360.734375 24.257812 360.003906 24.257812 359 L 25.078125 359 L 25.078125 379.070312 Z M 18.785156 403.785156 L 18.785156 397.859375 L 18.96875 397.859375 C 20.699219 397.859375 21.976562 397.492188 22.707031 396.855469 C 23.527344 396.125 23.894531 395.121094 23.894531 393.664062 C 23.894531 392.753906 23.804688 392.199219 23.710938 392.019531 C 23.527344 391.746094 23.074219 391.652344 22.433594 391.566406 L 18.785156 391.566406 L 18.785156 385.90625 L 21.066406 385.90625 C 22.433594 385.90625 23.347656 385.636719 23.804688 385.175781 C 24.074219 384.71875 24.257812 383.992188 24.257812 382.898438 L 25.078125 382.898438 L 25.078125 394.027344 C 25.078125 397.21875 24.625 399.589844 23.527344 401.324219 C 22.523438 402.96875 20.976562 403.785156 18.96875 403.785156 Z M 18.785156 425.5 L 18.785156 424.3125 C 20.0625 423.945312 21.246094 423.308594 22.253906 422.484375 C 23.804688 421.117188 24.625 419.566406 24.625 417.746094 C 24.625 416.738281 24.347656 415.824219 23.710938 415.097656 C 23.164062 414.367188 22.34375 414.003906 21.339844 414.003906 C 20.335938 414.003906 19.605469 414.277344 19.0625 414.730469 C 18.96875 414.824219 18.875 414.914062 18.785156 415.003906 L 18.785156 410.265625 C 21.066406 410.265625 22.796875 410.992188 24.074219 412.542969 C 25.078125 413.914062 25.625 415.644531 25.625 417.925781 C 25.625 419.019531 25.445312 420.117188 25.078125 421.300781 C 24.714844 422.484375 24.535156 423.21875 24.535156 423.308594 C 24.535156 423.761719 24.714844 424.035156 25.078125 424.21875 C 25.171875 424.3125 25.445312 424.398438 25.625 424.496094 L 25.625 425.5 Z M 18.785156 439.269531 L 18.785156 433.613281 L 21.792969 433.613281 C 22.796875 433.613281 23.527344 433.339844 23.894531 432.613281 C 24.074219 432.160156 24.257812 431.425781 24.257812 430.421875 L 25.078125 430.421875 L 25.078125 442.550781 L 24.257812 442.550781 C 24.257812 441.550781 24.171875 440.730469 23.894531 440.277344 C 23.527344 439.636719 22.890625 439.269531 21.792969 439.269531 Z M 18.785156 467.003906 L 18.785156 465.90625 C 20.882812 465.539062 22.34375 464.625 23.164062 463.351562 C 23.710938 462.347656 23.984375 461.070312 23.984375 459.339844 L 18.785156 459.339844 L 18.785156 453.683594 L 23.984375 453.683594 C 23.984375 451.949219 23.710938 450.671875 23.164062 449.761719 C 22.34375 448.394531 20.882812 447.476562 18.785156 447.113281 L 18.785156 446.019531 L 25.078125 446.109375 L 25.078125 466.910156 Z M 18.785156 475.03125 L 22.34375 473.109375 C 22.707031 472.933594 22.980469 472.742188 23.074219 472.65625 C 23.894531 472.015625 24.257812 471.195312 24.257812 470.285156 L 25.078125 470.285156 L 25.078125 481.960938 L 24.257812 481.960938 C 24.257812 480.773438 24.171875 479.953125 24.074219 479.589844 C 23.894531 479.316406 23.617188 479.132812 23.074219 479.132812 C 22.890625 479.132812 22.523438 479.222656 22.070312 479.5 C 21.613281 479.675781 21.339844 479.859375 21.15625 479.953125 L 18.785156 481.140625 Z M 25.078125 494 L 24.257812 494 C 24.171875 493.359375 23.984375 492.816406 23.804688 492.542969 C 23.617188 492.175781 23.347656 491.898438 22.890625 491.628906 L 18.785156 489.164062 L 18.785156 487.523438 L 19.515625 487.980469 C 19.882812 488.25 20.335938 488.527344 20.882812 488.707031 C 21.703125 489.074219 22.34375 489.347656 22.707031 489.347656 C 23.347656 489.347656 23.710938 489.074219 23.894531 488.527344 C 24.171875 488.074219 24.257812 487.339844 24.257812 486.429688 L 25.078125 486.429688 Z M 25.078125 494 "/>
</g>
</svg>
