<?xml version="1.0" encoding="UTF-8"?>
<svg xmlns="http://www.w3.org/2000/svg" xmlns:xlink="http://www.w3.org/1999/xlink" width="141.732pt" height="489.768pt" viewBox="0 0 141.732 489.768" version="1.2">
<defs>
<clipPath id="clip1">
  <path d="M 37 253 L 141.464844 253 L 141.464844 346 L 37 346 Z M 37 253 "/>
</clipPath>
<clipPath id="clip2">
  <path d="M 36 0.347656 L 124 0.347656 L 124 132 L 36 132 Z M 36 0.347656 "/>
</clipPath>
<clipPath id="clip3">
  <path d="M 0 1 L 25 1 L 25 489.191406 L 0 489.191406 Z M 0 1 "/>
</clipPath>
</defs>
<g id="surface1">
<path style=" stroke:none;fill-rule:evenodd;fill:rgb(100%,100%,100%);fill-opacity:1;" d="M 75.535156 435.453125 L 75.535156 426.589844 C 72.640625 427.316406 70.289062 427.949219 68.660156 428.757812 C 67.125 429.484375 62.6875 432.015625 61.15625 432.917969 C 57.445312 435.175781 58.261719 436.808594 59.890625 438.164062 C 63.679688 441.421875 69.203125 439.789062 70.195312 438.710938 C 72.183594 436.628906 73.8125 435.902344 75.535156 435.453125 M 75.535156 457.515625 L 75.535156 448.019531 C 74.539062 448.109375 73.359375 448.019531 72.460938 448.109375 C 66.667969 448.832031 59.4375 448.109375 53.925781 449.558594 C 48.226562 451.09375 49.394531 453.445312 52.109375 455.976562 C 53.46875 457.242188 53.925781 458.238281 57.632812 460.046875 C 61.15625 461.761719 69.738281 457.691406 75.535156 457.515625 M 75.535156 482.558594 C 74.445312 481.292969 73.089844 479.9375 71.554688 478.398438 C 69.023438 476.136719 64.683594 474.511719 62.511719 472.429688 C 61.066406 470.082031 69.472656 470.710938 75.535156 470.441406 Z M 51.839844 421.4375 C 53.375 420.175781 53.011719 402.449219 52.203125 397.023438 C 51.117188 394.402344 50.847656 390.609375 51.210938 388.617188 C 51.753906 385.898438 53.289062 385.179688 55.007812 386.082031 C 57.082031 387.074219 59.164062 390.058594 61.515625 394.851562 C 63.054688 398.105469 61.332031 397.65625 61.332031 398.832031 C 61.246094 404.890625 60.703125 410.949219 60.609375 415.015625 C 60.609375 417.457031 63.867188 417.730469 64.40625 416.28125 C 64.953125 406.339844 63.773438 393.136719 64.683594 387.351562 C 64.769531 383.550781 63.234375 378.847656 64.683594 377.671875 C 66.488281 376.320312 70.558594 377.128906 72.367188 378.128906 C 73.8125 378.847656 73.71875 376.40625 74.808594 376.046875 C 75.078125 375.957031 75.261719 375.863281 75.535156 375.863281 L 75.535156 384.277344 C 75.441406 384.277344 75.351562 384.277344 75.261719 384.363281 C 74.71875 384.722656 74.898438 385.453125 74.808594 385.898438 C 74.355469 389.609375 73.8125 392.589844 73.8125 396.027344 C 74.171875 396.296875 74.808594 396.121094 75.535156 395.757812 L 75.535156 403.984375 C 74.808594 404.164062 73.542969 404.617188 73.359375 406.515625 C 73.089844 410.3125 70.917969 410.222656 72.007812 413.660156 C 72.550781 414.113281 73.988281 413.570312 75.535156 412.667969 L 75.535156 422.882812 C 74.445312 423.695312 73.71875 425.230469 72.367188 425.414062 C 70.019531 425.777344 68.113281 425.6875 66.941406 425.777344 C 65.226562 426.046875 64.40625 426.414062 62.332031 426.773438 C 60.609375 427.042969 56.542969 427.675781 53.925781 429.9375 C 51.386719 432.195312 51.117188 438.433594 49.671875 441.152344 C 48.585938 443.316406 47.316406 445.578125 46.417969 447.386719 C 45.152344 449.832031 43.976562 451.722656 41.441406 452.359375 C 38.007812 453.171875 35.203125 448.832031 34.9375 446.117188 L 34.9375 445.21875 C 36.019531 441.238281 36.832031 437.980469 37.195312 434.460938 C 37.378906 432.015625 36.554688 429.667969 36.742188 427.675781 C 37.007812 425.863281 38.277344 425.054688 39.179688 423.972656 C 40.265625 422.796875 41.261719 421.347656 43.066406 421.707031 C 44.519531 421.980469 45.417969 423.15625 46.960938 423.335938 C 49.132812 423.519531 50.308594 422.699219 51.839844 421.4375 M 86.832031 483.550781 C 83.667969 486.355469 80.324219 487.171875 78.511719 485.816406 C 77.882812 485.273438 76.886719 484.097656 75.535156 482.558594 L 75.535156 470.441406 C 78.332031 470.257812 80.597656 469.902344 81.136719 468.90625 C 83.035156 465.648438 82.851562 462.484375 82.496094 458.597656 C 82.582031 457.0625 80.503906 457.964844 77.160156 457.515625 C 76.617188 457.515625 76.074219 457.421875 75.535156 457.515625 L 75.535156 448.019531 C 76.707031 447.933594 77.699219 447.746094 78.238281 447.203125 C 79.691406 445.488281 76.707031 443.679688 76.886719 442.144531 C 77.335938 439.515625 83.941406 438.796875 84.570312 436.988281 C 85.296875 435 86.382812 436.082031 86.652344 433.734375 C 86.925781 431.476562 81.769531 433.824219 79.601562 434.460938 C 78.0625 434.910156 76.796875 435.085938 75.535156 435.453125 L 75.535156 426.589844 C 78.695312 425.863281 82.582031 425.144531 86.832031 424.328125 Z M 75.535156 375.863281 C 77.609375 375.320312 79.78125 375.503906 80.867188 376.40625 C 82.675781 378.035156 84.847656 379.484375 86.832031 378.578125 L 86.832031 395.847656 C 86.652344 395.941406 86.292969 396.121094 86.015625 396.664062 C 85.386719 398.019531 85.121094 398.289062 85.566406 399.640625 C 85.75 399.828125 86.292969 399.558594 86.832031 399.191406 L 86.832031 412.300781 C 86.558594 412.574219 86.558594 412.667969 86.292969 413.570312 C 86.292969 413.75 86.558594 413.933594 86.832031 414.023438 L 86.832031 420.445312 C 84.480469 420.625 82.132812 420.984375 79.964844 421.4375 C 79.0625 421.621094 77.253906 421.796875 75.804688 422.699219 C 75.710938 422.796875 75.625 422.796875 75.535156 422.882812 L 75.535156 412.667969 C 77.253906 411.765625 78.878906 410.3125 79.148438 409.140625 C 79.601562 404.980469 79.507812 402.808594 76.074219 403.710938 C 76.074219 403.808594 75.804688 403.894531 75.535156 403.984375 L 75.535156 395.757812 C 77.160156 394.851562 79.414062 392.503906 79.691406 390.515625 C 80.140625 386.351562 78.785156 383.550781 75.535156 384.277344 Z M 97.050781 437.621094 C 94.703125 439.515625 92.984375 441.597656 92.890625 442.863281 C 92.890625 444.222656 94.515625 444.492188 97.050781 444.40625 L 97.050781 454.796875 C 95.242188 456.699219 96.964844 465.648438 95.332031 469.808594 C 94.070312 472.980469 92.253906 476.679688 90.632812 479.21875 C 89.457031 481.023438 88.191406 482.46875 86.832031 483.550781 L 86.832031 424.328125 L 88.640625 423.972656 C 91.355469 423.519531 94.25 423.15625 97.050781 422.882812 Z M 86.832031 378.578125 C 87.195312 378.394531 87.644531 378.128906 88.007812 377.761719 C 90.539062 375.140625 87.742188 367.546875 92.984375 367.003906 C 94.433594 367.003906 95.789062 367.730469 97.050781 368.722656 L 97.050781 381.925781 C 96.683594 382.285156 96.421875 382.648438 96.054688 383.007812 C 95.875 383.28125 95.511719 383.460938 95.332031 385.085938 C 95.421875 386.171875 96.238281 386.539062 97.050781 387.164062 L 97.050781 396.484375 C 96.238281 397.023438 96.683594 398.199219 96.964844 399.097656 C 96.964844 399.191406 96.964844 399.191406 97.050781 399.28125 L 97.050781 408.054688 L 96.683594 408.054688 C 95.332031 408.234375 95.605469 408.6875 95.152344 410.042969 C 95.242188 410.410156 96.238281 410.765625 97.050781 410.765625 L 97.050781 419.625 C 95.695312 419.71875 94.25 419.808594 92.890625 419.902344 C 90.90625 420.082031 88.820312 420.261719 86.832031 420.445312 L 86.832031 414.023438 C 87.464844 414.113281 88.464844 414.113281 88.820312 413.75 C 89.996094 412.484375 90.089844 412.125 88.734375 411.675781 C 88.640625 411.765625 88.191406 410.765625 87.464844 411.582031 C 87.195312 411.941406 87.015625 412.214844 86.832031 412.300781 L 86.832031 399.191406 C 87.464844 398.738281 88.191406 398.105469 88.285156 397.65625 C 88.464844 396.027344 88.550781 395.398438 87.195312 395.757812 C 87.195312 395.757812 87.015625 395.757812 86.832031 395.847656 Z M 100.214844 419.359375 C 99.21875 419.449219 98.136719 419.539062 97.050781 419.625 L 97.050781 410.765625 C 97.316406 410.765625 97.683594 410.679688 97.863281 410.5 C 98.40625 409.863281 99.402344 409.410156 98.496094 408.503906 C 98.226562 408.144531 97.863281 407.964844 97.050781 408.054688 L 97.050781 399.28125 C 97.316406 399.738281 98.496094 400.007812 99.582031 399.917969 L 100.214844 399.917969 Z M 97.050781 444.40625 C 97.953125 444.3125 99.132812 444.222656 100.214844 444.039062 L 100.214844 454.074219 C 99.492188 454.164062 98.585938 454.347656 97.59375 454.53125 C 97.316406 454.53125 97.140625 454.621094 97.050781 454.796875 Z M 100.214844 435.539062 C 99.132812 436.082031 97.953125 436.898438 97.050781 437.621094 L 97.050781 422.882812 C 98.136719 422.796875 99.21875 422.609375 100.214844 422.519531 Z M 100.214844 386.171875 C 99.492188 385.628906 98.949219 385.085938 98.859375 384.542969 C 98.671875 383.730469 99.21875 383.28125 100.214844 382.917969 Z M 97.050781 387.164062 C 97.863281 387.796875 98.671875 388.617188 98.226562 390.785156 C 98.046875 391.511719 98.949219 392.050781 100.214844 392.320312 L 100.214844 396.390625 C 99.132812 396.207031 98.046875 396.207031 97.503906 396.296875 C 97.316406 396.390625 97.140625 396.390625 97.050781 396.484375 Z M 97.050781 368.722656 C 98.316406 369.898438 99.492188 371.253906 100.214844 372.25 L 100.214844 377.671875 C 99.582031 378.847656 98.496094 380.207031 97.050781 381.925781 Z M 100.214844 444.039062 C 102.472656 443.769531 105.003906 443.410156 107.269531 443.136719 C 110.429688 442.777344 112.421875 440.875 113.6875 441.867188 C 117.300781 444.675781 117.9375 445.125 119.835938 450.28125 C 121.464844 454.890625 114.679688 456.519531 111.242188 455.703125 C 105.910156 454.4375 104.464844 453.625 100.214844 454.074219 Z M 100.214844 392.320312 C 102.566406 392.953125 106.183594 393.136719 106.726562 393.40625 C 107.71875 393.949219 108.621094 392.230469 107.269531 391.234375 C 106.816406 390.785156 105.460938 389.609375 104.105469 388.703125 C 102.75 387.796875 101.296875 386.988281 100.214844 386.171875 L 100.214844 382.917969 C 101.394531 382.558594 103.203125 382.375 105.28125 382.195312 C 107.902344 382.011719 111.242188 379.484375 113.507812 380.207031 C 115.863281 380.835938 117.484375 380.660156 120.738281 388.25 C 121.195312 389.609375 119.746094 391.691406 118.480469 393.765625 C 116.582031 396.839844 115.945312 399.738281 113.957031 402.992188 C 112.515625 405.339844 108.441406 412.125 110.703125 411.582031 C 118.304688 409.953125 120.738281 410.3125 124.992188 414.113281 C 127.703125 416.554688 130.414062 418.179688 130.6875 420.984375 L 130.6875 421.707031 C 130.589844 422.25 130.503906 422.796875 130.324219 423.425781 C 125.894531 431.019531 115.945312 425.324219 107.355469 428.847656 C 105.910156 430.480469 106.453125 433.28125 102.925781 434.367188 C 102.023438 434.636719 101.121094 435.085938 100.214844 435.539062 L 100.214844 422.519531 C 103.203125 422.339844 105.730469 422.160156 107.355469 421.980469 C 108.984375 421.796875 109.800781 420.082031 108.621094 419.261719 C 108.167969 418.992188 104.828125 419.082031 100.214844 419.359375 L 100.214844 399.917969 C 101.933594 400.101562 103.019531 400.101562 103.5625 399.464844 C 104.105469 398.832031 104.105469 397.5625 103.382812 397.023438 C 102.472656 396.664062 101.296875 396.484375 100.214844 396.390625 Z M 100.214844 372.25 L 100.304688 372.25 C 101.484375 373.695312 101.660156 375.234375 100.214844 377.671875 Z M 100.214844 372.25 "/>
<g clip-path="url(#clip1)" clip-rule="nonzero">
<path style=" stroke:none;fill-rule:evenodd;fill:rgb(100%,100%,100%);fill-opacity:1;" d="M 62.601562 280.382812 C 67.757812 280.476562 71.101562 280.019531 71.011719 279.027344 C 71.191406 274.777344 71.277344 267.546875 70.019531 262.027344 C 69.292969 259.136719 71.371094 257.417969 73 256.421875 C 76.796875 254.160156 77.792969 253.167969 79.964844 253.4375 C 83.753906 253.976562 86.558594 256.332031 89.183594 259.769531 C 90.449219 261.660156 91.441406 259.046875 89.910156 268.269531 C 89.183594 272.96875 89.910156 273.332031 90.539062 274.054688 C 92.710938 274.867188 94.972656 274.234375 98.226562 273.242188 C 102.207031 272.066406 103.46875 266.007812 111.339844 275.230469 C 112.421875 276.40625 113.230469 277.941406 111.878906 279.929688 C 110.164062 282.28125 106.089844 283.457031 101.484375 286.082031 C 95.605469 289.425781 85.839844 289.96875 87.289062 294.308594 C 91.355469 304.4375 102.390625 319.171875 116.941406 329.296875 C 120.652344 331.832031 125.171875 334 130.324219 335.445312 C 137.832031 337.523438 144.070312 339.066406 140.363281 340.964844 C 134.757812 343.855469 113.777344 347.203125 107.902344 344.039062 C 101.84375 340.78125 83.667969 311.945312 80.503906 306.246094 C 80.328125 305.972656 79.78125 305.972656 79.507812 306.789062 C 76.160156 314.199219 68.929688 328.125 61.695312 333.910156 C 58.445312 336.445312 53.742188 335.175781 52.289062 334 C 50.578125 332.734375 39.996094 330.382812 38.277344 327.132812 C 37.378906 325.046875 38.730469 324.867188 39.910156 324.6875 C 53.925781 324.144531 55.820312 320.074219 59.070312 317.542969 C 67.664062 310.855469 68.929688 299.375 67.84375 298.917969 C 55.007812 300.183594 50.578125 301.71875 46.503906 296.929688 C 38.640625 281.015625 45.0625 278.398438 52.476562 279.296875 C 56.183594 279.839844 61.246094 280.292969 62.601562 280.382812 "/>
</g>
<path style=" stroke:none;fill-rule:evenodd;fill:rgb(100%,100%,100%);fill-opacity:1;" d="M 52.742188 188.609375 C 54.285156 189.0625 55.640625 189.875 56.902344 192.496094 C 60.703125 198.644531 59.164062 206.238281 60.25 211.035156 C 61.246094 211.578125 63.679688 211.121094 66.488281 210.667969 C 70.195312 210.039062 74.265625 209.3125 74.171875 208.320312 C 73.632812 203.257812 74.445312 169.710938 73.71875 165.101562 C 73.542969 164.648438 73.269531 163.109375 73.089844 162.660156 C 71.464844 154.96875 78.695312 152.714844 80.867188 152.894531 C 84.667969 153.34375 92.253906 160.492188 91.175781 163.652344 C 89.183594 167.089844 89.003906 176.582031 88.914062 185.710938 C 88.914062 193.582031 88.734375 201.085938 89.089844 203.980469 C 89.089844 206.332031 98.765625 203.441406 102.023438 202.082031 C 106.089844 201.359375 105.28125 188.425781 108.714844 186.078125 C 110.34375 184.902344 120.015625 186.621094 121.464844 194.664062 C 121.734375 199.097656 120.378906 204.796875 119.296875 210.21875 C 118.566406 214.019531 117.9375 218.71875 117.847656 220.433594 C 117.667969 222.25 110.253906 229.929688 107.71875 231.648438 C 103.742188 232.644531 102.566406 223.328125 102.566406 218.355469 C 102.566406 215.734375 102.65625 214.832031 101.933594 214.195312 C 99.582031 214.019531 93.609375 215.011719 90.089844 216.910156 C 88.191406 217.90625 87.558594 220.617188 85.023438 221.070312 C 74.984375 220.707031 64.769531 222.785156 63.144531 224.324219 C 62.242188 225.140625 57.535156 229.207031 56.722656 230.382812 C 55.910156 231.46875 52.382812 230.292969 51.300781 230.652344 C 48.769531 231.558594 47.234375 226.949219 44.335938 223.238281 C 41.261719 219.351562 43.429688 217 45.152344 212.839844 C 47.234375 208.046875 47.863281 199.726562 47.410156 194.125 C 47.410156 191.226562 47.234375 187.796875 52.742188 188.609375 "/>
<g clip-path="url(#clip2)" clip-rule="nonzero">
<path style=" stroke:none;fill-rule:evenodd;fill:rgb(100%,100%,100%);fill-opacity:1;" d="M 53.554688 37.066406 C 55.453125 37.609375 56.8125 36.339844 59.070312 34.988281 C 61.246094 33.8125 62.871094 32.816406 64.320312 31.914062 L 64.320312 44.300781 C 62.421875 44.84375 60.613281 44.84375 58.984375 44.390625 C 57.359375 43.667969 59.070312 55.511719 61.066406 55.964844 C 62.511719 56.144531 63.507812 56.328125 64.320312 56.328125 L 64.320312 71.429688 C 62.691406 72.058594 60.882812 72.875 58.890625 73.6875 C 57.898438 74.5 56.996094 75.320312 56.089844 76.402344 C 55.191406 77.394531 54.554688 79.113281 53.46875 79.382812 C 50.753906 80.015625 47.863281 79.652344 45.515625 78.027344 C 43.703125 76.578125 43.703125 72.875 40.996094 68.804688 C 38.914062 66.179688 36.832031 64.191406 36.832031 60.488281 C 38.183594 57.140625 38.640625 55.332031 39.816406 53.253906 C 40.085938 52.351562 40.269531 51.347656 40.445312 49.8125 C 40.71875 45.929688 41.351562 42.675781 42.796875 38.964844 C 43.882812 36.886719 49.308594 33.453125 53.554688 37.066406 M 64.320312 31.914062 C 67.210938 30.289062 69.292969 29.292969 72.550781 28.117188 C 72.371094 23.324219 71.734375 18.261719 71.914062 13.652344 C 72.007812 12.65625 71.640625 11.75 71.277344 11.117188 C 69.382812 7.140625 73.8125 1.890625 80.234375 0.359375 C 82.042969 0.0859375 89.996094 3.886719 89.996094 7.503906 C 89.816406 12.566406 89.273438 18.351562 89.726562 22.875 C 90.90625 23.054688 92.53125 23.140625 94.339844 23.234375 L 94.339844 32.546875 C 92.4375 32.816406 90.632812 33.363281 89.640625 33.90625 C 88.550781 35.714844 87.832031 46.921875 89.273438 47.644531 C 90.90625 47.917969 92.800781 47.011719 94.339844 45.929688 L 94.339844 63.648438 C 92.078125 64.644531 89.910156 65.820312 87.742188 67.265625 C 87.558594 83.363281 86.199219 98.375 85.65625 114.375 C 84.570312 122.875 81.683594 130.652344 77.335938 131.195312 C 74.265625 130.921875 71.277344 124.140625 71.191406 113.46875 L 70.464844 69.617188 C 68.75 69.886719 66.667969 70.523438 64.320312 71.429688 L 64.320312 56.328125 C 66.128906 56.328125 67.210938 55.875 69.382812 54.519531 C 70.832031 53.613281 70.375 43.941406 69.925781 42.222656 C 69.203125 41.226562 67.941406 42.675781 67.484375 42.941406 C 66.488281 43.578125 65.40625 44.03125 64.320312 44.300781 Z M 94.339844 23.234375 C 96.054688 23.324219 97.953125 23.324219 99.945312 23.234375 C 103.46875 22.78125 107.902344 19.800781 111.066406 19.707031 C 115.679688 19.707031 122.007812 26.214844 123.539062 30.378906 C 124.449219 33.996094 122.277344 36.792969 119.746094 38.15625 L 117.578125 38.695312 C 115.132812 40.050781 110.703125 45.835938 110.886719 46.921875 C 110.796875 48.640625 110.796875 49.8125 112.597656 51.082031 C 113.6875 52.710938 110.972656 59.3125 107.808594 60.574219 C 106.816406 61.117188 105.910156 61.660156 103.46875 61.660156 C 100.488281 61.570312 97.417969 62.382812 94.339844 63.648438 L 94.339844 45.929688 C 95.789062 44.84375 96.871094 43.578125 97.316406 42.765625 C 99.039062 40.414062 101.121094 36.4375 99.851562 33.363281 C 98.585938 32.367188 96.421875 32.273438 94.339844 32.546875 Z M 94.339844 23.234375 "/>
</g>
<g clip-path="url(#clip3)" clip-rule="nonzero">
<path style=" stroke:none;fill-rule:evenodd;fill:rgb(100%,100%,100%);fill-opacity:1;" d="M 10.578125 176.703125 L 6.507812 176.703125 L 6.507812 164.859375 L 10.578125 164.859375 Z M 12.925781 449.222656 L 12.925781 454.828125 L 4.699219 454.828125 C 3.257812 454.828125 2.445312 455.097656 1.988281 455.550781 C 1.722656 455.914062 1.535156 456.820312 1.535156 458.175781 L 0.628906 458.175781 L 0.628906 445.878906 L 1.535156 445.878906 C 1.535156 447.238281 1.722656 448.140625 1.988281 448.503906 C 2.445312 449.046875 3.257812 449.222656 4.699219 449.222656 Z M 12.925781 429.332031 L 12.925781 434.9375 L 3.976562 434.9375 C 2.980469 434.9375 2.347656 435.210938 1.988281 435.84375 C 1.628906 436.296875 1.535156 437.109375 1.535156 438.191406 L 0.628906 438.191406 L 0.628906 426.167969 L 1.535156 426.167969 C 1.628906 427.617188 1.898438 428.519531 2.261719 428.882812 C 2.625 429.152344 3.167969 429.332031 3.976562 429.332031 Z M 12.925781 408.089844 L 12.925781 419.476562 C 12.5625 419.929688 12.121094 420.382812 11.574219 420.828125 C 10.304688 421.824219 8.863281 422.285156 7.234375 422.285156 C 5.425781 422.285156 3.792969 421.648438 2.53125 420.382812 C 0.8125 418.847656 0 416.585938 0 413.78125 C 0 412.695312 0.179688 411.613281 0.359375 410.707031 C 0.628906 409.804688 0.902344 408.808594 1.171875 407.90625 C 1.171875 407.542969 1.085938 407.363281 0.902344 407.179688 C 0.628906 407.089844 0.359375 406.910156 0 406.820312 L 0 405.824219 L 8.496094 405.824219 L 8.496094 406.820312 C 6.417969 407.269531 4.792969 407.996094 3.527344 408.992188 C 1.988281 410.253906 1.171875 411.878906 1.171875 413.867188 C 1.171875 415.226562 1.535156 416.316406 2.261719 417.03125 C 2.980469 417.851562 3.886719 418.210938 4.96875 418.210938 C 6.054688 418.210938 6.875 417.851562 7.59375 417.128906 C 7.953125 416.675781 8.496094 415.679688 9.222656 414.324219 L 10.304688 412.066406 C 11.121094 410.34375 12.023438 408.992188 12.925781 408.089844 M 12.925781 382.046875 L 12.925781 387.652344 L 12.5625 387.652344 C 12.5625 389.1875 12.65625 390.457031 12.925781 391.355469 L 12.925781 396.78125 C 12.5625 396.148438 12.296875 395.335938 11.9375 394.34375 L 2.175781 401.304688 C 1.898438 401.484375 1.722656 401.664062 1.628906 401.941406 C 1.535156 402.207031 1.535156 402.386719 1.535156 402.660156 L 0.628906 402.660156 L 0.628906 395.605469 L 11.390625 388.554688 L 11.390625 387.652344 L 4.699219 387.652344 C 3.433594 387.652344 2.625 387.832031 2.261719 388.28125 C 1.898438 388.644531 1.722656 389.371094 1.535156 390.632812 L 0.628906 390.632812 L 0.628906 379.058594 L 1.535156 379.058594 C 1.722656 380.328125 1.898438 381.050781 2.175781 381.414062 C 2.53125 381.863281 3.34375 382.046875 4.699219 382.046875 Z M 12.925781 358.445312 L 12.925781 370.46875 L 6.691406 370.46875 L 6.691406 369.570312 C 8.679688 369.390625 10.125 368.84375 10.847656 368.03125 C 11.574219 367.125 11.9375 365.769531 11.9375 363.960938 L 3.703125 363.960938 C 2.894531 363.960938 2.445312 364.234375 2.175781 364.59375 C 1.898438 365.042969 1.722656 365.769531 1.722656 366.851562 C 1.722656 368.933594 2.078125 370.5625 2.804688 371.824219 C 3.703125 373.542969 5.425781 374.902344 7.863281 375.894531 L 7.863281 376.894531 L 0.628906 375.535156 L 0.628906 355.375 L 1.535156 355.375 C 1.628906 356.550781 1.804688 357.359375 1.988281 357.632812 C 2.347656 358.171875 2.980469 358.445312 3.976562 358.445312 Z M 12.925781 335.027344 L 12.925781 340.902344 L 7.777344 342.984375 L 12.925781 344.972656 L 12.925781 346.507812 L 0.09375 341.449219 L 0.09375 340.539062 Z M 12.925781 317.847656 L 12.925781 323.363281 L 3.976562 323.363281 C 2.980469 323.363281 2.347656 323.722656 1.988281 324.265625 C 1.628906 324.808594 1.535156 325.53125 1.535156 326.617188 L 0.628906 326.617188 L 0.628906 314.589844 L 1.535156 314.589844 C 1.628906 316.039062 1.898438 316.941406 2.261719 317.300781 C 2.625 317.671875 3.167969 317.847656 3.976562 317.847656 Z M 12.925781 297.59375 L 12.925781 304.558594 L 9.222656 307.539062 L 12.925781 307.628906 L 12.925781 309.164062 L 0.09375 309.164062 L 0.09375 308.175781 Z M 12.925781 291.351562 L 12.925781 292.890625 L 4.96875 292.800781 C 3.703125 292.800781 2.894531 293.074219 2.445312 293.523438 C 1.988281 293.886719 1.628906 294.789062 1.535156 296.054688 L 0.628906 296.054688 L 0.628906 288.28125 L 1.535156 288.28125 C 1.628906 289.457031 1.898438 290.179688 2.078125 290.542969 C 2.445312 291.082031 3.167969 291.351562 4.246094 291.351562 Z M 12.925781 264.953125 L 12.925781 270.378906 L 8.410156 270.378906 C 6.054688 270.378906 4.335938 270.832031 3.257812 271.644531 C 2.261719 272.457031 1.722656 273.636719 1.722656 275.351562 C 1.722656 277.976562 2.625 279.695312 4.609375 280.683594 C 5.695312 281.230469 7.234375 281.5 9.125 281.5 L 12.925781 281.5 L 12.925781 282.945312 L 9.125 282.945312 C 7.953125 282.945312 6.777344 282.859375 5.695312 282.585938 C 4.246094 282.222656 3.257812 281.679688 2.53125 281.046875 C 1.628906 280.234375 0.992188 279.148438 0.539062 277.796875 C 0.179688 276.707031 0 275.53125 0 274.265625 C 0 273.179688 0.179688 272.09375 0.359375 271.101562 C 0.722656 269.566406 1.355469 268.300781 2.175781 267.304688 C 2.980469 266.488281 3.703125 265.855469 4.429688 265.585938 C 5.332031 265.132812 6.691406 264.953125 8.410156 264.953125 Z M 12.925781 235.296875 L 12.925781 242.167969 L 9.222656 245.242188 L 12.925781 245.242188 L 12.925781 246.78125 L 0.09375 246.78125 L 0.09375 245.875 Z M 12.925781 228.96875 L 12.925781 230.503906 L 4.96875 230.503906 C 3.703125 230.503906 2.894531 230.683594 2.445312 231.132812 C 1.988281 231.589844 1.628906 232.496094 1.535156 233.761719 L 0.628906 233.761719 L 0.628906 225.980469 L 1.535156 225.980469 C 1.628906 227.160156 1.898438 227.878906 2.078125 228.242188 C 2.445312 228.695312 3.167969 228.96875 4.246094 228.96875 Z M 12.925781 204.464844 L 12.925781 216.398438 L 6.691406 216.398438 L 6.691406 215.496094 C 8.679688 215.308594 10.125 214.773438 10.847656 213.867188 C 11.574219 213.054688 11.9375 211.695312 11.9375 209.890625 L 3.703125 209.890625 C 2.894531 209.890625 2.445312 210.15625 2.175781 210.523438 C 1.898438 210.882812 1.722656 211.695312 1.722656 212.777344 C 1.722656 214.859375 2.078125 216.488281 2.804688 217.753906 C 3.703125 219.476562 5.425781 220.824219 7.863281 221.824219 L 7.863281 222.820312 L 0.628906 221.460938 L 0.628906 201.386719 L 1.535156 201.386719 C 1.628906 202.5625 1.804688 203.285156 1.988281 203.652344 C 2.347656 204.195312 2.980469 204.464844 3.976562 204.464844 Z M 12.925781 183.484375 L 12.925781 194.789062 C 12.5625 195.332031 12.121094 195.78125 11.574219 196.144531 C 10.304688 197.136719 8.863281 197.683594 7.234375 197.683594 C 5.425781 197.683594 3.792969 197.046875 2.53125 195.78125 C 0.8125 194.246094 0 191.984375 0 189.183594 C 0 188.003906 0.179688 187.011719 0.359375 186.109375 C 0.628906 185.203125 0.902344 184.214844 1.171875 183.304688 C 1.171875 182.945312 1.085938 182.761719 0.902344 182.582031 C 0.628906 182.398438 0.359375 182.308594 0 182.21875 L 0 181.222656 L 8.496094 181.222656 L 8.496094 182.21875 C 6.417969 182.671875 4.792969 183.398438 3.527344 184.386719 C 1.988281 185.652344 1.171875 187.289062 1.171875 189.273438 C 1.171875 190.625 1.535156 191.714844 2.261719 192.4375 C 2.980469 193.160156 3.886719 193.613281 4.96875 193.613281 C 6.054688 193.613281 6.875 193.253906 7.59375 192.53125 C 7.953125 192.074219 8.496094 191.082031 9.222656 189.722656 L 10.304688 187.460938 C 11.121094 185.746094 12.023438 184.386719 12.925781 183.484375 M 12.925781 146.777344 L 12.925781 152.386719 L 4.699219 152.386719 C 3.257812 152.386719 2.445312 152.65625 1.988281 153.109375 C 1.722656 153.464844 1.535156 154.371094 1.535156 155.722656 L 0.628906 155.722656 L 0.628906 143.519531 L 1.535156 143.519531 C 1.535156 144.785156 1.722656 145.691406 1.988281 146.054688 C 2.445312 146.59375 3.257812 146.777344 4.699219 146.777344 Z M 12.925781 122.363281 L 12.925781 123.808594 L 8.773438 122.183594 L 8.773438 128.871094 L 12.925781 127.152344 L 12.925781 132.851562 L 6.328125 135.65625 C 4.335938 136.46875 3.070312 137.101562 2.53125 137.464844 C 1.898438 138.003906 1.535156 138.636719 1.535156 139.363281 L 0.628906 139.363281 L 0.628906 128.242188 L 1.535156 128.242188 C 1.535156 129.324219 1.628906 130.046875 1.804688 130.40625 C 1.988281 130.777344 2.347656 131.042969 2.894531 131.042969 C 3.34375 131.042969 4.066406 130.777344 5.0625 130.40625 C 5.515625 130.234375 6.328125 129.957031 7.410156 129.417969 L 7.410156 121.730469 C 6.148438 121.191406 5.148438 120.828125 4.429688 120.554688 C 3.703125 120.285156 3.257812 120.195312 2.980469 120.195312 C 2.445312 120.195312 1.988281 120.460938 1.804688 121.097656 C 1.628906 121.550781 1.535156 122.183594 1.535156 122.992188 L 0.628906 122.992188 L 0.628906 116.035156 L 1.535156 116.035156 C 1.628906 116.84375 2.078125 117.570312 2.625 118.023438 C 3.070312 118.292969 4.066406 118.746094 5.515625 119.382812 Z M 12.925781 100.753906 L 12.925781 106.628906 L 12.023438 107.175781 L 12.925781 107.714844 L 12.925781 109.253906 L 11.03125 108.082031 L 4.699219 108.082031 C 3.34375 108.082031 2.53125 108.257812 2.175781 108.710938 C 1.898438 109.074219 1.628906 109.886719 1.535156 111.242188 L 0.628906 111.242188 L 0.628906 99.304688 L 1.535156 99.304688 C 1.628906 100.664062 1.898438 101.472656 2.078125 101.75 C 2.53125 102.292969 3.34375 102.472656 4.699219 102.472656 L 9.761719 102.472656 Z M 12.925781 57.082031 L 12.925781 63.953125 L 9.222656 67.027344 L 12.925781 67.027344 L 12.925781 68.5625 L 0.09375 68.5625 L 0.09375 67.660156 Z M 12.925781 50.753906 L 12.925781 52.289062 L 4.96875 52.289062 C 3.703125 52.289062 2.894531 52.46875 2.445312 52.921875 C 1.988281 53.375 1.628906 54.277344 1.535156 55.542969 L 0.628906 55.542969 L 0.628906 47.769531 L 1.535156 47.769531 C 1.628906 48.945312 1.898438 49.667969 2.078125 50.03125 C 2.445312 50.484375 3.167969 50.753906 4.246094 50.753906 Z M 12.925781 23.984375 L 12.925781 29.503906 L 8.410156 29.503906 C 6.054688 29.503906 4.335938 29.863281 3.257812 30.679688 C 2.261719 31.492188 1.722656 32.757812 1.722656 34.476562 C 1.722656 37.007812 2.625 38.816406 4.609375 39.8125 C 5.695312 40.265625 7.234375 40.535156 9.125 40.535156 L 12.925781 40.535156 L 12.925781 42.070312 L 9.125 42.070312 C 7.953125 42.070312 6.777344 41.886719 5.695312 41.621094 C 4.246094 41.351562 3.257812 40.804688 2.53125 40.171875 C 1.628906 39.359375 0.992188 38.277344 0.539062 36.917969 C 0.179688 35.835938 0 34.65625 0 33.390625 C 0 32.21875 0.179688 31.222656 0.359375 30.132812 C 0.722656 28.597656 1.355469 27.425781 2.175781 26.429688 C 2.980469 25.527344 3.703125 24.984375 4.429688 24.621094 C 5.332031 24.253906 6.691406 23.984375 8.410156 23.984375 Z M 12.925781 3.285156 L 12.925781 14.585938 C 12.5625 15.128906 12.121094 15.578125 11.574219 16.035156 C 10.304688 16.9375 8.863281 17.476562 7.234375 17.476562 C 5.425781 17.476562 3.792969 16.84375 2.53125 15.578125 C 0.8125 14.042969 0 11.777344 0 8.976562 C 0 7.804688 0.179688 6.804688 0.359375 5.90625 C 0.628906 5 0.902344 4.007812 1.171875 3.101562 C 1.171875 2.738281 1.085938 2.554688 0.902344 2.378906 C 0.628906 2.195312 0.359375 2.109375 0 2.011719 L 0 1.019531 L 8.496094 1.019531 L 8.496094 2.011719 C 6.417969 2.472656 4.792969 3.191406 3.527344 4.1875 C 1.988281 5.453125 1.171875 7.082031 1.171875 9.070312 C 1.171875 10.425781 1.535156 11.511719 2.261719 12.234375 C 2.980469 13.046875 3.886719 13.40625 4.96875 13.40625 C 6.054688 13.40625 6.875 13.046875 7.59375 12.324219 C 7.953125 11.871094 8.496094 10.878906 9.222656 9.519531 L 10.304688 7.261719 C 11.121094 5.542969 12.023438 4.1875 12.925781 3.285156 M 12.925781 481.503906 L 11.03125 480.332031 L 4.699219 480.332031 C 3.34375 480.332031 2.53125 480.511719 2.175781 480.964844 C 1.898438 481.324219 1.628906 482.140625 1.535156 483.492188 L 0.628906 483.492188 L 0.628906 471.554688 L 1.535156 471.554688 C 1.628906 472.917969 1.898438 473.726562 2.078125 473.996094 C 2.53125 474.542969 3.34375 474.722656 4.699219 474.722656 L 9.761719 474.722656 L 12.925781 473.003906 L 12.925781 478.878906 L 12.023438 479.425781 L 12.925781 479.96875 Z M 17.628906 461.34375 L 17.628906 462.425781 L 17 462.425781 L 17 461.429688 C 17.175781 461.429688 17.449219 461.34375 17.628906 461.34375 M 17.628906 454.828125 L 12.925781 454.828125 L 12.925781 449.222656 L 17.628906 449.222656 Z M 17.628906 441.628906 L 17.628906 442.710938 C 17.449219 442.710938 17.175781 442.625 17 442.625 L 17 441.628906 Z M 17.628906 434.9375 L 12.925781 434.9375 L 12.925781 429.332031 L 17.628906 429.332031 Z M 17.628906 420.109375 L 17.628906 421.289062 L 17 421.289062 L 17 420.292969 C 17.175781 420.292969 17.449219 420.199219 17.628906 420.109375 M 17.628906 406.1875 L 17.628906 410.882812 C 17.175781 411.429688 16.636719 412.242188 16.09375 413.417969 L 13.5625 418.484375 C 13.382812 418.847656 13.203125 419.117188 12.925781 419.476562 L 12.925781 408.089844 C 13.46875 407.632812 13.921875 407.179688 14.460938 406.910156 C 15.371094 406.457031 16.363281 406.1875 17.628906 406.1875 M 17.628906 393.890625 L 17.628906 399.765625 C 15.917969 399.679688 14.558594 399.042969 13.5625 397.777344 C 13.382812 397.507812 13.109375 397.234375 12.925781 396.78125 L 12.925781 391.355469 C 13.109375 391.808594 13.289062 392.175781 13.46875 392.445312 C 14.191406 393.347656 15.550781 393.890625 17.628906 393.890625 M 17.628906 387.652344 L 12.925781 387.652344 L 12.925781 382.046875 L 17.628906 382.046875 Z M 17.628906 374.269531 L 17.628906 375.265625 L 17 375.265625 L 17 374.359375 C 17.175781 374.359375 17.449219 374.269531 17.628906 374.269531 M 17.628906 358.445312 L 17.628906 363.960938 L 13.109375 363.960938 C 13.109375 365.769531 13.46875 367.035156 14.101562 367.851562 C 14.832031 368.664062 16.003906 369.207031 17.628906 369.476562 L 17.628906 370.46875 L 12.925781 370.46875 L 12.925781 358.445312 Z M 17.628906 346.78125 L 17.628906 348.316406 L 12.925781 346.507812 L 12.925781 344.972656 Z M 17.628906 333.039062 L 17.628906 338.917969 L 12.925781 340.902344 L 12.925781 335.027344 Z M 17.628906 323.363281 L 12.925781 323.363281 L 12.925781 317.847656 L 17.628906 317.847656 Z M 17.628906 309.164062 L 12.925781 309.164062 L 12.925781 307.628906 L 17.628906 307.628906 Z M 17.628906 293.792969 L 17.628906 300.757812 L 12.925781 304.558594 L 12.925781 297.59375 Z M 17.628906 292.890625 L 12.925781 292.890625 L 12.925781 291.351562 L 17.628906 291.351562 Z M 17.628906 282.945312 L 12.925781 282.945312 L 12.925781 281.5 L 17.628906 281.5 Z M 17.628906 270.378906 L 12.925781 270.378906 L 12.925781 264.953125 L 17.628906 264.953125 Z M 17.628906 245.332031 L 17.628906 246.78125 L 12.925781 246.78125 L 12.925781 245.242188 Z M 17.628906 231.410156 L 17.628906 238.371094 L 12.925781 242.167969 L 12.925781 235.296875 Z M 17.628906 228.96875 L 17.628906 230.59375 L 12.925781 230.503906 L 12.925781 228.96875 Z M 17.628906 220.195312 L 17.628906 221.191406 L 17 221.191406 L 17 220.289062 C 17.175781 220.289062 17.449219 220.195312 17.628906 220.195312 M 17.628906 204.464844 L 17.628906 209.890625 L 13.109375 209.890625 C 13.109375 211.695312 13.46875 212.964844 14.101562 213.6875 C 14.832031 214.589844 16.003906 215.132812 17.628906 215.410156 L 17.628906 216.398438 L 12.925781 216.398438 L 12.925781 204.464844 Z M 17.628906 195.507812 L 17.628906 196.683594 L 17 196.683594 L 17 195.695312 C 17.175781 195.695312 17.449219 195.601562 17.628906 195.507812 M 17.628906 181.585938 L 17.628906 186.289062 C 17.175781 186.828125 16.636719 187.644531 16.09375 188.820312 L 13.5625 193.886719 C 13.382812 194.246094 13.203125 194.515625 12.925781 194.789062 L 12.925781 183.484375 C 13.46875 182.945312 13.921875 182.582031 14.460938 182.308594 C 15.371094 181.773438 16.363281 181.585938 17.628906 181.585938 M 17.628906 158.894531 L 17.628906 159.980469 L 17 159.980469 L 17 158.984375 C 17.175781 158.984375 17.449219 158.894531 17.628906 158.894531 M 17.628906 152.386719 L 12.925781 152.386719 L 12.925781 146.777344 L 17.628906 146.777344 Z M 17.628906 139.183594 L 17.628906 140.269531 C 17.449219 140.269531 17.175781 140.175781 17 140.175781 L 17 139.183594 Z M 17.628906 124.261719 L 17.628906 130.859375 L 12.925781 132.851562 L 12.925781 127.152344 L 17.085938 125.4375 L 12.925781 123.808594 L 12.925781 122.363281 Z M 17.628906 110.519531 L 17.628906 112.148438 L 12.925781 109.253906 L 12.925781 107.714844 Z M 17.628906 98.128906 L 17.628906 104.1875 L 12.925781 106.628906 L 12.925781 100.753906 Z M 17.628906 67.117188 L 17.628906 68.5625 L 12.925781 68.5625 L 12.925781 67.027344 Z M 17.628906 53.191406 L 17.628906 60.15625 L 12.925781 63.953125 L 12.925781 57.082031 Z M 17.628906 50.753906 L 17.628906 52.382812 L 12.925781 52.289062 L 12.925781 50.753906 Z M 17.628906 42.070312 L 12.925781 42.070312 L 12.925781 40.535156 L 17.628906 40.535156 Z M 17.628906 29.503906 L 12.925781 29.503906 L 12.925781 23.984375 L 17.628906 23.984375 Z M 17.628906 15.304688 L 17.628906 16.484375 L 17 16.484375 L 17 15.488281 C 17.175781 15.488281 17.449219 15.398438 17.628906 15.304688 M 17.628906 1.386719 L 17.628906 6.089844 C 17.175781 6.628906 16.636719 7.441406 16.09375 8.621094 L 13.5625 13.679688 C 13.382812 14.042969 13.203125 14.3125 12.925781 14.585938 L 12.925781 3.285156 C 13.46875 2.738281 13.921875 2.378906 14.460938 2.109375 C 15.371094 1.5625 16.363281 1.386719 17.628906 1.386719 M 12.925781 473.003906 L 17.628906 470.382812 L 17.628906 476.441406 L 12.925781 478.878906 Z M 17.628906 484.394531 L 12.925781 481.503906 L 12.925781 479.96875 L 17.628906 482.769531 Z M 17.628906 16.484375 L 17.628906 15.304688 C 18.898438 14.855469 20.070312 14.3125 21.066406 13.40625 C 22.605469 12.140625 23.421875 10.605469 23.421875 8.796875 C 23.421875 7.804688 23.144531 6.898438 22.511719 6.175781 C 21.972656 5.453125 21.15625 5.089844 20.164062 5.089844 C 19.167969 5.089844 18.445312 5.363281 17.90625 5.8125 C 17.8125 5.90625 17.722656 5.996094 17.628906 6.089844 L 17.628906 1.386719 C 19.890625 1.386719 21.605469 2.109375 22.875 3.644531 C 23.871094 5 24.414062 6.71875 24.414062 8.976562 C 24.414062 10.0625 24.230469 11.148438 23.871094 12.324219 C 23.507812 13.5 23.328125 14.132812 23.328125 14.3125 C 23.328125 14.675781 23.507812 15.035156 23.871094 15.21875 C 23.960938 15.304688 24.230469 15.398438 24.414062 15.398438 L 24.414062 16.484375 Z M 17.628906 29.503906 L 17.628906 23.984375 L 19.890625 23.984375 C 21.15625 23.984375 22.0625 23.808594 22.421875 23.355469 C 22.691406 23.082031 22.964844 22.363281 23.054688 21.183594 L 23.871094 21.183594 L 23.871094 32.851562 L 23.054688 32.851562 C 23.054688 31.582031 22.875 30.679688 22.605469 30.316406 C 22.152344 29.777344 21.25 29.503906 19.890625 29.503906 Z M 17.628906 42.070312 L 17.628906 40.535156 L 19.621094 40.535156 C 20.792969 40.535156 21.699219 40.355469 22.152344 39.996094 C 22.691406 39.539062 23.054688 38.546875 23.054688 37.191406 L 23.871094 37.191406 L 23.871094 44.785156 L 23.054688 44.785156 C 22.875 43.699219 22.691406 43.066406 22.335938 42.707031 C 21.972656 42.253906 21.15625 42.070312 20.164062 42.070312 Z M 17.628906 60.15625 L 17.628906 53.191406 L 18.714844 52.382812 L 17.628906 52.382812 L 17.628906 50.753906 L 20.613281 50.753906 C 21.699219 49.847656 22.421875 49.214844 22.691406 48.761719 C 22.964844 48.492188 23.054688 48.128906 23.054688 47.859375 L 23.871094 47.859375 L 23.871094 55.09375 Z M 17.628906 68.5625 L 17.628906 67.117188 L 19.621094 67.117188 C 20.792969 67.117188 21.605469 66.9375 22.152344 66.574219 C 22.691406 66.128906 23.054688 65.214844 23.054688 63.859375 L 23.871094 63.859375 L 23.871094 71.28125 L 23.054688 71.28125 C 22.875 70.105469 22.605469 69.378906 22.242188 69.109375 C 21.878906 68.746094 21.25 68.5625 20.253906 68.5625 Z M 17.628906 104.1875 L 17.628906 98.128906 L 21.15625 96.234375 C 21.519531 96.050781 21.789062 95.875 21.878906 95.78125 C 22.691406 95.148438 23.054688 94.335938 23.054688 93.519531 L 23.871094 93.519531 L 23.871094 105.003906 L 23.054688 105.003906 C 23.054688 103.828125 22.964844 103.015625 22.875 102.742188 C 22.691406 102.382812 22.421875 102.199219 21.878906 102.199219 C 21.699219 102.199219 21.335938 102.292969 20.886719 102.5625 C 20.433594 102.742188 20.164062 102.921875 19.976562 103.015625 Z M 17.628906 112.148438 L 17.628906 110.519531 L 18.355469 110.972656 C 18.714844 111.242188 19.167969 111.511719 19.707031 111.691406 C 20.523438 112.148438 21.15625 112.328125 21.519531 112.328125 C 22.152344 112.328125 22.511719 112.054688 22.691406 111.511719 C 22.964844 111.0625 23.054688 110.332031 23.054688 109.433594 L 23.871094 109.433594 L 23.871094 116.941406 L 23.054688 116.941406 C 22.964844 116.304688 22.785156 115.761719 22.605469 115.488281 C 22.421875 115.21875 22.152344 114.859375 21.699219 114.675781 Z M 17.628906 130.859375 L 17.628906 124.261719 L 24.414062 126.976562 L 24.414062 127.96875 Z M 17.628906 159.980469 L 17.628906 158.894531 C 19.707031 158.535156 21.15625 157.621094 21.972656 156.363281 C 22.511719 155.363281 22.785156 154.105469 22.785156 152.386719 L 17.628906 152.386719 L 17.628906 146.777344 L 22.785156 146.777344 C 22.785156 145.058594 22.511719 143.792969 21.972656 142.890625 C 21.15625 141.527344 19.707031 140.628906 17.628906 140.269531 L 17.628906 139.183594 L 23.871094 139.269531 L 23.871094 159.890625 Z M 17.628906 196.683594 L 17.628906 195.507812 C 18.898438 195.0625 20.070312 194.515625 21.066406 193.613281 C 22.605469 192.34375 23.421875 190.808594 23.421875 189 C 23.421875 188.003906 23.144531 187.105469 22.511719 186.375 C 21.972656 185.652344 21.15625 185.292969 20.164062 185.292969 C 19.167969 185.292969 18.445312 185.566406 17.90625 186.019531 C 17.8125 186.109375 17.722656 186.195312 17.628906 186.289062 L 17.628906 181.585938 C 19.890625 181.585938 21.605469 182.308594 22.875 183.847656 C 23.871094 185.203125 24.414062 186.921875 24.414062 189.183594 C 24.414062 190.179688 24.230469 191.355469 23.871094 192.53125 C 23.507812 193.703125 23.328125 194.339844 23.328125 194.515625 C 23.328125 194.878906 23.507812 195.238281 23.871094 195.417969 C 23.960938 195.507812 24.230469 195.601562 24.414062 195.601562 L 24.414062 196.683594 Z M 17.628906 216.398438 L 18.261719 216.398438 L 18.261719 215.496094 C 18.082031 215.496094 17.8125 215.410156 17.628906 215.410156 Z M 17.628906 221.191406 L 17.628906 220.195312 C 19.621094 219.746094 20.976562 219.019531 21.699219 217.847656 C 22.421875 216.757812 22.691406 214.953125 22.691406 212.417969 C 22.691406 211.425781 22.605469 210.699219 22.421875 210.429688 C 22.242188 210.070312 21.789062 209.890625 21.15625 209.890625 L 17.628906 209.890625 L 17.628906 204.464844 L 20.613281 204.464844 C 21.605469 204.464844 22.335938 204.101562 22.691406 203.5625 C 22.875 203.105469 23.054688 202.382812 23.054688 201.386719 L 23.871094 201.386719 L 23.871094 221.191406 Z M 17.628906 238.371094 L 17.628906 231.410156 L 18.714844 230.59375 L 17.628906 230.59375 L 17.628906 228.96875 L 20.613281 228.96875 C 21.699219 228.0625 22.421875 227.425781 22.691406 226.980469 C 22.964844 226.707031 23.054688 226.34375 23.054688 226.070312 L 23.871094 226.070312 L 23.871094 233.308594 Z M 17.628906 246.78125 L 17.628906 245.332031 L 19.621094 245.332031 C 20.792969 245.332031 21.605469 245.148438 22.152344 244.792969 C 22.691406 244.335938 23.054688 243.4375 23.054688 242.074219 L 23.871094 242.074219 L 23.871094 249.492188 L 23.054688 249.492188 C 22.875 248.316406 22.605469 247.589844 22.242188 247.316406 C 21.878906 246.960938 21.25 246.78125 20.253906 246.78125 Z M 17.628906 270.378906 L 17.628906 264.953125 L 19.890625 264.953125 C 21.15625 264.953125 22.0625 264.679688 22.421875 264.230469 C 22.691406 263.957031 22.964844 263.234375 23.054688 262.144531 L 23.871094 262.144531 L 23.871094 273.722656 L 23.054688 273.722656 C 23.054688 272.457031 22.875 271.644531 22.605469 271.191406 C 22.152344 270.648438 21.25 270.378906 19.890625 270.378906 Z M 17.628906 282.945312 L 17.628906 281.5 L 19.621094 281.5 C 20.792969 281.5 21.699219 281.320312 22.152344 280.867188 C 22.691406 280.414062 23.054688 279.511719 23.054688 278.066406 L 23.871094 278.066406 L 23.871094 285.65625 L 23.054688 285.65625 C 22.875 284.664062 22.691406 283.941406 22.335938 283.578125 C 21.972656 283.222656 21.15625 282.945312 20.164062 282.945312 Z M 17.628906 300.757812 L 17.628906 293.792969 L 18.714844 292.890625 L 17.628906 292.890625 L 17.628906 291.351562 L 20.613281 291.351562 C 21.699219 290.449219 22.421875 289.726562 22.691406 289.367188 C 22.964844 289.003906 23.054688 288.734375 23.054688 288.375 L 23.871094 288.375 L 23.871094 295.691406 Z M 17.628906 309.164062 L 17.628906 307.628906 L 19.621094 307.628906 C 20.792969 307.628906 21.605469 307.449219 22.152344 307.085938 C 22.691406 306.636719 23.054688 305.730469 23.054688 304.464844 L 23.871094 304.464844 L 23.871094 311.878906 L 23.054688 311.878906 C 22.875 310.703125 22.605469 309.890625 22.242188 309.621094 C 21.878906 309.347656 21.25 309.164062 20.253906 309.164062 Z M 17.628906 323.363281 L 17.628906 317.847656 L 20.613281 317.847656 C 21.605469 317.847656 22.335938 317.488281 22.691406 316.851562 C 22.875 316.398438 23.054688 315.585938 23.054688 314.589844 L 23.871094 314.589844 L 23.871094 326.617188 L 23.054688 326.617188 C 23.054688 325.625 22.964844 324.898438 22.691406 324.445312 C 22.335938 323.722656 21.699219 323.363281 20.613281 323.363281 Z M 17.628906 338.917969 L 17.628906 333.039062 L 20.613281 331.769531 C 21.605469 331.320312 22.242188 330.960938 22.511719 330.597656 C 22.691406 330.324219 22.875 329.695312 23.054688 328.875 L 23.871094 328.875 L 23.871094 340.453125 L 23.054688 340.453125 C 23.054688 339.28125 22.964844 338.464844 22.785156 338.011719 C 22.605469 337.652344 22.242188 337.46875 21.605469 337.46875 C 21.335938 337.46875 20.886719 337.652344 20.164062 337.917969 C 19.4375 338.195312 18.898438 338.371094 18.625 338.464844 Z M 17.628906 348.316406 L 17.628906 346.78125 L 19.078125 347.324219 C 19.621094 347.59375 20.070312 347.777344 20.433594 347.863281 C 20.792969 347.960938 21.15625 348.046875 21.425781 348.046875 C 22.511719 348.046875 23.054688 347.054688 23.054688 345.0625 L 23.871094 345.0625 L 23.871094 352.390625 L 23.054688 352.390625 C 22.964844 351.480469 22.691406 350.851562 22.335938 350.484375 C 21.972656 350.128906 21.25 349.765625 20.253906 349.3125 Z M 17.628906 370.46875 L 18.261719 370.46875 L 18.261719 369.570312 C 18.082031 369.570312 17.8125 369.476562 17.628906 369.476562 Z M 17.628906 375.265625 L 17.628906 374.269531 C 19.621094 373.820312 20.976562 373.09375 21.699219 371.917969 C 22.421875 370.832031 22.691406 369.027344 22.691406 366.492188 C 22.691406 365.496094 22.605469 364.867188 22.421875 364.507812 C 22.242188 364.140625 21.789062 363.960938 21.15625 363.960938 L 17.628906 363.960938 L 17.628906 358.445312 L 20.613281 358.445312 C 21.605469 358.445312 22.335938 358.171875 22.691406 357.542969 C 22.875 357.089844 23.054688 356.367188 23.054688 355.375 L 23.871094 355.375 L 23.871094 375.265625 Z M 17.628906 399.765625 L 17.628906 393.890625 L 17.8125 393.890625 C 19.53125 393.890625 20.792969 393.527344 21.519531 392.890625 C 22.335938 392.175781 22.691406 391.175781 22.691406 389.730469 C 22.691406 388.828125 22.605469 388.28125 22.511719 388.105469 C 22.335938 387.832031 21.878906 387.738281 21.25 387.652344 L 17.628906 387.652344 L 17.628906 382.046875 L 19.890625 382.046875 C 21.25 382.046875 22.152344 381.773438 22.605469 381.320312 C 22.875 380.863281 23.054688 380.148438 23.054688 379.058594 L 23.871094 379.058594 L 23.871094 390.089844 C 23.871094 393.257812 23.421875 395.605469 22.335938 397.324219 C 21.335938 398.957031 19.804688 399.765625 17.8125 399.765625 Z M 17.628906 421.289062 L 17.628906 420.109375 C 18.898438 419.746094 20.070312 419.117188 21.066406 418.300781 C 22.605469 416.949219 23.421875 415.410156 23.421875 413.601562 C 23.421875 412.605469 23.144531 411.699219 22.511719 410.976562 C 21.972656 410.253906 21.15625 409.894531 20.164062 409.894531 C 19.167969 409.894531 18.445312 410.164062 17.90625 410.613281 C 17.8125 410.707031 17.722656 410.796875 17.628906 410.882812 L 17.628906 406.1875 C 19.890625 406.1875 21.605469 406.910156 22.875 408.445312 C 23.871094 409.804688 24.414062 411.519531 24.414062 413.78125 C 24.414062 414.867188 24.230469 415.949219 23.871094 417.128906 C 23.507812 418.300781 23.328125 419.027344 23.328125 419.117188 C 23.328125 419.566406 23.507812 419.839844 23.871094 420.019531 C 23.960938 420.109375 24.230469 420.199219 24.414062 420.292969 L 24.414062 421.289062 Z M 17.628906 434.9375 L 17.628906 429.332031 L 20.613281 429.332031 C 21.605469 429.332031 22.335938 429.0625 22.691406 428.339844 C 22.875 427.894531 23.054688 427.164062 23.054688 426.167969 L 23.871094 426.167969 L 23.871094 438.191406 L 23.054688 438.191406 C 23.054688 437.199219 22.964844 436.386719 22.691406 435.9375 C 22.335938 435.300781 21.699219 434.9375 20.613281 434.9375 Z M 17.628906 462.425781 L 17.628906 461.34375 C 19.707031 460.976562 21.15625 460.074219 21.972656 458.8125 C 22.511719 457.816406 22.785156 456.546875 22.785156 454.828125 L 17.628906 454.828125 L 17.628906 449.222656 L 22.785156 449.222656 C 22.785156 447.507812 22.511719 446.246094 21.972656 445.339844 C 21.15625 443.980469 19.707031 443.074219 17.628906 442.710938 L 17.628906 441.628906 L 23.871094 441.71875 L 23.871094 462.335938 Z M 17.628906 470.382812 L 21.15625 468.484375 C 21.519531 468.308594 21.789062 468.121094 21.878906 468.027344 C 22.691406 467.398438 23.054688 466.585938 23.054688 465.683594 L 23.871094 465.683594 L 23.871094 477.253906 L 23.054688 477.253906 C 23.054688 476.078125 22.964844 475.261719 22.875 474.902344 C 22.691406 474.636719 22.421875 474.453125 21.878906 474.453125 C 21.699219 474.453125 21.335938 474.542969 20.886719 474.816406 C 20.433594 474.992188 20.164062 475.175781 19.976562 475.261719 L 17.628906 476.441406 Z M 23.871094 489.191406 L 23.054688 489.191406 C 22.964844 488.554688 22.785156 488.011719 22.605469 487.742188 C 22.421875 487.382812 22.152344 487.109375 21.699219 486.839844 L 17.628906 484.394531 L 17.628906 482.769531 L 18.355469 483.222656 C 18.714844 483.492188 19.167969 483.765625 19.707031 483.941406 C 20.523438 484.308594 21.15625 484.578125 21.519531 484.578125 C 22.152344 484.578125 22.511719 484.308594 22.691406 483.765625 C 22.964844 483.3125 23.054688 482.589844 23.054688 481.683594 L 23.871094 481.683594 Z M 23.871094 489.191406 "/>
</g>
</g>
</svg>
