<?xml version="1.0" encoding="UTF-8"?>
<svg xmlns="http://www.w3.org/2000/svg" xmlns:xlink="http://www.w3.org/1999/xlink" width="184pt" height="125pt" viewBox="0 0 184 125" version="1.2">
<defs>
<clipPath id="clip1">
  <path d="M 0 0.828125 L 183.011719 0.828125 L 183.011719 125 L 0 125 Z M 0 0.828125 "/>
</clipPath>
</defs>
<g id="surface1">
<g clip-path="url(#clip1)" clip-rule="nonzero">
<path style=" stroke:none;fill-rule:evenodd;fill:rgb(13.33313%,9.411621%,8.235168%);fill-opacity:1;" d="M 97.378906 96.152344 C 97.109375 96.035156 96.84375 95.921875 96.578125 95.808594 C 95.734375 96.210938 94.191406 95.625 93.15625 96.035156 C 92.097656 96.464844 90.855469 97.664062 90.195312 98.546875 C 90.679688 99.160156 90.929688 99.746094 90.992188 100.828125 C 91.882812 101.171875 92.460938 102.109375 93.839844 102.308594 C 94.625 101.410156 95.671875 99.332031 97.035156 99.113281 C 96.917969 98.066406 97.242188 97.3125 97.378906 96.265625 Z M 170.238281 99.460938 C 169.78125 99.800781 169.328125 100.144531 168.871094 100.484375 C 168.679688 100.332031 168.488281 100.179688 168.300781 100.027344 C 168.695312 97.949219 170.695312 96.816406 171.492188 95.011719 C 170.894531 93.691406 169.632812 92.773438 167.613281 92.84375 C 165.894531 93.777344 159.441406 97.125 157.695312 97.179688 C 157.617188 97.367188 157.542969 97.558594 157.464844 97.75 C 157.695312 98.015625 157.921875 98.277344 158.152344 98.546875 C 162.167969 99.460938 163.914062 96.507812 166.472656 95.351562 L 166.589844 95.351562 C 167.105469 97.230469 164.457031 100.054688 162.941406 100.371094 C 162.75 100.964844 162.910156 100.851562 163.28125 101.398438 C 161.546875 103.316406 151.796875 103.914062 150.511719 106.300781 C 150.1875 107.847656 153.730469 109.960938 155.414062 109.605469 C 157.398438 109.191406 157.980469 107.707031 159.40625 106.871094 C 161.050781 105.898438 162.125 105.542969 164.308594 104.929688 C 164.382812 104.96875 164.460938 105.007812 164.539062 105.046875 C 165.632812 106.980469 164.789062 111.738281 163.28125 112.914062 C 161.410156 113.164062 160.351562 112.601562 158.949219 112.230469 C 158.796875 112.34375 158.644531 112.457031 158.492188 112.570312 C 158.621094 113.289062 158.648438 113.902344 158.492188 114.625 C 158.898438 115.410156 159.800781 115.523438 160.546875 115.992188 C 163.90625 118.09375 167.582031 116.164062 168.640625 112.800781 C 169.519531 110 168.757812 106.261719 168.984375 103.90625 C 171.332031 102.691406 174.222656 103.574219 177.191406 103.335938 C 177.574219 102.878906 177.953125 102.421875 178.332031 101.96875 C 178.539062 98.757812 173.273438 98.441406 170.238281 99.460938 M 127.820312 97.75 C 127.667969 97.632812 127.519531 97.519531 127.363281 97.402344 C 127.402344 97.179688 127.441406 96.949219 127.480469 96.722656 C 129.050781 96.265625 129.878906 96.09375 130.558594 94.78125 L 130.667969 94.78125 C 131.46875 96.003906 129.007812 97.539062 127.820312 97.75 M 136.941406 95.464844 C 137.839844 93.421875 134.667969 92.273438 132.722656 92.386719 C 131.585938 92.617188 130.441406 92.84375 129.304688 93.070312 C 126.199219 94.175781 125.402344 94.699219 121.207031 95.011719 C 120.980469 95.390625 120.75 95.769531 120.523438 96.152344 C 121.074219 97.816406 121.621094 101.09375 122.917969 102.082031 C 123.871094 102.804688 126.285156 103.8125 127.707031 102.996094 C 128.199219 102.535156 128.695312 102.082031 129.1875 101.625 C 130.632812 101.148438 132.070312 102.433594 133.179688 100.484375 C 133.605469 99.738281 133.324219 98.675781 133.863281 98.089844 C 134.773438 97.109375 136.226562 96.648438 136.941406 95.464844 M 104.105469 90.675781 C 103.570312 90.867188 103.039062 91.058594 102.507812 91.25 C 102.054688 91.9375 101.769531 92.367188 101.824219 93.300781 C 101.445312 93.378906 101.0625 93.453125 100.683594 93.527344 C 100.429688 93.933594 100.328125 94.140625 100.339844 94.898438 C 103.070312 95.96875 105.074219 98.261719 108.777344 98.203125 C 111.792969 94.464844 107.425781 91.59375 104.105469 90.675781 M 62.140625 95.921875 C 61.875 96.1875 61.609375 96.457031 61.34375 96.722656 C 58.292969 93.835938 59.453125 92.898438 60.203125 89.082031 C 60.460938 87.773438 60.226562 86.132812 60.429688 85.089844 C 61.5 84.886719 61.972656 85.425781 62.941406 84.859375 C 63.472656 84.9375 64.003906 85.015625 64.539062 85.089844 C 64.574219 85.28125 64.613281 85.46875 64.652344 85.660156 C 63.664062 87.511719 59.925781 89.992188 60.429688 92.5 L 60.429688 92.84375 C 62.441406 92.730469 63.632812 91.988281 65.222656 91.703125 C 65.046875 93.050781 63.148438 95.292969 62.140625 95.921875 M 61.914062 104.25 C 61.875 104.207031 61.839844 104.171875 61.800781 104.132812 C 61.960938 103.066406 62.496094 102.875 62.597656 101.738281 C 61.144531 101.632812 60.167969 103.238281 59.175781 104.019531 C 58.832031 103.636719 58.679688 100.566406 59.0625 99.800781 C 59.496094 98.9375 60.714844 98.550781 61.230469 97.519531 C 62.285156 97.609375 63.664062 97.976562 64.421875 98.429688 C 64.257812 99.269531 63.933594 99.210938 63.851562 100.144531 C 65.140625 101.691406 64.464844 104.3125 61.914062 104.25 M 54.386719 100.484375 C 54.140625 100.652344 54.289062 100.726562 53.933594 100.597656 C 52.996094 100.253906 51.757812 99.296875 50.28125 99.800781 C 49.703125 100 49.570312 100.453125 48.800781 100.597656 C 48.472656 100.027344 48.316406 99.542969 48.34375 98.546875 C 49.125 97.871094 49.722656 97.054688 50.511719 96.378906 C 51.566406 96.734375 54.019531 98.003906 54.617188 98.886719 C 54.804688 99.347656 54.617188 100.074219 54.386719 100.484375 M 46.519531 92.386719 C 46.445312 92.351562 46.371094 92.3125 46.292969 92.273438 C 46.171875 91.476562 46.097656 90.789062 46.40625 90.109375 C 46.84375 88.972656 47.777344 88.921875 48.6875 88.28125 C 48.878906 88.320312 49.066406 88.359375 49.257812 88.398438 C 49.4375 89.816406 47.648438 91.878906 46.519531 92.386719 M 50.511719 93.527344 C 50.753906 93.796875 50.671875 93.652344 50.625 93.984375 C 50.40625 94.328125 50.605469 94.175781 50.167969 94.328125 L 50.054688 94.328125 C 50.019531 94.25 49.980469 94.175781 49.941406 94.101562 C 50.257812 93.898438 50.3125 93.851562 50.511719 93.527344 M 73.546875 101.96875 C 72.015625 101.367188 70.261719 102.378906 68.640625 102.421875 C 68.320312 101.496094 68.410156 100.007812 68.300781 98.886719 C 69.265625 97.917969 70.414062 98.011719 70.695312 96.265625 C 70.390625 95.886719 70.085938 95.503906 69.78125 95.125 C 69.136719 95.050781 68.488281 94.972656 67.84375 94.898438 C 67.804688 94.859375 67.769531 94.820312 67.730469 94.78125 C 68.058594 91.824219 70.839844 91.429688 71.722656 88.96875 C 71.257812 88.167969 70.992188 87.664062 69.894531 87.484375 C 68.148438 87.140625 66.371094 89.042969 64.652344 89.3125 C 65.949219 83.585938 69.714844 86.175781 71.492188 82.921875 C 71.339844 82.277344 71.1875 81.632812 71.039062 80.984375 C 68.898438 80.644531 62.414062 82.582031 60.660156 83.496094 C 58.847656 81.328125 58.296875 81.1875 55.644531 82.238281 C 54.328125 86.339844 56.085938 90.78125 54.960938 95.011719 C 54.085938 95.390625 53.210938 95.769531 52.335938 96.152344 L 51.996094 96.152344 C 52.261719 95.128906 52.847656 95.28125 52.90625 93.984375 C 52.40625 93.328125 51.492188 93.238281 50.625 92.960938 C 51.167969 90.589844 53.75 90.601562 53.816406 87.484375 C 50.910156 84.554688 49.3125 87.296875 46.75 88.28125 L 46.636719 88.28125 C 46.171875 86.371094 48.09375 84.359375 49.714844 84.0625 C 50.28125 81.914062 50.863281 80.6875 52.90625 80.074219 C 52.71875 79.5625 52.769531 79.636719 52.105469 79.621094 C 49.601562 81.066406 46.664062 81.53125 43.898438 82.582031 C 42.90625 82.960938 42.539062 83.652344 41.277344 83.835938 C 40.03125 85.539062 40.519531 87.433594 42.1875 88.511719 C 42.125 90.789062 40.621094 92.402344 41.503906 95.011719 C 41.699219 95.589844 42.230469 95.6875 42.417969 96.492188 C 41.632812 97.457031 40.71875 98.355469 39.90625 99.34375 C 39.945312 99.609375 39.984375 99.875 40.023438 100.144531 C 40.972656 100.546875 41.660156 99.886719 42.300781 99.34375 C 42.605469 99.421875 42.910156 99.496094 43.214844 99.574219 C 43.488281 103.386719 39.019531 104.988281 39.449219 109.035156 C 41.203125 108.863281 42.039062 107.90625 43.671875 107.667969 C 43.75 107.78125 43.824219 107.894531 43.898438 108.011719 C 45.574219 111.519531 42.3125 117.136719 39.792969 118.15625 C 40.183594 118.84375 42.320312 117.8125 43.214844 118.042969 C 47.289062 119.09375 49.191406 112.695312 49.941406 109.488281 L 49.941406 104.589844 C 50.574219 103.628906 52.082031 103.691406 53.132812 103.21875 C 54.519531 104.242188 52.261719 108.863281 51.765625 109.71875 C 51.917969 110.40625 52.070312 111.089844 52.222656 111.773438 C 52.890625 111.832031 53.65625 111.003906 54.046875 110.40625 C 54.425781 110.480469 54.808594 110.554688 55.1875 110.632812 C 56.355469 109.746094 57.222656 108.558594 57.695312 106.980469 C 57.964844 106.820312 63.199219 106.5 63.964844 106.640625 C 65.3125 109.277344 63.757812 120.921875 63.511719 123.632812 C 64.730469 123.882812 66.132812 124.480469 67.273438 125 C 67.910156 123.894531 67.570312 122.617188 67.84375 121.011719 C 68.734375 115.777344 67.566406 110.605469 68.527344 105.617188 C 70.390625 105.5 72.25 105.386719 74.117188 105.273438 C 74.527344 104.730469 74.9375 104.457031 75.027344 103.5625 C 74.542969 103.035156 74.226562 102.300781 73.546875 101.96875 M 24.96875 84.75 C 25.917969 83.96875 26.039062 82.429688 27.136719 81.785156 C 28.601562 80.925781 30.460938 81.855469 31.8125 80.984375 C 32.628906 80.453125 32.683594 78.46875 32.269531 77.679688 C 31.464844 77.523438 31.222656 77.703125 30.671875 78.023438 C 30.367188 77.679688 30.0625 77.335938 29.757812 76.996094 C 29.378906 76.957031 29 76.917969 28.621094 76.882812 C 26.792969 77.65625 20.980469 78.402344 20.183594 79.730469 C 19.554688 81.257812 21.484375 84.070312 22.464844 84.519531 C 23.292969 84.90625 24.292969 84.730469 24.96875 84.75 M 17.21875 90.792969 C 16.988281 90.753906 16.761719 90.71875 16.535156 90.675781 C 16.226562 87.988281 15.128906 86.078125 12.199219 85.546875 C 12.085938 85.394531 11.972656 85.242188 11.855469 85.089844 C 12.523438 84.335938 13.824219 83.253906 13.796875 82.238281 C 16.339844 83.398438 19.851562 81.371094 18.699219 78.25 C 18.050781 76.496094 14.542969 75.007812 12.085938 75.058594 C 11.183594 75.851562 10.863281 76.792969 10.148438 77.792969 C 8.398438 79.960938 6.648438 82.125 4.902344 84.292969 C 4.109375 85.507812 3.683594 86.894531 5.132812 87.714844 C 6.644531 87.59375 7.839844 86.757812 9.464844 87.484375 L 9.691406 87.484375 C 9.304688 90.832031 4.5625 94.785156 2.847656 97.289062 C 1.796875 98.835938 1.433594 100.601562 0 101.738281 C 0.0390625 101.929688 0.0742188 102.117188 0.113281 102.308594 C 2.28125 103.179688 2.976562 98.851562 4.21875 97.863281 C 4.53125 98.1875 4.53125 98.726562 4.902344 99.003906 C 5.308594 99.394531 5.203125 99.257812 5.699219 99.003906 C 5.8125 99.039062 5.925781 99.078125 6.042969 99.113281 C 5.851562 99.574219 5.664062 100.027344 5.472656 100.484375 C 6.273438 101.101562 7.03125 100.199219 7.410156 99.6875 C 7.488281 99.722656 7.5625 99.761719 7.640625 99.800781 C 8.796875 106.671875 4.679688 110.980469 11.058594 114.054688 C 14.066406 112.417969 12.261719 107.015625 12.542969 103.21875 C 12.808594 101.585938 13.074219 99.949219 13.339844 98.316406 C 13.128906 97.234375 12.167969 96.152344 11.402344 95.578125 L 11.402344 94.78125 C 12.054688 93.917969 13.257812 92.765625 14.367188 92.386719 C 16.179688 94.519531 15.515625 97.433594 19.609375 97.402344 C 21.9375 95.164062 22.539062 94.65625 25.542969 93.527344 C 25.617188 93.566406 25.691406 93.605469 25.769531 93.640625 C 26.414062 96.621094 26.136719 106.109375 24.96875 108.351562 C 24.289062 109.363281 22.402344 109.488281 21.09375 109.265625 C 21.21875 110.25 20.980469 110.867188 20.753906 111.660156 C 21.667969 113.433594 28.980469 116.800781 30.445312 113.484375 C 31.226562 111.699219 31.855469 97.222656 31.242188 94.667969 C 30.863281 93.871094 30.480469 93.070312 30.101562 92.273438 C 30.90625 91.515625 38.746094 93.269531 36.714844 89.3125 C 34.238281 84.292969 21.203125 89.402344 17.21875 90.792969 M 70.351562 74.375 C 69.363281 74.449219 68.375 74.523438 67.386719 74.597656 C 65.953125 74.988281 65.078125 75.777344 64.082031 76.539062 L 64.082031 76.769531 C 65.355469 78.402344 70.015625 78.808594 71.832031 78.820312 C 72.269531 78.3125 72.847656 78.035156 73.203125 77.453125 C 72.832031 76.28125 72.40625 75.722656 71.949219 74.714844 C 71.417969 74.597656 70.882812 74.488281 70.351562 74.375 M 87.683594 79.503906 C 87.875 79.351562 88.0625 79.195312 88.253906 79.046875 L 88.710938 79.046875 C 88.9375 80.019531 88.925781 82.273438 88.140625 82.921875 C 87.644531 82.886719 87.609375 82.859375 87.34375 82.699219 C 87.457031 81.632812 87.570312 80.570312 87.683594 79.503906 M 88.027344 87.597656 L 88.027344 87.828125 L 87.910156 87.828125 C 87.835938 87.789062 87.761719 87.753906 87.683594 87.714844 C 87.796875 87.332031 87.910156 86.953125 88.027344 86.574219 Z M 95.324219 76.425781 L 95.4375 76.425781 C 95.902344 76.8125 96.382812 76.488281 97.488281 76.425781 C 97.527344 76.5 97.566406 76.578125 97.601562 76.652344 C 97.222656 77.753906 96.84375 78.855469 96.464844 79.960938 C 95.644531 80.464844 94.121094 80.289062 93.042969 80.757812 C 92.558594 80.714844 92.59375 80.769531 92.359375 80.527344 C 92.207031 79.691406 92.054688 78.855469 91.902344 78.023438 C 92.707031 77.121094 94.449219 77.246094 95.324219 76.425781 M 92.246094 86.34375 C 92.167969 86.269531 92.09375 86.191406 92.015625 86.117188 L 92.015625 84.519531 C 92.550781 84.0625 93.078125 83.609375 93.613281 83.152344 C 93.839844 83.113281 94.066406 83.078125 94.296875 83.039062 L 94.753906 83.039062 C 94.789062 83.078125 94.832031 83.113281 94.867188 83.152344 C 94.554688 84.957031 94.046875 85.96875 92.246094 86.34375 M 99.425781 98.316406 C 98.460938 98.039062 97.914062 99.03125 97.144531 99.230469 C 103.226562 105.21875 87.605469 105.074219 86.316406 102.421875 C 85.816406 100.523438 89.429688 98.128906 90.308594 96.835938 C 91.027344 95.546875 91.753906 94.25 92.472656 92.960938 C 93.878906 91.417969 95.386719 91.152344 97.265625 89.992188 C 98.878906 88.996094 101.613281 84.488281 102.621094 82.699219 C 103.34375 81.414062 104.554688 79.929688 104.902344 78.589844 C 105.703125 75.527344 102.578125 73.691406 100.113281 73.6875 C 98.386719 74.5 96.214844 74.121094 94.066406 74.597656 C 91.316406 75.21875 88.726562 76.101562 86.429688 77.109375 C 85.53125 76.589844 84.914062 75.335938 83.808594 75.171875 C 77.597656 74.242188 79.53125 87.328125 81.183594 90.792969 C 82.558594 93.671875 83.722656 93.21875 86.542969 94.214844 L 86.773438 94.214844 L 86.773438 94.554688 C 85.515625 95.960938 84.261719 97.367188 83.007812 98.773438 C 81.511719 100.75 80.023438 103.160156 77.992188 104.589844 C 77.90625 106.070312 78.164062 107.09375 79.359375 107.554688 C 80.160156 107.667969 80.957031 107.78125 81.753906 107.894531 C 82.503906 107.335938 83.40625 106.488281 83.808594 105.617188 C 83.921875 105.542969 84.035156 105.464844 84.148438 105.386719 C 85.585938 106.308594 86.066406 108.085938 87.796875 108.808594 C 91.792969 110.476562 95.722656 108.941406 99.3125 108.238281 C 101.558594 107.796875 104.273438 107.855469 105.355469 106.300781 C 108.132812 102.320312 102.269531 99.136719 99.425781 98.316406 M 140.019531 77.792969 C 138.046875 78.515625 136.070312 79.238281 134.09375 79.960938 C 133.695312 79.113281 134.167969 77.101562 134.660156 76.3125 C 135.328125 75.441406 137.109375 75.394531 138.195312 74.941406 C 139.664062 75.34375 140.105469 75.90625 140.019531 77.792969 M 139.792969 81.671875 C 139.558594 82 133.21875 84.734375 132.835938 84.636719 C 132.523438 84.457031 132.566406 84.472656 132.382812 84.179688 C 132.535156 83.796875 132.683594 83.421875 132.835938 83.039062 C 134.453125 81.949219 136.722656 81.679688 138.769531 80.757812 C 139.109375 80.796875 139.453125 80.835938 139.792969 80.875 Z M 119.953125 81.898438 C 119.875 81.820312 119.800781 81.746094 119.722656 81.671875 L 119.722656 81.328125 C 120.523438 80.695312 121.488281 80.183594 121.550781 78.820312 L 121.550781 77.109375 C 122.042969 76.464844 122.535156 75.816406 123.035156 75.171875 L 123.832031 75.171875 C 123.804688 78.183594 122.636719 81.382812 119.953125 81.898438 M 119.496094 88.054688 C 118.339844 86.574219 120.039062 84.882812 120.636719 84.292969 C 120.941406 84.476562 120.796875 84.328125 120.980469 84.636719 C 121.449219 85.855469 120.3125 87.621094 119.496094 88.054688 M 135.6875 73.574219 C 134.929688 73.917969 134.167969 74.257812 133.410156 74.597656 C 131.785156 74.925781 130.628906 73.34375 129.757812 75.28125 C 127.894531 74.53125 128.234375 72.527344 124.742188 72.546875 C 122.382812 73.78125 116.476562 74.699219 115.050781 76.539062 C 114.136719 77.710938 114.222656 82.878906 114.367188 84.75 C 115.074219 94.078125 113.800781 103.480469 115.621094 112.230469 C 115.808594 112.382812 116 112.53125 116.191406 112.6875 C 117.71875 112.703125 118.441406 112.964844 119.609375 112.6875 C 121.179688 111.851562 120.003906 108.328125 119.609375 106.183594 C 118.773438 101.617188 118.660156 96.226562 119.269531 91.363281 C 121.15625 90.339844 123.730469 89.25 124.855469 87.484375 C 124.894531 86.460938 124.933594 85.433594 124.96875 84.40625 C 125.671875 81.78125 127.328125 78.597656 129.078125 76.882812 L 129.1875 76.882812 C 129.265625 76.957031 129.339844 77.03125 129.417969 77.109375 C 129.097656 80.214844 129.210938 84.5 127.933594 87.484375 C 128.125 87.828125 128.316406 88.171875 128.503906 88.511719 C 130.246094 89.375 132.730469 89.238281 133.863281 87.828125 C 134.128906 87.410156 134.394531 86.988281 134.660156 86.574219 C 136.046875 85.835938 137.671875 85.847656 138.878906 85.203125 C 139.558594 85.304688 139.449219 85.425781 139.90625 85.660156 C 139.835938 89 139.472656 92.175781 139.109375 95.578125 C 138.742188 99.007812 139.617188 104.964844 137.96875 108.351562 C 136.75 108.292969 135.523438 108.035156 134.546875 107.894531 C 134.394531 108.011719 134.246094 108.121094 134.09375 108.238281 C 134.554688 111.039062 140.808594 114.441406 142.984375 111.203125 C 143.289062 108.695312 143.59375 106.183594 143.898438 103.675781 C 145.09375 97.488281 143.730469 90.488281 144.582031 84.519531 C 144.941406 81.996094 145.835938 76.523438 145.265625 74.488281 C 142.761719 72.867188 139.015625 72.519531 135.6875 73.574219 M 53.476562 77.910156 C 55.203125 75.597656 51.136719 71.972656 48.6875 71.976562 C 48.140625 72.511719 44.996094 72.933594 43.671875 73.007812 C 43.632812 73.082031 43.59375 73.15625 43.554688 73.230469 C 43.953125 74.214844 43.898438 74.613281 43.671875 75.628906 C 44.933594 77.835938 51.363281 80.734375 53.476562 77.910156 M 172.632812 82.011719 C 171.761719 83.175781 168.992188 82.210938 168.414062 83.722656 C 169.207031 85.015625 170.191406 84.339844 171.378906 84.976562 C 171.492188 85.050781 171.605469 85.128906 171.71875 85.203125 C 171.53125 85.886719 171.339844 86.574219 171.152344 87.257812 C 170.960938 87.332031 170.769531 87.410156 170.578125 87.484375 C 169.65625 87.695312 167.605469 85.636719 167.160156 84.859375 C 167.253906 83.226562 168.25 82.367188 168.527344 80.875 C 168.679688 80.050781 168.140625 79.996094 168.183594 79.390625 C 169.957031 79.957031 169.882812 81.371094 172.632812 81.328125 Z M 164.648438 83.152344 C 164.308594 82.960938 163.964844 82.773438 163.625 82.582031 C 163.546875 82.394531 163.472656 82.199219 163.394531 82.011719 C 164.539062 80.984375 165.675781 79.960938 166.816406 78.933594 C 166.96875 78.972656 167.121094 79.011719 167.273438 79.046875 C 167.3125 79.238281 167.347656 79.429688 167.386719 79.621094 C 166.238281 80.597656 165.800781 82.195312 164.648438 83.152344 M 165.335938 88.738281 C 164.539062 89.042969 163.738281 89.347656 162.941406 89.648438 L 162.828125 89.648438 C 162.789062 89.425781 162.75 89.195312 162.710938 88.96875 C 163.320312 88.625 163.925781 88.28125 164.539062 87.941406 L 165.21875 87.941406 C 165.394531 88.316406 165.347656 88.367188 165.335938 88.738281 M 161.914062 87.828125 C 161.328125 87.164062 160.972656 85.988281 161.003906 84.75 C 161.117188 84.636719 161.230469 84.519531 161.34375 84.40625 C 162.136719 84.671875 162.441406 85.125 162.941406 85.660156 C 163.035156 86.476562 162.609375 87.4375 161.914062 87.828125 M 157.582031 87.941406 C 157.503906 87.980469 157.429688 88.015625 157.351562 88.054688 C 156.984375 86.476562 156.703125 83.875 157.464844 82.355469 C 158.429688 83.339844 157.796875 86.722656 157.582031 87.941406 M 157.582031 93.300781 L 157.582031 92.960938 C 157.808594 93.164062 157.664062 92.957031 157.808594 93.300781 Z M 175.710938 86.914062 C 174.5625 84.285156 179.027344 77.140625 178.5625 74.488281 C 176.5 72.507812 173.21875 74.183594 170.921875 74.832031 C 170.882812 74.980469 170.84375 75.132812 170.808594 75.28125 C 171.34375 76.03125 172.070312 76.609375 173.199219 76.769531 C 173.386719 77.339844 173.382812 78.394531 173.085938 78.820312 C 172.929688 79.035156 173.078125 78.886719 172.859375 79.046875 C 172.257812 79.328125 170.910156 79.367188 170.238281 79.164062 C 169.792969 76.386719 169.5625 77.449219 168.527344 75.515625 C 169.058594 74.597656 169.59375 73.6875 170.121094 72.773438 C 170.085938 72.433594 170.046875 72.09375 170.011719 71.75 C 169.140625 71.089844 168.691406 70.566406 167.046875 70.609375 C 166.851562 70.683594 166.664062 70.761719 166.472656 70.835938 C 166.058594 71.597656 165.636719 72.359375 165.21875 73.121094 C 164.082031 73.042969 162.941406 72.96875 161.800781 72.890625 C 161.6875 73.042969 161.570312 73.195312 161.457031 73.34375 C 162.042969 74.539062 163.199219 75.1875 163.394531 76.652344 C 163.03125 77.402344 162.761719 78.527344 161.914062 78.820312 C 161.507812 76.996094 161.578125 75.351562 160.886719 73.917969 C 159.644531 73.421875 159.0625 73.082031 157.582031 73.460938 C 157.503906 73.609375 157.429688 73.765625 157.351562 73.917969 C 156.726562 75.574219 158.214844 77.386719 157.582031 79.046875 C 157.242188 79.292969 157.554688 79.179688 157.125 79.046875 C 157.160156 79.273438 157.199219 79.503906 157.238281 79.730469 C 157.160156 79.808594 157.085938 79.886719 157.011719 79.960938 C 157.085938 78.234375 156.738281 77.109375 155.414062 76.769531 C 155.1875 75.535156 153.589844 75.816406 152.449219 76.082031 C 151.859375 76.398438 151.113281 77.144531 150.851562 77.792969 C 150.8125 77.871094 150.777344 77.945312 150.738281 78.023438 C 150.570312 79.578125 151.910156 81.6875 152.335938 83.039062 C 152.5625 85.015625 152.792969 86.988281 153.019531 88.96875 C 153.25 89.722656 153.820312 90.050781 154.273438 90.566406 C 155.65625 90.351562 156.625 89.152344 157.464844 88.511719 C 157.851562 89.144531 157.890625 90.617188 157.921875 91.589844 C 156.328125 92.464844 154.730469 93.339844 153.132812 94.214844 C 152.15625 93.511719 151.191406 92.664062 149.941406 92.273438 C 148.09375 93.648438 148.203125 98.34375 148.914062 100.597656 C 149.9375 101.285156 152.433594 101.5625 153.132812 100.027344 C 153.097656 99.34375 153.058594 98.65625 153.019531 97.976562 C 156.792969 94.039062 167.957031 89.152344 175.253906 89.3125 C 175.902344 90.832031 174.3125 91.957031 174.226562 93.640625 C 174.773438 93.777344 174.960938 93.851562 175.253906 94.214844 C 177.492188 94.015625 181.265625 91.859375 181.640625 89.425781 C 180.269531 87.765625 178.261719 87.433594 175.710938 86.914062 M 8.78125 51 C 8.859375 50.621094 8.382812 49.144531 8.09375 48.488281 L 8.09375 48.261719 L 7.066406 48.261719 C 4.71875 49.667969 3.78125 47.472656 2.394531 50.539062 C 3.28125 52.050781 7.957031 53.378906 8.78125 51 M 46.636719 26.9375 C 47.054688 26.632812 47.472656 26.328125 47.890625 26.027344 C 48.117188 26.101562 48.34375 26.179688 48.574219 26.253906 C 48.535156 26.9375 48.5 27.625 48.457031 28.308594 L 48.457031 28.535156 C 47.925781 28.460938 47.394531 28.382812 46.863281 28.308594 C 46.679688 27.859375 46.402344 27.511719 46.636719 26.9375 M 48.230469 35.035156 C 47.851562 35.1875 47.472656 35.339844 47.09375 35.492188 C 46.875 34.753906 46.980469 33.597656 47.203125 32.980469 C 47.472656 32.675781 47.738281 32.375 48.003906 32.070312 L 48.457031 32.070312 C 48.832031 32.875 48.476562 34.207031 48.230469 35.035156 M 43.898438 40.28125 C 47.226562 41.242188 51.722656 37.777344 53.132812 35.945312 C 53.667969 34.121094 54.199219 32.296875 54.730469 30.476562 C 54.953125 29.207031 54.078125 27.851562 54.386719 26.253906 C 54.84375 23.910156 55.917969 19.671875 54.960938 17.703125 C 54.164062 16.238281 51.964844 15.453125 49.601562 15.535156 C 46.875 16.902344 44.351562 17.023438 42.53125 19.183594 C 42.726562 19.441406 42.445312 19.589844 42.988281 19.527344 C 44.96875 19.292969 46.058594 18.375 48.003906 19.070312 C 48.261719 20.21875 48.714844 21.890625 48.34375 23.175781 C 47.316406 25.960938 43.675781 24.28125 41.164062 24.65625 C 39.214844 28.046875 41.085938 39.515625 43.898438 40.28125 M 132.382812 36.515625 C 132.898438 35.414062 134.179688 35.660156 135.003906 35.148438 C 135.460938 35.253906 135.578125 35.007812 135.800781 34.578125 C 136.90625 35.320312 136.667969 37.011719 136.371094 38.113281 C 135.039062 38.292969 133.960938 38.324219 132.609375 38.796875 C 132.132812 38.359375 131.992188 37.152344 132.382812 36.515625 M 135.003906 43.585938 C 134.167969 43.738281 133.332031 43.886719 132.496094 44.042969 C 132.03125 42.875 132.101562 41.726562 132.609375 40.738281 C 133.691406 40.410156 134.613281 40.464844 135.460938 39.824219 C 135.613281 39.859375 135.765625 39.902344 135.914062 39.9375 C 136.972656 40.679688 135.53125 42.925781 135.003906 43.585938 M 125.425781 44.15625 C 125.464844 44.042969 125.503906 43.929688 125.539062 43.8125 C 126.804688 43.589844 127.722656 43.355469 128.390625 42.558594 C 128.660156 42.597656 128.921875 42.636719 129.1875 42.671875 C 129.265625 43.511719 129.339844 44.347656 129.417969 45.183594 C 127.3125 46.5625 126.121094 46.765625 125.425781 44.15625 M 124.054688 39.140625 C 124.597656 38.511719 126.886719 38 127.820312 37.882812 C 127.933594 37.695312 128.046875 37.503906 128.164062 37.316406 C 128.316406 37.351562 128.464844 37.390625 128.621094 37.429688 C 128.769531 38.339844 128.921875 39.253906 129.078125 40.164062 C 128.570312 40.921875 126.148438 42.460938 125.3125 42.332031 C 124.441406 41.792969 124.332031 40.277344 124.054688 39.140625 M 123.601562 37.429688 L 123.488281 37.429688 C 123.773438 34.640625 127.046875 33.066406 127.933594 30.476562 C 128.125 30.511719 128.316406 30.550781 128.503906 30.589844 L 128.503906 34.121094 C 127.683594 35.5625 125.078125 36.613281 123.601562 37.429688 M 127.707031 24.085938 C 127.820312 24.238281 127.933594 24.390625 128.046875 24.546875 C 128.011719 24.734375 127.972656 24.925781 127.933594 25.113281 C 127.75 25.417969 127.898438 25.273438 127.59375 25.457031 C 127.367188 25.636719 127.4375 25.613281 127.019531 25.683594 C 126.984375 25.53125 126.945312 25.378906 126.910156 25.226562 C 127.175781 24.847656 127.441406 24.46875 127.707031 24.085938 M 121.09375 38.113281 C 121.132812 38.039062 121.167969 37.960938 121.207031 37.882812 L 121.433594 37.882812 C 121.230469 38.113281 121.4375 37.96875 121.09375 38.113281 M 144.125 30.246094 C 144.203125 29.980469 144.28125 29.710938 144.355469 29.445312 C 141.992188 26.65625 137.296875 27.171875 132.496094 26.9375 C 132.3125 26.679688 132.285156 26.742188 132.15625 26.367188 C 133.710938 24.375 138.523438 25.039062 140.707031 25.683594 C 140.855469 25.648438 141.011719 25.605469 141.160156 25.570312 C 141.601562 24.859375 141.6875 24.460938 141.617188 23.402344 C 139.726562 20.832031 135.667969 22.636719 133.292969 23.519531 C 133.140625 23.480469 132.988281 23.441406 132.835938 23.402344 C 133.089844 22.507812 136.140625 19.707031 136.941406 18.84375 C 136.90625 18.652344 136.867188 18.464844 136.828125 18.273438 C 135.390625 14.953125 133.054688 19.722656 132.382812 20.78125 L 131.925781 20.78125 C 131.648438 19.628906 131.085938 19.121094 130.785156 18.046875 C 131.375 17.273438 132.402344 16.796875 133.179688 16.21875 C 133.070312 14.410156 131.757812 13.15625 129.871094 13.144531 C 128.429688 14.664062 126.984375 16.183594 125.539062 17.703125 C 125.578125 18.351562 125.617188 18.996094 125.65625 19.640625 C 126.421875 20.085938 127.304688 20.320312 127.707031 20.894531 C 126.824219 22.695312 123.371094 24.222656 120.980469 24.429688 C 120.941406 24.546875 120.902344 24.65625 120.867188 24.773438 C 121.457031 25.84375 122.066406 26.714844 123.375 27.050781 C 123.449219 27.242188 123.523438 27.433594 123.601562 27.625 C 121.839844 30.085938 117.800781 30.503906 115.847656 32.753906 C 115.5625 33.160156 115.527344 33.382812 115.960938 33.664062 C 116.183594 34.226562 116.648438 34.195312 117.214844 34.351562 C 119.84375 32.988281 121.617188 30.824219 124.285156 29.5625 L 124.398438 29.5625 C 124.175781 31.535156 119.554688 37.707031 118.128906 38.796875 C 118.089844 38.910156 118.054688 39.023438 118.015625 39.140625 C 118.925781 38.910156 119.839844 38.679688 120.75 38.457031 C 121.09375 38.679688 121.433594 38.910156 121.777344 39.140625 C 122.550781 42.664062 121.796875 46.667969 123.832031 49.285156 C 124.644531 49.1875 125.9375 49.371094 126.796875 49.171875 C 127.519531 48.753906 128.238281 48.339844 128.960938 47.917969 C 130.976562 46.867188 135.976562 46.121094 137.628906 46.4375 C 138.234375 45.636719 138.84375 44.839844 139.453125 44.042969 C 139.753906 42.980469 140.058594 41.914062 140.363281 40.847656 C 141.660156 38.097656 144.816406 35.222656 140.59375 32.867188 C 139.761719 32.402344 138.425781 31.539062 136.941406 31.84375 C 135.796875 32.078125 133.675781 32.40625 132.609375 32.640625 C 132.058594 31.664062 132.042969 29.742188 132.042969 28.421875 C 132.117188 28.34375 132.191406 28.269531 132.265625 28.191406 C 136.570312 28.601562 139.179688 32.554688 144.125 30.246094 M 61.457031 28.421875 C 62.40625 28.179688 64.242188 28.488281 64.996094 28.078125 C 65.71875 28.128906 66.203125 28.175781 66.816406 28.421875 C 67.222656 29.253906 67.097656 30.75 66.929688 31.613281 C 66.128906 32.011719 65 32.808594 64.308594 32.980469 C 63.402344 33.214844 62.613281 32.632812 61.457031 32.753906 C 61.382812 32.640625 61.308594 32.527344 61.230469 32.410156 C 60.6875 31.308594 61.082031 29.472656 61.457031 28.421875 M 62.027344 16.5625 C 62.832031 16.019531 64.132812 16.398438 65.222656 15.761719 C 65.523438 15.839844 65.828125 15.917969 66.132812 15.992188 C 66.636719 18.550781 66.617188 21.535156 66.359375 23.976562 C 65.140625 24.617188 63.464844 25.125 62.027344 25.113281 C 60.679688 23 61.84375 18.816406 62.027344 16.5625 M 55.644531 41.417969 C 55.085938 42.875 54.09375 44.605469 53.589844 45.980469 C 53 47.589844 51.191406 50.332031 51.996094 51.796875 C 52.15625 52.011719 52.003906 51.863281 52.222656 52.023438 L 54.386719 52.023438 C 56.808594 49.261719 59.183594 44.289062 60.203125 40.394531 C 60.585938 38.9375 60.183594 37.59375 60.773438 36.289062 L 60.773438 36.058594 C 62.960938 36.414062 64.707031 36.710938 66.929688 36.515625 C 67.433594 38.664062 67.667969 47.289062 67.160156 49.171875 C 65.699219 49.492188 61.753906 48.371094 61.230469 49.171875 C 61.144531 49.546875 61.433594 50.121094 61.6875 50.539062 C 62.285156 51.5625 67.953125 53.675781 69.894531 53.28125 C 70.582031 52.972656 71.265625 52.671875 71.949219 52.367188 C 73.484375 50.027344 71.960938 47.082031 72.519531 44.386719 C 72.996094 42.082031 72.382812 39.460938 72.632812 36.859375 C 72.953125 33.550781 72.898438 28.480469 72.40625 24.203125 C 72.0625 21.25 74.019531 17.734375 72.972656 15.082031 C 72.25 13.242188 70.285156 11.875 67.84375 11.773438 C 65.640625 12.230469 63.433594 12.683594 61.230469 13.144531 C 60.28125 13.824219 59.328125 14.507812 58.378906 15.195312 C 56.8125 15.664062 56.550781 15.195312 55.871094 16.445312 C 55.4375 17.769531 57.128906 21.261719 57.46875 22.605469 L 57.46875 28.078125 C 56.804688 32.195312 57.066406 37.730469 55.644531 41.417969 M 20.183594 28.078125 C 18.925781 28.535156 17.675781 28.992188 16.417969 29.445312 L 15.621094 29.445312 L 15.621094 28.992188 C 16.796875 28.480469 17.945312 27.796875 18.359375 26.484375 C 18.8125 26.367188 19.269531 26.253906 19.722656 26.140625 L 20.183594 26.140625 C 20.296875 26.484375 20.410156 26.824219 20.523438 27.167969 C 20.410156 27.46875 20.296875 27.773438 20.183594 28.078125 M 20.066406 38.910156 C 19.648438 39.582031 18.0625 40.085938 17.101562 40.164062 C 17.0625 40.128906 17.027344 40.089844 16.988281 40.050781 C 16.738281 39 16.765625 38.476562 16.875 37.316406 C 17.863281 37.046875 18.851562 36.785156 19.839844 36.515625 C 20.257812 37.070312 20.460938 38.175781 20.066406 38.910156 M 16.191406 32.753906 C 17.175781 32.160156 18.214844 32.152344 19.382812 31.613281 C 19.609375 31.652344 19.839844 31.691406 20.066406 31.726562 C 20.105469 31.957031 20.144531 32.183594 20.183594 32.410156 C 19.722656 33.023438 17.367188 34.058594 16.535156 33.78125 C 16.152344 33.527344 16.171875 33.402344 16.191406 32.753906 M 27.820312 14.964844 C 28.164062 15.082031 28.507812 15.195312 28.847656 15.308594 C 28.898438 16.144531 28.160156 16.34375 27.023438 16.332031 C 26.984375 16.296875 26.949219 16.257812 26.910156 16.21875 C 27.089844 15.488281 27.402344 15.410156 27.820312 14.964844 M 35.347656 39.9375 C 34.511719 39.253906 33.675781 38.566406 32.839844 37.882812 C 30.828125 36.679688 27.011719 37.511719 24.628906 37.769531 C 24.554688 37.734375 24.476562 37.695312 24.398438 37.65625 C 24.179688 36.90625 24.019531 35.359375 24.285156 34.464844 C 26.699219 34.40625 28.351562 33.71875 29.304688 31.726562 C 28.53125 30.566406 26.148438 30.929688 24.855469 31.386719 L 24.171875 31.386719 L 24.171875 30.015625 C 24.96875 29.789062 25.769531 29.5625 26.566406 29.335938 C 27.097656 28.761719 27.632812 28.191406 28.164062 27.625 C 28.125 27.359375 28.089844 27.089844 28.050781 26.824219 C 27.082031 26.566406 25.222656 26.804688 24.398438 26.59375 C 24.050781 26.371094 24.078125 26.21875 23.945312 25.800781 L 23.945312 25 C 25.882812 24.761719 28.621094 25.515625 29.757812 23.75 C 29.796875 23.519531 29.835938 23.289062 29.875 23.0625 C 27.914062 21.171875 23.769531 23.070312 21.546875 24.085938 C 21.335938 23.929688 21.363281 23.980469 21.207031 23.75 C 20.914062 23.0625 21.257812 21.660156 21.546875 21.125 L 21.546875 20.894531 C 21.816406 20.972656 22.082031 21.046875 22.347656 21.125 C 23.242188 20.117188 24.679688 19.003906 25.085938 17.589844 L 25.425781 17.589844 C 26.160156 17.488281 26.332031 18.890625 26.910156 19.296875 C 28.304688 20.292969 32.746094 19.347656 33.066406 17.816406 C 33.273438 17.128906 32.574219 16.359375 31.8125 16.21875 C 31.773438 16.027344 31.734375 15.839844 31.695312 15.648438 C 31.734375 15.574219 31.773438 15.5 31.8125 15.421875 C 33.488281 15.058594 34.269531 14.542969 35.347656 13.710938 L 35.347656 13.253906 C 34.699219 12.800781 34.054688 12.34375 33.410156 11.886719 C 32.269531 11.8125 31.128906 11.734375 29.988281 11.65625 C 28.457031 11.035156 28.183594 9.90625 25.65625 9.949219 C 25.273438 10.214844 24.894531 10.480469 24.511719 10.75 C 23.773438 14.394531 21.992188 16.429688 20.863281 19.296875 C 20.398438 19.652344 20.371094 19.847656 19.496094 19.867188 C 18.882812 19.050781 17.011719 16.808594 16.988281 15.761719 C 18.742188 15.175781 20.511719 14.804688 22.003906 14.28125 C 22.25 13.890625 22.351562 13.75 22.347656 13.027344 C 21.515625 12.1875 20.078125 11.320312 18.128906 11.65625 C 17.519531 11.8125 16.914062 11.964844 16.304688 12.113281 C 13.207031 11.367188 13.605469 9.003906 9.464844 11.546875 C 9.285156 17.1875 7.089844 21.847656 4.332031 25.570312 C 4.484375 26.027344 4.636719 26.484375 4.789062 26.9375 C 6.046875 27.636719 7.394531 26.324219 8.667969 26.9375 C 10.121094 26.332031 12.09375 23.195312 12.542969 21.691406 C 13.851562 22.113281 14.617188 24.230469 15.28125 25.683594 C 15.171875 26.480469 11.886719 27.628906 11.289062 28.078125 C 11.582031 29.171875 12.496094 28.972656 13.113281 29.675781 C 13.074219 30.664062 13.035156 31.652344 12.996094 32.640625 C 13.265625 35.71875 13.53125 38.796875 13.796875 41.875 C 13.777344 42.636719 12.976562 43.160156 13.339844 44.15625 C 13.414062 44.269531 13.492188 44.386719 13.566406 44.496094 C 15.453125 44.792969 19.824219 41.96875 21.664062 41.191406 C 22.757812 40.730469 27.558594 39.585938 28.507812 39.824219 C 29.378906 40.238281 30.253906 40.660156 31.128906 41.078125 C 31.347656 42.457031 30.398438 44.023438 29.988281 45.296875 C 29.417969 44.878906 28.847656 44.460938 28.277344 44.042969 C 25.972656 43.238281 24.722656 44.042969 23.03125 44.496094 L 23.03125 44.953125 C 24.492188 45.949219 25.867188 47.566406 28.050781 47.691406 C 28.125 47.882812 28.203125 48.070312 28.277344 48.261719 C 28.242188 48.375 28.203125 48.488281 28.164062 48.601562 C 27.496094 48.804688 21.9375 49.6875 21.4375 48.828125 L 21.4375 48.601562 C 21.433594 48.589844 22.054688 45.328125 22.121094 45.066406 C 20.058594 45.007812 17.753906 45.960938 16.078125 46.4375 C 14.628906 46.847656 13.21875 46.59375 11.742188 46.777344 C 11.210938 47.121094 10.679688 47.460938 10.148438 47.808594 C 10.734375 49.3125 13.441406 49.792969 14.9375 50.082031 C 15.875 49.164062 15.730469 48.738281 15.621094 47.121094 C 15.847656 47.042969 16.078125 46.96875 16.304688 46.894531 C 17.484375 47.648438 19.1875 47.964844 20.410156 48.828125 C 21.261719 49.433594 21.304688 50.6875 22.003906 51.453125 C 22.664062 52.175781 25.902344 53.730469 27.023438 53.960938 C 32.535156 55.109375 35.039062 49.152344 36.484375 45.980469 C 36.964844 44.933594 38.546875 43.464844 37.855469 41.648438 C 37.414062 40.433594 36.417969 40.515625 35.347656 39.9375 M 97.265625 32.753906 C 97.222656 32.675781 97.183594 32.601562 97.144531 32.527344 C 97.957031 31.632812 99.789062 31.109375 99.769531 29.789062 C 98.804688 29.328125 98.1875 28.871094 96.804688 28.992188 C 96.796875 28.648438 99.117188 26.90625 99.769531 26.824219 C 99.921875 26.445312 100.074219 26.0625 100.226562 25.683594 C 97.945312 22.914062 94.890625 26.179688 92.929688 27.050781 L 92.8125 27.050781 C 92.433594 26.34375 92.179688 25.109375 92.359375 24.203125 C 93.351562 23.589844 93.703125 23.96875 94.867188 23.632812 C 95.601562 23.417969 96.660156 22.535156 97.488281 22.261719 C 98.597656 21.902344 99.46875 22.230469 100.226562 21.691406 C 100.453125 21.734375 100.683594 21.769531 100.910156 21.804688 C 101.613281 23.25 100.886719 31.1875 100.113281 32.640625 C 100.074219 32.753906 100.039062 32.867188 100 32.980469 C 99.085938 32.90625 98.175781 32.832031 97.265625 32.753906 M 100.339844 43.8125 C 100.226562 43.699219 100.113281 43.585938 100 43.472656 C 101.09375 40.671875 102.96875 39.789062 105.8125 39.140625 C 107.5625 38.738281 108.136719 39.5625 109.804688 39.023438 C 109.878906 38.605469 109.957031 38.1875 110.03125 37.769531 C 108.761719 36.457031 107.378906 36.207031 105.128906 36.402344 C 104.84375 34.988281 105.269531 33.046875 105.585938 31.726562 C 105.625 30.246094 105.660156 28.761719 105.699219 27.28125 C 106.097656 25.460938 106.546875 23.628906 106.839844 21.234375 C 104.179688 18.378906 101.527344 18.261719 97.378906 19.980469 C 96.976562 19.382812 97.460938 18.828125 97.71875 18.273438 C 99.300781 14.859375 101.828125 15.28125 105.242188 14.964844 C 105.546875 14.472656 105.851562 13.980469 106.15625 13.480469 C 106.003906 12.988281 105.851562 12.496094 105.699219 12 C 103.703125 10.929688 101.582031 12.503906 99.769531 12 C 99.65625 11.925781 99.542969 11.847656 99.425781 11.773438 C 99.535156 10.71875 100.09375 10.324219 100.226562 9.496094 C 100.433594 8.191406 99.964844 7.636719 99.886719 6.300781 C 98.960938 5.578125 97.863281 4.550781 96.351562 4.476562 C 94.878906 6.644531 94.738281 11.234375 93.957031 13.824219 C 92.308594 14.761719 89.871094 14.761719 88.140625 15.761719 C 88.027344 15.839844 87.910156 15.917969 87.796875 15.992188 C 87.917969 18.34375 89.265625 20.015625 91.789062 20.097656 C 92.078125 20.703125 91.949219 21.375 91.902344 22.261719 C 91.789062 22.453125 91.675781 22.644531 91.558594 22.832031 C 90.832031 23.136719 89.546875 22.496094 89.167969 23.0625 C 89.089844 24.734375 89.015625 26.40625 88.9375 28.078125 C 88.546875 31.507812 89.226562 35.722656 89.847656 39.023438 C 90.417969 39.214844 90.992188 39.40625 91.558594 39.59375 C 92.167969 39.253906 92.777344 38.910156 93.382812 38.566406 C 94.339844 35.609375 92.210938 31.167969 93.042969 28.878906 L 93.042969 28.648438 C 93.804688 28.761719 94.566406 28.878906 95.324219 28.992188 C 95.628906 29.179688 95.484375 29.027344 95.664062 29.335938 C 95.019531 29.828125 94.375 30.320312 93.726562 30.816406 C 93.878906 32.011719 94.410156 32.363281 95.097656 32.980469 C 95.058594 33.136719 95.019531 33.285156 94.980469 33.4375 C 94.746094 33.800781 94.304688 33.902344 93.839844 34.007812 C 93.957031 34.425781 94.066406 34.84375 94.183594 35.261719 C 94.601562 35.566406 95.019531 35.871094 95.4375 36.175781 C 97.328125 36.09375 97.976562 35.144531 99.769531 34.921875 C 99.808594 34.960938 99.847656 34.996094 99.886719 35.035156 C 100.011719 35.917969 99.789062 37.230469 99.542969 38 C 98.726562 38.488281 86.898438 41.9375 86.542969 41.875 C 85.644531 40.183594 86.152344 37.941406 85.859375 35.832031 C 85.609375 34.054688 84.519531 26.960938 85.515625 24.429688 C 85.890625 23.480469 87.210938 23.011719 88.027344 22.488281 C 88.101562 22.152344 88.175781 21.804688 88.253906 21.464844 C 87.542969 20.640625 86.527344 20.035156 85.402344 19.640625 C 84.199219 13.863281 88.160156 13.714844 81.753906 10.75 C 81.488281 10.789062 81.222656 10.824219 80.957031 10.859375 C 80.144531 14.28125 81.625 19.132812 81.070312 22.378906 C 81.035156 22.453125 80.996094 22.527344 80.957031 22.605469 C 79.535156 22.445312 77.511719 21.109375 75.828125 21.804688 C 75.660156 21.925781 74.5 28.832031 74.574219 29.335938 C 74.734375 30.484375 75.273438 31.113281 75.828125 31.84375 C 78.082031 31.816406 80.289062 30.152344 80.84375 28.535156 C 80.917969 28.496094 80.996094 28.460938 81.070312 28.421875 C 82.050781 29.882812 81.160156 33.601562 81.296875 35.492188 C 81.601562 39.582031 80.53125 48.011719 82.4375 51.34375 C 83.085938 51.417969 83.730469 51.492188 84.378906 51.566406 C 85.0625 51 85.746094 50.429688 86.429688 49.859375 C 86.410156 48.175781 86.113281 46.804688 86.429688 45.523438 C 86.507812 45.449219 86.582031 45.375 86.660156 45.296875 C 91.925781 46.265625 93.289062 41.96875 97.945312 41.417969 L 97.945312 41.535156 C 95.648438 44.574219 89.28125 47.460938 92.015625 52.25 C 94.625 52.726562 98.132812 46.3125 98.972656 44.269531 C 101.230469 44.5625 107.101562 57.261719 110.375 50.199219 C 110.261719 46.332031 104.53125 42.75 100.339844 43.8125 M 119.042969 17.476562 C 120.125 15.683594 122.941406 15.445312 124.628906 14.507812 C 125.121094 14.054688 125.617188 13.597656 126.109375 13.144531 C 126.757812 12.953125 127.402344 12.761719 128.046875 12.570312 C 129.03125 11.753906 130.578125 10.3125 132.042969 10.40625 C 133.535156 10.5 135.214844 8.222656 137.171875 9.039062 C 137.324219 9.152344 137.472656 9.265625 137.628906 9.378906 C 137.335938 11.246094 135.511719 13.957031 134.207031 14.964844 L 134.207031 15.421875 C 134.320312 15.460938 134.433594 15.5 134.546875 15.535156 C 137.539062 14.328125 142.902344 13.875 144.582031 10.976562 C 145.558594 9.746094 144.265625 8.332031 143.78125 7.78125 C 141.414062 5.074219 137.511719 6.609375 134.09375 7.097656 C 133.019531 4.660156 131.679688 3.019531 128.277344 2.992188 C 126.601562 3.90625 124.699219 3.625 123.144531 4.703125 C 123.070312 4.929688 122.992188 5.160156 122.917969 5.390625 C 122.964844 7.6875 125.789062 8.726562 127.820312 9.039062 L 127.820312 9.378906 C 127.472656 9.808594 119.652344 14.339844 119.042969 14.507812 C 117.75 14.875 116.992188 13.515625 115.503906 14.054688 C 115.054688 14.359375 113.121094 23.824219 113.339844 24.886719 C 113.601562 25.492188 113.871094 26.105469 114.136719 26.710938 C 114.328125 26.785156 114.519531 26.863281 114.707031 26.9375 C 119.851562 26.644531 117.117188 20.660156 119.042969 17.476562 M 178.449219 8.46875 C 178.828125 8.503906 179.207031 8.542969 179.585938 8.582031 C 179.890625 8.277344 180.195312 7.972656 180.5 7.667969 C 181.652344 5.8125 179.566406 4.191406 179.242188 2.992188 C 178.796875 2.722656 178.523438 2.554688 177.761719 2.539062 C 177.425781 2.738281 176.578125 2.726562 176.28125 2.992188 C 174.925781 4.871094 177.140625 7.726562 178.449219 8.46875 M 172.0625 29.21875 C 171.910156 29.296875 171.757812 29.375 171.605469 29.445312 L 171.492188 29.445312 C 170.535156 27.824219 171.800781 26.1875 172.515625 25.226562 C 172.425781 23.277344 171.296875 23.253906 171.265625 21.351562 C 171.875 20.84375 173.492188 20.453125 173.886719 19.757812 C 173.960938 19.601562 174.039062 19.449219 174.117188 19.296875 C 173.15625 18.34375 173.085938 18.003906 171.378906 17.929688 C 171.339844 17.664062 171.300781 17.398438 171.265625 17.132812 C 171.984375 16.753906 172.707031 16.375 173.429688 15.992188 C 173.695312 16.027344 173.960938 16.066406 174.226562 16.105469 C 175.011719 19.25 174.226562 27.566406 172.0625 29.21875 M 167.273438 19.980469 C 166.921875 20.546875 166.335938 20.753906 165.5625 20.894531 C 164.835938 20.363281 164.347656 20.464844 163.28125 20.324219 C 163.207031 20.210938 163.128906 20.097656 163.054688 19.980469 C 163.089844 19.90625 163.128906 19.832031 163.164062 19.757812 C 164.195312 19.15625 165.679688 19.273438 166.929688 18.730469 C 167.601562 18.9375 167.636719 19.429688 167.273438 19.980469 M 164.191406 25.800781 C 164.15625 25.683594 164.121094 25.570312 164.082031 25.457031 L 164.082031 24.65625 C 165.09375 24.578125 165.777344 24.589844 166.589844 23.859375 L 167.046875 23.859375 C 167.082031 24.011719 167.121094 24.167969 167.160156 24.316406 C 166.648438 25.066406 165.15625 25.566406 164.191406 25.800781 M 183.007812 28.992188 C 181.390625 27.96875 179.34375 28.023438 177.304688 27.851562 C 176.484375 23.472656 179.363281 18.199219 178.5625 13.710938 C 176.207031 12.289062 174.054688 13.519531 171.492188 14.054688 L 171.378906 14.054688 C 170.921875 13.351562 170.851562 12.820312 170.921875 11.773438 C 172.042969 11.28125 173.144531 11.019531 174.226562 10.519531 C 174.535156 9.539062 174.746094 7.582031 174.914062 6.757812 L 174.914062 6.644531 C 173.074219 6.207031 171.84375 7.332031 170.464844 7.554688 C 169.597656 4.078125 170.613281 1.917969 167.046875 0.828125 C 166.890625 0.902344 166.742188 0.980469 166.589844 1.054688 C 165.441406 3.015625 166.726562 6.5 166.703125 8.695312 C 165.199219 9.734375 163.28125 10.441406 161.457031 11.207031 C 160.351562 13.179688 162.84375 14.785156 163.851562 15.308594 C 165.535156 15.191406 165.9375 14.039062 166.929688 13.253906 C 167.523438 13.964844 167.761719 14.789062 167.5 15.761719 C 165.753906 16.714844 164.003906 17.664062 162.257812 18.613281 C 161.800781 18.425781 161.34375 18.234375 160.886719 18.046875 C 159.394531 20.6875 161.191406 27.804688 161.800781 30.589844 C 161.839844 30.664062 161.878906 30.738281 161.914062 30.816406 C 163.222656 30.785156 163.871094 30.214844 164.421875 29.445312 C 164.382812 28.570312 164.347656 27.699219 164.308594 26.824219 L 164.308594 26.59375 C 164.816406 26.847656 164.722656 27.222656 165.105469 27.507812 C 166.992188 28.914062 168.285156 27.804688 167.160156 31.273438 C 165.695312 32.171875 159.726562 34.671875 157.921875 34.804688 C 157.847656 34.769531 157.769531 34.730469 157.695312 34.691406 C 157.210938 32.355469 156.453125 25.554688 157.351562 22.945312 C 157.921875 22.300781 158.492188 21.652344 159.0625 21.007812 C 158.664062 20.121094 158.386719 19.363281 158.722656 18.273438 C 158.222656 17.71875 157.535156 17.441406 156.78125 17.132812 C 156.085938 14.570312 157.589844 12.476562 154.730469 11.546875 C 153.585938 11.171875 153.003906 11.261719 152.109375 11.773438 C 152.335938 14.359375 152.5625 16.941406 152.792969 19.527344 C 151.460938 21.167969 149.78125 22.078125 147.886719 23.175781 C 147.28125 23.605469 147.679688 24.4375 147.773438 25.226562 C 148.589844 26.21875 149.167969 26.894531 150.398438 27.507812 C 151.660156 27.429688 151.824219 26.832031 152.675781 26.367188 C 153.585938 27.007812 153.304688 28.78125 153.472656 30.132812 C 153.742188 34.121094 154.011719 38.113281 154.273438 42.105469 C 154.511719 42.664062 154.890625 42.972656 155.527344 43.132812 C 156.230469 43.25 157.070312 42.28125 157.921875 41.988281 C 158.132812 40.976562 157.878906 39.996094 157.808594 38.796875 C 158.089844 38.53125 158.019531 38.480469 158.492188 38.339844 C 159.425781 39.523438 161.476562 38.207031 162.257812 37.769531 C 163.996094 36.800781 169.957031 32.183594 171.832031 33.4375 C 172.714844 34.023438 172.804688 42.6875 173.085938 44.269531 C 171.871094 44.816406 170.082031 44.101562 169.097656 44.496094 C 169.132812 43.394531 169.171875 42.296875 169.210938 41.191406 C 167.960938 40.011719 164.425781 38.679688 162.484375 40.164062 C 161.78125 40.65625 162.078125 41.332031 161.003906 41.535156 C 161.628906 43.5 164.265625 43.042969 165.449219 44.15625 C 165.796875 44.484375 165.730469 45.109375 166.132812 45.410156 C 168.578125 47.242188 172.59375 49.171875 176.164062 48.035156 C 178.011719 45.144531 177.023438 39.5625 176.734375 35.378906 C 176.675781 34.472656 176.378906 33.617188 176.734375 32.753906 C 177.96875 30.976562 181.054688 32.953125 182.550781 32.410156 C 182.667969 32.375 182.78125 32.335938 182.894531 32.296875 C 183.140625 31.277344 182.90625 30.074219 183.007812 28.992188 "/>
</g>
</g>
</svg>
