<?xml version="1.0" encoding="UTF-8"?>
<svg xmlns="http://www.w3.org/2000/svg" xmlns:xlink="http://www.w3.org/1999/xlink" width="181.047pt" height="122.838pt" viewBox="0 0 181.047 122.838" version="1.2">
<defs>
<clipPath id="clip1">
  <path d="M 0 0.242188 L 180.097656 0.242188 L 180.097656 122.4375 L 0 122.4375 Z M 0 0.242188 "/>
</clipPath>
</defs>
<g id="surface1">
<g clip-path="url(#clip1)" clip-rule="nonzero">
<path style=" stroke:none;fill-rule:evenodd;fill:rgb(100%,100%,100%);fill-opacity:1;" d="M 95.828125 94.046875 C 95.566406 93.933594 95.300781 93.820312 95.039062 93.710938 C 94.210938 94.105469 92.695312 93.527344 91.675781 93.933594 C 90.632812 94.355469 89.410156 95.53125 88.757812 96.402344 C 89.234375 97.007812 89.480469 97.585938 89.542969 98.648438 C 90.421875 98.984375 90.988281 99.910156 92.347656 100.105469 C 93.117188 99.222656 94.148438 97.175781 95.488281 96.960938 C 95.375 95.933594 95.691406 95.191406 95.828125 94.160156 Z M 167.527344 97.300781 C 167.078125 97.636719 166.632812 97.972656 166.183594 98.3125 C 165.996094 98.160156 165.808594 98.007812 165.621094 97.863281 C 166.007812 95.816406 167.980469 94.699219 168.761719 92.925781 C 168.175781 91.621094 166.933594 90.722656 164.945312 90.792969 C 163.253906 91.707031 156.902344 95.003906 155.183594 95.058594 C 155.109375 95.242188 155.035156 95.429688 154.960938 95.617188 C 155.183594 95.878906 155.410156 96.140625 155.632812 96.402344 C 159.585938 97.304688 161.304688 94.398438 163.824219 93.257812 L 163.9375 93.257812 C 164.445312 95.109375 161.835938 97.886719 160.347656 98.199219 C 160.15625 98.785156 160.316406 98.671875 160.683594 99.207031 C 158.976562 101.097656 149.382812 101.683594 148.117188 104.03125 C 147.796875 105.554688 151.285156 107.636719 152.941406 107.289062 C 154.890625 106.878906 155.46875 105.417969 156.867188 104.59375 C 158.488281 103.640625 159.546875 103.289062 161.695312 102.6875 C 161.765625 102.722656 161.84375 102.761719 161.917969 102.796875 C 162.996094 104.707031 162.164062 109.386719 160.683594 110.539062 C 158.839844 110.789062 157.796875 110.234375 156.417969 109.867188 C 156.269531 109.980469 156.121094 110.089844 155.96875 110.207031 C 156.09375 110.914062 156.125 111.515625 155.96875 112.222656 C 156.367188 113 157.257812 113.113281 157.992188 113.570312 C 161.296875 115.636719 164.914062 113.742188 165.957031 110.429688 C 166.820312 107.675781 166.070312 103.996094 166.292969 101.675781 C 168.605469 100.484375 171.449219 101.355469 174.371094 101.117188 C 174.746094 100.667969 175.121094 100.21875 175.496094 99.769531 C 175.695312 96.613281 170.515625 96.300781 167.527344 97.300781 M 125.785156 95.617188 C 125.636719 95.503906 125.488281 95.390625 125.335938 95.277344 C 125.375 95.058594 125.414062 94.832031 125.449219 94.605469 C 126.996094 94.160156 127.8125 93.988281 128.480469 92.699219 L 128.589844 92.699219 C 129.375 93.898438 126.953125 95.410156 125.785156 95.617188 M 134.761719 93.371094 C 135.644531 91.359375 132.527344 90.230469 130.609375 90.34375 C 129.492188 90.566406 128.367188 90.792969 127.246094 91.015625 C 124.191406 92.101562 123.40625 92.617188 119.277344 92.925781 C 119.054688 93.296875 118.828125 93.671875 118.605469 94.046875 C 119.148438 95.683594 119.683594 98.910156 120.960938 99.882812 C 121.898438 100.597656 124.277344 101.582031 125.675781 100.78125 C 126.160156 100.328125 126.644531 99.882812 127.132812 99.433594 C 128.550781 98.964844 129.96875 100.230469 131.0625 98.3125 C 131.476562 97.574219 131.199219 96.53125 131.734375 95.953125 C 132.625 94.988281 134.058594 94.535156 134.761719 93.371094 M 102.445312 88.660156 C 101.921875 88.847656 101.398438 89.035156 100.875 89.222656 C 100.429688 89.898438 100.148438 90.324219 100.203125 91.238281 C 99.828125 91.316406 99.453125 91.390625 99.082031 91.464844 C 98.832031 91.863281 98.730469 92.066406 98.742188 92.8125 C 101.429688 93.863281 103.402344 96.125 107.046875 96.066406 C 110.015625 92.382812 105.714844 89.5625 102.445312 88.660156 M 61.152344 93.820312 C 60.890625 94.082031 60.628906 94.34375 60.367188 94.605469 C 57.363281 91.765625 58.503906 90.84375 59.246094 87.089844 C 59.5 85.804688 59.269531 84.1875 59.46875 83.164062 C 60.519531 82.960938 60.988281 83.492188 61.941406 82.9375 C 62.464844 83.011719 62.984375 83.089844 63.511719 83.164062 C 63.546875 83.347656 63.582031 83.535156 63.625 83.722656 C 62.652344 85.542969 58.96875 87.984375 59.46875 90.457031 L 59.46875 90.792969 C 61.445312 90.679688 62.621094 89.949219 64.183594 89.667969 C 64.011719 90.996094 62.144531 93.199219 61.152344 93.820312 M 60.929688 102.011719 C 60.890625 101.972656 60.855469 101.941406 60.816406 101.902344 C 60.972656 100.851562 61.5 100.660156 61.601562 99.546875 C 60.171875 99.441406 59.210938 101.019531 58.234375 101.789062 C 57.894531 101.414062 57.746094 98.390625 58.125 97.636719 C 58.546875 96.789062 59.746094 96.40625 60.253906 95.390625 C 61.292969 95.480469 62.652344 95.84375 63.394531 96.289062 C 63.234375 97.117188 62.917969 97.054688 62.835938 97.972656 C 64.101562 99.5 63.4375 102.074219 60.929688 102.011719 M 53.523438 98.3125 C 53.28125 98.472656 53.425781 98.550781 53.074219 98.421875 C 52.152344 98.085938 50.933594 97.140625 49.480469 97.636719 C 48.910156 97.832031 48.78125 98.277344 48.023438 98.421875 C 47.699219 97.859375 47.546875 97.382812 47.574219 96.402344 C 48.34375 95.738281 48.929688 94.9375 49.710938 94.269531 C 50.746094 94.621094 53.160156 95.867188 53.746094 96.738281 C 53.933594 97.191406 53.746094 97.90625 53.523438 98.3125 M 45.78125 90.34375 C 45.707031 90.304688 45.628906 90.269531 45.554688 90.230469 C 45.4375 89.449219 45.363281 88.765625 45.667969 88.097656 C 46.097656 86.980469 47.019531 86.929688 47.914062 86.304688 C 48.101562 86.339844 48.285156 86.378906 48.472656 86.417969 C 48.648438 87.8125 46.890625 89.84375 45.78125 90.34375 M 49.710938 91.464844 C 49.945312 91.726562 49.863281 91.589844 49.820312 91.914062 C 49.605469 92.253906 49.800781 92.101562 49.371094 92.25 L 49.257812 92.25 C 49.222656 92.175781 49.183594 92.101562 49.144531 92.027344 C 49.460938 91.828125 49.511719 91.785156 49.710938 91.464844 M 72.375 99.769531 C 70.867188 99.179688 69.144531 100.175781 67.546875 100.21875 C 67.230469 99.304688 67.320312 97.839844 67.210938 96.738281 C 68.164062 95.785156 69.292969 95.878906 69.570312 94.160156 C 69.269531 93.785156 68.972656 93.410156 68.671875 93.035156 C 68.035156 92.960938 67.398438 92.886719 66.761719 92.8125 C 66.726562 92.773438 66.691406 92.738281 66.652344 92.699219 C 66.976562 89.789062 69.714844 89.402344 70.578125 86.976562 C 70.121094 86.191406 69.859375 85.695312 68.785156 85.519531 C 67.0625 85.179688 65.3125 87.050781 63.625 87.316406 C 64.898438 81.679688 68.605469 84.230469 70.355469 81.027344 C 70.203125 80.394531 70.054688 79.757812 69.90625 79.121094 C 67.800781 78.785156 61.417969 80.691406 59.695312 81.589844 C 57.914062 79.460938 57.371094 79.320312 54.757812 80.355469 C 53.460938 84.390625 55.191406 88.761719 54.085938 92.925781 C 53.226562 93.296875 52.363281 93.671875 51.5 94.046875 L 51.167969 94.046875 C 51.429688 93.039062 52.007812 93.195312 52.066406 91.914062 C 51.570312 91.265625 50.671875 91.179688 49.820312 90.90625 C 50.355469 88.570312 52.894531 88.585938 52.960938 85.519531 C 50.097656 82.632812 48.527344 85.332031 46.003906 86.304688 L 45.894531 86.304688 C 45.4375 84.421875 47.328125 82.441406 48.921875 82.152344 C 49.480469 80.035156 50.054688 78.832031 52.066406 78.222656 C 51.875 77.722656 51.929688 77.792969 51.277344 77.777344 C 48.8125 79.199219 45.917969 79.65625 43.199219 80.695312 C 42.222656 81.066406 41.863281 81.746094 40.621094 81.925781 C 39.394531 83.601562 39.875 85.46875 41.515625 86.53125 C 41.453125 88.765625 39.972656 90.359375 40.84375 92.925781 C 41.035156 93.492188 41.558594 93.589844 41.742188 94.382812 C 40.96875 95.328125 40.070312 96.214844 39.273438 97.1875 C 39.308594 97.453125 39.347656 97.714844 39.382812 97.972656 C 40.320312 98.375 41 97.722656 41.628906 97.1875 C 41.925781 97.261719 42.226562 97.335938 42.527344 97.414062 C 42.796875 101.164062 38.398438 102.742188 38.824219 106.722656 C 40.546875 106.554688 41.371094 105.613281 42.976562 105.378906 C 43.050781 105.492188 43.125 105.601562 43.199219 105.714844 C 44.851562 109.167969 41.640625 114.699219 39.160156 115.703125 C 39.546875 116.375 41.648438 115.363281 42.527344 115.589844 C 46.535156 116.625 48.410156 110.324219 49.144531 107.171875 L 49.144531 102.347656 C 49.765625 101.40625 51.253906 101.46875 52.289062 101.003906 C 53.652344 102.007812 51.429688 106.558594 50.941406 107.398438 C 51.089844 108.074219 51.242188 108.746094 51.390625 109.417969 C 52.050781 109.476562 52.800781 108.660156 53.1875 108.074219 C 53.558594 108.144531 53.933594 108.222656 54.308594 108.296875 C 55.460938 107.425781 56.3125 106.257812 56.777344 104.707031 C 57.039062 104.546875 62.195312 104.230469 62.949219 104.371094 C 64.269531 106.964844 62.742188 118.421875 62.503906 121.089844 C 63.703125 121.339844 65.082031 121.925781 66.203125 122.4375 C 66.828125 121.347656 66.496094 120.09375 66.761719 118.507812 C 67.640625 113.359375 66.492188 108.269531 67.4375 103.359375 C 69.269531 103.246094 71.101562 103.136719 72.9375 103.023438 C 73.339844 102.488281 73.746094 102.21875 73.832031 101.339844 C 73.355469 100.820312 73.046875 100.097656 72.375 99.769531 M 24.574219 82.824219 C 25.503906 82.054688 25.625 80.542969 26.707031 79.910156 C 28.144531 79.0625 29.976562 79.980469 31.304688 79.121094 C 32.109375 78.597656 32.164062 76.644531 31.753906 75.871094 C 30.964844 75.714844 30.726562 75.890625 30.183594 76.207031 C 29.882812 75.871094 29.585938 75.53125 29.285156 75.195312 C 28.910156 75.15625 28.535156 75.121094 28.164062 75.085938 C 26.363281 75.84375 20.648438 76.582031 19.863281 77.890625 C 19.242188 79.390625 21.144531 82.160156 22.105469 82.601562 C 22.921875 82.980469 23.90625 82.804688 24.574219 82.824219 M 16.945312 88.769531 C 16.71875 88.734375 16.496094 88.699219 16.269531 88.660156 C 15.96875 86.011719 14.886719 84.132812 12.003906 83.613281 C 11.894531 83.460938 11.78125 83.3125 11.667969 83.164062 C 12.324219 82.417969 13.601562 81.351562 13.574219 80.355469 C 16.078125 81.496094 19.535156 79.5 18.402344 76.429688 C 17.761719 74.703125 14.308594 73.238281 11.894531 73.289062 C 11.003906 74.070312 10.691406 74.996094 9.984375 75.980469 C 8.265625 78.109375 6.542969 80.246094 4.824219 82.378906 C 4.042969 83.570312 3.625 84.9375 5.046875 85.742188 C 6.539062 85.628906 7.714844 84.804688 9.3125 85.519531 L 9.535156 85.519531 C 9.15625 88.8125 4.488281 92.703125 2.804688 95.167969 C 1.765625 96.6875 1.410156 98.425781 0 99.546875 C 0.0390625 99.730469 0.0742188 99.917969 0.109375 100.105469 C 2.246094 100.960938 2.929688 96.703125 4.152344 95.730469 C 4.457031 96.046875 4.457031 96.582031 4.824219 96.851562 C 5.222656 97.238281 5.117188 97.101562 5.609375 96.851562 C 5.722656 96.886719 5.832031 96.925781 5.945312 96.960938 C 5.757812 97.414062 5.574219 97.863281 5.382812 98.3125 C 6.171875 98.917969 6.917969 98.03125 7.292969 97.523438 C 7.367188 97.5625 7.441406 97.601562 7.515625 97.636719 C 8.65625 104.398438 4.605469 108.640625 10.882812 111.664062 C 13.84375 110.054688 12.066406 104.738281 12.339844 101.003906 C 12.605469 99.394531 12.867188 97.785156 13.128906 96.175781 C 12.917969 95.113281 11.976562 94.046875 11.21875 93.484375 L 11.21875 92.699219 C 11.863281 91.847656 13.046875 90.714844 14.136719 90.34375 C 15.921875 92.441406 15.269531 95.308594 19.300781 95.277344 C 21.589844 93.074219 22.183594 92.574219 25.132812 91.464844 C 25.207031 91.503906 25.28125 91.539062 25.359375 91.578125 C 25.992188 94.507812 25.71875 103.847656 24.574219 106.054688 C 23.898438 107.046875 22.046875 107.171875 20.757812 106.953125 C 20.882812 107.917969 20.644531 108.527344 20.421875 109.308594 C 21.324219 111.050781 28.515625 114.367188 29.960938 111.101562 C 30.730469 109.347656 31.347656 95.101562 30.746094 92.589844 C 30.371094 91.800781 29.996094 91.015625 29.625 90.230469 C 30.410156 89.484375 38.128906 91.214844 36.132812 87.316406 C 33.695312 82.378906 20.867188 87.402344 16.945312 88.769531 M 69.234375 72.617188 C 68.257812 72.6875 67.289062 72.765625 66.316406 72.839844 C 64.902344 73.21875 64.042969 74 63.0625 74.746094 L 63.0625 74.972656 C 64.316406 76.578125 68.902344 76.980469 70.691406 76.992188 C 71.121094 76.488281 71.6875 76.21875 72.035156 75.644531 C 71.671875 74.496094 71.25 73.941406 70.804688 72.949219 C 70.28125 72.839844 69.753906 72.726562 69.234375 72.617188 M 86.289062 77.664062 C 86.476562 77.511719 86.660156 77.363281 86.851562 77.214844 L 87.300781 77.214844 C 87.523438 78.171875 87.511719 80.390625 86.734375 81.027344 C 86.246094 80.992188 86.214844 80.964844 85.953125 80.804688 C 86.0625 79.757812 86.175781 78.710938 86.289062 77.664062 M 86.625 85.628906 L 86.625 85.855469 L 86.511719 85.855469 C 86.4375 85.816406 86.363281 85.78125 86.289062 85.742188 C 86.398438 85.367188 86.511719 84.992188 86.625 84.621094 Z M 93.804688 74.632812 L 93.917969 74.632812 C 94.375 75.015625 94.847656 74.695312 95.9375 74.632812 C 95.976562 74.710938 96.015625 74.78125 96.050781 74.859375 C 95.675781 75.945312 95.300781 77.027344 94.929688 78.113281 C 94.121094 78.613281 92.621094 78.433594 91.5625 78.898438 C 91.085938 78.855469 91.121094 78.90625 90.890625 78.671875 C 90.738281 77.851562 90.589844 77.027344 90.4375 76.207031 C 91.230469 75.320312 92.945312 75.441406 93.804688 74.632812 M 90.777344 84.394531 C 90.703125 84.324219 90.628906 84.246094 90.550781 84.171875 L 90.550781 82.601562 C 91.074219 82.152344 91.597656 81.703125 92.125 81.253906 C 92.347656 81.21875 92.570312 81.179688 92.796875 81.140625 L 93.246094 81.140625 C 93.28125 81.179688 93.320312 81.21875 93.355469 81.253906 C 93.046875 83.03125 92.550781 84.027344 90.777344 84.394531 M 97.84375 96.175781 C 96.894531 95.902344 96.351562 96.882812 95.601562 97.078125 C 101.585938 102.96875 86.210938 102.824219 84.941406 100.21875 C 84.449219 98.347656 88.003906 95.992188 88.871094 94.722656 C 89.578125 93.449219 90.292969 92.175781 91 90.90625 C 92.382812 89.390625 93.867188 89.128906 95.714844 87.984375 C 97.304688 87.003906 99.996094 82.570312 100.988281 80.804688 C 101.699219 79.539062 102.890625 78.082031 103.230469 76.765625 C 104.019531 73.753906 100.949219 71.941406 98.519531 71.941406 C 96.820312 72.738281 94.683594 72.367188 92.570312 72.839844 C 89.859375 73.445312 87.3125 74.316406 85.054688 75.308594 C 84.167969 74.796875 83.5625 73.5625 82.472656 73.398438 C 76.363281 72.488281 78.265625 85.363281 79.890625 88.769531 C 81.246094 91.605469 82.390625 91.160156 85.164062 92.140625 L 85.390625 92.140625 L 85.390625 92.472656 C 84.15625 93.859375 82.917969 95.242188 81.6875 96.628906 C 80.214844 98.574219 78.75 100.945312 76.75 102.347656 C 76.667969 103.808594 76.921875 104.816406 78.097656 105.265625 C 78.882812 105.378906 79.667969 105.492188 80.453125 105.601562 C 81.191406 105.054688 82.078125 104.21875 82.472656 103.359375 C 82.585938 103.285156 82.699219 103.210938 82.808594 103.136719 C 84.222656 104.042969 84.695312 105.789062 86.398438 106.503906 C 90.332031 108.144531 94.195312 106.632812 97.734375 105.941406 C 99.941406 105.507812 102.613281 105.566406 103.679688 104.03125 C 106.410156 100.117188 100.640625 96.984375 97.84375 96.175781 M 137.792969 75.980469 C 135.847656 76.695312 133.902344 77.402344 131.957031 78.113281 C 131.566406 77.28125 132.03125 75.300781 132.515625 74.523438 C 133.171875 73.667969 134.929688 73.617188 135.996094 73.175781 C 137.441406 73.570312 137.875 74.125 137.792969 75.980469 M 137.566406 79.796875 C 137.335938 80.117188 131.097656 82.8125 130.722656 82.714844 C 130.414062 82.539062 130.457031 82.550781 130.273438 82.265625 C 130.425781 81.890625 130.570312 81.519531 130.722656 81.140625 C 132.308594 80.070312 134.546875 79.804688 136.558594 78.898438 C 136.894531 78.9375 137.230469 78.972656 137.566406 79.011719 Z M 118.042969 80.019531 C 117.96875 79.945312 117.894531 79.871094 117.816406 79.796875 L 117.816406 79.460938 C 118.605469 78.839844 119.554688 78.332031 119.617188 76.992188 L 119.617188 75.308594 C 120.101562 74.671875 120.585938 74.035156 121.074219 73.398438 L 121.859375 73.398438 C 121.832031 76.367188 120.683594 79.511719 118.042969 80.019531 M 117.59375 86.078125 C 116.453125 84.617188 118.128906 82.957031 118.71875 82.378906 C 119.015625 82.558594 118.875 82.410156 119.054688 82.714844 C 119.515625 83.914062 118.394531 85.652344 117.59375 86.078125 M 133.527344 71.828125 C 132.78125 72.167969 132.03125 72.5 131.285156 72.839844 C 129.6875 73.160156 128.546875 71.601562 127.691406 73.511719 C 125.859375 72.769531 126.191406 70.800781 122.757812 70.816406 C 120.433594 72.035156 114.625 72.933594 113.21875 74.746094 C 112.320312 75.902344 112.40625 80.984375 112.546875 82.824219 C 113.242188 92.003906 111.992188 101.257812 113.777344 109.867188 C 113.964844 110.019531 114.152344 110.167969 114.339844 110.316406 C 115.847656 110.332031 116.554688 110.59375 117.707031 110.316406 C 119.25 109.496094 118.09375 106.027344 117.707031 103.921875 C 116.882812 99.425781 116.773438 94.121094 117.371094 89.335938 C 119.226562 88.328125 121.761719 87.257812 122.867188 85.519531 C 122.90625 84.507812 122.945312 83.5 122.980469 82.488281 C 123.671875 79.902344 125.300781 76.773438 127.019531 75.085938 L 127.132812 75.085938 C 127.207031 75.15625 127.28125 75.230469 127.355469 75.308594 C 127.042969 78.363281 127.15625 82.578125 125.898438 85.519531 C 126.085938 85.855469 126.273438 86.191406 126.460938 86.53125 C 128.171875 87.378906 130.617188 87.246094 131.734375 85.855469 C 131.992188 85.445312 132.257812 85.03125 132.515625 84.621094 C 133.878906 83.898438 135.480469 83.90625 136.671875 83.273438 C 137.335938 83.371094 137.226562 83.492188 137.679688 83.722656 C 137.609375 87.011719 137.253906 90.136719 136.894531 93.484375 C 136.53125 96.859375 137.394531 102.71875 135.769531 106.054688 C 134.570312 105.992188 133.367188 105.742188 132.40625 105.601562 C 132.257812 105.714844 132.109375 105.828125 131.957031 105.941406 C 132.410156 108.699219 138.566406 112.042969 140.710938 108.859375 C 141.007812 106.390625 141.308594 103.921875 141.609375 101.453125 C 142.785156 95.359375 141.445312 88.472656 142.28125 82.601562 C 142.636719 80.117188 143.515625 74.734375 142.953125 72.726562 C 140.488281 71.132812 136.804688 70.789062 133.527344 71.828125 M 52.625 76.09375 C 54.324219 73.820312 50.320312 70.253906 47.914062 70.257812 C 47.375 70.78125 44.28125 71.199219 42.976562 71.269531 C 42.9375 71.34375 42.902344 71.417969 42.863281 71.488281 C 43.253906 72.457031 43.199219 72.851562 42.976562 73.847656 C 44.21875 76.019531 50.546875 78.875 52.625 76.09375 M 169.882812 80.132812 C 169.027344 81.273438 166.300781 80.328125 165.734375 81.816406 C 166.511719 83.089844 167.480469 82.421875 168.648438 83.050781 C 168.761719 83.125 168.875 83.203125 168.988281 83.273438 C 168.800781 83.949219 168.613281 84.621094 168.425781 85.292969 C 168.238281 85.367188 168.050781 85.445312 167.863281 85.519531 C 166.953125 85.726562 164.9375 83.695312 164.496094 82.9375 C 164.589844 81.328125 165.570312 80.480469 165.84375 79.011719 C 165.996094 78.203125 165.464844 78.148438 165.507812 77.550781 C 167.253906 78.109375 167.179688 79.5 169.882812 79.460938 Z M 162.027344 81.253906 C 161.695312 81.066406 161.355469 80.882812 161.019531 80.695312 C 160.945312 80.507812 160.871094 80.316406 160.796875 80.132812 C 161.917969 79.121094 163.039062 78.109375 164.160156 77.101562 C 164.3125 77.140625 164.460938 77.175781 164.609375 77.214844 C 164.648438 77.402344 164.683594 77.589844 164.722656 77.777344 C 163.59375 78.738281 163.164062 80.316406 162.027344 81.253906 M 162.703125 86.75 C 161.917969 87.050781 161.132812 87.351562 160.347656 87.648438 L 160.234375 87.648438 C 160.199219 87.425781 160.15625 87.203125 160.121094 86.976562 C 160.71875 86.640625 161.316406 86.304688 161.917969 85.964844 L 162.589844 85.964844 C 162.761719 86.335938 162.714844 86.386719 162.703125 86.75 M 159.339844 85.855469 C 158.757812 85.199219 158.410156 84.042969 158.4375 82.824219 C 158.550781 82.714844 158.664062 82.601562 158.773438 82.488281 C 159.554688 82.75 159.859375 83.195312 160.347656 83.722656 C 160.441406 84.523438 160.023438 85.46875 159.339844 85.855469 M 155.074219 85.964844 C 154.996094 86.003906 154.921875 86.039062 154.847656 86.078125 C 154.484375 84.527344 154.210938 81.960938 154.960938 80.46875 C 155.910156 81.441406 155.285156 84.765625 155.074219 85.964844 M 155.074219 91.238281 L 155.074219 90.90625 C 155.296875 91.109375 155.15625 90.902344 155.296875 91.238281 Z M 172.914062 84.957031 C 171.785156 82.371094 176.175781 75.339844 175.71875 72.726562 C 173.691406 70.777344 170.460938 72.429688 168.203125 73.066406 C 168.164062 73.214844 168.125 73.363281 168.089844 73.511719 C 168.617188 74.246094 169.332031 74.816406 170.445312 74.972656 C 170.625 75.535156 170.621094 76.570312 170.332031 76.992188 C 170.175781 77.203125 170.324219 77.058594 170.109375 77.214844 C 169.519531 77.492188 168.191406 77.527344 167.527344 77.328125 C 167.089844 74.59375 166.863281 75.640625 165.84375 73.738281 C 166.367188 72.839844 166.890625 71.941406 167.414062 71.042969 C 167.378906 70.707031 167.339844 70.371094 167.304688 70.03125 C 166.449219 69.382812 166.007812 68.871094 164.386719 68.910156 C 164.199219 68.984375 164.011719 69.0625 163.824219 69.136719 C 163.414062 69.882812 163 70.632812 162.589844 71.382812 C 161.46875 71.304688 160.347656 71.230469 159.226562 71.15625 C 159.113281 71.304688 159 71.457031 158.886719 71.601562 C 159.464844 72.78125 160.601562 73.417969 160.796875 74.859375 C 160.433594 75.597656 160.171875 76.703125 159.339844 76.992188 C 158.9375 75.195312 159.007812 73.578125 158.328125 72.167969 C 157.105469 71.679688 156.53125 71.34375 155.074219 71.714844 C 154.996094 71.863281 154.921875 72.015625 154.847656 72.167969 C 154.230469 73.792969 155.695312 75.582031 155.074219 77.214844 C 154.738281 77.457031 155.046875 77.34375 154.625 77.214844 C 154.660156 77.441406 154.699219 77.664062 154.734375 77.890625 C 154.660156 77.964844 154.585938 78.039062 154.511719 78.113281 C 154.585938 76.414062 154.242188 75.308594 152.941406 74.972656 C 152.71875 73.757812 151.144531 74.035156 150.023438 74.296875 C 149.441406 74.605469 148.710938 75.339844 148.449219 75.980469 C 148.414062 76.054688 148.375 76.128906 148.339844 76.207031 C 148.171875 77.734375 149.492188 79.8125 149.910156 81.140625 C 150.136719 83.089844 150.359375 85.03125 150.585938 86.976562 C 150.8125 87.71875 151.371094 88.042969 151.816406 88.550781 C 153.175781 88.339844 154.132812 87.160156 154.960938 86.53125 C 155.339844 87.152344 155.378906 88.601562 155.410156 89.558594 C 153.835938 90.417969 152.265625 91.277344 150.695312 92.140625 C 149.734375 91.449219 148.785156 90.613281 147.554688 90.230469 C 145.738281 91.582031 145.84375 96.203125 146.542969 98.421875 C 147.550781 99.097656 150.007812 99.371094 150.695312 97.863281 C 150.660156 97.1875 150.621094 96.511719 150.585938 95.84375 C 154.296875 91.96875 165.28125 87.160156 172.464844 87.316406 C 173.101562 88.8125 171.539062 89.917969 171.453125 91.578125 C 171.992188 91.707031 172.175781 91.785156 172.464844 92.140625 C 174.664062 91.945312 178.382812 89.824219 178.75 87.425781 C 177.402344 85.796875 175.421875 85.464844 172.914062 84.957031 M 8.640625 49.613281 C 8.71875 49.238281 8.246094 47.789062 7.964844 47.140625 L 7.964844 46.917969 L 6.957031 46.917969 C 4.640625 48.304688 3.722656 46.144531 2.355469 49.160156 C 3.226562 50.648438 7.828125 51.957031 8.640625 49.613281 M 45.894531 25.933594 C 46.304688 25.636719 46.714844 25.335938 47.125 25.039062 C 47.351562 25.113281 47.574219 25.1875 47.800781 25.261719 C 47.761719 25.933594 47.726562 26.609375 47.6875 27.28125 L 47.6875 27.507812 C 47.164062 27.433594 46.640625 27.355469 46.117188 27.28125 C 45.9375 26.839844 45.660156 26.496094 45.894531 25.933594 M 47.460938 33.902344 C 47.089844 34.050781 46.714844 34.203125 46.34375 34.351562 C 46.128906 33.625 46.234375 32.492188 46.453125 31.882812 C 46.714844 31.582031 46.980469 31.285156 47.238281 30.984375 L 47.6875 30.984375 C 48.054688 31.777344 47.707031 33.085938 47.460938 33.902344 M 43.199219 39.066406 C 46.476562 40.011719 50.902344 36.601562 52.289062 34.800781 C 52.8125 33.003906 53.335938 31.210938 53.859375 29.414062 C 54.078125 28.167969 53.21875 26.832031 53.523438 25.261719 C 53.972656 22.957031 55.03125 18.78125 54.085938 16.84375 C 53.300781 15.40625 51.136719 14.632812 48.8125 14.714844 C 46.128906 16.058594 43.648438 16.179688 41.851562 18.304688 C 42.046875 18.558594 41.769531 18.703125 42.300781 18.640625 C 44.253906 18.414062 45.324219 17.507812 47.238281 18.195312 C 47.492188 19.324219 47.941406 20.964844 47.574219 22.230469 C 46.5625 24.972656 42.980469 23.320312 40.507812 23.691406 C 38.59375 27.023438 40.433594 38.3125 43.199219 39.066406 M 130.273438 35.359375 C 130.78125 34.277344 132.042969 34.519531 132.855469 34.015625 C 133.304688 34.121094 133.421875 33.878906 133.640625 33.453125 C 134.726562 34.183594 134.492188 35.847656 134.199219 36.933594 C 132.886719 37.109375 131.828125 37.140625 130.5 37.605469 C 130.03125 37.171875 129.890625 35.984375 130.273438 35.359375 M 132.855469 42.316406 C 132.03125 42.46875 131.210938 42.613281 130.386719 42.765625 C 129.929688 41.621094 130 40.488281 130.5 39.511719 C 131.566406 39.191406 132.472656 39.246094 133.304688 38.613281 C 133.453125 38.652344 133.601562 38.691406 133.75 38.726562 C 134.792969 39.457031 133.371094 41.667969 132.855469 42.316406 M 123.429688 42.878906 C 123.464844 42.765625 123.503906 42.65625 123.542969 42.542969 C 124.789062 42.324219 125.6875 42.089844 126.347656 41.308594 C 126.609375 41.34375 126.871094 41.382812 127.132812 41.421875 C 127.207031 42.242188 127.28125 43.066406 127.355469 43.886719 C 125.285156 45.246094 124.113281 45.449219 123.429688 42.878906 M 122.082031 37.941406 C 122.613281 37.324219 124.867188 36.820312 125.785156 36.707031 C 125.898438 36.519531 126.011719 36.335938 126.121094 36.148438 C 126.273438 36.183594 126.421875 36.21875 126.570312 36.257812 C 126.71875 37.15625 126.871094 38.054688 127.019531 38.949219 C 126.523438 39.695312 124.140625 41.210938 123.316406 41.082031 C 122.460938 40.554688 122.351562 39.0625 122.082031 37.941406 M 121.632812 36.257812 L 121.519531 36.257812 C 121.804688 33.515625 125.023438 31.964844 125.898438 29.414062 C 126.085938 29.449219 126.273438 29.488281 126.460938 29.527344 L 126.460938 33.003906 C 125.652344 34.421875 123.085938 35.457031 121.632812 36.257812 M 125.675781 23.128906 C 125.785156 23.28125 125.898438 23.429688 126.011719 23.582031 C 125.972656 23.765625 125.933594 23.953125 125.898438 24.140625 C 125.71875 24.4375 125.863281 24.296875 125.5625 24.476562 C 125.339844 24.65625 125.40625 24.628906 125 24.699219 C 124.964844 24.550781 124.925781 24.402344 124.886719 24.25 C 125.148438 23.878906 125.414062 23.503906 125.675781 23.128906 M 119.167969 36.933594 C 119.203125 36.855469 119.238281 36.78125 119.277344 36.707031 L 119.5 36.707031 C 119.300781 36.933594 119.503906 36.789062 119.167969 36.933594 M 141.832031 29.191406 C 141.90625 28.929688 141.984375 28.664062 142.054688 28.402344 C 139.730469 25.660156 135.113281 26.164062 130.386719 25.933594 C 130.207031 25.679688 130.179688 25.742188 130.050781 25.371094 C 131.582031 23.410156 136.316406 24.066406 138.464844 24.699219 C 138.613281 24.664062 138.765625 24.625 138.914062 24.589844 C 139.347656 23.890625 139.429688 23.5 139.363281 22.457031 C 137.503906 19.925781 133.507812 21.699219 131.171875 22.570312 C 131.019531 22.53125 130.875 22.492188 130.722656 22.457031 C 130.972656 21.574219 133.972656 18.820312 134.761719 17.96875 C 134.726562 17.78125 134.6875 17.59375 134.648438 17.410156 C 133.238281 14.140625 130.9375 18.835938 130.273438 19.875 L 129.824219 19.875 C 129.554688 18.742188 129 18.242188 128.703125 17.183594 C 129.285156 16.421875 130.296875 15.957031 131.0625 15.386719 C 130.953125 13.605469 129.664062 12.375 127.804688 12.359375 C 126.386719 13.855469 124.964844 15.351562 123.542969 16.84375 C 123.578125 17.484375 123.617188 18.117188 123.65625 18.753906 C 124.410156 19.191406 125.277344 19.421875 125.675781 19.988281 C 124.804688 21.757812 121.40625 23.265625 119.054688 23.464844 C 119.015625 23.582031 118.976562 23.691406 118.941406 23.804688 C 119.523438 24.859375 120.121094 25.714844 121.410156 26.046875 C 121.484375 26.234375 121.558594 26.421875 121.632812 26.609375 C 119.902344 29.03125 115.921875 29.441406 114.003906 31.65625 C 113.726562 32.058594 113.691406 32.277344 114.117188 32.554688 C 114.335938 33.109375 114.792969 33.078125 115.351562 33.230469 C 117.933594 31.890625 119.679688 29.761719 122.308594 28.515625 L 122.417969 28.515625 C 122.199219 30.460938 117.652344 36.53125 116.25 37.605469 C 116.210938 37.71875 116.175781 37.832031 116.132812 37.941406 C 117.03125 37.71875 117.929688 37.492188 118.828125 37.269531 C 119.167969 37.492188 119.5 37.71875 119.839844 37.941406 C 120.601562 41.410156 119.859375 45.347656 121.859375 47.929688 C 122.660156 47.828125 123.933594 48.011719 124.777344 47.816406 C 125.488281 47.40625 126.195312 46.996094 126.90625 46.582031 C 128.890625 45.546875 133.816406 44.8125 135.4375 45.121094 C 136.035156 44.335938 136.632812 43.550781 137.230469 42.765625 C 137.53125 41.71875 137.832031 40.671875 138.128906 39.625 C 139.402344 36.917969 142.511719 34.085938 138.355469 31.769531 C 137.535156 31.3125 136.222656 30.460938 134.761719 30.761719 C 133.632812 30.992188 131.546875 31.316406 130.5 31.546875 C 129.953125 30.585938 129.9375 28.695312 129.9375 27.394531 C 130.011719 27.320312 130.085938 27.246094 130.160156 27.171875 C 134.398438 27.570312 136.964844 31.460938 141.832031 29.191406 M 60.480469 27.394531 C 61.414062 27.15625 63.222656 27.460938 63.960938 27.058594 C 64.671875 27.105469 65.148438 27.15625 65.753906 27.394531 C 66.152344 28.214844 66.03125 29.6875 65.867188 30.535156 C 65.078125 30.929688 63.964844 31.710938 63.285156 31.882812 C 62.390625 32.109375 61.617188 31.539062 60.480469 31.65625 C 60.402344 31.546875 60.332031 31.433594 60.257812 31.320312 C 59.71875 30.234375 60.109375 28.429688 60.480469 27.394531 M 61.039062 15.722656 C 61.832031 15.1875 63.113281 15.5625 64.183594 14.9375 C 64.480469 15.011719 64.78125 15.089844 65.082031 15.164062 C 65.574219 17.679688 65.554688 20.617188 65.304688 23.019531 C 64.105469 23.652344 62.453125 24.148438 61.039062 24.140625 C 59.714844 22.058594 60.859375 17.945312 61.039062 15.722656 M 54.757812 40.1875 C 54.207031 41.617188 53.234375 43.324219 52.738281 44.671875 C 52.15625 46.253906 50.375 48.957031 51.167969 50.398438 C 51.324219 50.609375 51.175781 50.464844 51.390625 50.621094 L 53.523438 50.621094 C 55.90625 47.902344 58.242188 43.011719 59.246094 39.175781 C 59.621094 37.742188 59.226562 36.421875 59.804688 35.136719 L 59.804688 34.910156 C 61.960938 35.257812 63.679688 35.550781 65.867188 35.359375 C 66.359375 37.472656 66.589844 45.960938 66.089844 47.816406 C 64.652344 48.132812 60.769531 47.027344 60.257812 47.816406 C 60.171875 48.183594 60.453125 48.75 60.703125 49.160156 C 61.292969 50.167969 66.871094 52.246094 68.785156 51.855469 C 69.457031 51.554688 70.128906 51.257812 70.804688 50.960938 C 72.316406 48.65625 70.816406 45.757812 71.363281 43.101562 C 71.832031 40.839844 71.230469 38.257812 71.476562 35.699219 C 71.792969 32.441406 71.738281 27.449219 71.25 23.242188 C 70.914062 20.335938 72.839844 16.875 71.8125 14.265625 C 71.101562 12.457031 69.167969 11.109375 66.761719 11.011719 C 64.59375 11.460938 62.425781 11.910156 60.257812 12.359375 C 59.320312 13.03125 58.382812 13.703125 57.453125 14.378906 C 55.90625 14.839844 55.648438 14.378906 54.980469 15.609375 C 54.558594 16.914062 56.21875 20.347656 56.554688 21.675781 L 56.554688 27.058594 C 55.898438 31.109375 56.160156 36.554688 54.757812 40.1875 M 19.863281 27.058594 C 18.625 27.507812 17.390625 27.957031 16.15625 28.402344 L 15.371094 28.402344 L 15.371094 27.957031 C 16.527344 27.449219 17.65625 26.777344 18.066406 25.488281 C 18.515625 25.371094 18.960938 25.261719 19.410156 25.148438 L 19.863281 25.148438 C 19.972656 25.488281 20.085938 25.824219 20.199219 26.160156 C 20.085938 26.460938 19.972656 26.757812 19.863281 27.058594 M 19.75 37.71875 C 19.335938 38.378906 17.777344 38.871094 16.832031 38.949219 C 16.792969 38.914062 16.753906 38.875 16.71875 38.839844 C 16.472656 37.804688 16.496094 37.289062 16.605469 36.148438 C 17.578125 35.882812 18.550781 35.625 19.523438 35.359375 C 19.9375 35.90625 20.136719 36.996094 19.75 37.71875 M 15.933594 31.65625 C 16.902344 31.074219 17.921875 31.066406 19.074219 30.535156 C 19.300781 30.574219 19.523438 30.613281 19.75 30.648438 C 19.785156 30.871094 19.824219 31.097656 19.863281 31.320312 C 19.40625 31.921875 17.089844 32.941406 16.269531 32.667969 C 15.894531 32.417969 15.914062 32.296875 15.933594 31.65625 M 27.375 14.152344 C 27.714844 14.265625 28.050781 14.378906 28.386719 14.488281 C 28.4375 15.3125 27.710938 15.507812 26.59375 15.5 C 26.554688 15.464844 26.515625 15.425781 26.480469 15.386719 C 26.660156 14.667969 26.96875 14.589844 27.375 14.152344 M 34.785156 38.726562 C 33.960938 38.054688 33.136719 37.378906 32.316406 36.707031 C 30.335938 35.519531 26.582031 36.339844 24.238281 36.59375 C 24.164062 36.558594 24.085938 36.519531 24.011719 36.484375 C 23.792969 35.746094 23.640625 34.222656 23.898438 33.339844 C 26.273438 33.285156 27.898438 32.609375 28.835938 30.648438 C 28.074219 29.507812 25.730469 29.863281 24.460938 30.3125 L 23.789062 30.3125 L 23.789062 28.964844 C 24.574219 28.742188 25.359375 28.515625 26.144531 28.292969 C 26.667969 27.730469 27.191406 27.171875 27.714844 26.609375 C 27.675781 26.347656 27.640625 26.085938 27.605469 25.824219 C 26.652344 25.566406 24.820312 25.800781 24.011719 25.597656 C 23.667969 25.375 23.695312 25.226562 23.5625 24.816406 L 23.5625 24.027344 C 25.472656 23.792969 28.164062 24.535156 29.285156 22.796875 C 29.324219 22.570312 29.359375 22.34375 29.398438 22.121094 C 27.46875 20.261719 23.394531 22.128906 21.207031 23.128906 C 20.996094 22.972656 21.019531 23.023438 20.871094 22.796875 C 20.578125 22.121094 20.917969 20.742188 21.207031 20.210938 L 21.207031 19.988281 C 21.46875 20.0625 21.730469 20.136719 21.992188 20.210938 C 22.871094 19.222656 24.289062 18.125 24.683594 16.734375 L 25.019531 16.734375 C 25.742188 16.636719 25.914062 18.015625 26.480469 18.417969 C 27.855469 19.394531 32.222656 18.464844 32.539062 16.960938 C 32.742188 16.28125 32.054688 15.523438 31.304688 15.386719 C 31.269531 15.199219 31.230469 15.011719 31.191406 14.824219 C 31.230469 14.753906 31.269531 14.679688 31.304688 14.601562 C 32.953125 14.246094 33.722656 13.734375 34.785156 12.917969 L 34.785156 12.46875 C 34.148438 12.019531 33.511719 11.574219 32.875 11.121094 C 31.753906 11.050781 30.632812 10.972656 29.507812 10.898438 C 28 10.285156 27.734375 9.175781 25.246094 9.214844 C 24.871094 9.476562 24.5 9.738281 24.125 10.003906 C 23.398438 13.589844 21.644531 15.59375 20.53125 18.417969 C 20.074219 18.765625 20.042969 18.957031 19.183594 18.976562 C 18.582031 18.171875 16.738281 15.964844 16.71875 14.9375 C 18.441406 14.359375 20.183594 13.992188 21.652344 13.480469 C 21.894531 13.097656 21.996094 12.953125 21.992188 12.246094 C 21.171875 11.417969 19.761719 10.566406 17.839844 10.898438 C 17.242188 11.050781 16.644531 11.199219 16.046875 11.347656 C 12.996094 10.613281 13.390625 8.289062 9.3125 10.785156 C 9.136719 16.335938 6.976562 20.925781 4.261719 24.589844 C 4.414062 25.039062 4.5625 25.488281 4.710938 25.933594 C 5.949219 26.625 7.277344 25.328125 8.527344 25.933594 C 9.960938 25.339844 11.902344 22.253906 12.339844 20.773438 C 13.632812 21.1875 14.382812 23.269531 15.035156 24.699219 C 14.929688 25.484375 11.699219 26.613281 11.109375 27.058594 C 11.398438 28.132812 12.296875 27.9375 12.902344 28.628906 C 12.867188 29.601562 12.828125 30.574219 12.789062 31.546875 C 13.054688 34.574219 13.316406 37.605469 13.574219 40.632812 C 13.558594 41.382812 12.769531 41.898438 13.128906 42.878906 C 13.203125 42.988281 13.277344 43.101562 13.351562 43.214844 C 15.207031 43.503906 19.507812 40.726562 21.320312 39.964844 C 22.398438 39.507812 27.121094 38.382812 28.050781 38.613281 C 28.910156 39.023438 29.773438 39.4375 30.632812 39.851562 C 30.847656 41.207031 29.914062 42.75 29.507812 44 C 28.949219 43.589844 28.386719 43.179688 27.828125 42.765625 C 25.558594 41.976562 24.328125 42.765625 22.664062 43.214844 L 22.664062 43.664062 C 24.101562 44.640625 25.453125 46.234375 27.605469 46.355469 C 27.675781 46.546875 27.75 46.730469 27.828125 46.917969 C 27.792969 47.03125 27.75 47.140625 27.714844 47.253906 C 27.058594 47.453125 21.589844 48.320312 21.09375 47.480469 L 21.09375 47.253906 C 21.09375 47.238281 21.703125 44.035156 21.769531 43.777344 C 19.742188 43.71875 17.472656 44.652344 15.820312 45.121094 C 14.394531 45.527344 13.007812 45.28125 11.554688 45.460938 C 11.035156 45.796875 10.507812 46.132812 9.984375 46.472656 C 10.5625 47.953125 13.226562 48.425781 14.699219 48.710938 C 15.621094 47.808594 15.480469 47.386719 15.371094 45.796875 C 15.597656 45.71875 15.820312 45.648438 16.046875 45.570312 C 17.207031 46.316406 18.882812 46.625 20.085938 47.480469 C 20.921875 48.074219 20.964844 49.304688 21.652344 50.0625 C 22.304688 50.769531 25.492188 52.300781 26.59375 52.527344 C 32.015625 53.65625 34.484375 47.796875 35.90625 44.671875 C 36.375 43.644531 37.929688 42.199219 37.25 40.410156 C 36.820312 39.210938 35.839844 39.292969 34.785156 38.726562 M 95.714844 31.65625 C 95.675781 31.582031 95.636719 31.507812 95.601562 31.433594 C 96.398438 30.554688 98.199219 30.039062 98.183594 28.742188 C 97.230469 28.285156 96.625 27.835938 95.265625 27.957031 C 95.253906 27.621094 97.539062 25.90625 98.183594 25.824219 C 98.332031 25.449219 98.480469 25.078125 98.628906 24.699219 C 96.382812 21.976562 93.382812 25.1875 91.449219 26.046875 L 91.335938 26.046875 C 90.960938 25.351562 90.710938 24.136719 90.890625 23.242188 C 91.867188 22.640625 92.210938 23.011719 93.355469 22.679688 C 94.078125 22.472656 95.125 21.601562 95.9375 21.335938 C 97.027344 20.980469 97.882812 21.300781 98.628906 20.773438 C 98.855469 20.8125 99.082031 20.847656 99.304688 20.882812 C 99.996094 22.304688 99.28125 30.117188 98.519531 31.546875 C 98.480469 31.65625 98.445312 31.769531 98.40625 31.882812 C 97.507812 31.808594 96.613281 31.730469 95.714844 31.65625 M 98.742188 42.542969 C 98.628906 42.429688 98.519531 42.316406 98.40625 42.207031 C 99.484375 39.449219 101.328125 38.582031 104.128906 37.941406 C 105.851562 37.546875 106.414062 38.359375 108.054688 37.832031 C 108.128906 37.417969 108.207031 37.003906 108.28125 36.59375 C 107.03125 35.300781 105.667969 35.054688 103.457031 35.25 C 103.175781 33.855469 103.59375 31.945312 103.902344 30.648438 C 103.941406 29.191406 103.980469 27.730469 104.015625 26.273438 C 104.40625 24.484375 104.851562 22.679688 105.136719 20.324219 C 102.523438 17.511719 99.910156 17.398438 95.828125 19.089844 C 95.433594 18.5 95.910156 17.953125 96.164062 17.410156 C 97.722656 14.046875 100.207031 14.464844 103.566406 14.152344 C 103.867188 13.667969 104.167969 13.183594 104.46875 12.695312 C 104.316406 12.207031 104.167969 11.722656 104.015625 11.234375 C 102.054688 10.183594 99.960938 11.730469 98.183594 11.234375 C 98.070312 11.160156 97.957031 11.085938 97.84375 11.011719 C 97.949219 9.972656 98.5 9.585938 98.628906 8.769531 C 98.832031 7.488281 98.375 6.941406 98.296875 5.625 C 97.382812 4.914062 96.304688 3.902344 94.816406 3.832031 C 93.367188 5.964844 93.230469 10.480469 92.460938 13.03125 C 90.839844 13.953125 88.441406 13.953125 86.734375 14.9375 C 86.625 15.011719 86.511719 15.089844 86.398438 15.164062 C 86.515625 17.476562 87.84375 19.121094 90.328125 19.203125 C 90.609375 19.800781 90.484375 20.460938 90.4375 21.335938 C 90.328125 21.519531 90.214844 21.710938 90.101562 21.894531 C 89.382812 22.191406 88.121094 21.5625 87.75 22.121094 C 87.671875 23.765625 87.597656 25.410156 87.523438 27.058594 C 87.136719 30.433594 87.804688 34.578125 88.417969 37.832031 C 88.980469 38.015625 89.542969 38.203125 90.101562 38.390625 C 90.703125 38.054688 91.300781 37.71875 91.898438 37.378906 C 92.835938 34.46875 90.746094 30.097656 91.5625 27.84375 L 91.5625 27.621094 C 92.3125 27.730469 93.058594 27.84375 93.804688 27.957031 C 94.105469 28.140625 93.964844 27.988281 94.144531 28.292969 C 93.507812 28.777344 92.871094 29.265625 92.234375 29.75 C 92.382812 30.925781 92.90625 31.273438 93.582031 31.882812 C 93.546875 32.03125 93.507812 32.179688 93.46875 32.332031 C 93.238281 32.6875 92.800781 32.789062 92.347656 32.894531 C 92.460938 33.304688 92.570312 33.714844 92.683594 34.128906 C 93.097656 34.425781 93.507812 34.722656 93.917969 35.023438 C 95.78125 34.941406 96.417969 34.011719 98.183594 33.789062 C 98.21875 33.828125 98.253906 33.863281 98.296875 33.902344 C 98.421875 34.769531 98.203125 36.0625 97.957031 36.820312 C 97.15625 37.300781 85.515625 40.695312 85.164062 40.632812 C 84.28125 38.96875 84.78125 36.761719 84.496094 34.6875 C 84.25 32.9375 83.175781 25.957031 84.15625 23.464844 C 84.523438 22.535156 85.820312 22.070312 86.625 21.558594 C 86.699219 21.222656 86.773438 20.882812 86.851562 20.550781 C 86.148438 19.738281 85.152344 19.140625 84.042969 18.753906 C 82.859375 13.070312 86.753906 12.921875 80.453125 10.003906 C 80.191406 10.039062 79.929688 10.074219 79.667969 10.113281 C 78.867188 13.480469 80.324219 18.253906 79.78125 21.449219 C 79.742188 21.519531 79.707031 21.597656 79.667969 21.675781 C 78.269531 21.511719 76.277344 20.199219 74.621094 20.882812 C 74.457031 21.003906 73.3125 27.796875 73.386719 28.292969 C 73.546875 29.425781 74.078125 30.042969 74.621094 30.761719 C 76.839844 30.738281 79.011719 29.097656 79.558594 27.507812 C 79.632812 27.46875 79.707031 27.433594 79.78125 27.394531 C 80.746094 28.832031 79.867188 32.492188 80.003906 34.351562 C 80.304688 38.378906 79.246094 46.671875 81.128906 49.949219 C 81.761719 50.023438 82.398438 50.097656 83.035156 50.171875 C 83.707031 49.613281 84.378906 49.050781 85.054688 48.488281 C 85.03125 46.835938 84.742188 45.484375 85.054688 44.226562 C 85.128906 44.152344 85.203125 44.078125 85.277344 44 C 90.464844 44.953125 91.804688 40.726562 96.386719 40.1875 L 96.386719 40.296875 C 94.125 43.289062 87.859375 46.128906 90.550781 50.84375 C 93.117188 51.3125 96.570312 45 97.398438 42.988281 C 99.617188 43.277344 105.398438 55.777344 108.617188 48.824219 C 108.507812 45.019531 102.867188 41.496094 98.742188 42.542969 M 117.144531 16.625 C 118.210938 14.859375 120.984375 14.625 122.644531 13.703125 C 123.128906 13.253906 123.617188 12.808594 124.101562 12.359375 C 124.738281 12.171875 125.375 11.980469 126.011719 11.796875 C 126.976562 10.992188 128.496094 9.574219 129.9375 9.664062 C 131.410156 9.757812 133.066406 7.519531 134.988281 8.320312 C 135.136719 8.433594 135.285156 8.542969 135.4375 8.65625 C 135.148438 10.492188 133.351562 13.160156 132.070312 14.152344 L 132.070312 14.601562 C 132.179688 14.640625 132.292969 14.679688 132.40625 14.714844 C 135.347656 13.527344 140.628906 13.078125 142.28125 10.226562 C 143.242188 9.015625 141.96875 7.625 141.492188 7.082031 C 139.164062 4.417969 135.324219 5.929688 131.957031 6.410156 C 130.902344 4.011719 129.582031 2.398438 126.234375 2.371094 C 124.589844 3.269531 122.710938 2.992188 121.1875 4.054688 C 121.109375 4.277344 121.035156 4.503906 120.960938 4.726562 C 121.007812 6.988281 123.785156 8.015625 125.785156 8.320312 L 125.785156 8.65625 C 125.445312 9.078125 117.75 13.535156 117.144531 13.703125 C 115.875 14.0625 115.128906 12.726562 113.667969 13.253906 C 113.222656 13.558594 111.320312 22.871094 111.535156 23.917969 C 111.792969 24.511719 112.058594 25.113281 112.320312 25.710938 C 112.507812 25.785156 112.695312 25.859375 112.882812 25.933594 C 117.945312 25.644531 115.25 19.757812 117.144531 16.625 M 175.605469 7.757812 C 175.980469 7.792969 176.355469 7.832031 176.726562 7.871094 C 177.027344 7.570312 177.328125 7.273438 177.625 6.972656 C 178.757812 5.144531 176.707031 3.550781 176.390625 2.371094 C 175.949219 2.105469 175.679688 1.941406 174.933594 1.925781 C 174.601562 2.121094 173.769531 2.109375 173.476562 2.371094 C 172.140625 4.21875 174.324219 7.03125 175.605469 7.757812 M 169.324219 28.179688 C 169.171875 28.253906 169.023438 28.332031 168.875 28.402344 L 168.761719 28.402344 C 167.820312 26.804688 169.066406 25.199219 169.769531 24.25 C 169.679688 22.332031 168.570312 22.308594 168.539062 20.4375 C 169.136719 19.933594 170.730469 19.554688 171.117188 18.867188 C 171.191406 18.714844 171.269531 18.566406 171.34375 18.417969 C 170.402344 17.480469 170.332031 17.144531 168.648438 17.070312 C 168.613281 16.808594 168.574219 16.546875 168.539062 16.285156 C 169.25 15.914062 169.957031 15.539062 170.667969 15.164062 C 170.929688 15.199219 171.191406 15.238281 171.453125 15.273438 C 172.226562 18.367188 171.453125 26.554688 169.324219 28.179688 M 164.609375 19.089844 C 164.265625 19.648438 163.6875 19.851562 162.925781 19.988281 C 162.210938 19.460938 161.734375 19.566406 160.683594 19.425781 C 160.609375 19.316406 160.53125 19.203125 160.457031 19.089844 C 160.496094 19.015625 160.53125 18.941406 160.566406 18.867188 C 161.582031 18.277344 163.042969 18.390625 164.273438 17.855469 C 164.933594 18.058594 164.96875 18.542969 164.609375 19.089844 M 161.578125 24.816406 C 161.542969 24.699219 161.507812 24.589844 161.46875 24.476562 L 161.46875 23.691406 C 162.46875 23.613281 163.136719 23.625 163.9375 22.90625 L 164.386719 22.90625 C 164.421875 23.054688 164.460938 23.207031 164.496094 23.355469 C 163.996094 24.09375 162.527344 24.582031 161.578125 24.816406 M 180.09375 27.957031 C 178.5 26.949219 176.488281 27.003906 174.484375 26.832031 C 173.675781 22.523438 176.507812 17.335938 175.71875 12.917969 C 173.402344 11.515625 171.285156 12.726562 168.761719 13.253906 L 168.648438 13.253906 C 168.199219 12.5625 168.132812 12.039062 168.203125 11.011719 C 169.304688 10.527344 170.386719 10.269531 171.453125 9.777344 C 171.753906 8.8125 171.960938 6.886719 172.128906 6.074219 L 172.128906 5.964844 C 170.320312 5.535156 169.105469 6.640625 167.753906 6.859375 C 166.898438 3.4375 167.894531 1.3125 164.386719 0.242188 C 164.234375 0.3125 164.085938 0.386719 163.9375 0.460938 C 162.808594 2.394531 164.070312 5.824219 164.046875 7.980469 C 162.570312 9.003906 160.683594 9.699219 158.886719 10.453125 C 157.796875 12.394531 160.25 13.976562 161.246094 14.488281 C 162.898438 14.375 163.292969 13.242188 164.273438 12.46875 C 164.859375 13.164062 165.09375 13.980469 164.832031 14.9375 C 163.117188 15.875 161.390625 16.808594 159.671875 17.742188 C 159.226562 17.558594 158.773438 17.367188 158.328125 17.183594 C 156.859375 19.785156 158.625 26.785156 159.226562 29.527344 C 159.261719 29.601562 159.300781 29.675781 159.339844 29.75 C 160.625 29.722656 161.261719 29.160156 161.804688 28.402344 C 161.765625 27.542969 161.730469 26.683594 161.695312 25.824219 L 161.695312 25.597656 C 162.191406 25.84375 162.101562 26.214844 162.476562 26.496094 C 164.332031 27.878906 165.605469 26.789062 164.496094 30.199219 C 163.058594 31.082031 157.1875 33.542969 155.410156 33.675781 C 155.335938 33.640625 155.257812 33.601562 155.183594 33.566406 C 154.707031 31.269531 153.960938 24.574219 154.847656 22.007812 C 155.410156 21.371094 155.96875 20.734375 156.53125 20.101562 C 156.136719 19.222656 155.867188 18.480469 156.195312 17.410156 C 155.703125 16.863281 155.027344 16.589844 154.285156 16.285156 C 153.601562 13.761719 155.078125 11.703125 152.265625 10.785156 C 151.140625 10.421875 150.566406 10.507812 149.6875 11.011719 C 149.910156 13.554688 150.136719 16.097656 150.359375 18.640625 C 149.050781 20.253906 147.394531 21.152344 145.535156 22.230469 C 144.9375 22.65625 145.328125 23.472656 145.421875 24.25 C 146.222656 25.226562 146.792969 25.890625 148.003906 26.496094 C 149.246094 26.417969 149.40625 25.828125 150.246094 25.371094 C 151.140625 26 150.863281 27.746094 151.03125 29.078125 C 151.292969 33.003906 151.558594 36.933594 151.816406 40.859375 C 152.054688 41.410156 152.425781 41.714844 153.050781 41.871094 C 153.746094 41.988281 154.570312 41.03125 155.410156 40.746094 C 155.617188 39.75 155.367188 38.78125 155.296875 37.605469 C 155.574219 37.34375 155.507812 37.296875 155.96875 37.15625 C 156.886719 38.320312 158.90625 37.023438 159.671875 36.59375 C 161.386719 35.640625 167.25 31.097656 169.097656 32.332031 C 169.964844 32.910156 170.054688 41.433594 170.332031 42.988281 C 169.132812 43.527344 167.371094 42.828125 166.40625 43.214844 C 166.441406 42.128906 166.480469 41.046875 166.519531 39.964844 C 165.285156 38.800781 161.804688 37.492188 159.898438 38.949219 C 159.207031 39.433594 159.5 40.101562 158.4375 40.296875 C 159.054688 42.234375 161.648438 41.785156 162.816406 42.878906 C 163.15625 43.199219 163.09375 43.816406 163.488281 44.113281 C 165.894531 45.914062 169.847656 47.816406 173.363281 46.695312 C 175.179688 43.851562 174.203125 38.359375 173.921875 34.238281 C 173.863281 33.347656 173.570312 32.507812 173.921875 31.65625 C 175.136719 29.90625 178.175781 31.851562 179.648438 31.320312 C 179.757812 31.285156 179.871094 31.246094 179.984375 31.210938 C 180.226562 30.207031 179.992188 29.019531 180.09375 27.957031 "/>
</g>
</g>
</svg>
